<mxfile host="65bd71144e">
    <diagram id="ccoIgwuF1OP-0bC2vlFy" name="Page-1">
        <mxGraphModel dx="653" dy="486" grid="1" gridSize="10" guides="1" tooltips="1" connect="1" arrows="1" fold="1" page="1" pageScale="1" pageWidth="827" pageHeight="1169" math="0" shadow="0">
            <root>
                <mxCell id="0"/>
                <mxCell id="1" parent="0"/>
                <mxCell id="5" value="" style="shape=image;verticalLabelPosition=bottom;labelBackgroundColor=default;verticalAlign=top;aspect=fixed;imageAspect=0;image=data:image/png,iVBORw0KGgoAAAANSUhEUgAAAggAAAEtCAYAAABtdZh7AAAAAXNSR0IArs4c6QAAIABJREFUeF7svQm8rVdVJ7jOcMc3JXnvJXlJIAlTQkBJmGyZS7SrW2b9tVqNQ4lAtdNPq/1ZWNWt1ZalZXU1Tr8qEAVkEIpJFLUFtBBE6CJMhiAQBjEMYcjw5vvucKb+rXGv/Z3vnG843znnJtlXw7v3nG/vvfbaa6/1X8PeX+ul7x6NAH/4f2v9zNB08nglOi3xSK35jDXKDLSwcTOE4Lj4X2tJBAxzuLkIWvLGbWZhUy+JA8vnQAv39ALIGE0YpL2AsScNgTQtc/wxlixiIYQZpYcq/WD5hSzbZcsAwrS+ZzBIMzTNp6hkhyUfK8/RvCeXCBx0aFxo+n0hEw5M8MNlh54naJg27myLmVonDsyfA14xl1XSdajKAwOLGjtXVbZiEDTPueeNv++BwJwYUrtbaVgOIGQ5PoMxmqHp+LqX7KzkY3X2Yb7FlE8XMm6GavW252mkJ3oDE3DKMmiZbTFT66oc0OhW1Xb3h+eXGSFYpne+zOhArmGsbS2rSWmpYUo9VG1cfLp2txMatn5DUgwzGbOajWs2m8y1kh2WfKz66vgWS4wuKBlGwkImHLNLh/RDJ6Awm0il1okDY76aU+z6a20j0QR7M5GCJros28eyQEFpfpd+sOyMmwcE2ZENIEwjaSb7UrNxzWb50yjZWcnHyq9e3pNLAg44rMonRhkWaaynpgVGMwj5bCuRWicO3Gs4sJ9SBrSfXe2A1y2LYOiy0gWl7Huph6pxqXaXtRsyfRT50ghCWZJnNqI1O6jZrDZgaHS8kuhrYWM6emjMJQw8KSS9SOBSVubTc4kDy+DAJFAwo96vNRWlZRkpi30NCNSS1uJqfqOZ1rdm40nNKgOE7JRmsi0zNJ6h6fiqlOisxCOzi4gbZCHjZSheJlhQUnTeCSjMLk6ph3sfBzwoWGZRobmQs+S1Z2D/MkBBadta+sFyDJipu5qNyzZr/cZfyjFHP5cGrVPtrmo2rNlsf0calpSWiIx2o4wtt3GWdayyHHXpqcSB2TiQFyFYhoeuYKCs0Zht1nHrfQsEGmbGTN3VbFyzWbRA+QCh0TBB3FltO1OzYc1m+xcw3A/BQkpHNKmSU1/L5EAWFFCedwkEIR3LGjua7wImX3qI0g8WL1jtrmo3ZJpmbB4mJh21fjMvgiCPlTKupR4qZig+UburGg1rNJk8iRKdlXikHJMmPbUE4IBDqkAuqvAxj49z5+1sK5NaJw6MKe/GFHkBbz0QsPTdAtbj/hAZqL2GtRs2CABKoompAKFWIKFBbV27qxoNazSpDRgaHasEYFjIeI6ORYGFBei5NETiQCkOTLvtc9Fpg2XcP5Br82YwhGWYXqr7Ug+VGW0G4zwDDTM0HZ9Uic6yj1QCCMsEDLWNXM2GNZuNL0qJjko8Uk6CS4CFmSI1Naiguc19gjUIS00SB+5LHFjC/QMpSjBBgEoY4kmiN0PTRgBBtpOZAMK0/VXKJpR6qHgX1+6mRsMaTfZvpGHBaQlNSeC/9HujzCyWk/RE4sC9nQM+OuBTfPOc16KBQCkjWeqhclyp3VWNhjWaTJ5Eyc5KPpY7Tus3/ypzimFOSrt0t6UfrG13G23YALmBnoLOGh0rjwtugLmPJeMnsFBOiaWn7r8c2Bcpg1msTMHSleq61EPlZKR2VzUb1mw2l4hAOQ6Fp1q/lQEIY4ZhjpaiVNelHpo+7dpd1GhYo0k+8fsILCCBjc2rQEJTSqLqFk7P3yc5sOCUwX05SlDbQNdsWLPZvgAEEREog1mAULTZFgUgShmkUg/tD/DQAKn7I9Kw4LSETjoVPhbtzPT9vZEDi44OLBIIlDKUpR4qXtna3dRsWLNZPJGSnZR8rJhJ2SdyOh4rUqwKEOIxRjDKnrxs1BKWtomNubi1ya/YsOLjM6GcRsfylCSwUH1Tphb3bw60WFUt8mRDpPTnZm14WQu7L3ygnHjU7qZGwxpN8idRoqMSj5RjUN5Tmc5bXAk2tb/KEYQi6lKEQThU0SpXfHzyMiwrNbEksFAkj01/39g6NU1Y0/3dbybaNONy+hMdPFfl74bdV1GChiZdq5tajYpMZgV5KTF+iUcqDJh5dAwQVO+q9dv/jYsUcy5crt5biRb7BkA0pAArd1O5QWPBkcKOapBWYsXjAoa5jVGOkvRU4sB9hgOLigyUMmKlHipmfeVuKjcoGekoJrV0RzVJLKagAQBQNIgBhLEHR4X2pKjvEt/ft1IUtYxfjUY1moyvxT6INDQyjxJSlh5JHLivcGDfgIKGrF6tbmo0qtFkXGRKdFLikfqi6Dqf6zg+GqURhMpULwRA5ICUOViVUl2WemgyF2s1r9io4uO1iW1sHE/B/SRFUXmfpQb3Ow4sKkVQaGQKHyi3NLW6qdGoRpPKIKCRMfLYltPx3MbyAAB/nzLQ5AhCubWPnsKLb6ZdOVqjy5wmmajDHKxVYZeFDxTPtFYXFRtVfDyf6GVEGhJYKBag9MR9igP3pchALcNWo1GNJvsWEJQpGJxV4IlfFZnW+h2pQcC2jRiUzCx8bQPS1vQYi6hpKKS58IHipa3cReUGDfF+yYChxrSLmZ+eSBxYMAfu91GCioaqhm3LX9GCcWuQVU5yFpAeyNrXOoAgO5nW77zHmfBFe24LSFPcFwBEZaNYsUHFx/dtpKHcTk1PJQ40y4Fp+2dfAIGGrF7lbio2qPh4LQDQGNAYs6TxB43MZYqYNmH8y+yCGCBkWmTvyseN0IgxmUbZ3EHDvT9FUXkNKjao+HhlwNBI/2WkOz2TOFCXA00J6ZwsRWG3hQ8UM6ZyF5UbVI54jxO9LyICKCw1Jl+8BPYE3puBl2rN8we7zw4xFSDkErPoEPPcAcP8CyELdU3hA9PFonLzig0qPp4Awzx3cer7fsmBQttQ+EAx2yp3UblBA2Z0GYAgM2aNaU9l/jxSAwUBjtLRl9Z/fs+IcgyNGAEcdjQuBPMuXJzvHQ7zPYpZyPfCB+7l4GHK/GacerFGTE8kDuwzDkw1Pg1YpspdVGxQ8fHShso/2MgYUzpsvP/MLBeRHsje1Fk3+tB6/s+/av56eMG1DTbcnGY2rdtv+6cvmEnlFJJc+EACDDMtQGqcOLBADtzvAcGSIwL3BTCQlxqoCwjGIg+P/PZnzWhyFribmhhqzimLF/7Kn8ZUNszdqd3NOFbl5hUaVHi0coqiCbFIfczGgZnXd7bh933reQKBykauYoOKj4+vxaJBwJxTAmPBh5kZNFl8c7tucLyxmoNstON+BxBy1qLJ+xtelAUIcO9NUVRW+hUaVHh0fMVmarzvbUki8L7OgRkVfOXmFRtUfHy5gGAMDMyvYHDeqYF5RgJwkcq8ICwbeWjlAYTLjl8C0GrB3l4Prrricvjkpz8XCcETHn8jHDlyOHcbf+azX4Dbv/y1e/0Wr1vXMA4QSti3Bg1eYVeFD0xeuspNKzSo8Oi9XrbmPoHEzLmzuNIAM1rcys0rNqj4eCVAMHPfYzHv8EHjfWfGavrkgKcXt2hTdQJIdh4vpvGnbAoiFyD88Pc9C77xza/Df//YZ+AFz/8eePdf/y3c9vnbjX0feNcb4N/9yq/Ci174Y/D7r3wVPPWpT4XP3vYZaHdXYQQdeN1b3tlc0WOlnbi4hycBiDIAoYjKSL83qOwLuyp8oCHwUGGcCo8WsTV9nziwbzlQ2dhVbFDx8ZhPUxrP1G/eaiwoPbCIaEA0vQYZVZQWKGv8S7AfWt/yhLgGod1qwxt+/9fhJf/ml2GrvwoXH1qH8+fOQA/W4OSp0/TWx7e++qVw1VUnqP+VlRUYDocwGAzo75e94g/g9W/7y4kAod1uw0VHDgH+e+HCDlzY3oZOuw2HDh2kIxCnz5yjftbXVmEwGEKv36+0qVutFhw5fJD6P3X6LOAZjbXVVdjcXIfT+PeU3rRtt9uF81sXYGdnl55ut1uwvrYG2zu70Ol04PChA9T/2bPnYa/Xsx6RN00AhCyJYzQ3ZDULuyl8IAGGSsKZHk4ccByoZDMqPTzjccKCsSqSMn3NXWfzvG646WiAn1Re6H4WI13U95h9qLkgZVIOYwDhOd/9dPilf/UT8G//3X+Ah19/PWYayIAfOXIQfu2lvwfrBw7D9z7jqbC+wmQ++clPhk996lNw8uRJ+vvOu0/Bm//0b+D4saNw6sw5Mqr+5ylPeCw84THXwWjUgk53DX79t14Jj3j4Q+Bp334jnDt3Dl77lnfC0WNH4Z//s2fD33zgI/CRWz5TSanc+C3Xw3c+6SbY3t6BP3jjO6CzugE//H3PgI31Lnz2H74Gf/bu903s72EPuQZe/IPPgbvuvgcuO3ECfu7f/DqMWh34p9/xRPi2R98Av/W7b4TH3fRIeNoTHkUA4pt3n4HXvukdMHLBogggzLEgcilRhgQYKsliejhxwHOgkh6v8HCFR/MXZEkRgpnpniBeTUcH5pUamFtaIIcvVXmtACcCCOh5/8SP/i/wvc99BvzgC34S7jm1BfecOQePvP6h8MTHXg+/+/o/h5XVFbjo8EH43mf/j/BD3/8cOHDgAGxtbRFJv/TvXwof/+Tn4eTps/C6l/0a/Jffew186O/i+oWrThyHs/d8Hc73OvAL//JF8Nu/8zL4uZ/5Cfi/f+eVsNcfwXAEcOnRi+D53/N0+OBHPg0fvuW20loGIwAv+sHnwns/cDP8w+13EAh52pMeD9/68Kvhd1/zdnjPn70Onv7d3w+7w25un1dcdhSGu2fgzjM9+PBfvw2e+PTnwjOe8d1wyYEWHDt2HH7vD/8MNte7cPbMaTi/M4D/+G9/Fn7hl38TBqOAxSpFEOYEILAs0nyIGYx6YSTDPzDDOJWaVnq4tOikBxMHFs+BClq7wqPj81hURGBB6QGcIDqu8/jxXjWpmobGKfLW60YckLwqJJYdR/uNAMK1V10OO9vn4M/e9lr4mZ//RXjwtdfC69/6/8J3PPUJcPHGEN72rpttTX7hZ38MBjtn4fTp0/TZDTfcAJ/81Gfh1W9+F/3dHvUAQ0Z9WB1bxysuvxR+6oXfB+9693vg/R/6BHzgL98Md3ztG+T1/6f//Br41G3/AD/2/OfCJz9121SAcGBzA57xXU+GtbVV8ujf8RfvgV/8+Z+Em77lYXD23Ba8/NX/FY4cPgLXPuAYvPy174CPvPet8JTvfC5sDyT8kSNhD7/uQfCSn/5RGPT34Nde+gr4589/Hrzy9W+D73/eM+BVb/gTOHXmPDzyumvhX//vL4KX/vbL4OOf+hIMHdcrAYTM+E2epphquxsyslO7qTlGpWaVHp6HOkl9Jg5U4EAVTV5R8UdULCoisKD0wCLAAPKvrPEsWvEio113nKJ+xxy6kvI2rd9MioFd2o++74/gCU9/LrzyZS+FF/7Ez8EP/+APwHv+6t3wj1/n+gD8+dVf/Fl4zLdeDz3JwR88eBBe/4Y3G0DACMPNH7sVvnrHNyK6b7juIfCUx98A7/zL98JXvnEahq0O/Mdf/Gn4pV/9DTh27FL4/u/5bviNl/8hvOD5zysECAcPbMIND7sGuh3GZzd/9BPwoh/5PnjP+z4Ae70+PPcZT4fPffGrcM1Vx0sBhMuPH4XBcAinTt4NH/rrt8MznvdD8MIf/WfQ7w/goQ++Bv7PX3kpXHrZCbji+GF4z/tvhgF0I3CANLzYHXOci/2aQ9RhHjUOSwcPRbs4fZ84sGQOlNTf41TexyIC8wAAYyyqzeyY/dlusn/XMf77NdWAcxmrQUB2fPS9byOA8LM/8QJ401veDt/2+MfA2//0L2HQXjNuveRnXgB7W6csgvCIRzwCPn3bFwwgvPnVL4WXv+JV8L6bPx1x+Kde9INw4fwp+ObJ83DX3afgwx+7FX79l34GPnDz38Hm5iYcXm/Du973Ufjpf/HD8JnbPgeve/Ofw0++8AcILLz3gx+fuqUxxfDiH3oe7PYHsLvXhyObHXjVG/8cfv2Xfx4+/w9fgt75u+Av3vth+LX/61/Di37qJdAfdaL+Hv/oR8L3PPM74P03fwJ+7sd/CJ7xvT8Cg/YGHNzcgB/5gWcSLc/5n58Ohw9vwudvvwM+//nb4fNf/FLUx4v/fXxRkn/h1TyunK57HLNIN86jxmEiaKiJpGo2K5p6+j5xYC4cmMlGLSIqsICIwDzAAC7WPFID80oLFPXrha8s4KjSZ5VIQy5A+Lv3/zH8l1f8AXnThw8dhmsfeAI++ekvwD9++avw4Y9/Cr7tcTfB9z3vf4KLDq7D7i4XIV5yySVw699/Gv74ne+Hj9/yaYARnz7w+Xn8+4FXXgZPevy3QrfbgbNnz8KfvOtv4UHXPBCe+PhvhZ3tbXjHX/w3uOGGh8O3PvzB1P5Nf/Tn8NSnPBn2tk7D+z4cFyyiPGeNxPGjF8HTnnAj5aje9Vfvg7PbIzh+9BJ43KMeCu95/4dgCKvwy7/w4/Cr/+E/wdZgfUwR/JMn3kQ0vvd974cvf+MsQLsLeKrhyuOH4I47T8MjHv5QuPGGB1G7f/zSV+FvP3QrjFphebIAITuABwxIu6sWoEebMHrNg4b5vAGzacAwF62eOk0cWDQHFgEGcE4yzkzAZQpvmgID9xavvWokoIyhnrXPvDGq9JkLEJ7+pEfDN++6Zyx8jsccz23twBMffR20W3woRX900LPnzsPNt9xG4femfi47ehi2ty/A2QsljjwWhOBXul14wGWH4fY77oIhxBGEJugtAgilxshYziZAQzRu42mK5gHEPFIUpXifHkocWAQHFgECoohA85NqCgB4yuaRGmgaYFQxsOT0lURgVfv1fJs0xix9Eob8X//ly0rbn3mEyJsU26aNSmnGuEk85Vk/PjalWfnmow7Y+az9ZQmcR3Fk0ymKOmvRpGwtra/77cSXxvHmB15EzcCc0wPzAgOeNWUN6bQFmhZqr9t/lfB9mTGmFQUWCd+0/qvQOW0cP0br5X/DAem6eihrvIomOOn7vPEp/F6DsEl95RnGsvRm+ywkK+e11zpWWfqKaMumKyJEWdS44Pum0xQJMMy4IKn5fYIDJZ3J4rnu8+hAGc+1jDGdGl0oOOlR1H8ZGssaUvK2Jzxcd82pSDCnz7r9Zbsq4g/N6eXvD6Zgnp5qHUM/NqEpQKZO/1oDME0IqvRbx7Of1n+d/qIN5axymbkWayX3RKNpiuZTFJXmkh5OHNhvHJgjAJhHNCAqEmzAgk2NBEyzxhPWsYp3XcpwznAMdVL/VWic6Gg3wPvIhniAMGnQuQGHKV52lf06yZBWMe7eu58lOpD14gv7ykx0Gs0zG/kMv2cFIFkw0mR/2LfxrioTqwhPejZxYNkcuJelB7Ih8jIGdRqLm04LVAnhl6F9FsOd138V+qpEMGYR40kvjmr9rosgeCNZa7AcRd6Ubq9q7KuE8Yv6rtLXJA8+Cxym/V3E+2mphciwFnWU9/0cCySbTFs0JVd1WHSvbpMYt5zlm1NEoOloQNNFgtNC5GWMc6RPc1ZuksNMYl6j9qOMAz6vgkDT3WWIKCHFud1U7Lv1u387OcWQpWEWD3EeUYgiw16ChxML/ur0XYY/Zfst01d2fpP6rtPXJKAza18RMErGqoyIpmca4sAyxK3pFxA1CQj2cySgitdeBmhU6S/SUTkGtYkIQBmay4p9Hj11+8/21XqFAwiTNlBR2LuEI5o710mgIbsmVTd2WSM8aQEWXTBZlt6qhZKT+q0bEVF+zfMuBx9lQDmouvZlN1V6LnFgv3OA9GBFjy/P49Y9NCmMXIYPWTKmkVVknGYpvMv2PUtf0bynTGiGJaAhiviRx/88G1gXCEyiv8watn7PAQQLceRQXFZRq/GY9HzZfiIS5pS6KGuYlZayhrVMv/vV2EfouYzmKIGyaq35BNTZWF+zzC21TRyYkQOmnGe1PnkYYoY+iwxuFWNX1FeRp54Hdoo+y1UbGUKq0DVVvc3AZ3O2yqCDkrJWNK86a9d6xQfizHAZ4+YNZlmFXRSFKNtPFjhkmdJECLwKD/LWrqmiyTJzKUNrmX6ijTdhMWYtkvS0VqVp0h4pM/+S+yt6rCn66oyd2tz3OIDeexUFPY0Ds0QCsv02VSBYJexexIcqfRWBjLp9FfVbR0KbWreidEkRfz3tRX21ft8BhKlef4UTB1WiB0XAIbsQZYBEXuoiD12V6cuQXpWHc6SnqbRFmShGGaNZpp+yoKHOGlEbJ1NokP0azcjuOvs3tUkc2Bcc0H2Ae8AbuCqKHydSNi1Q1G+RZzrRy56D505jTfDcZ3Xoi/iQneckm1IVCNRJAZD6zGlYt68sINJ+Wr/3wdGojEGp4ilXNaplvbUiMFHLqMzh6F9dfiLf8nhRp78inpbps2rEYB5FkvOIOuwLK5CIuN9zIOvdVjVQpmenlCpU7bPIo9Qxi/ot20+Rpz5rBIBswozIYWydavZZZi5FfFV+VeHvLLcvtl75wTjFkDUKZQxJdqc3YZwmGcs8rdI0cMjrr2hORdquDh+1z0WBBpL7ApS1bNCQAEORpKXv9ysHmnrj4KLTAkVGq4qxmgYw6vRTBDCqykJV7z/XHpXAJEU8bRIIlAEmk/g0BhAmPZi1Gz4Mpt8VGRcKi0wYYNLneX1WDY/7IRsvomy6gHLGVM7YOpUw+NklKYrEZNdklvXwoCTbTxEdVTd/ej5xYL9zYFJaoKxBmeTc5obDCzzrqqmFPG+9qZB33XXLHb9GRKFoHmXWZ9qwVdanaj95oCxKXWWY6/tvver/y7++ZtZLbZqIREzzVsuAkaaiEHWiB3l1EHWFvIxnP63vJiIQRTwosx5FfeQBuchDSMceZxGh1HYfcWCaV1fG2FT1MKf1WcfDzOtvlgjArKmAvDlU4WMZfpbtryo/J/Vbl5++v7p9KD8mAoRpe6kJ8GD913ATpzYp2V/ZSEZR+qKK953neWshUtYQltFlZYxy2YgQPVeSd4ZIM51XjV7kDVklklSGR8t6piIrl0VmGndBHJjk9RUZ7ix5Rc7vXO4JqFAMV4adZQ0tOUY5OqYqGKgcCakw36L1MF054cVLeXMsw8MsY8rSMa3vvEu4Wq/+7/OJIEQGr6S2bCKNUdbwG0LKNKja3s+z0fRFw6mLsmCiTLqgSdDkTzJMwyglRajU3koPJQ7sJw6UMWBFRrVMH2POTKYRHcXMYUxZ41NE41TjVBUJZZ6fZwpg0eH/sVoVmWvZdSDQUeXhKQszESBMajNr9KAOcJhIS0agyxpBQ3Uzvh1yWgokDzjkzaNsH9MATV3jWZVf0/hWta9p6YYyfVVJV+wnY5BouX9zoEz4ucjQVg0bN54OmMH4NFEEOGuRZpk18J5/nsRWXQNyfhzfqtAwacc0BQLMtuRFTv7ARRDqGhpj5qwdOE7MCkQiUmrQNbFJib7KRiEmGcKy7SeBEAUdeeG5IvVcxjhPA2zRdyV4FQHGnI61i1noKppz+j5xYFkcIPmWjVonCjBGd4XweNGci4CKGZZMR7pnI094Cqgo8v5zHauMsZ1oRIsmOWkS8nktLJRpVKsPHX+Wxpm51wEUrdd8aFTPFosUVLQBY8tVb/DxVSc6ZiDGe/JVjdHEKECFEwlFHvE0moraZrnl+6oawZgESsruQ3wuS28VfledaxW60rOJA4viQFUPNGusq7aPgHhNozPm/TtwU4ZvRV5zESApal80xyrt8/qq2z7SmTV5n8ffOgY/omXiH+GL1mtuFhPdVM7b9TODvSYKGwMPMxAyD+BAMlKSpiKD2BRwmFRAWWbjzwU0VOBRVRrT8/PnwCzAc/7ULW6EykalNa4a6oKBIoM7iQt541Xpq2jORX0VtZ8HEGi08n8/goCaNAWAULRnGgYQJe3jRKr2C3gwAnOA0bQ1mZhGmPBFmXRBUVoF+6icvsg0wD/L0DK2cDkDF8lsLq2j0tiqSKLn8n3RnOYyaOp033MgK8skJzXSAbl7ooTQ5T0ytpdrpgGKaJpGXhldMslTLqNfx54pmZooEqhZvXftv4l+bEol5CA7r9wmnkev/fAEUzvFgpc27vsIVOwHQOGjAVXC6rios7wAahlRiLoeZFW+FG3k9P38OFB3jedH0f7seZERgDzvu8hj91ybpQCw7Dzz6KkSNVB6m/L6mzDShPdqGOiJBrtGX9PAUNHOmDRc63UTAMJUEFCAEOoCiNLtohgT/1GrrfSzbPAwC3DIU9JlUxiLAA7LTl0UbYz0feLAsjlQxYCb55kXyatgVCYZ8zK0zAIEyraNVLzMq07bJj31Jvpq3NufEInKk+mp4jHhy9brPzLhHoTsCCUtcOFjs0YmmohKSB+FtE7RHE2AijJ9KI15oTgKEU6YRJVUQpmrk4tA2LQ7IErzOSedsWzlncZPHFgkB+p6gRM9wBKvmZ7WNs9QZ0FK3v6e1Ockr9/3UQbnNOKtlxloyuLXNfZFYf1p8lZIco000dh4pMy5o9brPzoaVXW/xwUCE8OFpBd7+rOChxwrVto4KZf2AXgoAxwmCZFGBaqG6utex1wUZp4GYMquTdPXVi9S4aexEgfyOFD3PoBpofgiFVzWA8+7jbGcdueZ7qfQ/yxAoi4AmOjUl2RiHU/fg7bCHecAQFG71h8iQJjwY1+U1eTST+7jJfqom9Yo0bVIbjzR0u0y4CEHhxSuCbWpPOB4t7P0UWc9m15Li4jMIfJRahHSQ/uGA0Xgct8QOgMhZYBAWQ/e1JA0qNpubBqZDkrar9CNa1C5rfQyiwE341Z3cJ+mqdFH09Eemk8TEYCcfipPT2XsDR8rMDk1q8brGKNcw1vSqBajnBxjW2bj53RckqQIlFRq4+iaBRCYQikYPASUYoYURSOy3aJMlYlE5JEzjUQEvJO+r8vXMkufnkkcaJIDeUpaP5v1nQyTvP68/ZFHBz3ngId/xkB9ATPurca+jqEvNLgzG3q8RCfupHDM7PoUAMki2cbhW290AKGOsq3X/HNKAAAgAElEQVRrwOoAiDH6ShJcJzJRsusxy1W6nVnv+gWWdXlfFjhMEqAi4FDUzpB/CWbNeiVz0SZI3ycOLJID04BAmRTAzNcmyz0L01IVRfyYFQjUbV835F8HABQ487N7+hXC/BPXowEAULjWb/x4cQTB2bKi/sa+r2vEGgEQuSGJCpGEKQashG1rBDyUnELuutTlPY1ZaoLxsFGTTPtJUYrc+UnbvAjFLLJYWXhTg8SBOXAgzzs30Dz2C38wyXucuK8WYDymsWbpIKDQwk+18VOZXtqTbyiFU3o8tyDUpkbDqAlGEN70dyWuWp4lzO7aVrY5NdIb04zUNIGOaStXdDlxPg0Ci0XwzIxu5cECR+sACmyNEYIqBZVI4gxkNqruq9Dd6MCps3sVB3z4XgkvEy3wk8TIQdU2hjVqGAo/9kzGvuLYdbz9qUPMGuqfxcjPANKaMvBlN0oumwgg3DL5quVIQItGyvEYi5rQ97MAiFk83QpWpk5qYy5pjVmAmvC6wrSj5asLAGjYGoPWTWOUkrn00H2SA0X3eixj0lWMuqYPqrRZJgjIeptl+dsoCFgmABAvvSIGIjbVAQCN8btEdEHHar3lE5kIQkllnvtYXc95FsM3A8CoY7houJI8yn20RNtGeWvhAeftl93JbgIlyB7rtQ5/jdwJA+rHdTZllWmnZxfPgf0UHWpq9rkvOCqI/tb12GcBC3Xy+1UN/dw8/WV5+TWUUFU+T/Lsp8lnIVk5D0xqQwChzGaoGrqvGn4vJKIuiJgBQCAQKKTLMc+erdAofrQ4tdE4X3NQTGny5cHSz3te1WlUMxpRRr7TM4kDi+bALECgTtuZjVOh5ZmS9p7QtkSXY52WamNoiX+p1GaBHn6jIGvCREvN3T3kn2+95dZxgIAPzGzsShiAxo1dpsMSJMyU4igHrXI891KETQAnBW2rRB9KkVGHpzNEHqrydNFKPY1XkgMVwXXJXu91j9Ux5KTnS2n1cXZUDV03ZqBmCfVnKvpLT32CUSsjJDPxqSSBVb3/wm4reP4RD2bh01s+MSxlJwqZPuXMZhWl30ikYsqMpk52kcawogKtCtjG5lkHWOREF1QOCoWmTuRmhohEoXwu8YEq8r9EMtPQc+RAVYM/kwEr4TJPNEYNefqFxm5WD7/0ADkRhBJtGzXudXla17BLu8jR97JdQSG1GgMIZTbXEkBEFY96ij3k2eV0Vmgo63rTiwQQSwQPhTzPIJJS/C4ji+mZxIElc8D0fwmDlWvzC9pVMXKFJMzo5Rf2n1mLWoCqBDCa+kidKMgSjL8OOe4ENq8dFwsQymzIHMkwJFRh/lUiEfMEEaVIruNtV8zHV4lANMaPCZOfSxSnjGw19UypRW1qsNRP6ajVPmRVlUjAvMP9hUa6jsfqvNUq7F84ALiXGP+JPKzg9VdZh6Jn9x9AKKK47PcTgAZ5rCUV/LxARuMGskZoviwPIg+/BN/iR6YXXU7srm6kpqxs3NeeK7Eu97Up36vms1BPP3CmEBDoo3jevSJDqxj4eUZKqqRKCudYByBJSKKJcH7FJVjI4/ddgFCGfRNSHqRvSyrdhYOIOsZzvwKIOqmNkutSZvmX9cx9YArLYt29ctxmQ/33bgBQJUrSqPEXQ+7+KSdLAp4WEc4vR9Bin7p/A4SmeN1AWqRsCmBcUPMn0WiUoiLAWEh0IlnZpqQ39bNoDtTxVCt6+WU9/MgIV410NBS2b9yzn9ZhFeW0aLnYh+MlgLDIRXG7Nio0KWnsFgYiMvQUklcRQFRO8xQSsMhFTGOl5SgvA4XGr0aYv1ZdQ1XjP8XVbtSzrwqWJnn0VZRK+eW73z+ZAMJ+E4GctEetlMcULZ77VdXUhXu+lMGoAiJKnuAoNe481ndpA89jMqnPuXOgYiFfZQBQAoWUDe3Pw/iXII+XYNKDyeufu4hOGiABhKWxfp4Dx/FIi1aUNGxlIhUzg4wqUYoq4GKebE19Jw40yIHa4f0JhrSscS802FW8+uTRNygR+6+rBBD235oshqIZ6yZqgYgJAGUibqkapVgM5xYzSkkwtxhi0igzcaBKeH9Bxr8QJMiEUU3cXwv0Zlrz+0jjBBDuIws5l2lMAhEljVdTIKIMgJjL/FOnxIGSy524lcOBslGCMicdCo16lVRGnuefQvlJhjMcSAAhicT8OTCppLqE5akFMuY/ozRC4kAlDkw17hUN+9jAVYqUKlGdHr6/cyABhPu7BOyn+dcs0CyBM/bTLBMtRRy4Ly1oWeN/Pz9vXyQS6fvlcCABhOXwPY2aOJA4kDiQOJA4sK85kADCvl6eRFziQOJA4kDiQOLAcjiQAMJy+J5GTRxIHEgcSBxIHNjXHEgAYV8vTyIucSBxIHEgcSBxYDkcSABhOXxPoyYOJA4kDiQOJA7saw4kgLCvlycRlziQOJA4kDiQOLAcDiSAsBy+p1ETBxIHEgcSBxIH9jUHEkDY18uTiEscSBxIHEgcSBxYDgcSQFgO39OoiQOJA4kDiQOJA/uaAwkg7OvlScQlDiQOJA4kDiQOLIcDCSAsh+9p1MSBxIHEgcSBxIF9zYEEEPb18iTiEgcSBxIHEgcSB5bDgQQQlsP3NGriQOJA4kDiQOLAvuZAAgj7enkScYkDiQOJA4kDiQPL4UACCMvhexo1cSBxIHEgcSBxYF9zIAGEfb08ibjEgcSBxIHEgcSB5XAgAYTl8D2NmjiQOJA4kDiQOLCvOZAAwr5enkRc4kDiQOJA4kDiwHI4kADCcvieRk0cSBxIHEgcSBzY1xxIAGFfL08iLnEgcSBxIHEgcWA5HEgAYTl8T6MmDiQOJA4kDiQO7GsOJICwr5cnEZc4kDiQOJA4kDiwHA4kgLAcvqdREwcSBxIHEgcSB/Y1BxJA2NfLk4hLHEgcSBxIHEgcWA4HEkBYDt/TqIkDiQOJA4kDiQP7mgMJIOzr5UnEJQ4kDiQOJA4kDiyHAwkgLIfvadTEgcSBxIHEgcSBfc2BBBD29fIk4hIHEgcSBxIHEgeWw4EEEJbD9zRq4kDiQOJA4kDiwL7mQAII+3p5EnGJA4kDiQOJA4kDy+FAAgjL4XsaNXEgcSBxIHEgcWBfcyABhH29PIm4xIHEgcSBxIHEgeVwIAGE5fA9jZo4kDiQOJA4kDiwrzmQAMK+Xp5EXOJA4kDiQOJA4sByOJAAwnL4nkYVDoxGI/qt1WoZT0bDIX4QfZYYljiQOJA4kDiwWA60XnfzN0lDt0YtYFUN0G7zf/iDn40GAKjH9Xv8ZaR/6Ycj/YQ/oL/o1yH/I4YA/6X/Gw2ht7cFw0FPTYWNh8+02x1otYSI0CO0sFu0JdpfaBW1Hw0HNAaOjm1kJkZLv78DZIhkHiMY8q+ubzVeNlebEw6Pbfnf4bDPRk7mzf/qtOw3697GNLr04Ra0lPFKcmZ+Mij1peMq4To+cX00hMHeNuz1tgI1xjNeG56urJd8x6vjfuQP/LSFT4/wX5WTNrRaHZo49WUy4DvgpTLzj8+6AXpbI0BWrmy2oYUsbbfgwj0D6KwPYe0Q9020trD/IJOBY7FcuoXgR6LFyE4M50OE84PRxOM52HJKl9lvdU5j88S553WtspYzDPEr4KXxJ3LaTmqjn/t/iS2ZdfBs0i2A28/mJfREf3s6VJ6UbttLYVtFfJgy/+yEs7Qq/W47WpO8Z/18ma+of1Ca/WLmExT1J4xRMJvbIiNvnodOAZhojsmRk/PsQ2Nr5DZBnrhkn9cNgXpDdZsfv91ZgdGwz7LXQv3rGYSEaY/CO9J/ZCFsm3U6q7C2fsT0QnbOThNEO8mPhb+TKhDiWPPEP96h8H0iNW2kvd0Z3zetFrTbXe6N/p97HaKBCxLEbLcNqE+pw6J8AFhdPeDmEChsd1cdvTpWUC9hNvydcjloVhlfBMzWcTQinY+2sbt6EDrtblAU6FDZqLSA7GRJ7yrH3U4L1ro50uLoUFb0h0Nofc//9j+MvDYimlq8gXCBhiawYk7on6EwsMUGm2aIhphHYZGRH/rc8d+ABn+ILVAY6Jk2WwJiiCIBNQo2AXlGhMiLEtHrxkUiVNmNSYszligM2k6fb6tSV9qFHjJUMj/dLzQHtHIqdNEcZYmEXlo6ZhjxEfmsPKPvRHEzD3igsNHVTOMmaPGY1BOa+SBeNjXqi4nhfoXnwks2jjIZmnBAgdhzxz3nFSXzC8VmBG1ow1BAg66jf9Ybdpub0DJqteD07X04unYVfP2OL8Kg34OH3nAT3Pqxm2Hzki5c/siLAfe5kmlyoqJFe4BBCysUhjs4leFwRPxDmVDjGNEnWgjljKYpPMqOIcvD8o59Sv/URP8QYERjsXahZ5W3uFbY0is9gmYOKZlIkCwhb2VvuY3r90WQiSDjZoBlL42GvJeUHBQ8HBL5ZGSKIg60iDwK73AaSDu2iWVA9jn258EG7mEctwUwEJ6inLAiUSAZdqPKB9OuSDDohWBgkB+8pqoa1IAoX3k9+Hukm7aY0z0m7qqXBbmqGvXgh7aC110ElpgGlrkAWnWv6Geqh1T2PK/NwTGdx8zzYMN+N+XodI7Xl8JP47/f+LbpPUgOtKOuRf+IaETDKa4c8SJihOqqYIaJpQpikQ+ktxVjt0iNe52KX6rMqdLH9aH9agaEYYaaLrVDrBzFJoid0bHsaee86h5QPW790X7i+dveFZkjEkhuZBy3tvw87l2hzuYZ9pE3b/w4zkt465S7mRJlqdJt+ln2hdfFAUMEG+WQdlYv63DM5xG01fFXoUIdgHwWO44TJ444hRLZuGe/6CaSzhgph43qbYgymwUalQBPWRfWxhAJUsELZi34umrQLNIgm46JDSCAFkd1LW3YgCs9/OKxYwUz5v0IiIm8RlFegec2mKxW7BqRBy0PMyMDD5R02W0CGGS/OUUfoisOXequM3QbVg3HRF5y/+PupVcuygcGDSIuKPi6GcgwOYFQwJPRXB7saTe+Dy+IGlkgAyRwhalnGtT4bN/Rg2se8gg4dOhi6LRWYHvrHOydH0J7tAK3feZWOHv6JNG5fWELWoh0D63AVY8+Cu22GFPHd1a+whcCKDrHoLxobBEnD04i78SUgeei54/TCG4Nbf5qQFXxqO0zHgtHHLBUfkZuUTbSEA0brB2vi4eDChBE/RiNISJoFtUWXsCn0OqNaJ6hZkPJINp0gGoUQhwtigIpYKa1d1ETsdssj16b4t9kmXjypswzS2H8ki1BszfkxpNQ3UPjSn+KDJ2djZ4NRk09NpYYDxgM4HrLZXSE4JPNyzzTTCROaXTb1295mwNbxoBqSacFw0Ys9AwVfhqYIb4LMHQOkwfB1EQYpoZU1A6z2tsDmbc3bsxjRTi80N4gGr+dvJl98fsgY1lxPyuY9muujhLaTRMhA53qAHnQ5oCA22xEl47h95t3bp3shS2sdLlopggP65d4UU00jZFh46g+8oJIvHH612Q5Z7vo0vE6hVVRox5HbCRSpsBcmedkVNfbbLSsjwKi1nNedNNIFS2rlKACsvHFgMbEIwgmSDyVuAdD9p6ZTgJZOP2YkbvMPCTvSzW902jkpTADPPphQliBMP9i5eO7MqDg3ZJIG8l46orQRlC0Hbz7CLXKCtJ6mxDyvJgm/tALik7Bcd6MuAN2wSwIQqWpqhBFMqo7ViMyOm5sPAno+YiISZmTTK9B3GYb47NDuuoP2RyRGYMWnP70Djzpac+CA4eOQL/fh263S+t77txZeNsfvpojEqIFkE0PuPZhsPEQTpH4kJ+qXt1TxE1TrOLxqsEWL5KjHIGbuI6qNFnOdK3FE1J0YSIQG2WLFghIGVPA4p3iqPosKT98XmQ+MqKahnFWUuds+yiryJxse6DtDTWSH6IisXUmHgjA8WFzheADUabaX6QHs0Z8HEcFhmYiJTxv4Us2dSSDeLn3xpfBgUaOQsTAK3MNHTBwdSotC068tsW1UU9ElARFojzAlB1o+04EHMfR51iV8KAqU964RgY4Q5oBba92FBDgs5rycQbcAEybnSeLpvmwjq6x6naKmgVdrTwi0TPjL0Rk+efSiRq9i/ZSduG8kNu8fJRCLI4b11SOSZDqcN6Dfq0NVkojpsW7KawazK1EeqTGSZff2xeTcdm/JktiT4LxV1sUInhjXnjOPvdTUrTs956qWAVUOh7RahOXXmjN1c4F0E96RiKoWR1nWwBZKmFyTRMFVM8DkWw9+8WPZv6gAvWIh2oRQuidvw+KlJULhyyJ54qktGN0LKg95vYzMFQUchweDptRx1Vliq077TagwrI8tIUJg7dCMiJ0mbejIUGDuZJHz6Bk08sCStCgkP7VfZJRZC1ZHHyOBFAMjvIhbBpZVZV6julZPt9iKhIuV37hApPnLMpKbXe7xREV46kzbiboYlCpLwzkOQ2lZDDNklUQL9CQqwh28J4QQQflY8LqPUVLCclgwg9iI2VTRnDq77fhUY95Ghw4dBFsbm7CysoKAYXd3V14+399ldSEBLvyuCc+Hc5ufJbQNc6blAMKvuz4kKoRJSAToDGpjoVXL/AlrmUwuZUJWV5a2iODVEYj2ReDx16TGH2JmGCfBFzFOKFcoGRTuQv9YCPmkXnB8o3KTpxfdeU7WSxM66bAU/aBWHO1ycwjjfXzuJo+9LKlYXGTFQkbW2RAIzQ4N8qmBQPI85UQvPBblbIoF563RRXikLNfL5UX5ZZGiohfDsWZvhFrTaku3hj8nKYsHJ/j/aEAXtI/FAhp0X+kZ8R4+5QT7WQPhDUVpMCPmWt0Rm3dxlO5pO/JWLcZnEj9T9BjYS/YbyiTKn/R+nM0LaQ1nGyoIyF7kXkZjIsBGWc9gmPGToRqQvzVsIc6bwSstEaJKQ3pvYz+Ex2toJl3h9oVdTxVlvHv2Em0SIRjjTeiqpuC7rRJiezj+vDoFg12IIzT3CzfIXUl+0YAtQXPxqKCEmlQfgngdJjf5NMws3zJTTBtjHtDddaIjDg969goYuY5EAFSr0dQJtSOajpJgYbtUdsYbo+K/aEIgipRoSHKaWt4JyQHXChf5UYbekdfJyQE2qORG6LGXbw7hz59GN57d8orn2gIefYMao+YKn5nJjTJc88PWSpfWLJcGka0hyF+p4QJ0dIKsCEzRa0K1dc2OB6RN+/5qIpGc64i57wekjcXtOyjPoJrDAya1+qiDeY1KpiziWbTF7wgRFZ2/kJPcBC89nFhbwUKQ4A7bzkFK+0D8MjHPhlW2iO4+6474dIrHgjra2vw9je9FjrtFnS6Xdjb3SP6H/vE74Dzm1+AUQurZPM9QQKTxmgRcFXwGkVQcGhbijuL8oSOP0Gs5TljC8/RB1pE6wh5WY0hgMSvoYP0DEgyMWcCGCxvLA+s0HAVxB54h9p+F7UsMEWULnZjSipYNo1isVIKStmbI15XTZLynPVxey4bLlZNaLzMKAZhbNAzYVn9vg7byclfRh165Z5hgqX2QkpEZdPRQ3tY1pOMkE+ExrI2tt4uwObrDKx3WT9aRwce5E8OzxszQy5G9VweKPGq1ouz+dNqB6NInsiPLJ751VQi43We31xeiccRSl0CnRcKZABqCqmkYNHpM56XEw6nWH2AwVbbUqIi1RnjOLbeqsNN97oogyyzp53qI7TuQ/eY0Ees0nSZrrPWSVA+P4T61NA6s+VSXaG2xAws1mIoqPKgzQCSj6yM6xodJ9ir8Wi0ypVFz4LhDWlqHdvmZQSMpQBbz37hjVykmIMoFUaTQJvXxGFJBGGEshT5RsbOq5o4fGueOcJQVZa4KlGci/tWI6u9qZKyTWkrI8U3NGFWphZp0IycC41pvlOVktPZou+FJVIXEbjmRYGZarlvV2hkAiFFlyrQtBlEIQeELUZENk0UUtJJYIFXzg+hSxhymMmnVcRDNU9RUUob/Sz2rn3EJ0SAmIjoyOH41mbgY+FtNSK2BU35kXxoaH8E8PVbTsHwwgjW1jcAT5ns7OzC5oED0Ol04Ct3fB0uu+wEPPjhj4SPfvC9MBoM4SGPvAm6l5+GUbcXAosqNmpEnafHi8eySh6EKGfzogmkibFDoVal6goGqTjQQJzTTPas/WJ5c1YqAeAFfageQQCutF9VQfniTuUzzY+11BALhc1l1WgSy6aZM0cOTd8Mvnj1LryaFSE2oDhGrnhxX/jjox/+UVkLLVINiW1X/yDypkWORGOGZh9RiTwri0qFPcKAF/vg01FxJEP1UVxT5UP9WnRGXpV6pxL14bk66x6QioAJibiJF83OgDBEREUjRcRTjdCRkdLEWywLxNqh1olzZyZ/upayn9Wb9ksSwL5ET43BsdkyJ0tD+T6qRKmJIU9FbIEV9mPEwhsUmgvTab6eOoHygdhYiY6wjlS973UpAw1ew5B6cwIm4YIozazstoiu7lHZEUIDFXEjw0R2I9DpWGNRUuy3zUXXRIs34CofoofpO9mDLNesT62YUuRb+w5pJ0mJaYyAAyRxEX9m+jGfeQxyFuQ5D1L02QDm5alMSjtPx3PkQk9qhPm3nv3CmyiNzxWlUvgligu7z9vYbOjcxlDFLPrZK5woVOX3kkNlpO4kvMeeE5tump6GzdwYfsPjU1q9LnpasaApcGuqHoMrauN11RUVgRWDy8ZGVyKAKK8jLYRuKRcWLfU6PJsMp6s37jxLzXDbM4pFdXeKcJpnJ8qRWSSImBSNU1q+4MoXmskgvL78wykRNkq0xxTtStGX5voiZcvqLHiaOU6CkT8awdc/fgpGWyO45OBh6ItS3Ovtwcmt87C1vQsbG+tww6MeB3s7O/DZT34MrnjQdXDkIXswavej0K2CK107VVgEdFwZiyoq1WS+6p1BoWxs4wPzTqfBldicIlNeBVAp/ikBfc9J5mcIoWaArlOIwj4XPhSPQEAOpyOEGjxOO8KTJbpPJarFOiOq7LfiJRtLdwD3p6lBHt8xzEXX2FhI+gw0vReKZUVIxHgEg+H3RgBaarB5M7GMCogYyjFo+ZwUO4EtVW4CxE1jKzjizymSIG3VCER8VWWuwNxO+8i6mKGRrS76RpWtqKBQoOmUP4dsxdPTNVe95itefGhQ8QcJY6h7iBQ+fzXutMnm4xMADJIsSqLhb97Ngb8KTlz6we9hDWmb1OuG1TCF6jUNLBi4C2uptWC0FuL4oVHB6BVNV/YUyxTTR8vJCt6LjAOlIlN6GsAcIDnh45w3jbQxrlbr78JbmA725eSq43RrKcYwwVGdKKQJ6rNCcRfC8boInzYsrfMjcmx1GVg44MvOGWsVTBA57GKHAJCBDEBibmE7s7XKaNs3Ojmeg4IxBy14Czt5zq4GicJz/gUWKWZmRtEBqUtwRSGByIBMTAmQQyZCo4zWNQpWTzguBYYSwtQcC+uNWNnoxCzaKR5ucAD94RjRtXJ0jcRTtIbWBFB/pkmEiV5QfChdRdfLsGtCNFAqgFmrG8/XOhlyVxarPna5SjP64r1SuoGUR4i+KAlBIWmUJJ6DKWAqnpMiTppTzCdkDSpi207CGIo6uPkS8ldlp8pUhJ6+8RPURZLPjGYRl3s+dxZGp1rwrMd+OzzygQ+C/nAAb/3g++DWL38R9vZ60F7twPHjl8FKewXu+OqXobOyAg9+ymXQaodgcdAmLq+uNYo+/EIKOORZCUg6WpkkDe9rMacoBvUeBGDZenrsZTITp1ZU/RGgMmXqdOD4cjElXvFKMZpG0Uy5uSibKlsWZRfFiTUMpyoExomLmFHJwgenHGOyg3Lz21jHV+CoHiLLhBaeyLx99NE0QOC1V6BKjQWJ/d4TAsIY2n9wWALfeaP5UKsXVeObcsOviwY0M+sXOyY5RWOqiEXTqieqR/wySQwTCraTobZAZSjYFdtJ7oi08k/2tTNybG70J3PMnJgSeENiKnpMdYc6K6LVOFrl9LKCtyBqIgWiY/jumThSojTZcpowxcYhsqdih2x/6KNi1VRXBX0rFNFzQQbxUwp02z7QneXkR+NRRKDTeWoPZG1VZwbuinZUV14BqdoYdS58VDJHP6o+CvpUdLdiRZVPcQZVRgJoCBslyGnQC6qrTd87lWTyIrZM9Q0BvGf92I0EjMIxutDSNpTmI4fh7La2CVHIUF3sxo7IYCPNw6vKV2LChT3j4/NZdW0pRXqy4uo9aWhYxUC3iIbBlAnqRQYxCGEepUmBjkZVQlGQ0CYWVGVQKbbn7BZAxpNaaao8szA/hfWYIjbm4tG7PFUoLBERcmE85YvquOFA/Hmv2BxIo/UUBvjqV79eIeQmm0QQLx1z8whWlIyeDTdsq5W1uqtp0tzXuTsuwNnbt2C1swob6wfg2MMOwu23fA36gyHs9frQOdCGtW4XelsD6PUHMGgDPPgpl1qxYVhbjvFqYa2FOkUFmOH38Fg3rDyjSJ490FAJTCFsd1qAozNDVqLizQRvixlCYUlcQ0m3SWmoFSPifQRqBIORklSGCBHnhFkb6P1gRJeicmfWSYlYGknilG5eKk++CHIsdE9DMd0so0Forr/0aXDNJY+Fv7jt/4nDnxrqFmCoUZJBPz6ZoUrOlp4lPHiL1g+bTlZaeC7f0AxdGBYKJyV9I/3QeuNlblibQZEBxUjowcp6uM+RV0STRJxpG8g6o8dp4W3ct0Zbiy6I4+gm88if5Wd9IsWWaMjICoVoJBdNDqHdRhpdMbDoLZU/ppZlIdTSsD/JN4fh2ljZmniVPG9O/UoRnwc4JuvuwywA0eWQvclzZH2kpobTx9y/pWaId/w5Ps3O3bjzQdEnYZzZXJU2AW6c7pO+0Bni0CXvRxdhtgiZq8syuR2LQfC62NqwZTQV5/e2P77ra0mIBtLBfE+NYQ0faTYCXPhOj1FKRFbll9cwaNnIdlKULvCK5Ex4QNf8yd0bXkfrmuhneXd+sMCGQXUevCd1/dQcMH/U0aXIhNgkPubo9m/AqmHjBg9GSfKzpa5t/2tfOd5Bl9EAACAASURBVMBfNFH0D295WQFGj4pWg0LRCRGhFCINUiFTi44UUaV7UH3Rd+z5UEdcNa9KWTZCyL64BRUnDRkYVVLbpSkZpCZNiRdOMpQnlpMz31yMQl5OigaVRXUGmkJ5LhtlhU9jXj2vj/fI9Jgdk8m0R7k4Wzx1mWW9zVMVhRYZFv6MN1Z8lhwHQGWz9fUdOPuPWwQ0BtCBK248And94hRR0Rv0YbQCsN5dheHeEPb6fRjAAB781Csk3BoUOYbZTRIlJaWpLOJKlJ904FcbmfIJpS/swWmYWSCApmVECWY3ph4TYmUYwgAEhGXd/Q2lFrDw8mGK2qmACNQFP029Pd4zwhbrS2WegbTKnQJr3eJ8e6jIhNukLrsAN554Flx3/Mnwpk/8K3lUDAXlkkMQtQV6256mJuVxsvohAR9GVL4GuEDTl//hJFcMVhxXOA2WAX0Of6o08/y1zsYASKib4ltQXUFYDF8kD8+yEUxziLipEfNBItvmogqj0wR6AkT0BSp+vO3P9p/qF/cJ60KJyqqOinLJEmqXOyhwPPPyXRqLj7sF2VBx0/7NWKkqQKfFwvf8YeC7OmlO1rVg2kVQRbxYr9gcJKIg/BEswAlKFznViCXBFF835gwYyapFYjO2QL7T3L7OPOsYKo16r4imvPxzlh63gnMpDhcIxeYogDCq7XInYIK+CHVNljpTmTOgISvj/lZd5vP5rMkDPNIIXhwzivc319vIHtYaKxF/1RV6GstqIgTVtZ4rxxwR7fqfICSyEiJ0fvFFfFlbCSoxIZV180eGHKzICXPGxXpe4atC47FjZWwFhwrkVBMyj+zeATnYYic0zCiKILKS4nkYIFH0LH2Zqs5ORDeC3CtgdRtawS+qS5FiAAoMjsgDFY9H14C9dRnIVUIbvqe8GpIrvZGB4hvBmFy9NS2cxPfgRz1T8lZVxhmByTFKSZ2IUtJbzzhv5QFiEFE6cseuEKcv3AkWpOn817bhzBe3aFa9YQuueuxROHnrGTrqiBtr0AFY63agNWxDfzCCw8eOweHr8cpsiYy4cHC04QlYyea1+g6OnTJ1Co+0mNUwhxh2XnsqfHNpCotqmfJzyFR+jQv8mMMUMeA0u3l4uq7srfJ4lLv1FdMaihev0BSMM4qsgAJSVO4HlO92Mcmz/zv8gd53yP67GCwA3Hjls+D640+BNwtAsBod2n4SuRHF6EXBb2o1AJFSccBGtp0ZkSgsqkpGgANLpZN165QXgS/SMqRhyjAyVLK9bQ/jL6INVelGNLPYmA0P+lAUjajLQLdo/PAP/UYmlaJtQZq00Iw+RpzgzrLbkLRUwRRosSp9Inv9+OhiONY6At1WCy46cAjWVzqwtrIKm6urdn8M7tXhYA/6oyGc7m/D6e1zsL23A7f17qRu6MiiMIWAPXqssrlYloPzo+DfgwzmMVPNNOrprdhp0sfMwNH8gnFlFalIyO0zA8KhSFdYE2JS9AwzRe/2oO4UaItoeFlVda8wW+vemKpwwglJpJqYTLGvukDsFIldCrhJChZ95EvoF8PL8TvZniK7yhuTNZNpNWYij35efoOJGdabWEMdVJAluzdI+MVxOrGVUQGFgHgsUmTXL4yEFeSMLPEMvdcw/ncNbTmlIxWgEc1S6KUhDvvOQklqcEKRZFD+WnEuY6hkyNlvns/QDKxV12pBi4qgXJPK85ICwngqgSytcpdP+FgKxibFgxVWKfM1nBV5al5roNGREB1tVl4rMe5c1KOV/ooY2RjL6QShUz2lbBRjIFEQiaBagFDD4cqyeE1czrutZ6ddAZpEcrynzpwWzSTV3xoDDuCGNY2KjO53nCzO6dJD18KR0VXw1+/8Y7hwYRce9rSroX9HF05cdQ1sHDgEH//YB6HbAbj8squhu7IOn7r1Y3DNky/xWtrCm8hBokfCy6aAhNdaf8FhvjjVE7zvcHxP+aNpCwU3mnpTmYyMpbg4nOrhs+wRdmK3Lmwtu6CGF1VDxKrMlAYfjtTP9J0iil9wbXw0S1aG97orvrQ+Re50LA+wtJJen1WA8NZPvoTpVFBjQpTZPP79ISQo8fdkh51+yc7Pf583d9wL+IOgRpY87Fe5qEo9IMVESgFFhXQPSQGdraXYIYF13Lc8y884hKB/GpgOE6I0VGbOtO4a4qWCPR9H4YE1pGuFojIrTuexN2pUiBzpqNjbgwaXw1XDS6GFOqbdgTa+16bVhusuPw6d1Q3S3+3+rgga/jOE3a0LAHt9eOPgFtgBfIeM5s3CXJlnAk6ksp/3fyhqVt5Eqs7oDzecqufq23OET1Ns8ZXE/F2QH91vHBUKulujyTwkP68yQDzL6HHSXti5FnJritIfw3dOLu8ttTAhTcwDxTUZfMsoAyLiolwUwQ6cj/aJfsykeyzVItGHgX81hIsM8byydV/MAXTEnd9g+0O5EwFjkWy3JaNr3wP/RkCnGPjeCHV3RCSFWVYeZjuOUaVWqwZlILlbObLCyDlszoAJxYtzrg2F8tBQafhJlD7qHaqGHVNMgrUibeyhe0CmsiTMElXWOjdhKo7tIqK8KTWaIBw2Gtwd27ZZpR8eIhgEOmsrd9Xj1cEactOFdjg5eLIZZapTzwILY4mhd5miQ7GhMEdDuqKY6OhSyK3aHlMcFhEWZE0/9mFdAwGeB2gu6UUOajDluN/2AXjIpY+Dk3ffCe//63fDAx91HA70L4dHPOpxcMvHPgRf+srn4OglR+Gp/+TZcOstH4HPfvqT8PDvOmH5Fw+omRYtVJSNaXSLwSYlywvI1AQgzJhY18QrJHeygxZPjnVZuNOhflWIcqGVSarno6ynB2oMKPiHvTKjLoRlnWyHd5Y510Haq+eskRJaVzsJFMbwBpqnHeZ87UWPg05r1Rb66otvghNHroMPf/nNRuNg1Ievnv172O2fZxrjgKM8F+mljNLx6oifG6sp1eZW0OVdMk1hBf6b4dfnVQt6fGKaMRg9U7I+/aeV7YxBeD4unEsBvkwVOT1Dz6shlwika6vF1Dx79s6tCJCaqe8rxZ0S87I96XIX1IfMB2l5cO84XNm7GForKzBqdwkgDNtduO7KK2AVXyBHJ0QwgjCgKB15yegk9YfwhYt3yAnRLnmXcNq61evB3rAHZKe6HegN+3C6dx52ez3YHvJ/O9Bjd8H+J7P20rGyn6Np4eIxFiK34EFlK/Mjfan08Z4J+ozHl33kCsb5OZqRsJLHCy/vC1bSFy9zgbjjiqRIdP3wG/8iQ56GFiqjbbPVNYZwGJ/pZJkNVyA7JoR5i17SDqhHW/ys/pG6DbeZrDbN5JijIFm86wM4li6lZQryTADBmK/HG3UxOxra45HUBng3yYyrCJheM+o9J++BeNujk/YhfRsoljebHBseCeOqdMiz+Cfdz2C6KNRGWOELNQ6hVza8KqwisdIeb2+0RTJPRcIxEuDyITh7ltoHDeqLdTpKvygHFcVwTjhMXPeP8owcIDe3oMhkfWQuHjfxMz5MqEbJK1+RTY0kCVKnzeDWgVMkGUHPnqOni31CrtJQ9GgEZ7+2Da1TGzAYDOArd9wBVz/qKGx9eQAXXXIU7vjqV6EPfdjcWIeLDl4EZ86ehXNbF+Dh33VF5ga9cPIi2thuM5g8yxTHTVMsXLxSrkiQ/pYXUoX8S6zQVB60YNUPqt27WgJdIZLRyFrHUQcTTw8QXCTMU24AR+WfI51Tf0iWMhcfPPPhL4HNlYus3Wr7AKx21uHc7j322WC0B+/9h1fAye2vMnf0AIjynZgclLGFwqW42PZGPAH+C1NSmfVTd0gwGuN79BHdYmJkKCrENJ8/XnGf96VhtI7Jy7ZrQhEYOYYbss4hNSRdEE1WbUOGhXcqgzUNE7LYqJLNLD1/7semv+W8bpZXeqxTEPrlZw7BA4eXwMbGJgw7K9Dq7wEMB3D9Ax4Ao14PBifP0N+tjVUYra9Df8B3jxy95GJY39wUWk0yJZWHupXfhEuktPllbNv9Xdi+cAF6owH09vbgnf3PwjaCBMXomYlZLtvNgZ1KEVC720Wue5d0MF0XzSbUIcFYpLEffWeDpYccYCV7k4m4mI12p8d0y3If/Bet4MQ9JOtLDoEendSUT2jkHRFe3jBCZibeqxUZj2VX7xnidiGKrSkKkh1Cr/ElgWpbFdiEEgKnb1RMZe0C8ArWyxUpBtPtPf9IRj3tZmMFDblFsQphpxW8x0JzkgwMRX10cV3Bi4otI2y9HEaP4AXDHxCcokpZdr0UyPwzocAKZ3iEbDpDi4uIZ5bKCIookh0698tVAVqc4gGQeor4fRQ2cuRbrYVTuN7Ai1zEgiR8NVxjytWyWKJzdPeymsNvNe+slytp6kStH6cm5Glfx2VniYUDru4kyIiEve3aVX5Wq7PPfmMbLnxlSADh5JlzcOKGi+CeL16Aiw8ehDNnz0F/1Id+qw3XXPtguOvOO+Hs+dPwyKdcAd0uGgaW5oBmZcsQqS6ML7ISObjhvpQom8b8kBSV+XLqyliWMZzNpsnwfLwceBClvODK7/AUXUPjG1nBfkYb+VofXdeMxqKoWiaNQOIaKWnlT9x/P8fzJ/pd2xtPPBMeduzJ8La//wVbWk2leX3gL1BTBeaVDHcbKtVZqrSi36W5WPexzEbGMlz1ruMiZs+ezqBTJhkwG2SCdyQZHQt3GWP5Gw0DW4DJK3t+3T0vfXirpWKAsD8lIuUYNAnAeIDo+UPTZyc/Yg49b2Ft0TDDEXzmQ9+An3z+z8L2Rz/MkYHNdcA3l9x06XFob+/A3snTdDtp+8AGwMED0Ov14PzWFpy44gq/jIW/YwRib3eXn7uwA7C7A29Y+xzstfos0t44+yVUwyPrGvy5wF/zrkkwBECoDFCkSk23SpgAbEKo/BmuT2ZrkV7n65b1G7mm3c2WVYdYSWK5mFP/pmj1+jNKWe2DrhnvyZyomLeZFtlzN5NGW0/mKrpV05s4Bu1RMU68h8LJK7+AXFMWjrbivTZEqxp1oWeIr1oV1iDg0r1ny4DLOsBjjnLVsrFJLZyGVhznY89nilyJJjCFII/y6QL9QxZXK1h9d94K6CTEu1U6vUDoQgfUyfsrXpuMCBnC9E8JTWoDLWQlDFbbIVohqkhlDcQI1BUn8gYaQavDh9uVfnXWIy6Kdh3zeCZBWq02jtZIFJVoYn0vSbQRZBx+JGwgUkKZZeUz0rQNww7V/Kn7XPP6GjdWMSJhlV53LvSgv9OFwWAIuzvbsH5oBXo7Q1jprMGFrS3odFuwcXiVAAEpfLx6eaUNGHVRvC5um9kzT78ap2jx/cbW/J0V/ckZ8IxMWp2Kfk73C0kaSgACayZ5wBlX1jexgVFvJ+KuOZh+8dzvTtt4JeehUFiq+My5QWW3mJpTzhMlK6iXDh91+TPhOixSvEVOMcjnaIiz45PBzgATKovRDeiUEPMwzJGf8zIoe4fQjtMTsmkomiAFiRZxc/LLZGiVqt/v+mKaYGy0EI32rB5mEi2pqU6dFtFIIVpFzJLukLnzRUFs4FjuJc2T0ctjwJ88dIs+m/4gMCaFrmSAZP943uGnq1/rwlOufxL0v/kNONDuwGhtFW7+2jfgOx9wAjbPbsHp82fhwOYGrB44aABh68IFuPzEiSnKO/4KwTwChMFejz25nV2AvV34w7XPQa81yOjzjPawP5nvatiCNx+Ppfwh3ajGX3hkW5TAk2uXGSN6zvXDabpAn4JstZ2suzMgXppktnQu71gVBsJwT3CKnGVSv6Ex5Di00qO0mQ3WKfq6FnUcHIstBUaR85j24AiKTYuAm9tbGf46lcdrZjUIOrC8E1uVQWQctGLYHeHCTsKzXtmFUCYXijHytwtVMoo7eDBGiMTmMhvdKSMqmmm3oN8bQKfTphqGTCFmSLtIaAmVYd5GHQ3iUK/WXuR5ZfqyFVp6VA5yXhoNmdYKEE8oVOjzTrLyUm/BKyCoWfgeSZ8wztbA3Y9ghTwC+Tyo4CuY+Ud1ZhAT/jS8MMbD//CyECpeHo3oJVl2rXbWVZBBtECrTSAoKGlSlv4oqJ8cFXEFpWpfSViE9K1c5IRpJQ3NKwgMx2EzRzRDR9EpCjyPrltVFS4rYmfM5aijX19dY+aa90iYvrFcvCiGKKWlXk6OF0K1KZmfrCzqQo4/ieITh92VXloLckVl5XHvZQvp7Lt4j9105bPhYceeBG/9FBcp2o+7UMd/nLef9BXd3guiNtERZJHFPCchHDKISLDalhy6xoFKUMtKI7bPpli8LHklHSmTmA2WQQj8jXlIM8uJ6ND65IQIWx33boTsWJk2ip0edOEYXHQSYPOSo3D5oYMUzfzGmTNw7dFLYOX8Fpw5ewY2VldhZfMAjA5sUmpg68I2XH7FibA3cpVhIKC3twtYCN3qDwAw/NTvAfT24PWrn4M9rlKI16cru0vfWyC1G5weDdEkvpMiThGpwczyh9PYLP18d4HT4WThmQQ9YTPO3zEyWRRFP4Vv83YYjUr3WXjQSg6L1JiN0dsN/Xh58nSbHvN+RhxAyyd62qfOPtA+U75oFJ4iHPyhY1ssjw6IkP6mdzGwNAeuu7CLxCfCkTtccGdTDLWPjcq4Cc/7aj4rQn46UX+AQhCfZmyi2oWxiIB0YHne+LIOf66bSWMhG5I11+uEZXWywDdHThhdTlECFiLV2wv18gs6F8jE0j+helm9LAQ3FPKRh4Jxjw0StqerUeXlPaFPXvEs2RpRjb2+8TlEYILPe/Km0E1ptHNKhf7Uim9NjUgzccLC4khUJYAF9W+VD+5tcQ5tmzhmyVVW2ptEsSDSsdc2EMf7kB6+upe/YMMlR+P02ey6ynopJzgE7fx/VxDEBouZPxzwhUo8TnB08t514ItOlZ+8DUURZjxjDY+rMtLnLGriNpeFFL0yES/YujWGBFWhfs6NV3w3AYQ/+uT/EbhpIhw2v4aHeZ8HxaPxyti5CMTQhV6RsEpbCo96ojWlIwJossAr4+fJchfAtu4N1iFBiHxUgCJmGlY2B0yiANGmUNzr93Gg0wCG24MR8LN0ui/M8+3jOftXnuu0GCBrARnL9tFvrMPVvUOAbyq54tglcGhzA06ePQ8PPH6UDdr5LYC9PYDVVeLr+bPnYBvacMXVV9FL0Qa9PqUdxn5298JC7O3w5FekiHXrHAHjPzj4edt0xl2NFmb3rHopQbVIpCVWqbo2FPL29bj6/oH4GEXY9OMqjZWtOGJqpDnK4yOiInf68ipjBKfwOt6Z9Opf+3B6nR0QIUScNpbakMLyqkkDXWyL4gmgPWBSGQxpPYfpI9eR1h6qPmD1HJ70dlB8rxhgRUQx0wM1eIoB70FQZStfxaZ2XH6CUgr7WYtCggLTdoEB9EIQWfkQafQawVsZJNS/2pT7kzd1jmEN6sXOHkYn2FlX6NFHundAcriYY5GjaAE0uMXSilStjVAD7bw+n4fVuQmlwgDe2cyzFgz78lIUmgxHWUy5qWkWQ6kKjy/bEfXtIxIiC1bHoFf3+zPXUUiFlaUv9vIgzECG7NToXLO7tjiSiDFUIrNXgyGvp1aRVQCBwurfbGbVw+4ufOwpeL1qvvjf7DtCDAxpGkHKiPjtrVpUlJFlSQVpQVqYvwavRLXQbo2Pb3KNQRy3sxvmoiu43ZgRbRINp5oJFlze7Dxm0BnBeFoY0XtQeR6prIldjkL7JlRKUMGS6jLnnWkR2eH1y+BA9xK44/Snxzc/0caNIyCiqQKUQe1T6NTjet4jpwiHvWcC15kFlc/lB0hrytMVd2ZBkio1tkOhToX2hdDqowSyuqEmQdaR5F1Czarjrd4hrtZlnYLy2Q+8YJFnJetlI4Ayf/rD6xnxkPMcEAVNWeswAnjI1jE4MbqYlOKla2tUhHh2axseePRiaK+vAvT7dKQRCxVHF3bg/PYu9NojOHrFCeisrdJV5uH4ZVjq3s5uOGGC7V0kCs6eheFOD15z7Hbd6NYwqAKem05H5cqnAwnwZOYrrQwke73o+0P+mqqXhYgjebomshZCi6a4cW00omg6BsXRXq3MzoAaX63LilLK/jRDTp0Eb2PliBZiSpHhAOiUlwIX+zcTAdA547gEGn0EWYBHxHwXidPoJgPVPIsuSVt3uVN0K5jaFkwx2JWaIt8k4RSv5+JARFKxnZGJKlbJLrR7cxlrEmEITlByuFbMarUX4zAwhJViJ5wNxHiozntVytxISbgiWhIMn+oc8zR4cck7lY2vOiJqJ4tCBR3i/uSFcsfRX9iQeaEuFmIt2pE6WLnvl+xVXrhYAAwbmPBSE1XmmF4x0KsGnCq2w33sGn7V28264gnr6vCZX195Hmbm10TAunCkBVKCkWNwsusoAi3nmEf9QWTcdF5Yr8DuQJxiwJJD+hnjT7wCWmMpWY7C6n+/ES1FkaPQrRrfASc9V241Hg7WY9RB91tIk0r0w7nZ0VAO5Uc1BWSYc/ZRpqApz6OOFLDXbTJx322sKINXTGvi5Ep5Jm+DMxba5SxYvOvAij0vyskfoTG5neAtqnH2RydDm7iRpdcw4qNfddyb/NCJ0JfHSTCWX9oVM4bGkuiUeb/yi9/TBM5IXDml5WkkHeN2RbvbJifCXC+9pwSBNoIRm8oIrj17EI73L4bOqAXss7RgFVpw9aFNaG8egOHZCwC7e7Az7MH53jb0hiPYgC5cctXlAJsb01MgCAwsTAiWWoDeAPq7e/D6Y18OQBE3N9liTrdmPWKcDd/bIREQtAG6P+Xkma6DRkpUZylr9Fg9ZV2z942Q0ym6Uq5EZ/7JH8I2oovqWAS8aDvPf7EroVg7SGXOdpcvWbfYtqaJ+rfFxmrPz5FqtwiXxu/i8KE0u8xOHAh/PwZHKLJeGo8Xok7he39His9uqqPoozgUwXjOi2+y7LeVUpAQigKW4yf+Lt6A1sxsEEHhvDaHSk1Ha3pANglTz0OEazbDkOZAOzLocWtjNps/lGOL9LUL88Veg6J3plnDNkw4k8OoNEZbcVRA96cYJp++N7jsTlpQxbW/qSxzbNDrLdWtzo6FfHsQMFpAW5+QWvCRAN6IISZmvIvlNKrgZQaEK0HZqeJNhwqOLwFiMBGFb9SLdoorxsYunKwelqx/8ATduWDNgdnW88BLFToziZQGCplEYdwS8LLKtc8cVsxaFh/D5MHMA6Q/nBevAjkW/9Z20pdiFtN2WqzHfXGaSwROXgXOWyJEsvRvTTlRpEU9bUEzkTrQF9qoty53lOhxWkpL+ToLMnLCC8cf5ZcqCHzCPH/x7IOyDqkQpNO6wwectfMXQalHbSLgav68wvSeF/cbdAztbeEFnSTR62NDhaxiRltPH+nRqevRZIe/yKPTKJTNR4amfWhrK3KC64IaVjxFrjvj+2FCv3gHgeDYTC0OrgmNKbkmeveEpRA0uqQeDSsoHiJc0oO6pT1qweqwA+uDLhzsrcDGqAXXbG/ARneTj061W7A3GsLu7jYMdvuw0VmBSy87Bp2N9Yw2iP+kmgPksRx7oUufBgPobe/BPYML8M7j3zT5sHoTUeHm+du+Y+ap2iL9kN2OEjUzp1C2CasxfemargM3VvEgb1wBgpzw4UWQtKAbK1IDUe5PdDoxOeaFd7ZCBFvWWvV1JgOteloNOI1rkbegL9SB1T2tattsrNpfRxLLvRkCq8/ypxHscUt9B4dKdR3hJT9fMlZqdMUWPuuFN46wYzwOE8K8Qah1JTxjTQBMY6jC5g9CWC8+AiPqdKwekYrqSAj4/CqNFXmAzmr6tXNGVTd3tLTWTJCjlgyLEosK1ESBm9GyuYVQMtEpV49ayF/gVdYAkWJCj11QKhaekbLOFPqxIPkCMhF+UxxxgQ697ldoY6HiyVBUgxSorAHRyU8EVjJDGElzL4YYLb4uxlEBgjeO1B3PPOTGHDoNRd62yWwJTFCVPlMZcrWpAIGs4pDudRQlPYvwI574NuJIeE/V7tIgBgSFy/ZXGktKQUPINCGD3AgCQztTVtQdxz99oSNFCYRA8w11GJEnWklsR94YM3KAxtettYvIhxcbyfc+ZCpOrzA63kr+2jG6f8DxO1ucacV8clTKisrIQYoXKnhPTsFm7kpg2WNUTaCAFLtMAPcGvvTJ5hPBIAMeul9yQR9tsUAX7T27F0WMUh5Y9I656cfwISve0C+ui+oyXje/B+JiNv/2PzV2Ov8AOmJZ8sAFn+VomexlKozNvl2ReUrTbbXg6s+vwKHBKhzc2IDRkUMAgz7AmfPQ2+3B5noXrrz4YlhfXeOTVXk/3RXujFIUWI8gDnG/Dyd3tuB0pwd/e/lpdho0ijd2L0a4GplSThiFJh3IikBrVkgfyiuaAxgOx9p5nUP9RXzvRbxwGj3z16UrlPB1WD5wwI6UZ4Kk0MwrV0Oc/VecUbwJ1wpvFZRoxEhe8ib925FOV66gPoemW0lmNdIU4khRjaCeBtWCTcYL/h1F4cyXwy8+KGG/s0OCR0VDkR9fU8DyRsccDb04VGYsM0gjZ/0z+xY78qF3FWVRA5GuUim27ZUbs2HPkN9u51Yur4I/I9xKC6OyfNln4QibLczTooD2UdtVo5IQkGLw6E2YKDktzaMaMBCwFIyM6GwVGGyHY8ilIeNeroPkOrQoMApbildPH2kOTShE5G+OrI3H9K5udKG3y8UMhJmcghugx6D7LgIRfDuiNwwtrViWMYe9oPxZqwQJZ2UdFoXeQWDWwO+EcVDJoECUogiYJF1YuB0/Q0rJnzWWmAa78RJlCoJsGEiJxpMbI7wshp/JsN7iCKgcKU85Bmo09+mMDJ3aUFSgcuD4QWsYrjanq1Plh6fs6M2kwyJJ9+Mo8dYReq3BKKA8c4qDf/x7OWzi8h0CEB8hRJmO046xYfYyNQ4mnEF1S5+9LMzTxmnK6Ba0KDRP73wREiia5gAMXayDBWeOo/YKZp+DJUMYn2Yy7zSjGwUHRqzXEyNqLQAAIABJREFUiAfr60w+U9YQ15HvbYjrqxRIEBiR00BU/BkFfNx17xqyJ+FUB0iYOQR49O41sLaHNU8D2FzpwM49Z+H07gU4urkBV24cgvXVdWgdPkD091sj2IU+rA67wqMRrHbwCPI2DHq7lK9vD0bQ6QPcs3cOdjpD+MTR83AX8HtV9IfIoP0lEcHMtrbvx67uFh2URUaub7sAj4wZC7a+8VG9bWsuIs61ZhkiBOxY11bUx46aSmYUYfZOr6xt9iRMlNrT694p3NrCe5CjaJw/3RKlxJzONJtMv+gbZkM2gTIYKuPyxlm9vlqjZn5/YqiKZS5TIOzuFVGsZPoUR8a3ObJ2EPdPCDJFSpElh8tFm0a22ys+C1OEIibtUofRnD6FrOlVscwZK8LS8JAqBZlpyMz5EwIhoE39q5Kw1EOsvZ2DGG1uRjJ6REciKPLCI0U5iu6IWitMcShWQKZFGryAuxcumUL2FLhQkIZ9+HWxcaFNgIEGS4P50KI7MfyGCsdyVIqGZdlZAIIJ0kiAEiKgSuxrsB2etQ5gI81Iu8eSpjTFy6Owt38PfZdfe+s3tG/vdYdViOtau43CxMWE0fRFkWouU11nqh1h18uidizOAXWEM/e8YNkcPIVYCSnE50VY3sWrcKFnOoMdeeBZTllwdCypEYHIDFjX8TwAxvePBAUee6rZzo030iB+Q2h4GyLxgFILjs9O85BtJCby9/xCqmg1oxQtgb94N5pKCssZwHhYnXCzZ9a2hH3uwAjR6DxSwsIxiONAmq8sj/WHebkyPd9e24bob+aWTEkRMd/Yc/W60fSC4kjeNOxRZm4ARH6qA4N7SVNSNO8WwLdtP5gM/nB3Dx5y6VH4+snTcH44gJXVVbjy8CFKRYzw8qPeHtyx3odbB3fBdT281rwF7X4frjl6FL558hScGQygu7JCwOLI2irA+W2A3i5srbXhT9q3wa7cIuXKSnO2YMZLj8LeYsA90CcHXE5wyeccuQ0nnjStQTzM3QfBP0Fg6SNLmPZB/YRR8wjg+D0pfPQH0BSkmFqUgYP94iPHBISyhcoZXcnrLjKdcTudB+L2robdMhtFnKfISZLL+3Sf4DAItm0POoYxsAkRMtOVsvHoFIN61WFTuSt1hR7hl+V9zFvOXZzsPf++qkqsOIVEuJhjOPJvWpf6BalqDu+JCIzxVaW6IBrmwamSUdXTAQ5BZh09H/lQg8E8yLzExwyQbuhwSkLfXGhxMA05CjKjcLxP34T9YK6pHXEUQxwVZwoa9YYpqF4pFlReidApurWQlkJDf6+YXjoDI+ij56/RAry1UCSLvHEXcaGIg9pfDRO2RoBRBzWEFPYiiXTecRYmC4jEvjD66deFPFVVkC0uvtLIEGdd3GVTDCtjQOCjFOJpBAPpNpdcLqJztGd8xXaO0fJ9jSum2ACj9xl57MMhDKTqnZYq3KTCSjXbYcZw5n3vtaMq0Slkx19lvKs2ViO7/TzYk5vyRGZ9fp3Aos+PKphXcIEpEokosViGuzd02GyUz4MI8tw1paNGIgN2qrRHGnwkD/vWl7cRWM25ftlLZpb36ORTO3NIkHEuGiMAIBj9OOISbjDlJ2IABXRBmB+f5MYZQ42qcduQ1tB+brr7BBxY24BWuwsPOnQA7jhzBvY6XVrJa44dhe7uHowuXKDiw690tuAWOAkPvXApdNfW4dD6Klx55CL4yje/CVtSN3PiyEVwEB267W26KOl8qw/vWPtH2MW7DMg4sAmmFKhG3nykwF5cxeaotzeAjl6IhgYcK/VF7+K6aG2G8UbkktLhdCzcXh0nN7+yVOWlepnB4gCK0GiEgGu3XB1N1p7p22xVhzvHkLr0tzVadEPy9/ROmrad0InWWJS41cgIjZauoheAYRSYr1HurLZFz3Kkg/0dAY5ZwxarOUntjIjfnoasumHdq1AK6R7gMUe5B0EWV3SwXGik3JItLUbXjERGE5HCEOWvKItRddDhWgTI/wYUxRrSaSwqjlNLoR49c9WKp4hLprKhja8CpL9DNIKyZMRkLQZjgoy+jJax/LTGw0zhycU9qPQjdzbaxzwNxxcGX4oq5cWZUp+AD/oibpqdFl7J1An4DEfQXelQqI/ng/uaX4OM+UlceHrZFW604Qj6/YG9KZDb8zuF8fuNg6uwt9Njr04831AVq96KKC1BUJR2AIC1jRXyHLmKGIHFgASuu9ahOa6sdGjue7v4ljgRZASA6G1K8RzOQ8M8CEw4nyoGhAxqnHJRgMUFicwfKvCiC7J4A9Fti0746aRMxtCzWEixoKZjBBcpilZx5GdZ1gyZi7EiWuk6XD48qems7MkVOsvslY1PBwnaJm/U1tnjHOGJLzN2b6008cp6JTZetgBTrytX103Wd0z2Y68GjVIULUF5dblKnKMVRmV0Af6pp11sh8o7DvRvbK/6wbZ/nBCW/H7QQ75wknVqYDKpA/f6bF7P7C2Til3Vsmuk02tVVpLBvwvfqWI2MiO0rqkFtWbjTFF9YN/QunJsNIpUaX0VPigetZ2eyfBIueDOPsBNd18OGysHoLPSgesuvRTuOHUazvd60NvehodceQWs43i7OwDdLnxp92749PZdcPX5i6GzuQZHNjfgiouOwNdPnYGze3uUajhx+Agcv+RiorW/vQ3n+zvwJ53PQJ+O4MndOHRCw9cFhOiu6RjzeJ3wCjjTaCmniERGdXllz3CPzPQg7lwHQGstxbVBj+pahDWxtM2kuihZfAXEFp3REWXNeQaZAha39OTYCM5DfcHq1MurA5hRNE5m6e5SiaKi0oV3PvQ0DZkt3Rd5J/M0ajEmtxoZDZEbktVnv+gm0gFx1fOQDJcaNhwyurxDGeicN0aRIURPnqRoP/XK+fhOjJZ9DYOuvVWNogoWxcpYQBhHAQktauPNbAtBhU5cIawedCg8ZO1O5Gs5quASNlRyjsGFrA0LiDG2kJ9GfKRgS6/uZMFEg46oWO6zdqcDtCqYRUvfve4KIaXqHPtpr6KEsKdjOkEvESEeyHdm2bCwTY6lyvqtrOJFVfLyGQ1zS0jS+fgsuCp4UsOhiosLvSQKpNdlZ8OEvk5AK+BbLVihOQD091CmONLgjxmREIoCZOCm53P191BNTyuqG07qQQis4We6UJnb/khxECCgmxPY8xArwiH1AIo4xe2Vu16aw96fiDgr8yEicq4rsOuoCfELNnK2AXsRsRCDhVdvazs5wWCxvXA5FoIeApEi00SaHFm0uxvEk6CQKx3NEwUhhlHvJMDrrSktQF4PW+/+3gDwWF0bHUuSVVHKsh4Kerio1R1VpuO0vJcJJCgAxm40HSlAnccPPInD9wz4+v0hATwV46w3zaJn6nhch0g9i7KQDEWmUJRki2TGeV+i3Ik8kSuuHRCUn+eZBaziEYWaCklPuO2kRkIdB9yLmciWgSP1ZN0e0cgcr4XoV2c08ROONrQI+OPzuCaPP3c1dDAyOxrB9VdeCXecPgXnLmzTHQYPfeCVsLa6AsMev/Hx9sFJuG3rTnjQ3qUEag+urcADjh2Dr506BafOb8Fotw9XXXoMLjp4AEb9Pl29fA724G3bt0Cf3mXCBKGXi7+hXKH94PoN3lMoQySDZGtQ5lhWKWolUUwufpZn0VbonRrQgv5gSE4S7jfsn/UG8wPnT1pX38lgl6iF+w747g9xEHhIkctwckttPfemOiVOBxIY4oCJ/Yt7yGwMB8XD1dwiGXQbpUiMRtMwdU+iJnuFonIyrupFBqQikt4ukSrgog8WV75AzzCMDJaVNXUwaT9LgSX9LvVkOh6TTa975giCLqJKPRldWli8b5uNLRGhytxtD/rVFbrpTVC0IKgwcLakPNlAK6Oo8l6dtSG/OIem64wk2S3xfklBo1DgLbJoNA1lBlRG89BKe+kryt9p6F9CCF55RZpMcuUqKxrS4qlq6NijwaDEskVrljKgPLVnnKBvEjj+Qk85hGpdPzdRtA5tcqgXlYSE1zLV5TgnWmCXb7Uoj1RjUx9tBol0HhdBlHjK9gITmhSHoPwPe4nBsAajEj5TIxEVzfg7KFp4axkbCAZvAFjwSIbDiuqYM76KmRRmxE8Gtvqjr3tlQCIGJlOPwQYhzoH7KuhotWTuVubn37lBeUcPubSo1dOT8eC17sENQjLu/xYv2z6S0H3kcORc16w06lwQBPDe4B/yirILIt95ZUdKRPjOFefxxs8acy/D+qS/94DWGAumMsbXrinXRmPj5JwaGUtdZeVjfIJczOj2LRnsDDECrnRuBDZ8hWZG9+F+IgdLhJE8YEoleTQxjjb0pV9KDzsUMc2dLkbnIiEXPcH9kW7M0IPzedyFa2Gzi3ECgOuvPAFfuuseOL+zA4OtC3DdtVdT6g7rEzDNdfvoFHzq7NfhocPLCfheetERuPTQIfjqyVNwbnuHNviVl1wCB7srBA5wfudhF94xuBX2Bj02tnlgSugKpz7Y6HCUNqY6q1d8moInGthJAFAutMI0lthXipASmHQY398GO85FPQI8TrznuelksYMZdpNOZNUej6DhepMCS72wpiPD7tiAcoDyuYpOFS+uODQSNc3UOGnKNdQK+Zd6xXtBdTrvPwEWmqoQAjstAesE2oZ8BQEec1TfXJE630acMUyZMgJeFX5GUZWlCCRVwFEFj5KQOOlXwh90PIuuyhWFat5ryDXjOOaJsBtllUZk3Nz68tDhlihjiGymkJ9ng67MNYUlZ5kVmGjARlYsBlLiOjEKzFEABmD0O547ninWgkxqp965+De+Kw3nc96JixYp0oFd6UtmaBFCiMiyl5Jnxzmo4URl1pU8PwrjsIffuRsuVTlqcaTTccJa2x9Ih4IvVEo+/BsccQZ0xh2JNKhy4/Vx4kZeA8sf85X/J4+/AdCFQlddbwVORCwdqeMNTHtD5JO8GAG2GqniqBO7xFzXokdHQ7EY9efaGYCVCAgrRHdeXepIqHqdHSOmwekTMt4anRFmocIjAz3AN2DKpWXiaWvaRz0pVZIk1VYgpXdFIKDG+41jQ4frQusmZ/IDGOO90e10LE9M+VAA2N3CV/yOoLvaofd04GcYJcJ+MLUl8U3R53y8jetE1IUOc6eXROHnWoTsWBL4KwtIeoZPUnh5UfrxM06zMeAL9zPkhKsVhYokq7xR+opuV0UvvEU8Z/3GC4VOCes00QYYtZGoi8qUfs+3kIYIoiopSWWLHJr7mMkNs44joCHzpvmRVeexaa9J8EyB8l5vAL0dfPPiAC65cx02hl24/qqr4UEXH4F7LuzAnWfOwKEDB+C6E5fD+kqX3s0w6A/gC9t3wZ9/7hNw5dpRGO4N4PoTV8LRjU3Y2xvAHXffA8cuugguO3wILjt8GIb9PgyGGEHYhT/a+Tu7bTAYTZbTsL8lYiPuOUdqma905bboGXZSwskOTRlovxru93o6m9bjPcTrw6cpxRA6LxB170jeX2L7MISe7GZJ0zdibrjQkWWRwANFtsOFgSQn0bzJxLLuCczR7SE95d1wyHtPdRXpe1HoOnc1vUhR5A+KsxgUtIeocoLLRaGIf8Qnrk3QY6v2sjWKILz4Ji7E1eILzf/IrFTQpSeLIIjeFklw/1A7uZtdw5361jarT1BWxyEVUyISsiSTqC/EkUXGfzRXpdAxMqgC3C3mEVW5ioHWkKg0NOcg4A61K2bYqMbGwmV+O6ggilHLLKY+yVENVohjL4BSzGMBUNpeoiScdEVGR4yigQvphHZHkEr1kPXSGlY43D8KMIav4w3NkQQ+oy5nfNE44MbjehnSddRHu0VFd3R9tChE3xdS5IvNNNVB3hXHHtkWm+zJZU22LmgQ5EUpeoMaw2YJEcrpA7b6No/IQFPIVaJOfS4SRJmi1IcQS16IGGe+S0JymYKT7XQNMY+NUPAKOAWAz2CocXWlTYYElSttcs2Nyvsi6ESQHEFl4MShVh3TlIF8Rl4lphgkdI9z4Ut92Jjp8TiuNI6voKZonxwZtugGFQaHFAErIF5nvg1UPDDpS/e/1uZQ5I60nhgrCk+yx4OghU9zaC7eHaHFG1kRULg6BFEVXKCmffQwCsR/UwRTU0Z0o6ukdARAkX4gYAqwutaRkHaLDCTNR1KarC/YWBD9qhNk/fUoI01JC341GoBGTO4zwVQfef06vsiC1rwQsJBws/KSpNWe99f5Oq9YtqvuN27Da0vbWWReQ+wUrsc9J0BGxB8GvQHsXMD3K2CdwACg14LDq5uw0enA+nANTn3lNDzw2HF4zDVXw4FOh1KXo04bbrtwF7zn7ttEbbRgc2UN1lY6sDLswpm7zsJl6xfDibVDcPmhw2wYOy3Y7Q7hlgNfYT2p+TOnqhS4aoqELaMAdFX0DjSawiXjLlEREmm5I8fq0WJny2Kumb7EByAmh1I2VuJ6GkEdEO3RQIF5M6aGJbXHkU4Gigx+9Yi6ARmPhdUZCeidgRPpFzm6SPwTuRMbw9pZ6YzvvSEZUS9DVKGxXQCCvlYgthxZG+1cX5V1RRveicOrlnWRPbDOC2uZsZP9pkOGYEMI7ityyhof68NZdc1xtrpuM4nHHwxaMJrqDWs6wjMi9C9MF7upZ7w5TxOuIWaFlw1Nxj3SZqVdGD5nrzFEWtr4utURKiY20B41ZunjqIATPuD8XNRGlaxctarhpm63Q4adnVx+LaxePrO61pWQPCsQ8+i1eEeOFiryVuOgyp3oVCSEgiuGHNMXkrYWL1QudtLjPEKPvs2RlKiGbeXGQC2iwSGUl+olUpGh1AP0RbmTIcTcqoYS0XgpKm1hwSQmzvHE1YDvzJCaDPL8pZCOXy/MIIS9Y/RymddoFBAksAFGXkmkgoo3hbeq2MXjsKNVArBIbiTggIafMrDiueB72GlIS73xd6RMh1rkyMoQX2+NhGAhE4VgyVPWaAd75eitdLsYTRhRBTgtld4g5wVM6hB0PvgVFqrxHmeZYCyBxqxF/NNTKKHoKQg63c1A4ExcV0pFCSCQSMmwH4AAvgAIf7gYlcfRnxU04ggqMSJCIGlE4xONVAvBCV6lvdcb2HsdVte7xIM+FsBKl6rQg7eu4XkFEhLpkCr53Qt9Lmqlglana+RaZQPxsjWx6JnDxFxkyxf98Gx0vyLPKD0iRbhI28pqV6IOI9jd6dNY+FpzOlrX5efV4eK9h2vAofe1dcoF0Vj4Oa2bLUfwJCwCpTKK/UpFPeluKaTF6BPW/2D/mMcf7o5gBYEaRXxQk2BccgQ9fE8OAi3kMw3Kwt3b6zNQwZob2o8s0wiEjxzdCO8vkOyZGU7aHEw7gWTCZ2xgaUwqXGbcpiCWltVkRk8ksK5E3iDvUF78fR1Us8DITqKNLsKTUajsCfP6oSxikTVFBsZSTLHc8t4xVOrqDXjSCjoZ5IZBNZLrT7twBCJETNVScKSUQTDKDO4fxPIoKqQXlL+2m0I9irdDLDCSQnR6gWyFOsDCZ65bkroPjerodd5qN5+DL2tyP/i5Gk1HixX86WesLCPp1QC5M6QOEvkxqG0ovGNDBxS2JEChCkCMFB+HcZvUgQc2IOyxsDcaQsjmCbMvbhuNaJdjTxpaZr4Gz4hPBsgpA10g3B8SDSGDxuEA9rpwQ6pnSGEO8zHlimhGsmQD9DrcrhaGsUEngyYvutFQOCl0ybVrUR299Ep2H4chMVQuRlJDbDQVd/G4GHOcZ3RFrPOYuA6FDQnFRYQd5rFq1b2ETnWzmceNbRFwyZE3Ommwx0WBlEuVCjo+vsMCobfEWXhdQ7q4OfASKS/s5FGyh6l7nZF2iLYoIDUlpykjHavVgkGPw5w4L/XC6ZywFNTR0SQ5eaG5Za3R4c/1beu80bXAjnRIJu2toUmrqnZeZ4gzS+RE5Z6ukGfVQYWVLk9Ol9aQUmLDhXQhwCDQpZ6IeCWiy6WIDS/GYw8f+zCa/YubZHwGcLz4XLgbUmjBGcAj9GzANFKE9PDrwbkjzQ/bDZHYDx1P8+vF5/kJhNgJGRm+3aJiX95fuEckcoTGQtacokUiS/SmU4kyIN0I/DQFhrLE7xyRdVbgiSd+NLwtRzFtjsJrSsVQUScCDElliGzqnqE6HAHXpC5Ej7F+YVlnw8DH1/hvrbdijxSL/GiLRO8qcHcpiMXhNIgYMVFD+BkCeeTH3k4fOpQeQqPa4eNy8o4EknEFlgqKzTAzK1lW5ZidyIvGylW/UqGh1L6EOzEEIEskBbulk04WibPkp4Befa8Cgw9+LqT9UF6DndGoCq+fAgk18igP+DvpHtnHWmivkcoxYOkv/9J0ohQBW+pX+KEpDy2wVj3Ne0ONW5BFA6AOiVp6W2SDa/y4Le1m9/bs0GU4AaaAWNdfpMoI0CguLafaEUeaDkYOkjtOriE1klkBY5Yye96PP4ZoIcGVm9V8Po3Cf/omOFEgETDz6AL7ccfBSM+oIiOkKiEZsp8RLhEmiVHS8INwn1NEwQNDIdX3c2vVKwmMvGOXi4pE2CU0q8fp1HBo1AKFHDeVFQfJJiYZtHfHy7lb2fldrNaVqmhCd3JiQICseWgDxOaCTtlrk4WTIh0MCSKP0AjRBkHFT0f3Mnl5UagarlNBYSRNGSS5vYwNh8qkcpgUEvIMc+6iHPS4IN8Bz4BpZYU3PXpqqPwxp0x5Xc2DiTmgtpSakHsSJAyoHo8ZDH9fvYAcikSIAuTQNitLNq6cd0V0z0oab4Lj6I16vSz8LoTNu0vmzUzWtxVqmJaUL0YpyNPjiAHLgQINhu/0HHqXAhwYSDCgIo9YvD0CCCSUvBMolE/eUrgymyNMsugUodLvw4UlNne5qhXNpM6djhiqcREQTDIumLuzKvTsaaELh9mZZwKinGGnUKs/TSP7dnWVvXr0LtEAMn/DrYlcnKzHS8Nb9EQkrYiKbZ1TkGIRSa6x/92+HK1lR4DWnLIV7B2FtyK2YH0TvdgW7Gzt6dfmjeLe40jVCHa3JVrR7dBJDN03+q8maPEkDxpLAvFSR8CGXQGnoGp3LTkBMTqhgvUfkpbQolIHhNkxCcfsuPaOPVpmZnhTo1b1Iz97uG54fBmdIl/jIPKtx4nVy2OGSd8aVaRTJKzn0JhSmYnsH0ZcI6DDAAroDbmwHtLj0bhuGLlTw6KGX1W7rRPt5zaw/uPaGNoBUu9KoFU8bU1b0f4Qo89OGRa9cxtzLGTf64kbHZfL1YSXElmgdRMgSrUmGIXCfUrgsM2AEvUo6g2xPaRXBEVSuknuUsD26MDg97SOJCMaXWYqOGrE+5wiYHR/hgOlIvNkBnTuesJBnTGVM9E3HmTTeIRqQorQz19rGC02JuMoa7hmSluwo4EgnHW21uzIHLD+wi4mjMoMqQNzqkRvEG3PfMGNBOh9XtwQr/e83Ye6KVQImUB9Z0A4C8sfh2Mi7KHzlCWiTL/jIrFxlbwbLUYXuistXnzLRYlXLMibDJUhc7mkQ1CQ9em8LzyvjwqRBJnyiayguB8+JsIFSeLJi1e+soLhTbl/YMCIGFG63hCHQkmGpY30speG1b7ME/dqUUEJ+A/eGcBGhUN9+DsfBWQjyWFc9K44/YEeJYIHDZ+jMaBNSIqBoYDl+1TvUshCoydximRtc4WPHZFnhKhccrzuxkddP+UJ14PIsUEJk2oIUXPh/CxuWrmjoNuJN62ENTnsw4KtigEVjqU/5LpZLiRkzwNDzhpNQcXK+W4+9qT9qTIMm1BClS0OeyMPUREo5uUjU3osTlIachQLC/tWN1YFrADs7vREa+jlUgBdTOustGFvux/uqRAPD+dC91fISYTe/8/VmzVLlm1ZeX6iOdFnZOZtqwCZJPQimamoKpD0B6QHAQUUZsgwPQgVopNhwky/WEgU1O2yiz7iRMSRfd8YY7vndciKGyf8uO+99lqzGXPMMd9+PFCKo955Ie5ido+RusgkZkQvy1wjL/Zg1DjG4PPiuW6fjF8hR6JZgwJOrZV/ePupxLwzGe/IiC5KMxqQsx8twnQOrHHAtva2zU2RJNCNBghHGbG11T37lSAWXBQPTJkOKPvBPfUuuB/OHC/RKPVISgI0OSgZdtn61vWQ/S3TfEjj6qw1IJSb5nw+vj8jD8s0NhY5WVo7pT4X+Vvg1e++/2Btd90n562e9ku9ektKPZ8JSGIY2ZM/QpxwaHV8Iik3dXgHMtF6ddtvh1DG9hj6phT3+db1xA76OZQeFvxU3yVDsBb0Fgtv0nTV2nfWGs0Vnsta4pORHclJ28Ldz5TUmvh4LoeuFgkMBFXk4JayYZAar/zOlbZyPkZy7hziPFpr+lq6OWlteRae/bOSFk5+JaF1ryT4z+wTs/MG97FkQWcXBPXxHwiI/pn9UIRGs4atWRlLFCVJ37n1tu2WF559LetcP4nZuleWoARBb4Z/id5371/yuFzj+hrtxs1xKBL0NtEY4hCODgHf+kQvEpt/8C//uOWsrPqRCfh88jM+/iAGxu0dUNmg8B9FRavXJG44nECyjkZpF/92JkflkbjBGxkd8xAuYbcuyq737BxzsdtcM5JjhC5L1CmRJZYrEOf24yKP9/gjMtq0IOJc2EzZ9GW1bqZBvx+ExBih92NNaeOYSzqa0TTL6MAqWw3VN2h2246M37+WwyP2mcVwhgTm93Sjk9UvGz970TyTrcc2yq4n6HKzY9CNrtXqhmmHbLnkYg0xckNiklUPymn83gDwQEBa+93McjI64egS5zSUu7/19SsGlcAmxiKZDI4oTu+ksx6ctsPC2jx+dq2hPH9u9sC9Cv5QCgnMTT0WMtKn093791oGyedeXrtnEAP28N7p7esbs7kDJaKU0UyeDJb3WetXXS11+EG5Qn69PwIfodLLzX2hN8BejfNtP3nZ1UL3tQNHJkPQV2XMkRATkGX/J7jrCa+h82+XCngBVw4HzL9f1scHZXLfcB14DnyX2X37q6exskAM82DpqSJZ4Stkz3/kI+G8AAAgAElEQVS8iXrjZRKydZ0B9x5KYjS5aTbMszTIPjo+soc9qyXSXgbRx7kY2rMgaEjIQQIMYz2PJPwa1/M2qBvPjGuAHJmH0DNYTsmBBHUoXro3hpYWde2z2373GczZlT8DIc7zNfGnQtTJ4pv5lgx77vWLY9GRgy5APiS5qJrh9uhR9qij5n5WZtPG1bGAVqbsNltbomyD7CWEcZjhV9h+aGmjrfMthRU8Oib6ysU50KSqBA4Kr++IgZ+o1LnL47BtW4eLoC1F2JYz2qWCzQnilr0WxHR7suXqyoknIJrTrEMzUQqJeuhhnvtUZGvzGjHNbqxEcQnxH90yJR+LiHbk9wKEnTvLaA1+F3QwuyMx1wLFrP0l12wBuM+0lWefKY9x+iiHVzjHYFd/9n/88e0lFLrN5IdcSjMeJI1ktT9yyhqNcw86hwajyOsdbFrv7pwdC6vfv8BFhp8QRR/B4nZg662NTh89vh/Xdnt7KPYFEVh98lwDXaWCxbHO+Xt9pBzAnLfbE+Q/jBtLg3ELSzgb+iAyrm5xcAVyUflxiocQtn5EaCzks7tF7ZTb5X0x1r2uHex0LHbJchBScz4Xt4cycMjvPSgUCkO7G5yDFiNfcsvElUoZM3tgvTocaBtpv8MeOKsTBv4dc/eScLNgcuxq1k7nq5G8Ol0/DEriASyEeWSnhfQD9baMRWKVOtQ5i+76HGvVDs9wGy7IniNiHnBwxIi6ykfAc8wmWEmqAYhEH4WUzux3r3WGZsO6LDkk8MUIgiokwzmz3lSWbDse2Wge9NXpwYNCs83eatd7jau/xlMgQb3nEmOcnxOMzDhvTTHAM3Y60bL3Fyhn7S4krKsTAkp1fc3kvtSKIaR5Ztr1kTN+btQexyaf1z1aKNef4bRLYEyQteU/TySNemLabj8vEFpG5KM/O0aDDU/Lj/U3rC13Pc4lzXNNHBhbQ9gLAIHzKVyU+3LWxwnKdQ6FyE44G0kTq37fzp6/uwDnHllpXFSe21l6fFnquf6cc+H+oUzyeqTOswzuj2gsRRQ5JwxZSyDy8XT6FLsYs7OFpq/+PJBn9ftwDuK8RmSMXbsoY/V5pqR43i8I/ByEwmbU6ljUdg0xTNDYTqLZtIojbR9hl2aHlxGLnurz0+K4ezcovKrIW3kiO0fbkUMTkuCcWwaHah4o1QLAJW8mYXm+y55FdDbgrg9fMaShmis9N1DAX7C/DGrl4rR822BuCbPXMr2ZqtFqKvA9nz6VD3WWWTcYO5ChwzSceSOg16Ce3Y8ha8fO8fOddf1tTs6PJtSeE6czIGCy0P08eXQSi3v3752u/uyf//HtQYTrytsJtcNUOMg1O8gtJefVKMYpnMk7bL5lLMfmvVCp87ANrqxhX+vJER3nyLaeugOcVik8qDBbo+wjuy4LUCdTqFuWbCPeBFnnhfHwHrBpHKboQFvhRmZ04y6TOtosA46O8a7BMLPIwT/qeyNXjcy2/voe7mVVtRhHFrj13iXnIC5BSUx8SbA0ULnT778wKq5nAyp/fw5xz7VQ1LGhqwJmPb4bZ4jE4GN2MA4Hx6iRXD97I1gMgWxl64OFuzfzQYZ7iW/lRQDBkdXMsW0tWRMPTDMuM4xF6f28KCOmPiic9gkOQ53o53w/v0fdlKBMGWp+5wLyUorjcvStZYuUkDxwFcHBicJQ5xq4Bw1065vOsyiKMwKdFZByZwgaZpWCgCTD4EBKUL17J2tAmaE45u6N7/W+qiS3oGpO6+FF0BzSXj97UskH8Sj3owJk42+um8/XIEB23F6Zz2kL3koS2z86vEK8WyePSDtfuAKCFs6DJY+25QUZmE0rLM2ZQ31PazpHnf0u8nZBTJ3J5HmuvDRS7fksFQFrYJV6dMp4S3z4nOy5wPWQ+m4oG7ZdU0jffXWvSGMV/DbJt50dh01pyULHeaHiynPTpzQIippgEpLzmT57BLscOkVW/k1JlRruMdFPp9PDJ9euKfdAQsNzJMDT7ty9c3pgcN7M+EO6djAESyImc+1+mBjX7a0J3cMn7YZq0pzgMZ/BZ7pPtF8JJmbrcUn3791ra3o4Acmw0w7N/xt3iet48PietmkZNGeCICh7kwRwKFuM1vZs4/Y6hdrF1gBk/t+5Or15deO14UCnJksH09DqGdNLAvDKBbHrZ5g9rcVnm7VnyDNZgJESUJ7jj0qERerizToRWV96Jt+G05TbYX0Moi5UDtNGXfRFlOuilbgHYvbEAO9i/yyIFIko4qTy5JDDcjMu56ZkrWMgrv7eX/wtEYS1ZMlSLTnqUkjm/RsEUkpu4c0legiZ1NjpGFvLgrw3mGPjOQeBuBbW6bswrdMfhLi7YUgfsJBQaOryI+b5+8siJu5TMtoIeLbErD7ZNiAOEp+rQ/kcLsFIcBNiWQ2qa1fD1eroGMoagnN25WfQhqWkrW4scd0IZgrKpHWFn50lMNunuwh1cCKiNLRIFQKz5u78AxzFnRMcgnevb6zXCbNiFJiVUPgowU26ReQuNDJdOYXrm9iORgKIflDanv/RkpbMAKO8PcA1CO/LgThzBxId5zCvW0GEgHawoji2+fXZywnAQUuQzCwJ7sesvMgUTp4VtYRyAFKL+M+1ajPTBncrGQlxVqNAGyKcZptAbcQFOVHovZll28Pm9Dkj7B0NbYmlZD8Hu5l93/Xj3nE4Q2TkTrggyVu2NiOU8hkrQ6SlLKc+5+rcnjS0aYFQnFMCLp/7zkezgRCsWu8sUrPz4J5ZaatweZD1c9fMcQ2jDi1okC+TpIAX3/vwUdrjhjT5uwRx7/I+A71e8NCpXdvO2dZr529lkIwgn5JrjOcy6UOGurDKfncteV7j4bzPAci6HVYuCGxdiLnlwnVkiLh9wN6020BnUJEckb3spaALZyQiHQmFnbu2g+ANAlfC/NGMivKOAs8dKMVKLjq0m0+n68f3W6LJd49PdGgAN1AZv2lVk/ET3CvYgM+fT/eEbbMvQSdAqbQfTJO1DfDI5nI2r+/KB4LDUC8dfQgCuhL98j0ZMORz/XR7zGzZOZxDdo2a1Jg8NJLbvjmy81ENFymsFGvbes7APme2bWc/7i526HDIZ+DlXEK//OwloNrmtkQfiEpKzglKE0xk74V/wEffgJ7n8Zz91vbBAoaSsLUp5ZnE1kzhc5yQkp5bXsl3lWfh/BvsXAzC5aCv+ZnY5T6ulRHHMarcuYn0weFoBeHv//M/ao5Q5NJNWc182NsygFNDTc/0uTf3EjYbLMIhWv2bTP/a2nsO36IUM5/C3+gHuD/NfqPEk0PWzK0O8gzbLwrM0w1ZOA8qn3uGA2O8Lv7tDg8vkTv3SFR8EFUgrrWkckD4ZaUPyjYKkwU7gCrM4kOJrYHPYRAnqrN2lpXuhJ3occjrYAkvOmwtdO1rGBPhxUadiKF4TV0bwQAYqktECFQumOxmE81qBksf8HUdCM+ZAIADzuaUKDTAZQp8wpTJiu1lL5zPGtM/HcdXMuVgz4sg7v5Dyjj31Ixn4x4lkDo6bWafAQfd51OGsez19nnH6XTbXhxyiVPZDSdKOQfMv6FQzQyGHohG1TuRdQxUuIR4NTjHjIIagosas7d3QSROBncOPj7UQXLtBKW8lz1nP39fF343ZZ8jKBykF7LbmVuw61hwmX1/dBvZLHRemM83Z7g8bOvcoWTFi4mJc9T5+bm9cfvKvbpplFe3p0dPrv0cDM+7EgizCduGOxb4kCttv7Qv37EXe25rz7491uVSFrl+wzLAkpiLz8/vdK5FoqBcSocJLUs22+3eDJx7vo4IIp1ODx7cNzg3kNe59Zwa6Bad0PuHgAdy59ksqLLEx79fEE4z0yTo5/hPZuGdWbBgZqjE4PgYtbNxP87OKboF01XgXDlErLV/9tnmFPz+cx7a8vuj0y1ZyI8573XQitip2xOk1oath0gQe3sB//HsStSb/gj3NtvDe0BmUmaYvZgsbJ5HH+EeaxLPosJySi4GwOX9QTNccxLF32vzO3yD+7UB59HdMK2UkdOT6F010TEpbTv72SgGjfS72UOakthkZOKDcvReNufgwrCImK9zYb7rRAv2xVhmSq0NjI/2/SYCKcGEJ6cw2Mo7/U6T/p7hj2rIZANJhl15Hy0tO1G2vxbN7NpvT1d/9i+RWi7bvhZVuPSCtBQi0rm9LI6grU8XcqQLGOI4zu0iOlaIWVPkOwaYBK4y428NaHZjNzeiYTKQdkQcmU48iw9lMqiN4Pd7CxDc+FW8y1P9MVSzbCVGML3afPLhsFrTd6JiN8J+h2XdHAOYoNaBDbLKuF7LpaSlBTJnKCLPLp6GSFsCpdB91mYs/m2SEcOOqHVcQJxq2+OyG7JJEj1OlTLzH/xGyw/JxI+MazK9l8NuqoLnc+dwXkxL9NkW0uLTLlvCCMY+kZVdTAA0eV9WuzbN7jUzw+M7zpLBI9g0sQgSU0tkhmBbYlUSyVTKnOe5DPqXy3ER6S+b1UiNuLOMruckhJ4YsSA09zyMW88ZzdRAE5gM4TJjaUaZtb9wfEfpIm1Z1jJxNEYGevfTzcdPB4oiNCyKkjxoXREzpMv8dx9DW1Ki4Zm1tUxDegFtHjyVdEDoaIqyBGnZszp7J+OyEUYPTs6POTLeywXhaqWQdHQs4z3YxO6fa0s3gWBFxXpz3JNIixyHZVEtMW6GxgUhC6LkSJHLXvmo9e1zpnT8zVj9TuXGc+68RjtJIFoy/Ogs7xz0rZleHcZGpcfGJTjcd7BWE1QSXSkkHc5OOQt20UzH4iyWxSYbqhdzlbO1QKrm4ngWQYuSdzV1SJI1NGnj3esoDGIKJW+g2s537Eo1X4qEWiKpqu0RMHYgn5LJ3f+rZ+9CF35t7eKkSgLsGcaBuZUabZ+Dxew7bJQJ0vhMN59MZNgXI7se/upAk7NPZ1oP/+AFnJPh+b74t7MGAyWRaGdcJDyezZQH3FO1X9rScWd2hkOLiJ1tACPKtxJ27dQQQgP8QyIg6I1NI+v4mA2vFs3hA7aXva4EAF6zqFt8DJ17uB7203gW+LgJjBkkLmc/EI8Ev1f/8F//7dtBwXuYc4LjJ23jmD30QY6sxjVQaxQ25HBdnU7v3nwwQvzw9qaiNoEE5phm6A745SKbmPPeRqpNPFIgvtd54DW6MNDfF8phO6xevGCiaxSId4HOkIAGTnkInVfQjPGWjLwR+OQ12+XjRiYbTp3m3EaTsPGcrZ2BkhYcDiLslTDhoszVEd2sVfjjf/NczqhLT1P/iOPfE7uQpJaQmXr3UUZgAJOMdiLUwF7pTy9x7ULRLkhMM8BB5ZeGmODngKHPqTNGfXVWo/ca0LsPMpGSqzna735/M3YCXcSBOqDkAo4Xii2zN5P/0rJnRt7A0cClDp29N7Lre67rMkvsofbZVAnQJb00Dj9qySpRVdGWcBkWXG7cNGu9rF8Y80IsyP2xGQU1FGEPAxWfZxNnhcgI76bTwrJEAgiyxECmMf0HR6FBxxdfPTq9+uHd6d2bm9MXXz48vX/3yb52HV0dOi3D7C1Ik6Aa/PfFTx9665biYokPgZW0vSYYpsadOvPnlEIGrzfQIXBKgJ/zxzl/8vT69OK7d1GtZD/6fD57bpZZUUbEsOIwF9TZj19Z5fFXHj277+KAnAF/k+Fyj5a5LsiCOOg3r977eayZ/9YOBn6f99+ll32kWYNg7j/tes++enh6/eJDuiLauoqBtRxZ0mPWBGXETxKED+4K3TOUBItS0krrSHYIvx3HzjqrIQDR8M1Hnw+lNLLV8FnaPn17e3ryxQMDjtmAMolyxlggjtVRQir3hmfjWVl5N8bi+lFQ09cv3hfBYi1I2OJEn3157XN++d07S2NRBKxzZs8UBeOMi4S1BMG+Zh89fHL/RxyeyUBbVvD+gpg9ff7Affz29QcdPuiKgdk9+Ex3tHWULtgXnuHa63QI3Tk9ef7A885+FAVu65/qq7cgP3ct2+hnJu8/jYUmStsvyhUPO9eOJvg02SkKbQmlQclUMPl9UND4qXPr4eDbUDNixxT2Em0EyaFzJMvKug25jq5ElU4luaedm5Id64r656sfPpyuJTgnCPXz5FXdtdT35uUH7/tu24qT1KQRAFsE1+P1Dx/aeRinx78ZqLb92zbYloFWgmGdr/7uP/ujQxd4Pdtp94o5GlltWRIfIh9hhvACaTi00hNFHDWyQSF7OJcTJoh6ZIQ2oVadrYzWBSM56GufzeTCOPVkwIvQeF/Y/jhXbvjY50cPqhvr0+3p9SsW/a4wqXW6ftL6nYdA+PMyFHlg2OQ3L96ffvqHzzy8P3zz1p/NWKV9JhuIB/Xm5Xs3ys//xjM5A/mu8AtimOO8uVYMIQeBh+788IuaNms+ngEsbQwK64YRknhXiPnplzmE6jS09k9dUefGZnyQUgBOlu/hgN8je+uEvdWy8t3ZlJM1tjb28fPp5bfvT1/+/NHp4ePr06vv37VkWD2HZq3rQZ5uAZvs/ZsPGoRHT++7JpSr+D7u+enzh4dBeP9+feDnzJWDskBuQVnmKaS9LjXTtFWlxBD1zZFQlyEKaV5o9LNuC/ZWK5VQRRCoKA+6GYnmM955Mr1l21fV8IDzJGXGcwZdSXkuUGpkjc1mdd5XOiUIkd//7k3aLekseAixKpnuqxcf/Kzwb3Jf8mY+fnLNDAaoSbe7AQjYYODO1enVD+/9/IeP7p/evvogmsJeo93z8ZPr03/8f773PuGzGGhh/K7vSsQko0f63M/5/n3h+6vTmx/iZJ7/5LF78C37u0HAo8fb96lFY+g4RwcXqAHtuAZ80GMdYfbi2OBPvgDi/6QjGUGL94WYnB7xEIJjiLlmnItEvRpXiZ0Xoj2Pnz0QWUhZMVyDR0+vfR4EVjxz9AskuFo//ni6D0O8wfOc3rOvHrmG3/7qdZ6vCFaMNvYEON6E4nPOoEp/Yt8nzw0iUI+fXptEDZZPUHUO5g41rIOFvowepxNnyF4Rla2GikJQv9cKLvT/kVIqaxZ7yVk2kHr5XvT2KIe1Ds26GAReTAiVmFvUdOu6IGTpUJKhzmxx3wf9TIt5A0fIvxVtS3acEdHu7wt1T47t+/c37blqa2dccsqYh4x7MmbPVtUBs/exoS2BFndLeTKv8E/8tP7kzFMxOGi0HLJxXikJQZwsUfmiFTglpSDABE+iEchKt5w95BcZ8nS7nRUkJXBWfdaApckQHzJVWgnWlncSGM0X79q0DRcChbbDHlO9Wmo9/HXuKc9rKB4UgHQGhdsTOWuf0d/7iwQIqe8kTh0sm86CtB4KfVeLO5HRGf4YPDPYa0zR1IkvWMsHqr5i/I97NQO9ZaF1CCM9NePanQ32Z6E0/BeMU8cVT9jiaOM5w9XZZMt8E0LiaM3gBq90AXOT2ZQ/enWnHe2PVeBbKUBhjtbnMZRmpw7ZiDiJIi9s4pLX1tu8A2D96GgxDVZ1wN22mAy7CkHvKO3gdKdfX7iUzGzOlYOfNrhEWxPRUWCnEBT3KxnPJCIoBk4OpjyfTRbC+zE07AOY0wYQFSxaWQWjxPt5ptFRoOX1xtqgfdgHerHb6T0BiT24q1EjKJqoSmpuYdrjXHUQ1fTXATUw43pY22dfPnCjT29gZSxrwgRkrdnhkAnuNDx1GsngY9QwrA7AaWmBNRwZ0BODoVbQKnvRFlnuGwd7FUSArExnZxa9ICGGLNoIHXhUTQf2AZr8BnptD12WNtVNsgaj/zpHnNHDp/cj9lXeTWqkJUWu9NQ2zUHnb19/NECRRNoSS5QugxbwvQQpK1GZiT+8e6LdmG1I4LESgjcisjf1yaoXwlhveYa1wTFj1MzWq1YK5Ilxh2jLXuF+yFjJpH2OcGo+RnmQjJh1HuEOq4UTkxTZjgyDKBBACJRP7p/e4fA5C+8+RtmP7J3MDW7Vu5SNyFAN4iXfpZTDXuXZs94Etoc+ip0XtzL+OX/f/fq1gSoBgEafTLhoyLQtrOsX5SQxWemM+yRBCN8mZYbNEUkXQ4JG7aF7Ilr9OKN3r7KGX3z9KCTmD+eOA66FGyOYISiZuJgdOB9BYcIz4kGO77RzNdTDoLLIEjaA971+SXDz6fTgIQnTeY6Mv3sxNC2E9wbKJQqPqDwYPGjUhcH9UWk7BjjJfkt9F1wh/Vv3mwFM7eLg952DnLOgOSLFC+AJSko4tdR6MfxsgcSMv7978R1zsiPOLwiwFF6o3MTgoj19XYBnvtyS27O8tcFIfyck5QQvKVkjH1B7LxLRbqjqVBxurQTGw3+xb8rlCmJ3MfZd+fIzuXao4cGHIUAw40LwQ033k4Z5EqBFX86xVmEZWkbmbM/1vPxs2feMifBNYZ/83u3p7vU9azgKqlxMetsXZUjMsFuEIBpdUHMpU/2ohfk0Gxlt2lwFPZzVTYSKc3lw13YqNb5bNzcAKOKxOCBtN/nbZa1ym/SI3GxJOre/HEa0u+dcqzurSQpfVqqZt01S11sANn8YZ53a8bnXH8M3OO8nf/D09PK792kN04HfOT14cE9H9ub1+9Pzrx5ppDE81ulQ5vIw3NXgEnAI77aHdySkl9+Dhtx68LkvDhVQIGtBC9iukYABA/HhLSjM/dMXP3l0eiGSkqzOgKu6AmRl715hdOPE3RNk5kU/cDTZc+818o+fPjDzxbFjCKd6FvRm45LRqrjReU+khgO62QAgMWnDDIrAGhMkJcs4Z7ZzxHzGymd8z/XD+6cXv3ubPmKz/6BRCyy5l8GRZOcK/TQrAOofs9n1x6nZZXB7egJKkjhch+WBFvFL0Cf8fofgGFZhBvdMoROYFUd+tIt9AokINI8D5f7JeA3QCBwqC4sjYO/Qb//1Lx577t69vHFt2TfKMk88psN5TAwsdd0zEODeuReyXr4AO4H+wxIFnsPTLx/lxLRFGsfy9s27ODKcdzlGmRMQx8seJ/Ajq8eY4oBYV2qmSgeT3QNvU3unSgFXAASmLbHs09Wu2ee06D16ch52NETENtA7p9PblzeBsEdyLdTKdeBMr+/f0+myj158++Z0H30D7GIH+zx+8sB/S+2b9fhosBMJ3tPpzQ8Nlsqx4uyYELDnLvRBMNY/+cWT0+uWhTL2GIic7295pOefIMr95CCrFPfkcklaJahKyYd9wr0FjU2gBLRsmeLo7MnzIXAhGGKvffebNyKyDx5dR6K3aM7NDYH/fYMoPps9uW4i9suTLx/kzLSVeGeTs0Rw/ubFBxMCSXfV6QCpGt8BO0FwiZ0yK3/AXg5nKjMVqtRY3gcXLvK29vVB/y2lEvg70ryJzgIctuSHinKtHHnwpFIXPAKgBQtZP8q76YByz9v2GkXbvaLHcSbFi0Y+iH6AAYnCXysjJpkLQpFAkX+X61Hl1riN/Ey71+DgZjN+KK93T66l0nvDn5G8t+x+BM5ea/wT+yr+KMEAaETOayW3XQe0Q4YwVKiKNkcu+rJlL46xil1djcusOw+peE9RgkVvI7LMWCyay7J2gtdEbfozBSkaRY4AtRp2EZlk+K0npdacyHS1qrwhpBU2x5TDVi5x40wPYcOaJq5Uo70AYQzffcei7DiB3PpQCx102fPWl1q34l6pL7KuODOMJM7n9Yt3RpiT4uQ+MTLC/TiUQqUub1seH5EBvcYgf9bBawzeM9o1jmQlEK4ttavrwm4pcSxa53f5LDsQPuaACmdXQ4DPsU55ujo9eZZAAsckLFlyJtcpv2QZWgNLrgPjjePAYTywTzsZTSB1Vy0w+4XCHAaIz3s7Y7K2vZ6OBagGlk7Dw+GkG4BrQq9/TO2QSu8eLXdvX9Gam5KCQcAh5hXiEQ7m6fPrEzyFIwAQ3iRDC8eDAx6HXZi/30vmyDW5DjJ2T0L+3B892Kwpz3stplxrIG4CvTDkh/ywvwaZU6dlvXWaVwTQN8ez5Lk9/5rgr4f8Hf9GCej+FMy9XtacDJVrsVX2bpwv68F1sgcMTmqMFzixp0O6yx5fj/gyk7W5cn9kpOuBZ3Gm1fD8p48N+tlbOE3uZc8Ax5xn1zZfEJaWvMYfYb0ogbCH3r4iww1qMJuTDHmtq+siCJSe4CVOnWDm5n2IZqz7ykp+VmdtxPxEN4PrwuFj2JlzEc2NOFMC7CAHJZ41qNtzJxDQoB/aJneOOSYEx3bgVDuAZ5KusGSGXBf/gf6kfBQJwgUVlDS4Z8sgRUQpGxGwp3wRhDJnNMirrZsFSam1p2aeIFlEb62IpuCZvUFwQADg54EoOA8lz9X9cgckjbOdpGhibNqgcrlGFNbOUj6w/ALag/0DXbmOXPnhVMuNUochJUi+M88odnOBI3aIvcH3crbUsGi5e+TQlVRR40zAX0dcgibr7LPuVFH26BA2zvdBpKx2SeKHLOQ61Ya2X5Ya02qbV2ZsJLHzewjYLLPVpnT42lBkzt4Q3CioriNpjvqMdrO++byJDp4d/kqclozgYzy+51qLlMb0VlI/VYLLdu5xYQ7ZgIk+4af/rOOej0xY2CZGZtn1oLAZ5SzaBtmcJQA1NHVYPIzpKARywYEE0hp8cUCTq72MzX60L5aZezjkBBgjh6XGGEgazgH/JgRJtNRsdsS49OFyiNKnyosszpazZoQcHg690GTfk/1xdXr4LPAadUTreW1PWobIjb15zQNJ1r0SAeuBkw4ZhQh4A5HSu7t2zkGFDx9dG3kn485h5KBJVrJnNqp3fC4OSINe7QDWw03J5x7KgGc+AvflddRYffyUz4kTThlkiIG8htYQVX4ri5qfcXDzXcCrCdxW7xReVqDkvs9aQumnzzpyjRPzENSKwPCDUtxqzPk5LbFsZH4O4sE9T8iHAIm1INC6ex1jjONmL9oyRQ3YNspNYsw6KdQDxN0xtmPJ8/vJjot68P0Pkj2mBSlZk9nGMX3zzolo3oNKFqzaWPuvp7FAO6+s7JCeWAOCLUmEGEoIe80aMm66YlB3riRxkT0D4eJk0+Wa3TMAACAASURBVDpaadTWuQ0gQcEoT8HfQe2s7aGsARknwYDr34B6jiszKwLVPv7ioVD9y2/fGbDMYKxDhHUy079/p5ley1kXxkVnikNuLZt99T1I0idEcK7lIchFqAgS55Sg+e2bG+8vAXTr7yU/Z0bJla2wl4JlZGbakAZHKXPB2bmSXMc+efz0vqUd7IsOtUqNq/OyR1kb/k7JB+fz5c8eWz6Q/MrzapfNzleyvlvvi+//8qdwEKK2eiQsHz8bWBOckKnx0Ll+1oBnDdK3UuCeFWvEZxDQi6a1HMG1Ydh5HpmGeXt69mXKB9iRcVFG1s4QspT8dl8GHASIQtDr7mmnEhk1dg/uCYFlA8HsqTgrbtlSD46NbpprkMdr9xbnUKKlJeZ0X2wMuy2hF4q7mc9xN+Whllx/xBdr9xTIyUoTcpM6hnncnweQIGsP5BbRVgvKPaJe75PgSiTCZOD2dPOOAGPDpSLING0CbEVKSQWLryI+hU2AXAu3RvJ9SZsiv8wGIjEz4AE5rFy5GTn2LXZfTNDyYoaO7dyJsDaQDU8hRMsJywWBXbJQhUmTh9gx9qGfP02TdU1t7sgxTCtBoGUk9YuKBhQtYC1BobiX+48SDPPc0hqfUh7XJt/hH/2rP70dNLxaEHBFkuoYr8AkZ0LQen75YB6ikY/wy1TazqpXRzrSOsiiR4PXIgFsHmu2PYxgK0Bce3rWgpVvvnd6/Ixs+oMdElwkWRyEq8xUDwQ3iI0NQGTOKx0V+UQ20bPnjw5Eg7o1i/X8ZxzEUwzOxQCpRaZziBKjdAwQOm4sXwCf8T7lajFwrZ8bvLQdB9azD6tSxmQXWZ8QVTCOHoDb29OXP32ss3z3OrVYNRrqcD+w3qiOFYKOw844WjJhDpRB3vvPp2tgRg3ajRnkT375xMCE6PndW4hrIVdhAOy1NxO+1niRcWjsFOFIdi4Zsi1sq5Ft8FQyzhB01FXoARaROV2dXr9KWQRJULkilbhmrrwknA83Gko3azsJVkccmWrSp+pZaNBb1ipCFKiy2u8lq2LYePTvUVebAXx833t++V3IqoHpo72wUdDZ59lPtkkxfhgBpKORLMEuQVUIhiRzCT5ffv/O/flWrkBq3hhyHBLZkPX15w80Sn8FWbBtU5foEsaVIBBjsnV4/cP7zI+4vmcW+fYVpZm7li9wdFznFOMePr4brsinrHXqueFBALfzOThMkQ11L/I+SiyWdIRIEzAB7wsR38PBvz+ybZ4rcLMEUQiAJesFUieAafcEz/MTTu6DewNtjmXPJhyQJ+EmwHrXnmBM8/uIAmFYOZfA6KImT+7FIXeQDw6dQAfjLZ/iHojA+9PnT5Q/grqtreuHb94c5Zk4OpxHUMFkwe0wki+T2j9e071nm2+MKM4EW0lQR3D5w3fvTo8e3T9dP7knkRmYfSp+cng+ftb5cLvyMOABuddDqLQ0Vxs4PgyfDaKFhDM7a10QBBGcT1VAgbQpQULQxCkVmeAsSJguh8D20c8Jkii8Ykej/JoWUhC1lJI+GlBznW9FHcLTWnliuPjjL67dJ5QpsDcTT2P/8PruN68zHIrzWBl1A/BC9mfE5fb09Pmj8Cv4d1v2YmN5vfg2a7ZyiuVFNFvuphTFfhCBcd5DSHwmJAS43AfKii/eaXNEER7edZ1ev6Bs8jGJQpMRvo9rXiJmUkN5ihLL+0+nL3+O/Ty3MHP+hkKMx2O+RhAqPyfPTKCn3THywiwxnsc9Q8Kl08OSu2rk5+FrcfBBC+a/+NNg2Z8UwhFln0sJUpBy+cW04gH/oAQrJyRtv2h1H//qzunqz//Nn95GnjX1jxjDEcaSAZoNXyokbjwy7T6FucaibjIbOKgwrUEaKl1k6kYxIVrEGZ5kSacDYsN+kq3MWSbbD8RENkYkpwCN9fKQk4qV+acM1sLKPBwi5g24WWQ0ImAM5nnm9iC0HRLJhLbzJMuStMT/Jht5en2oBQqndy3kb0C0JBNoOeaaWvW9O96HkRvBVUlFIgW2IWbDR/CjdS8RiDLZOzFSCLBzIyyDdNATP+OAc/8hf5Wc0xqrpYZNgnMzJaASWqZ0IAEs0/P4DKJsgwtZ84Hn1qnC9+BU+U4iZ+Bk1op1khDTZ86+EG24j/oajPE6zN4jARXvWS2d++bvHJaJ5hAYirTAsH3H9340WAwiEadnK9DBII7a2zJ9yYNFGyYYJbTXFqMYrUT8wOAJBkpgqgPhXrlnDZ7Dl1jAqxO8Deq3a+EVzWgwMQa5yFv1OgKhppbKOSAgATGQfFjyKs8zfdvVsUBw7ME9HZMth9uvRfLW8gki5oHqUDACH06GHTBFrsy8WadCkexze6KLdmy6JbDyOTlIq14QRbLjZJsJnJNh8/lBn6qyeDqdnkH6e3vjM/MZVwYYY0wmuhq6QWj3n21xdj/k/hVquxuiKPfD55A9poUwELW19nI33JN1Zlwj+8quh8404Q4s8TTYvvfwbvbGnSsTDRw3Rn/3B8eGM893gjokiEldn8XAKfIM2dspMwT+dd93rDiPJGcqM16efPHQhMtS6Me0hW99hdDZ/x8I9CAC3msnSBCLTbK0le4q3QhC/iCH7d6xe6SdVewxgkq+P+XJ7Dmem10WdG94huJcKEnIafJM5gxx/aJAy4A9E7nXOT2cLM9in8kzNfHSZt93XVOC/OQeDuoU/+KE3SYFBGecJ14px7Slve3M2N6VGVfT5zs4CkGu7idQfHNzevrFg3C5eiYMgnFQBPqb7FpxJacHU+KxfBWBK9HCIkvua7J/EM4MbjGpG3KDTeJc+txLRpZb0O4Mu8boNnrUhBVi7F14COlMSVkgnI/t7+mGrGxIUG3AUf6OiI8qyHdslW0U4R/bvyBBKe2fx2HH5wVZChJZtCB1+gvFxUotG4m0H3n1dh482RDQOpvlzasPRnJp/UpGaM3dFrv07fKj929C6Pr4MaNxqYXq7GuArIl2cltIf2lLnLhIiBaBrFlsW3m4GTdoSVCNqCAW4bTN0goBsXkGob+mlcdN3nKIwXQCHuGXt2FJS1zj8x1glAj0y588ckMQHesc27+87gOumweq+MSHbPwJ0nANM4hcl/XYjvE1y678aDSxJ4R0bmV7+tUDswMjfLUYrk6PHl9rOAh2Xv7wziyfQTsYAw6EkGcfLvdDbzzr8M1vXh1RJxG0eu0YcxjOQOFdCx6mJDECDwk/mxeQrI+/U/4IGz0tlCjOeTA78IqseU73xz3g1ohcZ5whsDN1Zj6TdffvT68lyFizP1pVb482ygNlaDcBPc+J1GOU7JG3tpggSefaPuAw2T6f3r6MYbJlztovmTilmmthUofgNOBin/LcuB++m3/jnoAW7dmGe3J15bPglZGxWV9O6AbrcOQwYAQeZhjXaWMliNAg0K3wIb3hyYruaEx5dtT6MRZ8f9buves+eFt4/+6VvAR+/+UP7z0HloQkf31MucvAO2d86m/rslhtnjZAXhu1KwRP+aZlMTJF1iPPi+CJLCvPStLf59vT85899jmKTpl51ri7l1J6EWI/HE/2HPsKw0ztGGN5865rQ9thW1g/FJnT8FVTQWJq9Td49j5PVSA7l6OjyROeJUvmmsZjuA/JsYGngYnnGJXPXGtKjeE1BCk9z8xQMAdnoUQ47b+xZTPmyfA+S+L1jLGngbjZQ/exG0FQrwheRCTYT3ESK0/a4dIEg0Ar5aGUzkSz7EZI+52tyk2VOFsOEgOGv3/XtZUF31Zuy4p34WnQgk0JbGRE1jCdL1wvmTqfC5EU+8YzZR1NJMzMA49z5rY+Zu7sYwJ0A4rI7+/ZC8Z09oNl4I+f4yPaQSOtrk6P/T5VXwmxTSog5VlSrP0BueY+KVXwu3TdHHMsNkyvgQCaFyRorBFnaiXCJtMSpFl/9iXPir/znChxGZiofYGPuZL8aP5uGSfPaiVcnPT7tyBI94rShTCNrfz+d68juGSSMPGwSHJblGzCZqApd+O+Z5+9rq1qi+YIz3Z3Ua5sC/fKOPJZQHYe3NXmcd+czfH7Hj9/4BnHbhOwr8T5w7dvG/jdPV39g3/xJ7csFlHJq+/eVTkqWgTLfq2HwSp/2/aakoaMWlnke3dOb9+kbjq517DQiYDznkNnuu1tGE1uhANNpKg+AFH8s2szBWqj1nLbBqUj6rhSFsKbv2iDHBzlBmyEyIKyIegMIJKyLY/aZg8/kBrwKEZvmZRZUXuSvb6jTbA1pTpV4cW7MMg/Cif63ka7QPkPqO3UiPKQF1RhVG9oobu6Oj0ByqeFDqdIRrTuzxH0Wr/XafUALWhap8CbFziRD0fN8A2GvW1yEgAr6ORhxLmYLaVtKkNwIq2atq9k+9RPWY+vfvbEzcimSpvMSfiPrgXu9zd/+dIN/egZG433hZw3w8X6m90QXB2y1fkurn+kphjalFesB8PALtmSgEHYOB105/3x/bvT65c3py++fmjEzDMIY566KAzkFAIkgxaO0/DcDeQocY456eWkWA/8/Pk4QM++fuSzkaDWDgWyeMoSv/v1a/cspCvW0azezCd1/8Hyy3DN6MswjihM2uvsNz+dDJow7nJHiixYN2+HgUa7xF7WlwCCPfvqew5yOo9E6WvwuI6UJFiXm3Z3FIwsOBgjkpkXBuOSCREASqCZgHOEoUpptx3TLLd6/GSwq0fPmfEcRS8sGwWyZ30CkxYSreCMREY1HIJi4ZSRbZafVNGZIFRVXT3dugdIQr7/7Zu2Z1r1DfImzyCk37V5Hl0L5TaxriAkIA+b8eC+U9o7CACEUzgNIz9GzwQC5YOgU0XJ4JZwqWSrQchSNuQaWEfWk2tindOGGacCHE42KTpCJi8/ZEJVvCOBnj3wJFxt2V0pcs8vZ5r1Op2++jmdJB2UBzrYgUoKE1mOvKsNH4ISUaBsnjj9BFkLnjmflME4z3AssKU6T8i35SjJY2h5x6Sg3ReiTZ1N4B7tuGmcmjobIDdvU8/XrtgSGFRFPlL3j2VPy2YhKOrcetmstWvPNZr9f4zoUOX3KeXxwpZINqYUS1DmXuJzguvxHHie06jBkXKPnDXWnVZg9qn8FZ13Mne+i/fiA7x+ydc8uvP8FH7AurHf3DflacRXpkTOev/iP3t+BJieARBztU6SHKQ9Pfcw9NqW3Bu6gu4q2oVtJ5lQc+btjU7fvdZ1i2/LPXOZXPtoBQQncJLcq/VjIqt//m/+9q0ZeqEkI3zhyBha1N5W65blKokGOKXsy+PM5+Hq7G4/+xlEhhhVmPtAIKrCUVPj4t9+9N/TZ54aOoSdfEZ6iGWCdyhJ2OJTgQLWTlQvkWdqetXYdkpYN+1s3A4LDoTv0AAC69QwEvkeZR4IKw4+6oCZSXaaFlSauGIoXGcg3mRLsliB9JkiVih3JY5kFMlyuWfWmoyBTfMWQZwdqhrYMYqtKV7ox0s2bOcFjpzNqlGsshnG1BY5AhMNb6B91iVknxwG1u/M1M2hUVnOwxQS2dMvH/pegoZwCSbhHAQpaneB+KbMtfKQLOEaHwwl3896j+W+tiwOLEGKinolGJHJ8W3Pvn7od246W9AgxlyHDDb2PEHGdB6SXdwTfuXwss/u08JWxvx4FBgQhJ4wBjxvocWSDe0o6TWZ1ZYRv4Fb4yZk/51Oj59AkKMcVYMG7NyWuIePAg1y7SnJ9D4/Q9AM4dO1rX79nFIC1SBqZijWRxNcYAwGaQauDXfFuidO9GmyA9aA716fPOeIfS4pruWTuKNEp6pT5l8S7HSE7JMv8xxozeNCDVQvNDhsgSxsP85Onk+IdrQf8n7WXAi2Aj/sFcs9TRwCn05WPeUK9gRoYQit4R5xnRumJOFPZLJyx1ZDUsaM3WidvcgnjsSkhYTk+cN2TEAwjkrnZSAD8Xjv5WzLhcJxqAKZPTfnkOcYHxFEtmJGEGLJ/KyNJ6D3eff57l5Aac2Ea78WbOIww/O59T45z3aDVPwG+2HCdJWSK2gjtsApj9PZUOciiZwB0BcJdHD841VgK1h/gvd0J0z2HTvJNdw7vSPBapDTAnicJkneza0BuyVLtWAIDM9BhdoWImwICgVxC9I4pn26Mfhc7aNnOmVNHT/twTi96h+4jzsNNVl/yiKx7ZsiGSTUMekVa+N6SXK4DxIqkB32COdXJ053kmXH7kMRwWiMiHKVq2Vg07q/rafwkR6CGETDJIjTVUihHU3g/Upcvj49pR29Tl/fNn5AK+YTy5OrUkR3tuBw+pO9b4KwEq2I5tVtSaU50wTB7CP2WxDRzyKWBsoV1VoZPS2an05X//Bf/klmVyCvS7vMw0RJQBoTNTEDagCxSJA60WreOCnhrRoEGeJP7p0gsQS6CeNepOHFe6FQLpJFMhCB5T4512mkl1BIpAnvAIgL0gsbCOPHAZA5XO30CI1gaFLjff3DjcImHGJUE4GFZSBfkfXfOHQkGUbaz9Ivv8lzkVVQfe1eOAAK4kBEc8Z5SB/WpG5Pp1/8jS88dD/87s0ZSlPEj/u+JxrCOnz1s8eRHqUs8CEHfeUP+ReqpC3FSxZiy9sNCl6IDIULst51Hhz/RnT6xU8eejCUS60c6yS0dUqFilPeSEbL/T/94pH3KIS79qM2RoSjEGPHtfN73/z6lfAlmTSHFkflRjNASt0wrXchR23qX6Rv43CsX9opk6DANk/rcHGGRNXEuRp8RZGy/7746oFksu9/+zqZ4pNI8MpeJhjiPuAoUKc0GIVgltkROoyiCcKY9kenJkk5hoMVglBKE2vRTIAZuJkDzVqh+bCSDNePMZuoU5CiulgtSCVcy6CXDzDp3ZtoPcRAbd5A+sDjQIPicS+cAR0B19hnsuBhwQdZzle/eOq1f/OrF+e2P+q8j4I0wOLeZ7J/10qGdgavVy/e+704EK6J7JN7nZpmSE8XI4ILMmgo66gWeHP7OjS6SNq6xpnk+9e2R+CZZGDSuqmDOoDGmntltQmqzCpzZlYWlRxZ+BykEMN2/ejaZ/Dtr1+l5NKgfG3DOAdt3Ldv5QGNXBnEIryPOJ90cokMAq1XUMv9WYRH22jJM+3OnL2HIGqQ9H77JqS4ymUHkb06PfsJQQko6dsIKhFs6Bxy79P6V0KY4KmtxPLB2jUT3YFo9otOqaw6VTcUKq8N5rC1OgHQCrtuEvgpGFVxrHCTkugQMPFi7bheMluuAbsyB2bw2O6uiOk1Sy0/ZSgM70/HQ2SHL3VVVKf5FMn3bOizWiEfiH0mmBAVfJgy8ZJBrhffYZms+fBl0MnzJaj69X/4wdJ0AuGS8tgPVYpkfSNBz+ef5/lE6+DKTgYy60dPk3A69+Fi8ibZemxm9j4JD7dFMI5tfPHtW7uX0gqfkv2SG/Y/tkJium2o5US1C4vShomeXTfsxchVKwTncDx8Z5aOvRgFR74jSSp7j9/7g//iS+0zCVZI7kEO2BfszWdf5nmzH/CD+LygwTn3V//43/6dWy6eTcCh1IArrBDYz2zADPpWPWdKBhJOGvEIf0w5sBGV8qlkLwhhFJ1Y9h/Yl9ppDWFbxjRaB+v9PFyIBy+EMwJFRSWixpfv4CDDaLX2BqHxzU3qsFVkYwG4JrPXNzgQWpCCELABAlDmgBK18Z3CUR+DnvBZu1/uVW3wZvnZ2wRW1Hlgkr/XgZBZsxEzuy7EEtAQrnWiKWYf9qNTPwkRk2tI+aJTFT+kns5rQdpaN1kDnJus9Nf0P6dGKirzNp0Z61cWOoI9/uS+NWM2mhtGo9E6mPPgEyiIGl1H8MPOgqIpgcoDZ6/NDR6HpYi2i8XQRkZ1AVAIXZFsxclHYq0cAvdd58OrbBe0aJk+2T1rGcPUOiwKjtWAj4hQavw6vK43e8ZDy55pS6JksJaO2O/qKLQOOOKXmSfE1pLEPAfd72bODTR4bjLTv3mb0gfsbdraCodyD5ljUJ7NRZTP++QF1CkNihzxb5m1BogFu8rhXdnPtah2O+/F8cIRSmfJMh/fddSUt54YgstSFd+JZDh/stZprcye01F/yjnwmhvIrPthkC/dNgQXlCrYk0Kh1bXfeiYw3CTLyHa7T9Qn2UTHrnXRNLPLTb5rZiXK8XtoAc+ePU2wyPla63JKMmj4h1cjZN2a/8o4IcBWhKf3qOEtMXsCXCMSnkcXx+nESY7s+/n0QcQpvfhcMqglegY8u62nJT9FzMLPsJ3O/ZSbzGTZSjn390JSTJtyUJSQQmcfV8oQ8YL3UjE0AmF+D/0EbX11SLz/ronr1dKRzuwia5Xl0AzWmQJNnrg7kjZuEvsGNC3BTs5WiMdDVZkloN4K5ZKblH3T0hg7EP2XobEpvdFiKUojWhTnsjWzk6wlbsWX1CAIGqGsvKqZKScv4x+/jbIJQaMkPZIyEYEkfTcf2qJY/xLSaVuvO05dMmc5PZN5l+8k2RzbG3RYx9vpl6KCbUMkY1dE7YZyWZJQSzgiQ5R/Q2TkNXn2dQ4eXIdDUXKIfhQS+eJJRE/5eChg7MK5NXtdOFwXGhQ8f3wBfiPS/lenq3/yf/33t4GoIhEb47nxzmQrgZ3Drk8biRKitlqVEFgIdL3TZL7Co3W8gzO4ICFnDvjn29OL79+l3cMaXeA4GL5raWOjv3kZBbn1aVvnrFElSsZxAAcRqXHIWGDbkITPU2fSGba2K4RSvXkWzjrvMRFrGu0PwhxuSw4Pm8/gvTsgDqbpYbP2Sw2vg2wsGVAfswwTeBCjlFohPeiwdJuxEjBJcIuh5PrYtDs8lgE6QGltbzhT9dXv3rHtkwM3OF/hozK/2XCpu0UoiJ/zHCXfAa+WrDdRHg2gMwjy/C0lUTbZBMOSpHBGGCc5HqAAhfcMXMpGxmlzUNHVZ304AAY/T4h8z+plGAX5H8gcPw5DnHXg55BlbAntWGKj2xov1lHyZOWqneJXAtqGbFlmGpRWaBiSD/cH2sOenwhPjGJ6u3ne3kczu8s5C7wv63MmW/G+MLMJ2B62fSw6EQbeiPt05kQGzpzsKWetlQVXQvUs4OM9CavCZg9M62vj2tsqpNGgxklrZv+ddZHP0ZLDshv75yujPYgjnTyBqmG6s144ET4jglknHRvBL4Hjapr8O2jW4+fXDh0Cdh77nnuKPPTg4vMUVtn15RaI6XCukIhmTwBLs+9V3lv/fMbYjty5ksekdze0agGgA3haPnM5amv4M3s4cufal+QFcYSFuXNG4nQtWZQbY3sgQWafkTajMDv7hM+z7Nf5CAn8KgUOomH3TwdLZUJSCbTsz8DQttrSWvw2pTiTiXIyIrKUOSMLdMc8J9iXB2KAkz2ye1hSMUE1eVrtqFnQJRpTjYIhbJY+6aSg1FgbADoRglxI19gg7BiB8YSc5ji5XjJT7AH7isXbZMrwEoLSKPWs3kZQQm0da06aS6vwt29F/b7++ZODHyTa0a67ncMhn+viSdAa5O0Z6qX9fPbXCO0O2rqCWxf0Z0mYpVc4UE0EeNbjDcnNqF/hOkg0jy6/tqc6n0Tbt86fCOHJs2mQGm5ckFQ5FxP204+ex5Gvkwf/YYL5KM0Czs/RnoWbY9AJV2pBLmfgoiSBTwBlTrAWlHzkZMtK9++eICwSJLA+CY4TMF/90//7f7ilz1ZCUcU/hNDsAQ4kMqg3NbPT6RWG+zYDW1TBe/1eKBJkwMEvi344NI3+JSXCBhXupk70QS1z4uUxVUcQ5IKTCeUcC+8XImLKovVk6r2tP8mqdyoYpJJwC37yy6f+8pQEJS21vQeDuo3JvRHQ8LLnnBp8I2/el2w9fc9AARpyxrNW5nREo2RXJ7XRrYm+R+Wu+vYVDoIQiWP+4XdvU6su+Wy9yqv/rZXPQEjt9rv2+XKtZgt8z7toxruRgemrpMbG8DqoUZNJHAIoQVhYT/qlESX64uvHIZCVQGd9upuI0gXtT/cfRFNhDyO10xjf1Lqp7989/cd///0RdMQANFskOl8wBYtX9cE4lOgqJIsya1KtMahCAoE71jRTd4vRTT0vzFyHVTWYCgqWuhm9zfbIV2sfeJ7fhW/AfUCq1JFxv7Sb2coarFC/UXEbLgS4MsFCoH0QJmHLErD4HjQIWMfvfg2sl+ycveu1Um77IkSuZVTu+w624bqsVxJ8llwbuDLB+QzXNBm4J0tnHPLW92f02L/+bo1A9g/OLv3Y7DPWaagY+ztQYghYvBstCl7OrKiTNbAASSofgKCBz+M5rqy0M8971Xd4nG4GoE4SA8l4olrpNrE8VH4K+0gOTqFgMxq7gqqEWAN6BLJFHJKwnE5ffv0oiGRryZKGQUMcnJQgkQSC+6Y8aQcTPICy71mj6E2E3JX5AdFmsBxIB8qd29Pznz6J4/ou9i+8FdoSkyhhK9A+sF5cIqLBTXkn2AUCL64NlIXftYX5YrQygULKkBWr0/7lebje8ElAAsjWJaklUcDh8V2PH1+f3qAi2XZdvosvCE+lc1BKjOV6IPhxHa9eIJjFnIz7h7qlpcx2wxhsiaQS1FXB8/H9qnJWFEy78157TVAJOW+dNyR+K91MgCto7wdRPh1tyfB2/BgwJjB2b7Yl/LP6KSmJY0vwXRik53CV7qRl3vu8l2Fj2Ed8BW3Q2D06IJbIJpBGoyRdbQmA6ch7WIIppZ/z0MGDb1KtkRQuY5fY25dcHzlCcBfaor2uNoIH9tg4BTwXAroh6AdB+POtNp9giVIRdp0y0fWDaP5Y/jK4jV0KIT62ic9i77M/QTa4MM7TwfXpBFN8sMgkrbtocARGj2Jo2zqvkFo+al81ykA76rmT+bYmLvO6dUYMkBmsKlVpjTkUqzr3fFHIfp+l1MgU8jWK7njNDJjJXAKMtka2Kn35eyf2VXo4EfJt2N9oIaAiJgxHJhUFOBZaA9IsX4SkGw7DM5iJTbwgRSS3tXlu+2iBiQy69Z3AconyFv0d7SnbXLSy/PZ1uaIxnbY+ApVVqEcnTuvSKRK9OGZGQIkGhAAAIABJREFU1XINisNgzFuPksgiO7osZ+uqdCGk/CL8vVkUkmFCDIJgyCFau9BU2Ow97rXwPowRRg8D8/QLykdn3Qnb+QrZ2Ys/+d7O72ADTncCQyg5Uj2GOJQopAV5otYreUt55QjlKCjVrGeiL1wTxpAMY50httfZpZAWK5m+iJeUcOY8CVsAYTYne10b6cbIzklHGvs85309/0GEzmN7IwOcMtZ6+ckGMj+hYiJCcoG2KfU41MwRq+HfpCUUzsYDS1WslYFJo18/v3LY1DQ5EwopoQvgHIAK9TRyWpCTfuqgO+xFDdBayzoGmPIJF4ET4L3Oo6h2iEQ7YGgMrBsr5k5Yvf/ZNkUQUjVK7UKHH/Fv1En5LYcY1cnFWKUvXxSun08NlRdrPY4Bn0HQyrMTSSrrmvfF4ELqjVPnd9JmmZ8NZeR8c58YP7UYNo1RgmjJfAUMVlKwJEkGVt2MzZTQERHoV7/AEpVDw4BfQ5Q0KMX+FW1ln8Hb4u4ITNJanaxw3BDRBQWNkuKb4RY+NjCkXHmUp9hXpw7Dmm5Jzj3GH1Idz8BW2GowxEmk68Fx2A3ynY/yCcQyJUCE2UaeHLGVtSYYdc4FTsk2y3BEuKlpn9gB9jGaGZYNHQce1IvfsSTYkeucSfckuhUd6sYaci7VximpUeevEwt64syYtkRyj1PiHY8JxMLuGToHOOctPOsYHcyFKFZq6rv3OL34Mksc2tlILIOW8c/rROFZqsmgbQkRXz8Gul1tBBPL+2mDNPjk3E8+vslsBo+FY2e3Ea2S7Y4TbZY3lyQTBA7bzd7inMV+bR7OWauCa1kQYZmvA5ncS9j+C1/AfWLHDBzvBwme8J8BY0umlr9AEDu5MT67tZENcPpH/+ZP5SAMVp3Kn73eKJ8BDd8han3kBwOBrQ+eD1dWty1/L75/qxECKqbPngeLsVutmwsIQ7vtVa25YQhAGHAgkFokZhzyyql1RwxjF0/E37YsuwhSCwbKlfGKFsJ15oeDKCRqC5wlMtHof3Wjo2xB/buCOLxH6EcyXeugprbZbDwTYe0ONSLC9xD2e0LGS21zcJe8iSuMWD4X8iIfKPQ3PkQn9EV4JPUsYadCRofIy8WoVltIO6TEEsU0HVqXk2FLHa2TECW19FrMbtjoNx9Prx3rm3KPm7COdEJGy9CX5W/fBA2Jk4LtTDYOkrLaLfCV8xt06NWPL1Pwiy+J1k+n3/2nVxp0DhVG7j3PTPJhjO3anXQCwnWbvhbSZWqUra+qHJZDtNnrIlBHy2zJf5WcZv8FNYtBtD6szgGHJ581jQSjeIVsQpLFiDmZz3JB1UEdLJOzYVdOSwx28dA1I1qX7GTcHAPmSZ42iKbtSHj0Y7s1hPbJGgIh8vlmoncTxKRtqRmP2iLB0eWhtNWT/7HvZA8opNLAl5+TAYs6gJh8Rub3oYJggczz2XwXaw6R0XsuNyDI17n7iPXPTIScBQywe6h8E9bIPV5m/QJuyWAigpsNEaM8MTLsyDgU2ZOBpjWaJUDy/J5/9digSelqxwezCEG+0jKXoIj/D8rE78LyNxilFa9DmmxrcyBXBWYqSezHFc0iMLGF8Jg9EvI1/B0cMJ/91c+fer6++x2jouEvJClaKSOZcRA61pYX6BDndxwQr4W9vCC8ssRrb7QdtPZA1cnDjiXYkwD76bNdN7TycnYl/eo0sjeWWftsay+TJ+bZEcDQ1WI7XOlEBGk8Z2v+nwhu755++gdPk53LUYNRH0lrnCHlmqxBhjJt/9qzzxjuT7eKkKWMeu35U36cAWJPgtzArYg+RGJc/oxyLu2lce52umHLWpbm6S9pWVdTOqG4xnSpcUb5T6dMUkob9cv32ogpQ7Iuti5iqyApc++WO6NeuFIkPobzOh2Ho1w4YUKCeZ5ZBQlTos05XiCgiFMJsnlOt5X1b4ehok9J2rHdXBNnJYTGcxUg0tifT8yfDXLckduWI89cC0t5dqfdnq7+wb/641s2sSQT536fRXJsEVIkIgdZsY8Op9pAjUGlyWSyoDGuieaAm8h6JI9F4aHONXr7tt4xn9zsmfp3azJksbQeVhs9MFlqxGw+a3SQSmoU1y5D5pb+8mY4ZG9KwYYwNtW5teRNZjn1perN6/w7vcugJsNaRBTK0cB4EJmR9bA2GpwRqyDxkGm2LUe40DJFNq2Zy1pmO+I3nIZkmoovNVLnO2QYT4XOFrEQSdPK0mE9HexjWxloB1FvMyc+mGunhsXnWrsXtk+P/579UBYjVRGjZOnch2qGDV6ePb+WFGn5Ykz4Bn1cD4ZfhUO1BrKu4W9keuDmV4SLkAhYVvg4DO+ZZh7lt5VfltVR0+R9OBuec9jOqc0SEPJvBCeLsA2KkPvtwYrzSUCaWnYQm92fcKHZTkpPh9iPcW3Hhq/TpiTewIU5bIj+yLNAVc7yDk43+iJRppzQWBk6bdkS/mx75siLstKD+mmI/ZsKdVlTibEQcyeHfgovg2sXNgRK7MAss5K2z3EOeC4jJcGDwPBawqnKYPZResZTZoxcNJ/NWRaKfZZsjR8C/fq6aMflr5aANNBn4uPP/8YzibsKO52uzIrJBqdEqEZAs3vWghdruUmWzsaQOT/uTmrrBkftuMrkwcDxg9f5LKag0qrGs+CeWQP0DtiD8EL4/UkQEx9uBgB7LWhW7heVvYl6JTs8k79GupRX00RmcHkI2gl8cHq8R9Ge1uZZPsq17NP0zlN3fu+1cQ220BGwVqqX0gj34PAmAq9H907PYNeDwoCsqNuVujr3GO0HmOxJ1LiWcVPUaLgKUTU16HaYvbnxbL19+U7pZc80CGqDEUsbzx6Ut5B7EjFuBu7nXnTC8fzMD5RsD+IpQjuxpAZi0ahIMIizZi0oe4sg1BkOvYBki2/AZqhnArqlpHUQCgmIlF1uby2Nk0BuONdn9lZVKpXG51q55jZY2EIsF+v8vPjwaP58dtAc9vDJ02j4sPfGudr4bxAPrvnhw/vKhMsj6+d9+bMnXo/JqcldkuU8r3YxcOYd+RzZa/dp0QYQttA2JkjVMfWvbwz42bLo7HBf2DP2FcRd0f/KfKeM2OdUsUKei1LLOm3byVrrVVkxkcBEM4zum+niQBKdpWZ7sHur069Bq7OVSdq5BiiXhVASAmGQh2btaizEAob4k5re+pnVO38U5qm93oWq52TcaCUWYpTkCnRqI99vlvs5jp6F4l6AdHEC9ss7djoMUEmGtncNAYiDBLUIwpBxv0eLTkkdAhydxAZvwPZB2oncRmkvmaJZOAsxaBge6tipd0aWlotUuazkOf6NYCEbMwGJrXzVT+f6CeQcV1tYlzUMn6MDqCC7tFY6xr7SzK1le2DJsKrRL4mMtTMDOkvtsg44boIj+sTJcjA8ZP/eU8svrPl4IiyNeuMS+sjQElAt+ldDgECqg5VCmDwdgdXq3+kjjmbDRttOl0NFNwxu66isMde2aX1xyWvpTDeFKmgV7VrHxTLL+LqlJ2m8cO+XXU5mzX4h6yQoMggt8WodB3byuPfSFz/1w2UxGaoCsz/ZHpwLnDGfmSAlaJpIEmTTjni2ZVHFyGTwIW7lOyyltENGkpVZ9Uf1SNgTgfnPi2+A25HVkiYXlVwERCOrih5VfXC93QkcA6kfz5PnZ2kucCm/Yymq8wxWYhwPhYASbs33v3vj1z/96qHKeCIfBo6UZooWFRkJyThIw8YX0841BI09qezyCIN9fnyWTk6J6fCEHCFNqyBRVZVfs/9Bigg4w7m6RHmCTrW6dwypi7PBXtAKzNqyBzgr1oYfMUgL3lbKJUGZ2sbX+wzSl6FE7FkJjsLzQckMAnvGCBDC90lpRGEvYfVAO+69TTSFqwQP6c6VongjPcpjsgske3A2h+/PPrw9PaArAZJzSzeUc3lxTRJZUR58G64Hn3F0aBUCjy5AiXlmrG0j7SRTzj5nQbnukqET5K9TJMiPXJPyjkxSi8LICavqINeIiBbBLe276UJL6XB6PwlqY6+F3ZvRB9VKVB6/keTMcklJxxDQtZmWAiIux36SF2WZL8iLSRzaCm1t/0HE+HT66S+fuj68ByXWlEeSfNpa3voj3+vebJBOq6k8kWdpf/dclHOmDsV0OkqmTcDe86NSbDRXCCjmB2wd/gRpOmRSfUaVLgXX/vz//NOEc2Qhhhrn+noILJHH5cFzU/yM62eDsyhARfbdU6dsxOg0RUP5GFh+rLO7OglZghJAgiOqSR9y2+gqaG/EW1JaINH03fMwOHxGgkQ3dVpGpPzHmWifP0bw4dOHyh+nhzeQXm6WgCj1crMcWNdlvmKIIdpw+WwuW4/ajkYUSEboRrbvvhroJcgtsp6I0eebSauS6VHbu+vAoqEe04y317klg0TUR4E62YYEmsD/yOoGum2tqoJOR+98eSRhLBP0pVVozF4ONBEu9zydblvDbphvkBo/6y2RBqem1n6colk6HRhFmV58yzVV4KhG7diUJeFlqmOY9u9eRXFyPAWCKH/WyDZ+KZH5vYe0c6W+//03tFJdHc6Tko/GplEva/RVh6hAAKU0sdnyBpudgCbzoOp8Dx8HHmdwz/at5TWGKtmXHIVJa3n8rJk/GQlr8e2vXx9owKBzDAfXb/ZeljbriHFJz/Tt6fvfZYgT362R4Hta814dGhLYavaWLrpfE5hEbIyff/Ob1zo19D0OwueCw2NccRAT91U7HBgYxeJ9+1cvW7pLyW/oTzp/c06EVMlYTmTfkGvTNuoZ6iwLg90KRomO1dAg4cs5/va3DPOJeJjGmrLAp0yCZCgZe/O76mvIW/gYHpKlv6h0+5msiVBt96JzXQi6RMuSbVoOqlbEUAXuxVLf3ZSDWHuQBCRmsUXMYPCmREnunu4vYKANU9nfC/T0Ujug7H+esVogHdqUYCYsT579yF8pQ2Uks0iaGWG6Ygw821PPdeP44SaRvKz8JrTeGjGBCUGyY9Wrcpu9vbMep6MoG/V9xpuj7lrxNAa1pfyUOSeKKm1OS4eBSYa8e5VyH1066IO0zRnVVIXfkB4HGbMU1vItg7TsKKrOBhwzn2UDWMugZwTSNumOSub6052T0rJD1Bqo24H2AE0QOCu36hR4thWSO8+FWNAHOnogrzyTau2EMBi7auD7LmqfPBv4MJwX540QHPS8RX+iOi1Kp2cipna7o9wTZ6S0yT1hBwi67PqAatCSowJanZOzpA/peK41CVXumQ6+jEwHkczet2Wxs1mWyIhOq+IZxcej469l+l0XiZJUgRMcuVeHrHQUNIviFGUCXeMZXf0v/+7vuPw4nImTaKhbs01P5cVgDgk1UTzkizHeHn4iWeeHn2dVDx60R9zaawwy71ERrpMVKT3AJncLtRTAIkvEIZh4l8zaN1xknTLPK75jZvQI6CSlhzDIYxhXl3NzG1VP0a5Rug8+ZMUgDIm8qR1NOU2I6tisOYjWy9r6o0OxfQRSU2o/zFQI8TLSxYm48zCWhZlVfc6AmWWDKu1tImFLEJvF7ohkJWHZ/HEY1vo7NYwJjoPveHQqkHXCZSbr3Tl996vXkqxwSF///HGIcYzHbXAV5nf4IzHC58Of9ppyL9CL6NjcHMpoMAQqRo0M3se5LVCWskTVZB9yBKqhAQvXOpjM6rC0WY83lBSGtLT0opMgg+rfh8LA5NYwSb7LmoToFMOSUeQnIcGDCFSirP3gzYqGnAABSwYt5PkUJnZJmUHbkhGzJ/P82sLltTfVxml10ihQp4TaMoRTzojeQohnKYURfJvN2t5UqehmOevGYXHUK2AdPcGTM08wR9DAr/z2P73U2EnAgmT6KfuTFxkx+5BzoVN1tkqZ48iu0h6o4wspeL3cOISQTDHSyTBtyWqrHeeW78aI7rosPTqspzoVRTjGLTGfqG6Aw9xasZAHc2g7NNvWEaU9sIWXni14Bdk3+4wgkFmfV5TWPn420x1pTKGuZ7DDcz8p0UBiRteCqaY3ohoJXLvOFbqaDWDdQCsSNyUR4ZWhVnE8svJBAVvmhHDHM3btGep2nIWUghJYtDNHjYIEQFyjMsQ6kKBMlJr4Hw7O6zlc2Qm0b3X0ZcpmncrWgwrkuRxCdcqup+5PUMz9qJJJstDJkCOvqvdRO257asuwdBZs2NsSR3bqSL/YK4LFBYCslbA6cxscVnVXaXbetxkUI4VTtpYrgvx75flFmiSXxo4vWcJJwy0heOBMQRZ0TQulT0dBLllbXzPZsZGWEdsQrDxTUdHKKxPYGaw49AiyeDlPjktOeYPXxMWGVIIukSjjp16QoDTotVMORF6ksVy6+gHLeiVfh2x7bhlOJ1HE6uzcKmGWIIqgMG2Uk/nmOXKmsg5Dwkl+J+PO7xMAyqP783/9J7fWWNgwkHIqFYtz5AHy4SHxnQl+ZxJFohXrTyj+ffhkf/n6N9lcaZVLRgbEkpJERS7ag2nkL5GuGV7Z1H73oaMfoP5wLoXZA+eM+5AIy17W3gcHYD3IgUAT4Q3CziNJlqkjgGUOqYoNTQnkYpCTGUDCNu9rPbCDnQ1APhH1dm5BMxwNrSQbhoRQV0yETO1VWJuOA5TyioT8yLgYUeNMO1WzQjzWQkvGE1q2npoHmxbC9rG23sl9mVH1d8Yy5tnQuWAN9uUHmc4Ee6iBWct7dSPEymYCfibrG0TNWr/47m1Z2OGScK0EBXMag5hDxKQ9M61uexasf9i2OM9qwV/UywhGNRRv6DkON2IEWsmprdcN9icg4rsl074LaRWjwufTyiX0Z+01s+wZOMW+d1rfZI8PpGFKZ+ENLCjI/olmxZzXHIPltc/VEWAMuBMOs8vWCWQnT52JaFGNCYaDoIQ19zVPo5Uq/IcBwJFXQIt1xOnyIdajj7JQ+v5FK2zjy9wIiXMdMjMZXgmEGMZPt2byvL4ATneYWOWVmzR4H9Tj5SulpCKfoZP5lsV7+eUScAFTwePnGukqAHKJZtu0n9LW1QDanvbq6AeujqPn81/87q31HmVtzfgwqvHK3/6aBKRqkQYaVyEglgDKw2d/QL42SK7YjmTB1rzWQitSgSbM6VZVPEejP2wnUjUoDHLLFxpCwJUoI6/sL2TbEOkSuCSAAaK3w6DdCFx71CXDVZJrZZtuSgdKuBvxRkbdM4DQEHycyl6DyoAs5DtS3kwba9Rl0QRg3XGU6Z6IDfM5tTPEVriKIYl0tGWTZ50OlrSEqy9SVVQVSHuOl9RZWm3AmI6hka7GscDm5kwQXD/+4r6OlHHYOxMRoTrPsciMhoi3xWEmKWO9LSN2fxNw8VkR/WlXXB0lJTp+d1OIc4ZTe99chDj3DEw7NHJssW73yjkqbwCR7o+RCbXMLTfufwd9CElfX1shKR10k4vj2avXwfkpMdjzHnIp1+nZpDRvu/UmhaYteNpD2OAQzdMRI5eq+iWi8JVal7fTqoEJveWhEHhd2//xn/7XtwdxSmdEj3KZ1oXyWaioJ6aOA2NzdXB+F4dh64rjPTOp7v4xxOOzWab9207QYr7322Rf9GZXa9u2NMg2qNuBZtAqox5TdbplvKYdhN58YMjVGkdEWr1ywkF8B5A82SOf8/J7CEr0udIjGmW4GQwcI5EymSzRPdGzOhAV+QFSNmIuec/BPc/pva1y1RUSvG8ONS/5CYWEm1C0tpSNaBS7DPB0Ov3sr31hlkDbC73jmRaJUb+rE+b16NH16ed//VmCrW/eHV0CI4eS9VA/ouYpw76Q2doCJcUQTECUqspdOCaB1LgXCVPVrGccqRkE0eQF9DVnzCFk8yHzzIb+5q/SiTAImoPmMBdbolJXxeDoACfrXMNCzZkfimLBxXhfUZI682RKYRfrfDqilLq07XyWMeIUhyxwn1//QXrXqUmurVQn1bawHdAQpm5d/wWhCQhTD7f9CslrnXH69H32DVg0KpV+RtrbbNgDmuAAiJG/KxX+rBLRtgtHH8TMXUfazEDSVlhSybzixO2AAXl4eXMCK+L3145FSYtv2zjprTH74MlzSlNJuEU3FKJJ+xXPMWsXw8XrK5Cl8le++dVrfxZthATTqvmVcJu6cAcVpZbhdeDEIgoGYS5BgCRSgj1bxfJdQwVhg5Pdc6EYQc4fCAskPZ8XgkP9Xq8EDYtC7gQgPBNejrPGQVYtlJ+tlTGDo6Jpsr25Ud3hIE2/Ng7dzhNRpJLCmsRYUmmXkHyYzgbhfTxfMjSDAg1tn6/BXOyWvfpFUZJlnzsklqwtwDPYl5cSlM9zTZsdtvdpy6QV2NE+V8tBW9yuBHg5g7C3L55+CbSffT/09M1rsuwkGkkiUi4wRuWsTvk1D6A6AOHKsD/ZB9oez34F83r/Ofso30boLSz9dOLYDfapAnHYbdCtBnPmdaCVKuomONlZh9OxUpJ+DJtqVnkWw6KzAZRBHQrOZr/XoKDXcnTyFalL+SzBHPue5+XAPxCWBt4ixpbVYzcSlJSEvLbudVv5fILkKe9fZMAW6YkFstY98ysJRnQsZ4TvZdehYSNpuaU+ymDreollSyLsCG3KNJvJQULe87NuiZzJji6HLtCSTVrsP5+u/t5f/JFtjkRfyQCzsBw4hTjUEo94B6+Rn6ZnwBcpyqOSGO+IY1wNk9qwBAwjKhx/6jeBeKlJhuSx7JwFD2SejElgbY5WuPGzG0BJS9i+rf0to9PQt0eeGzTDaN+utZq2atmq2PbI8DETe/F8LJ8IDZePIfMzbHFhuj6AqWHZmzuCT7NL/j6Jz8mEzpi51p3QZfR9FafN9Qi1SXKqWoWchLDBLx/+6qlTOlMRq0qJ65ZY2x6ZJdfjRLqOrF3rm461jGbqYMJRVdoycCj50VpdnwulCdZBOWkHD2XCm6TQllnCa2DiYRi78jiqrQ+zemNN174T1CZbZz39iuvosEGFAq2utCU8L0u7OhhVX+QwW+K4QIsWfG7gC3sI2XD2AuPMHeTVcc9C4b1Ws5fqtltz7FAqEDMy6AU7x56oBoAdPxhKdQLi6NNWmoDUw6vCXjLjzTnwPlt+cRKdfegpm8xZsL4aNYfznAdkdVMWhq7ehL3fKWls2x71cHREvp9IUgZA0WkQZCoEsnFXCLJ5KSt7l6zm3Gd+6FwYBJaVXliW/UCLqx0qZe2zNpSQeIE2Tq8EB+uzB3p2KE7IwNrGZvYEaG9evvMe6WGf2h+Okx/KbRE5i2PnBYlWAbgmsHMEvB8pcFq1uQaCamvQBhcjwq2MEZhZtPTpA8nSoGovvwmfZCqYBnEPqyOgKmJgW+cgUMvHUF8QNVm7RwRJTczU+GAq39u0ZgurV/slEHFsgAiHLdbrKkmZipfdOKKe0UcBPXH/0+75A3K+SeBk6rdrbPs89xEBJpwwa0k7JLYmpbDsq6n9ce7Hi3AqrTNQYrdSkklZRNGglgQtJzv6O+qfnKXIqAddTLthSfK3QelYV5GeKr2uHE7Q4zrcvxttgyn6VsY6CFOQMUsPlIi7n1bCGr+B9SGI4GX75FA8vEI5BrsWg5kiAWbZFRNcWSdk5yrkXihHRlcnZx9pcksk8ebRHN5UVibrQq6V7J8g046Ghyl/GEhvxkTXeojxEkBtkuhC7Krl3SHUK985G+I8spzznuT8UzrguK8/++d/aym6H6iYjvWwZFJjOFu/raUh0yXS5r0spo5Eucfp63M4UyM+elZV6dtM+MLzNXxsRjkGRN9fXEvwMGKvUljYmoVYgfYrx7s2IVXzLrSz1xrZZCYKelxP4fE5MjZ7euOzGMAywDqSeirDnE3R0bvqfLfPuHKhZxJhRo+ykbn+kFNuVO+yVrVe8qrmzeHqMwjM2qaFipftbWV9J2IOvMR1bOSoA4KQUe5EucBCyQZ4nwFQYXGDlT6bcUrm1OaUbG2srkUi8LXtZUwpzt76LXVUJKO7FitDjU2NIVFnvBKztg0pjxrmuHK7DD56/vD05U/TBov+wkazuh4NnvSlOKvqOnCPex4stga2rWCSqUoWs0+/7XYTh7IGL3k2gjabzKfeBPtd6L332K6br3/5xPIL6//im3fJ1NvyFz+fYJFgiP+JwR7akKl9mUipyl0Fi6z5fj6dfvuXryj2uA5TRlR4CKW6CyGeBVDOp580+ILcikZpkGNnvI6V+NJFMri9Qmcl97J2E9/iGmYwj9Y0jGkhysdtZzRAKwMdktsyqEGTC0IW5LOn3RcdH6tWSLOhOP6QyHhFIAbZ7runr1BBFeHomue3fEGmdU3t/Ak6QbAXaeRzVh5SbvvgQWkavIkG1GmxPtxTJi1ONTFMd9EI7NHzh+4BGeffBXFxKNTg4o5UTpkxgb3npAQ9ggOQlI1EP1r+OnlzPK1pQNgeS427SZTlwgfhj9h21mFSXK9n6WPWZKTdBw+vVcLDsSwqDA8ide39bCx2iYnOtwmsvvO8fcQTI/FjjzvhUHXP8LgmosbnGsB8yDyAkEYrFHVLV0f4KDp6ghXaJ3GKJaLrZ3quvEa+E1/N7CMVQ0NIvl8hI4PZIh+xFyGyLxARFS7fTA4V10eSVTXUIKix604edqJhWjspEdMmPWRZB73t1wD/Pp1HnyYUFps/kS1VVFs2JPGw3FiuiJ0QiKXdRNrcGRmUbVDBtcwa4UG2ki2m6LPYDsnsikyZhOS+wVuWjuCVdebMwRGqYFrKtx0+hs0w4PjxsDOJ6AyDY37S3Suvy/kxlQu/+rv/7I9uOSjJ6IGhsomE4daj34OtDoGqhyF+mUU2c+YhzEkv42EjrOZNi9WcvJny0ZuZjITXFsjN20lqSSH6kDjE1u7CGIaIZeSJMWZYUeV6WWGVr5Rmp0aXUb4ZQoG8bgMCndwZFRkJiF0ZKdjUjBS1ucqIVKFmyEz22oe0EviyAiPUPZtBasimsU8GtXbPdkAYvXXwiqqAzaKXxaVulUwuCM55/C9rdv0wgjz2Uao5AG8isp2ucXu27asuedS2oM/8bmZHZBA/bG6BAAAgAElEQVRLaleWG9p/m5puCFfTAohgU3rjMzo697o/RTgcePXJfunp1Q+SU2BriLKM7hwO45FmriIDb4EBz90OPGMMIWscvf4Gagxp6Qhqgiqz685XDyQPWzmB04SUzEY7OY6Sg+hVxWp0QAcS1FalTo1UrKz7lD0lMkam+emzmbCoo0gcvcUIv6Quu2FJnJmUR8LGT6x9Hqd8OEx6ub96INRI0CQJsDycEAEboDrr4P5RcjEwLMlw8skbFyuM2AXes2BvjtCkEmLn2b992RKKPJGm3V5B7m8Q/0Rm+KeI0xB4fWgHQYLxAzGpEBNGNI7pNkJMBeNWSD6ubcOxykKP845+B6+vf5HOB36fNjEIbRLL6ix4NrwoefGM+Vw7NwxEyHRTxtGZyVNIPZ/7Hcpnplz7EPGinIWgGQls5LtUe3+dMEWfQ7SrI4tOflX32ukVJCmlnLXPffebdNSMfCeyW86JJOxnVayE49OgmzXngyoxk+ze/RzCLC+e2dH+2lY8go33b4JyitbUCa9cNdRW9KvEZLbDysmgMpSKw5WoBozzSZIQRDIaNIbzHAXHoQ9DV4/9VNEoSYOOnGZtoxVDSY/AY9NvnQK5yY8VWsJnTaKaNbPbrbLsmdETjlNQjXB7Znu5P35G2ZzrI4h494YOG4KZtBintBV76lAliODN0PUfF3oc6ky0DCJnycApJSXKt14be6YzFdROkSMQ7pRISycS60conb2NAJVIw7rDqvfD/fGyVG/yEX6NwTot61fxcd6nSXA6AnmZQHTsgJwR15ES6HWCEdp7/+f/7b+91eg3wjRSoxYhOacGs7CMEUpbibaRdFx3kNmMM93G5GEImT1K5MOCCEcquRx4SdEG28YSBa20sV5y4LY4pzNJIw/2fH2yz2W7ZgwmDyhRfOpCliP4Mg8MLWK0O4W5CyHGA9Q2qVxfSB0YgNXzVqOhS2Ps+u6PGKXWyiS0tCXSWmQNr20rn4NUqOi4OqbZ3JUtcOk9TRQegY5NNYzyGAfPVzcRwQYRM4d/inYgFgQDPEsO8iAthXWsXcZYTJuAaxRyrdORfNbx2QQrIzjld9KKGqMOWStOJQSqT9XIKAG1w4K4Pmt2JYul9StIEH3rEeZKkBkU6gy7GUF3fLRbo73pspytiyYLwGlEuCfR8sR0sqcj5cr+WluSXRhH5p3Mx1KVCo/VesChGeQlIzQgBqJr0JoDvyErcUx7D/cjI1yyWFtrW7Jxz9CiBIxdVrttSyU18e85E5mZwb0Bn3OfwPx7dqgCer89sxM84rsJZiMley4rSNRtpq5EbWcNpM21AjVNLicwdNQkyjB3R965Oj37MkG58t21B9MDiWpotmlEr5qtrP1ZqD3lu4nl5D4u5J3ZD+9Tq5bHUFnunJkOfuLzt24llHJeDiEyHE2do7ammd/mS4g8iqhdnX7yyyc+kyUYfA5OwmmU1vqDLrBWCvSgFAlRkbWnu6fs8E0lJNBeyyj3Zpmh58rPBolTaKjaJDXKOFn34puQmdkHlFG0ZXRlXSAKaTXMMLCR9kCfooWR9eeZr96886UYU4MFzt7Iv7bcOtskgdK6v/gcHW9ForDL6qJIkOU70gVhsNv95hqJBlP6Swsk+y3aLPEzIoIsfxUEo7+Sziy7ISwRpfzMiwDDVnREnCTihvMSrZ58eTrrMhSPdcyQupS9HTLl2ndPNrgS1ZCgiZhSyym1adxr9FUmP93yexE6SfCe16ACrIeIcYd8LZA0OOmznRBRyuFpH19AaFJXwihBkNyDntOY3CSgDjq0VTbn+EBcmhQGOUsiybqY8LSDxHKpHMCU6TrVOoFx94V+pxxD0fV/+C/+5CgxbCZ0yFDpaMBILSpe9kekNyIQNT4ufk7GyMX/E8cDQXHGRcfMQBOyb6MePud++jqvw2TlIUZsIwGDXQlGt2HbrgNi0qKBTNLdoAHpAzbbmyxyaziHwtnmyatAR00u6oaTFB7TGGfOoAwcPIeRDY/vplYm94EpWBAaKbUoM/sxkp6dqmabWkknEYjBcKbLIuhGjJ4ym50GiSGMg4l2Hs5itcaxbde2hDZ+DlSIKZNUDrElWZziKj1AQRVCSAxhLrwBnm9UuQJtKTrDz96gcZ91FDaDF6LyXEaUhnAUizSVvvA0gvigvw7fIKWrRK9cDKpjHFwMqZlgHSRGT2PUNYOUNF3zcEaqqGeNL6qT/DaoAk4lsH+6Woj+x0QeEsS/GUyImEQEymdQedNl2twD6/L1z54cUqoKiay8UGe5Vi11JeqwNFRVblsmv3JEMjBETiCxEaHD2J72wjLTtrt+plc/CowGdl2TwfVcq62zraU/+TJZAWu3EtvaGVmLaMnfnn4o4ZVfRPWR16BlvuvlNyXEQnhtHX+wuAFC+QNAsUVSMyK8iofvqsMwhbYFC5lXcjr98j9/7nci1ON5aY2WnyUYSFsppFKnsFZX4uhYKUfj3GpdDtTnDEBiuBabYGPgPXP9HYXFqDNjOCs5PI0Lvp/71BGfgqZi50TH3LsQiOMAJBja3hedEc9TuTNrQYRYHKGjQNjsAYINsjMWDocejY0q4xX91EbCkVH2POeFMxQG+nk+jsq0tyHJcvawLzxHiWyccYz8MdkR5C2ZpQF7UQHWlja99PifTr/7y5d+IwQ1EBeT0Gp0cH7Zu/VVPWuZXJhxySnL5PydxYemNcC+/et/8yv3Ift600JtD7alj26zlGewRbbDkmS2Fk+J0Kmfpytb5R1HfB/ybYKodIClbkXbJ98HykFL82XgqC9rmYZ7EZmQ20H7fiYmrqSsKJ6JUciYB0rUkpeouyVOkuDPTp/VDpSTYKImqZ7nH17LWuzHZ1AATZHAIIzzE+tok4DeJG48OMu4LfccwQatiSiSWubOkKYrV6vB5MP4Wtbl21+/PHgkCWSyZklEo1FkCZm1YpojURIPOuzikCGmjHZkym62CDwYWbRHl1Y921GuiNqqBd/Wk8j5FlW4c3X6+V97lg1ASxmZbjdzDs99p2ixiBi2736bdis2sJOqbM3ACSSSMiuFYV9uAxsMbXH+XK+qCmKVjN0BDpzdEZ+24WwOQpwHRiKMVaLXZP0xEhfZ0ceIxoRQcyYpbcLkcd0l31gb9kGlC8SaPKQiVQtDkNRRtkc3UFOGz8yB5mCWSqzDpm7e+nIZ/Qq1lKhl1kGUWQnb1F0JYvjZuW+fzZ2NEcU3RFE0ys8JAqJm6QAijEqn1i3DmFBHau0p6SBBO+XAZHznPmCif3QXeB8dJaz3iGWB9vM9XKBy0M08L9UBOcAcChTzgN9FUKo+uFYgShA8iwwSi6QpSycyVv0OQSVHKmdQTMScMhBKA1I9B0seryvMVTlonZ6ZaYxK2j7Tboi4ieWeZbwQsZ5en4OsImUjNvHnCEd81zoWlk3FwdbwIuHdqYM4HaSKF1yNiT9hGVClLwu108cvBH8E72HT77XvNJDbB1UtUiNaOXOepSO3O5hpSAXtqRqadhrtc7luXjgxW+IcwhbHGjvAyOvA9dvnwNlex8WsEcWv3maeA+UFz2N5IzxHOToNVAPDJlBc1wrkM+B5v9dzEUPKB64jwN+b2Fuz0mXtUe9sV0PJxAbNVQPkzBGsGvgoKz/meT6TfadWwWYDTIG2HCwCVfZASIrjinSscc/9UMckMZEOxobiuG3Vs/yaAWmcQe75J3/4JIqnqmi+P9CFPeL074cTxP0genTvOjomYr0NKheAW/KwdJDS3sYW86ycjVH563CfwsOQA8BnMuSqsr4mGu18oXRIsiDx9/7d6BUwkTFfUR+RAEeiaMs22oS2jOa9Kbtg+7kuPl/StZ0id9pd1nk+I+CpbsuQqM/qEsgfuL09fcegvY6ZV5ukk1l18C2fYB9iT2ODaaV2SFIJ8pbL6pyzH8ezIDiNZoRpSmejML+IPUIwqvR4SzI4+RF52T9BHoOS8Ofzn0YXYlwyE+YiDyQLO1vs5ZF+ESeLP0ogkGQj5VZtX7tW/L6/+7//0cQFI6rTdopBFfzdX7S+mcUQbi28mIwoDpzDsazAkZnNzjBG1nAreMIXJwKPU4FVi8NfJBgFrkgOK3BTvoP+cddSeeCu8dHL6SwDnDkqed++MUDgkGycbfqSIYeg956anizXiod4bZWNHfGSDe/ULjLczjo/IGIVyhJ1slZmbY2qUgqJ5oFaBiAqKpYFRXBzFCkQEpzwT2tXabNJZinEXghXgaZnGWgSsmLWlwsQKjKQy0NPZ0YCEd/7PhMS47QCkRKMmJm2R56vXNtf1iMBowauECmHRgdbY7VAklbWbe4X37+LSBHCOq2xBWlJTZafUYLiHld6SetXHEhg02Rg678WGTnKMUWNHD4VeFTiWddtpalxZhj/avYooTYEVRyO0O/HzyrrzROsDTSHL1DmjDdGzLZQBIkUG0oNPLXWKiQ2QBBurTRxxtaWTNnzA0ybvdmBTHWqKXfEyMTYxKnv3BEACMhAVpuAl5lxHD8G55IAmPsKy50XyNgIcqxBSFFktim7bZYK/1uDVYRgYjc6xwZw2S8Vrk/7SJCBttLyXtASXg5BKnRMuSPBEQF5kBOeySasspgTSpqOAntfsRxJekEbuTd+PpU4nuNKfSsvkGhwFmx141raPYIj5Vo5G1EnPc8EyME7cy9CAuu99Zmzb01wnlyfnn6VVlKRx+9BCM68BoXR2tfPWOqt55zuskR79Kd5UKn3ITkz6EFpUxoluN/gKiBuE5dKPc8uHQmJN5Sy4ror0t30wQTRIUp2jkU8VcTRdvQ4kdTyU6JjzZBhztCxcjOuOKvtDjukv9NtYUAg3J1nxX/YSr4bv0JSGpZ+OBEKORlYpcWUcwTXDDtF6QX7xVpRJ2cfxhl24FQ7IXgWliPpOPoYB5kOjJBTneVR4l7K3A022xESxLrlOXguG6DUbhvKl5D5JfWxBxvcDkE1IanvcMJlRzbHpsdW6dMmEkWp15JMBbTeZi5DuFopLQyd0B4wD6dBlwlRO/NWXhjiz+8QAPFzOB0o4BroOFwvnDWFpyr+Rvurz55A9p/8u/+u4N/p9N1vXnc4y7mu7gJ10wwS98PbTqP+9ZMOEHnz8fTtb167IZ48eXC6r/BN65DWa65OX/30qQ8FtmSGogS6mbHyTNbgKGZTMqPjVR21GSb1OA5xZBVaKoeAbGLjWJeVzsjy+ZRQbAm8ySQzgho2YgRH0oHhIl9EeRweokmIIEBk6yGXWFmiofXVkJkPJuv6iLlOAqhA+X0Tc7WukjVy0yIHNcRmsuqQR0yFaJl//91/fKmDJfh49lVmuTc19Ho5ROl4aH2q6jJpW0utCe10NgDPaszev/5ffV14F4b9i6NrQna2BuPWKWA+n0pIGDxoYHPdr1+EjMTvZP0qx1sSzzvnyIfHIrlSUuO5G+DrXzyJU/t0e/rVXwKDhauiJHYN1mrLLlO/Cx4L34mxQx9iLOI1ChOIbLDPwc49CGDJ9jlAGr1XdFRclMVKyk1nRlj2WxMMj7V9eTFnZjW8Ade6AmTZ0yEw6nBfVKWsREqznzSu+AJqXFvxPp+f/+Y/vIi6572r0x/+l1/6XuHoFx0F3lIQay/j/sT6hUR2OAZKetXQb8d0lBtL8tu9XV4vMD0lAV6c9SNoLd+AC89I5paT1pnw6ub07W8yW4HrXdAFq3vfN64DyNbW3dJTYdqMtY6zWplFAa+Oht77Jj/LeyU0Qt5TXTSDuHZtCdYnuZz9ZyBD0PTi/em7X2eyIQOlYlRLTDvayvJe+Ev8N/RzA3QGZ2NjKNXxbiHzjmsf+spn6FBGni7qwPpS+hk6kZa5lOgsN1Q3P1npzhgy5I9auorOyNoe5Su0NRbEBnuRYUzndlud/z2InE8Oh4mNc20OXs4G0t1aTaJlmk3LeWUi6/YigfP5WSWbBWkKN+icSWPzOO+rwds5ULSE30kQ01HnPasJorzEQ3JfkTxk81suHSlwgUZUbYMUytcAiWZYmYJQQz7i/E1sPp3sPKPrjH93UmM5TnZ8SBgnwboXZcmiiU4apeT7CfGte5a6OMPv3344ffOrVwfSEPGo7GU1Um7PegskGgZpHQueRb3NgKzqXyyoIWB69cNbrxdH7+hqbCCBlEqp0UhZMPn8a8TCgoRPaRYuB+eD4I3zwn7CT+Bfwkm4e7r6x//279xmShmCCs1sPZGdMNSoO+WAQOP8Mk5LDQNGNb9L7S54YSQiNfzeYCBm68v3zwN2gi6Er7BBcNyMAUVZuDxU/Egyw/RzhlxxZd0Kw0emtH8YmWMa4DwMoHIevJEymzBn6tg0s3FsKNjNlCx4E3Wcy1raMnPrxy1dUL/yljtiWodO+cVIkzncZ8ncM1M1QzP4rhi3lB5ENRqtrjTCGmJkzNKFzs5qWmrEO6Ql41WNlu+jOZAoXTJfIXUdUCf1rYSSjVbBpt6D69yhI/boA3dhzNvqw3pPFdMJk62NEUFHBe6TZSLqbteP0EsPV8MMt0aeayHqHzIQMmA7QZo1WKdtaUIOS9nHYT23pbXGREltzhnTDZsBKUddbfGIkCToZA8c6MWFfDDZpc8O2eqSwY5ZIFXdXN+20OYhLhMHIwmtrXwavBp1O1g6p0S4em21zbYxBkFGbpW/fsVodZww/d0O8IkjXGA3oqHE3Kox0qK4boSQv6JPocRuVf6WrbKvtv8zLTG7P5nzuWQSSx3+T4x2pqjyijBPfo/geo7e4VRFCQdlzin340pUQwcBgup5uNVQSTtnGlzv/nbNR3miUPIGz/DMjsFUrZ2utLVsa/yYGNWUZVTu7MRIRXva1iVcXy4TbX12+NyG38Cz33PUwcNIrzwuPyco4L1kdoqudV9YDqmB98yAktj2d+Uo7SAEdBOVBH6M/E3XwKZowiEQ8Stnx/N4fa8qmBM8O6saJtM/iwGpGdKJnjlzn0Ui5Zq9eJ/EA4SgnIQJ/wSxCzLC9U+nRNvdQIXPmr00K6XU21ZPkdLuPZADRZ6qmBmyXYIgA4LyqcawHzkaW8ces+X6w6fT7/7qVZOgwOiJPoL2DOUwtlGDBGQkfsTvKil2CLG8jKLUBp8vbkwECRDll70PesFe53Mod4TvEEK7/oS8hmfTziTLhRUHJBmiPdGJkxNU6+FgD0zt95Lsq3Tz4Tc7y6LPct0RLilDqjoHh6R9sgOsfaoAOX3bpyFTd3ruOn+cY9KBU1yz7a6Zl+GwphH7uGN7xVuLIxhwKqE1qbV5hVRHHyuHYhtjMOzY5RvxuhrL+tEXJfKnMGTZxkLgzQpCREz06EbuGNI41PwXZKNjaKtlIGTesc2BLmMQb6l9tnzChqO9h/uUod5FVOWxZEN7VKlbtw7FgRYObx89RkamJ5taQkxKCWsj4dRQB7zMljF+YXC3tU0yTYMN5VVTN2dDYygCJZ8lfdcbzWdvFgI3JzRfhisPds9DchvwViWH+V7XTF7DOTNgE25ojBFko0edMRF0jQKfxfUPNmaTriWQNRwKxAER9mztD+IpHhwC06sX1EzvmDlE+vazQ49Cmizrv3wK20wtaXz2YFm3RNETolKN+DIoSyNlcHNYMn/izOJlv2AIF7Syb8M1qP6/NdHKilcCm6BX9i9lrutAl6/MmpLdgMJMF6HjSkStkrlmXy9zX4B27P22G0VS96JfH65H6/QH98SRt2Q2zQbUAqh6IgEk42zNRjpe/Q7PjLbfZGQEeDg6Xs9/+kjk7/IMxtGHTxNGd/59cL9/udCTlyXuaPKU1I6svm2WljEqACU83yBk3CPOOTwSBHz2uXMC4bYEjQq3qOzqzqNAmY/xybxgYtv22PWaHRk/IVe98L+jepscbIz2SqWWFQq7r6TqfRFUE1Q2K37+deq9GE9Z8p03sRZdy5u2w0XKdq2eg5DXjsc685mUR2TJM363WgycV0ifuaZ1mKSEtrVWtOgGQm94USRp0/Hffdu62pJG7HREuEB6KHdyHll3pZ4d+5uyrral4kycb7PddgzZ9VDhKe6T7yBh4n6diFuS4qB17nNlDj7bzpA680lt73qjvBhiKC/5DZ0xw/oo7NZg5IDwNwfiY0itrIXosOTncW4AJDvgrzom0wbgvlNOTusxSduCw6EVISpGNhr7yt4lYZKv1sFlaycmcYDzcPs5wm473wu6cjYIVpIU0da6vRf/0/3a0hQ2hzLOnmM6qjJZcmVYO3KakBj4MASqxNkgaHd9xjxzO8Wqjlzw6UDrDVCLINj90UD26u//xd+65QGkl/UqJLN+oTa2hYxBq2y09dWH5JLWkdVA+Awir30hvbJmCHfQkKZFqovQ6JOWLSJuXghh2GLIxp4UcB0EddBAbcnW3KDonVNvDxEzbTIfomB3zM6mDROn0+/d9Q4+w2m6idvv/vFdmO0w8AOBp53I4IEDolRndOCNtEqGekvfO9KvRQEkRZZ0xBo63rXjajnQIwr5HTKY7zon3NrPMdoWzkM6GWzdadsgt5Le5TwgrpGNybr95JdP61BuT7/9T69KWDmpEBf7mMl2dmqIcKJbkAgzU8TiLDVOOv6US4IAdXLeQVQNfyNljfAzGFes4f1E+QbJ6LQ25VDHaa4dLh0aae9yrKwHuKqDRRYgLBFIEIhBruEmMkAnbHsJUiW+WVcVxr+KhkBb5RY0+QsmQ3Hg9APz++yJtNaGZ/ConBJbPWGLD0Zs98ORhp8g3n6hMA2vX/+/L0IuJZBpZpGzlD1/2XomY76Mf4OxC4lVyZntBBkhjHtb6SYQctrBJlOLU3lD989RD65jL0k3T/78+tkfPmvN9vb0q//vRbOvdDQczvXQFgjLmRfObnMSpjDnz7tHXOK2pHrPh7hShlCp1VFSH8viyPCXmfIZvsDlded/X06X/OkfPIkE9O3t6Vf//sVxQ0pDtwyHVDnPgUTmr/3Nr/1Mzsv3v8me4SvMaFsPH2KFet4QBtYBu8DbmK4pQQ70qnVrjLABoryP85RJNflrSy2jtezDPaZ8yACsBPVTyWO9eM6SSouiUu41ALPdt2W5tndnUULWTmK1FnKLo36GKC+E0vIIDBLbNaXeSrVlru4EybE9XJng/LdnysTEEVzD6E8mnvkwQc82HZQgw+uucp/XXa4E5Tj27FA1PhMSdcqhZ8Ie9zRdDgnGXHc1UrARfN667HKmMpmR6/IMdzbPOF4L8thEPJef/OJJBIPUC+i6YZ87HVcgoqRN7UQDYeyFZfV7BLiZCKr8c0nnkjI7IG4IjwEDZOfJg8sjQ0cmNmvcsA1JVEiwmjruu3K1QN6//sXTg/wMAstC4NWwc6LQPrAUxYOkkGzG1okkMfnTsd4dpNfAIryztJ2aiJS0GP7c1enqf/pf/xullkNwmKBGjAmiRJmJkCiXBTJ7ay1pTovNh0YALX9GlJ/SZoQBxPBtLrsGrkd6Q5XkFdS5sUBxsMnu6LUmWh4sZPYGJPMwwYwthZs22BHFgRcrbHJALCFDahxKPIkTbA2ydTY25CDxo1aNNalToTacdpD76VdGXcx6FofPhhKRBltYOsthPdEKtPBQ+gB0xJW43tjpMVNzHSHVXApQJXvlnuOAeT//HvQmbY1RXAvMzPcBgwpBOzmQLo3A/V98+ehQfRPG5uBpEAOpsl5A3ZZTCLqcFx7Hyv0LNT4qMxmdC4cpBQobOsAXhX0cwlFKHh0ioswnZRjKLVmXiTlhGCd7Kkrg+NQ4c/boWqSGIHDxzlSv41Cx72BBw2A+M/bnIDK7fShVIOZ0xqSHP5H2WqJy0OVBtH+ZNaTMsmwmKEHcMPt54imQAQeXU+NdOQAymQOChGxL2BV9ydpyPyAn4TKw1hFtcbpo2w+5xnUjXKI70ZMIM92grjySkZATZJ3XZP3y7PNwQxIUjljIfqbGyYu9GXGe1O6dZ1BFxIkMRUVypbq0fbIuB1/Hssbayyo0U7EvoPkFk+ig1BcGUWzwoJZDkxfGFQfJOE9tvCHpoITnxMpHIojcj9MPWzIYUY57O/rUS9gTkXO/nsd+Y8NWUiMBGQHR91Sa3tq5XJNA/7tefm7S8TpiaDrH/5+2Nw+6Lb3K+97z3aHvPPaoVreQAIEEAqkFEthgBWOggADCCbEJdnnCNpXESdmOU6kMVUmqUk7FTuxUPIbkj/yTxLEDtoMZ7NixHZyUC2yXwYySWoKW1JPu7e47j99J/Z5nPftd+/Tt1r2NtUHS/c7ZZw/vsMZnPatkAddMwyaFdauqgN8eO+X0ohR7yU2tzSL4ImoQzhj2frA61hEFbg0NcBlGStOyzo4DCjS5jpgoW/pASpFIZ0XleCY5AeU8plxUHA0oNZWRTg4YMeimR0IZfkoNVDkwCpHwtSoNBES38aB90rAVDKAcmcy72rh7/bPH2H8q6S75nHXr9OJWhkawZ0ScArxXh9Ql1exULOsjVVNqEV3AbhRoUhHSQ8V6qzVdbK5JI9oDdxMsp0omS6/Kamtund+vCjppc89JUgeSseW0ildCdPxpg116jEq7atIVnaI9Vs3qwLmpz0NF4pLi9R4vLFlVHRWuWDADOTMF2NQ7fNcfeD/7x5aSBnpPgp+aXQuJm2LMYkNSA60fJfQlpKObZ0Bc4txOhb1kURXndvG0i4e7BkLW5VJKldZRpdw3e+PsI3Ss8qoOxwEvDYjMgttMV6r7hZKSxYUVVCVYqhvWi1noB4ErC0pgZIdsA+pTyLyuYVR/WjkbCCY6UAA+xw+pxbOV6MzBMQZhQuQ6KutCsBepj7zwNJ6SliqFkwkp5XIScEv1Kr/44hXhQrAQnTO2soSsRrl7OCWoba42qcrtqXyoarMrt1eX1vuag0H8iQuxCoJeOVZy99oQJvrhfqrBrrKsuGsIFSIF3AtvnjI0xl/d1kQaYhKQSDWua8VoxRePCA8/+Wp+j7IBbIUHmDBwBDG/VcOZCqc7BWHWODZ/QuTk5EUQhfiryvYAACAASURBVEJIuVClKmKUCUUfpVHKjmc+enLm5SnDjAEGRkGbpqJp7rDn9I4iMuQ5oyiqzIqxYj6C2LcnYkmnipjCEBAZEReIGnC5E6E9I4cGrSGn969SuIAdUcTFGa/ytOpYSNQFgJKUDHXu5cEsUautS1rNAE8XyNS3b00zWxgdqgViUKWzJIZjOulx3YSyEUSXXrWcYM2bwtpCLeFMhcnrWfAMA65EuadK5tKF64VnGuPkOTOXlkhcKjhYM+lNEvwH95AcKo9UOIcKQUcmZb8HSEsqjH3EuqALpHEn1ahqiejEe59pT/a2sDmk8dK4KhwcdtRl4CNbhAcC75Auo+JQMTkIBiNgOAaKUtTguPg9+0+O22F7rurXAqofB6yiBhgqnMs8naTx0mZjLAFg4IpsmEzI5aXimGBfwF9y0+F+p5Q8BgZLyzUel6n0KHI3rc9ijcX4YkZoJHfu0RN6xmvXbo3LF0lTzRJTlTfSyVfhfnv9zIciELfuao9zUfbHI0/SgM4py8sXHHbnsVXrX9w31kdmVkQH2Ch1ybNF6DQkFjlFRPP8Ue0X5Cjli+KPUNMik2nxbIDPKYlkPuEJEW4Jo1j4L8sSp3X23SCtGGGdrq00N0Dd01zHFX3sZZfJ2tnZolvpdXDDKUg7PS4ZluGdElBRyxuPRsTq+CkIuhxJ4Xo2OkIpTuvmA+MYOLxqdEfpMzIWZ0/pWHUOtZGxsOUWiZz3hccPWeMmjWYnVfSVpfNtP/AVQogoXPSQ2fcqBrd4dLykLB4JQgNCCEuLIKPCkJ5Ue7UGffglAtxRSLUAY7KgJCg8uOotX21OVdtLGK/KKhVKLRCgan4T7aA5D7XUhO6rhpiwoMrp1NzIqQ/lPitMrA0hLIJzQAhjrkc+FDCgwn837oxX1dq12qtKu3qjqmsbYUYIJ2rhICzkUVRr2jPnqRAA2HK7iEmsiPFc5JWQg1KnLNN6pv98xlYphjJWAhgkauGFOsmQxMiWpkLVeyHhTAEIqzZZSqYktMKNFREQ+2HNg9kqTd4CiRFrgZyYGsmUx+GwldHA8pbx+MVb7vMVkan8YgScGdRcVppwpDwiAQYLmXsAY/C4FAprAGS4ucAN9nOo3V62mOComT6FoWrDBePE4XYU/KFx+uxRCWUUXersxSRZndYQprw3vwGpbWE9m9zwnAEz8TwIDwwlG5YWgNxAfBY1rqmq4TrJN/M8p86ipDyGGLFuGkSqyF4k6xmiF0fWtuMCKaG6poWHpYcalJXUUy+OAp3CA1HbbxyUsDNHScoxeX5wEzJ0AHmRfy5bXBwBdVE169Iyn+kQ/iRdJcNGIVijnCMseUxVK8Hhznq/dWeg3KU0q4uoPVG/u4wOyhkLW8JFoXXuEZg8z+FjljE28lCyviaGOe/uHH+F6QvorEUlh8Ovok6olV/mb3G0VNWHPLKKJhKZUmoV5VSVGvLgChMQjzY07irzVOdacvY8v6lxFZ4tWZFopYGtResbThQNhIHMwt0cxlv0nEomKcS8GbdumrZanp/Wvb3aDhRGWdLNVOtXqZyAlu0ESJ4JS+V7sT8efvKU5lncCK9SqRADzOOmiGHJFYFtNU6mhHeqsNgsK0VsDhXLSBNqYWwYz+AcfXHJiHnUkbAYfeT8060wvWTWTI4GzinSdmAzHnn7ySoFt+Map7S2xvL8SdmJSI6S0S1gUFduKBWg6GAoiK1TTABnfBNjRgqTfSNGy/N2hhgLpbq1J6tfUVG7e0GNcURdfjHKKeO8rSignCdFdyutEC4DGZgbp9XL4Uv6h89Ng+z9j6FvHYv8mMBrRyodPRVzLxTtV27JaVL6FUr9wj14LXm0kInCuhRXkVPO7u0Qp1lOxnf/4FdvUzoYc0aWg2h5DXoIuE6bPRuycqQIBrWTLH58QtrcZKJC7Yk6BMhCr5BZhTlN8GCqXYf9q94ewFIa7lRjDeU2C0XO5hNITuF0h55CJerwkEM28iwL2Jiwq3N7BXRUyOqAFSeYiuq7TT5egEsBIav/RNX983sp8TSZamBCM1dZARrsWWyJ1RAjnNtC3wfdVKvLVnGV/sGVLnAUef8QqNTzFX2s8nqlRF0+ZVuABSIkcXXRVI4pIazqu+HUz+SBIE3E4lRIWiQ1pUlKaAQYaQpkGzepm/UYl4CxSHGIfcMCd6+HBYFftb/K3JCfUz943zNd4pi7W/RjqLRBiHxk+VfDJoVA1erYpTnxHO1NRJnbK3Hu1znb5Nh5f9O/7hzVhc5zHIBsgZ/o/Ff88AaRmkEyPRqyX/gcQOaMgnAda+NEoyTUi0ZYnxeWg38vjH+FGwjYVUZQKVh5iPX8JuCywleouVpiq8KlRSTg/cgsYVxIIYggZwITg6Tmu3hAFigJ/9o7jkBcWjAXFie8Hs53pnBzoh9A7S9ekwxnj6NAbJQCCqwWpYNAm1wgwmGUQBQep/gpUOZLlKTApgwG2KbLrxp3oNx0PQZzkPRUUppyelq5tVN7VR7J3qnCLoXFy3AW7qLWgVIvGDxpJVzVK+p0WoyVKenz8xi5z1oVoLUib/ytKF8paYGli1jIQL1C4RcnSsDIs4zXDK/sL2SQjO2UsNa9ZDqopbuxT4m0MECkAeRgVVk0yl973tPvhlFNvkq5VjWT5idt2AvkPQGbdgp177x3Ucrr/SqsL8clVWHQF5OWUWh+ynHp4nIW+F1nZHXY31Esp9JcUmxaZBueqQCTwVgN6Cy+Cqgn+VqKu8romd+AN+/evDtOXb45Hr94Y7wbdk1SucjpavwEu6ZovSsaFyzD4XRrPHxg/PR7Hh4vPHF8KWdeUgxVXWLgcVVeFamZZF9FxZEtkcWK+FZKkRdMSakcdEWF7FhWQwMZcNGFiuiIhdjl1SFiw6kTi/L3/uEPbBH04uuGyOHIwXHi3DFdmBunRfDMc3iGjVS21Ux41V4/natuiNdcw61yCssS549t5UdCELKN8uM7IYZLcXL+yTNYdM5dKaRXys0GhXe7w+fOxeM1HCxgUA/ZCFRV3p9pL70QXB/vRZuyHy5nrIGFg3NgKReZ9f1Yx4DF5N2pTLAIRlBuxTynDSUT0MBAlVUVcCTeUp7fKQ+3fY5VD2gT48TK0E1mOJ+wnFMOvq/5uN3VjvDQcu24lxvycQ5DiR5XMnl6DrFMmW9t3pYXRXHNmnrjTBano7weVWaI5XKG0L2ZMAqLJVLsjbUGqsxMgokQGN54ysVEfWqlYW/Fj2pgYfVKUFh89hFQv4WyrlEIixVec8K1FN2oxCMd7zJmwtFUW2GnjGpdefISTFs8eNbgnWJmVLVN2ttiJKrBlZ+1lqX+N0Kef8coi9Ja5qqUV8LTEepqEFaYAzx0Ily6x6EDCivXDZUa9D2tXDJ+bvIygabJl6uEsaIzQY7z5FD/5ggpEn8bWe9rubJj5ucXLMj8qaI39oZdPSEsjvbZXUVKONj7x/MOFU289ztUhKMiNFZU7rWS9yf6maO/g7EAno90EuVP0qiTV0F1eMvvlXOtyo0FQP3Q7EMhwOOLBuNBSywWxWU7WVZ0JkxkxaSrnjlgZB4yK4fBef7r2mvFpqfUiZ0oDhs3rnAy2Nc3JjITg5Tuk86RO5114QUAj4V5qkhG0sGec4NQIxfDqie5UAa9I1/OhXNe9o8jVkRV/OBHThirYUP6zrhTlQ2d5EvKsLjw+zsISKfycgN9xeWgXi377qlSUZ/IBEezHA3gs3OPHV2outX3pVpagxGTXN2zd+zGVK6wMEjazli4KmIocE05u6RCbt4d73z2lfHUr702jly5NQ7dvDuObsf4zURbF+lQM1lLaR2bWaZZ//hbzzwx/voHn5AxRPok0TaMuij8AOp5PxNiEYE4MK5fSwqxSjpJ3RRFP6kUH8at6B0qOuBoxFZNDhMJvXY1DJsmcFOk9wisxkTgDozNR//QB+SoL2FilGHhCGxh0WjJYUo8VnJ7WGIK7wN6CyK2WZKcE2Y2OqoFGKfuc0vzjkLMiziisAbl6Sa3r3RCVSwQ0jGj19zIc1Cr7Ks1nrHn7dwwVnCIZ4T+BxshVkgAbKbRlYdRSinlkxKmVb8cGk4BxgjZsNGE0XCKgwEMWY4ZJ12fa2pUv4cs80KNptlIJsqbxn3QOc99vU1WsdTkF/EQFmpyzEkrCGQqAhhHBVSVUKFlxkERl0LZymsqulTHXW0gBkQEOErvCYAJpG9tIKHwy+sN+EfdLG/72ZUeKTT74kmVtW8UviMFGo/KyWJk5bl4buFNah4sCO0Vp8xJlnz1ZRDYivBsGV0y2qobodHYDo8LfFQNwQizkm+MAnBpltNi2zQja4AlK2wvDiIeVOhkLSnkzrNW69dw/vMcWaWnzh4ZZx92d0G6XMYQYtwgzuI8LH2luBKFCTjsjityrIAhw4FB0CddfPnqYojAQojhwaFmOmXwENpPFE6pv1LYhCtntcJE9OP10JkyR96DOz7+1OkFT2FP23Mjeu4yWlg3wUeQfsz9AtCLgF9AuZDACCBrQ8wVD9WVswCgjooEgOj9GGpqg/uqhKRJY3eiQ/AVSVAxIHI+wjGRtvQZYWwoOUxUCIyPPHrbiMsYhrUUAxC8isG/xZxYWBClA4uJlfUg3o2KSuF4eI+4/TFyx8q2wL2ieDfIm7VPyi9OlTo+LimumepCcaRSRARRIiUKJ4FTf4qGFFC03PfyGg3cTBTjzCNHvX8TNi/HiD0SA0VU7qUfkKEh40nVE+/iSIIjgmLoq2isysWrb4GWTwGiF7CimgkZuCzKaCKEVa0jGQDIuSgPbIQ5ZaASzWqSxNpiHYoZt2RgnB4ZU9UczrwzJtFytGE79gBqPndpPATg+tbdcea1G+NtL1wdx2i4hVExVY+NlTHGe8cY73wzS2BtFyx/XT5+aPxnv//942bJfYGki1IgvTTk+FaElT0UxydRUWSicD06x42qpDuIYNTaVdQVI+eA17MBzAUNsHdqY7b2c+SFMwgHxubbf89XbU23aIHqfJUFIh69c0LOAcUDjMcdZZ2acpP22X9SeLPCZDxGwHFcn0WCEcFiY+GxqLGcRDGqN7PpY8vHHq2sQUJi8tSK3VG5QKcZZEVWaZ7rUQ3AiYVoY8C1tfFQo9AizV1va0XL82JRsfgwBlhMU+k5XaLFFprb8ubFw8BvIU4RdqB6j5O/K4Gg6wpYCDOdBbuQzYDXGs2nuxbuKSoitVmLibChADMtX+hIjkFjSp9UF0yFoqE3ro6OCJT0P8AwjKDndRgXhe0X4hJ7FQE9ak7vuORQ1STiV/f55Nfc6TJ5vqrlZhOG0rSx9aVNrFDd1fO9c2I48lJgPXEYOE/sMtPUx5dy0Do3cyHfIcijbfnMZYOhNvV5CWkm8pBcLUI8TWkYX8q8YpNK+BXYMsx2XtvmBNE8YgAmulWcEIuQV/dKywh6SUToAm4yWMwAznQddNjRz84YJf3G7zuGwIDfFr2oB8ZoCI2zqkXKcGBNLkaOKgBKbpEmKEVnY8Od4DhCusW/ZWCWxwhfQd6da0LTuoyDKIMthPzsvlYqW/i3DLN6XkXxinpcDkuFH5FPuS6/gdWRn3BOPFk+J/0QjIUMzYqeLNUxRWgTnIc8+KoOYd1grPKd8A7qAeP8bjApAnUW8ltGeHWZ9f7teCx7vRycb8Iih+K1T8DPkBaSsHY6lzJk5/LpZ1I1+cI1uWoqGAXLOcseOxTeC8iRrH+nlaoF8wFopMmbrw0v5farx0ciHpGjgHJJBfG8BjQaC6H9WHvcTsbsZumqlXRzrTQxxEx46XQhDCthGUbbO2McP2f6X3v6biIVMKXWiUDjhWE4uCfDIZHsRHwFelb/AY8LuyDOEeMKFbqp5zcyuPIuiiDc3Y4nL1wbjz5/ZRy+dmscvnpnHHnt5jhELwd0XnNGayG/7n8eH2O8Hy/9jU54k8//52965/iHX3Rq6aCZveX1VH2MlFYlDeQ0j8tt6TPhijMZ8dUrB0dJcIDQvMshdJm5GnlV10yMchFUJTBQ/AkwH1N9YqcIfMidsfn23/1VW1mZtIQtSUH/8lirmiTJHgv+fdjKqlZeyOPyzJJ7mp6wV5QszGr7xmIJ54DC9mm6cssMZ+bHN8CI6iUpt8ozczXx9gsEU005FCat0rujrhO/AyMiEYLbNhjwqBWOJ4VBF6wSuPIO8lxHDrkiAjasOygY6rWpWSKcSgcsby6dX4hyIZSrRakbOjlvz7/DusUYElVIqU4ajmBwnThrA0kersCWpi61QTRzk8Z/6GmnoCoAp5koK+xYCxFD7ojSP85XhvaX+VML6KLdlZdS76PSyQDKJLhcIqY8fMNJhBiJr0wyZYPAXpNr06+8Smi5hKN6s1vqkecmDMo5KGPAOyqcObgnkCihWm2Msm4RWgiphKa1mkrfYCGrI2iVFi44A0ULvHalfBQeteKEAfCRJ07Z/ryzHS+/cEnvyJo5ccZNvvgdnmQUqQmJoiAnAr8rQt2nrO/cM0ZXAFd69iLjyb9zjh6uUiiRJVHKmR/fwwpBpxefhP6tMskZXtf+qgu9CiK8fhPilsxdvFz+pmIoR+7B3wHq8uwSyBXmXgJ5DmzM8HoJllwrCt7v7Lp/zXEM+sJbpMyS8xFkiSAdU4Mlr/EXf/1Sow+uWvVwS7DemePjRmLf+13ieVQvDj2LK4tSZ5+5qO22GHAZ86TWTOjkiRNJUYlIk2N5vbNGkFc6B8yOatpdcmrj3dcgfafIRZVqBkuBUSDnAVrjK7fGlerCyT3OPnbCa1/7Za53K4FifLHI0DkANMH0JCUsYGAZqmb/s2Pm/eL3In0FxwcHwDwiS/JyqxVzIhPcT1iv/f3x2udMx62wdusjQ1QJTgbugfFOxQPr4aHjh6tzbDH5MQ7CFMLLYGctcijspThRyEobNdMQ07pCgW4rIgjJLc7ooc14/LGT4ySGGeXWH7swzv3sC+P0azfHUQCH92EELAvqHv8gQfQNVAG82Ulv8N3VQwfHf/h9Xz6uFgYuip25FfMukU6ovl+ja24BVhOpL+CqOjiWHlMPGlLOVb4vZ01tt+0oM1eULjuCbgPRKSoXCxw/SYqrHD+HeMbm237X+7bhHWBx8yAB7PGQCHgT9VhICX1eXqOjDUbnJ0WRWtlJ01meTaHzY/k5JO2qiI4Gd44bMpG748Zl194GBJN8VGp/ExqzJ+EcP2kQNAnhW+m2YuhSpUTyaUX6wyJXbXgBFLVJK5IiD62sUltzKYOc7YxVFZCuW5vNOP3wMdWvulb5zhDn/N199aTgcw6UD8aQoxEmKeII97c89tvu7JbKkeQGLSxnSMgNjhxWilALoAlDwZumqk1qI4gqOBqkMjbymiRQbHxJmBcegmsoLSADkhJY1+Pz3ibsWJxXvVuMiKwHKUYWPMKu2m+rzbHISOypuRTOEZTgDnqeW7XhNU5qaNVqxfltDBLzTMy0RAC1jB958HhYNPMBAc3IS5CXEcPzu6rE75QUAsYN7ZQ1N3SoY5Mqbunf9xx87o9yDVFTlFzkRCpBvB5mAyYp+wDjyiutcNrrRUwJeGFQCvvASSa78ulqelSdVUXmVBNPKSklXBy0Jb51Pd4upZlTwS7rhFayV26Ll8TzXViiuuSR9GFAmbWugSjICYCboXoZ1AuA0ax+MWTE41GxXDGK1nxi8McQi3PB+JMnhZkzfR5eBTVe3jvGebAJCy9A7QneOxEc5/29KQIcVZS0UQXztbz0KtPsxpvWQ+23EIapXh4m0yKk4RxVrKhckNJcl4RKPFfkM9EsFHLWjEL6DQRomWaAYRpYhT7cOXOj1h35u6OxiAxVNKm1O46RwjOq82FR9jqS6L3I/VKqa7p3mo953ypdUL0qfL7fx/I6XXNNpJY1mRSFMWyIWOPUTBLk6JtQ/zV+iXZxrvuh2FB2dNjlgjPl4dQXMgiw3dFrd8aTv/jyOPvcpXH8wnVFBjZl8L8Fff6GP3nPGOOL30Ka4e7eZvwPv+2d45+8/dSSRpRsraiK0gOlW5UCFuB6X4awDTADrYngUSzgKJVTuFqTArw78h0abZWck65Cl6uaw1kC0aSrNN1MvYthRrtnNzeqcpgKZ4YFKsQeYiZTqKgotGrGtSj2qqyw+O8BOEhwKZ8YAg1PrK5XyH6xNlY54elHji0tN/EulfeqRbrMTOr4697OEVoaYm0dOmgQoC2iAovtOUcoq7+MmZBCOYdmAS1PmHwe1whavgB7ynuG5EglRc7zx4rVI6S7nbxyp1ckrMuMt7Li/10yZ8vNZCiAMd2m2oLD5S1Yfi5/8b0mUDKNOhZPvQlsEe0UVwBjGwuTzyj1UWh4Sa5WjpXnr49ZQJT2SVhttypdiwCT8K6xDZkQJ0qw1PvwDleqHh6P5dS5Y4tHqzC5wiNGWEdAp4wrRkCoVTlR2Iki+5AwqHBhjMXsS4wzewPQ426FXrfwddqlbCsxZIYWXHNQypQyvuTMxWpXjWvwaHhWQnwczM0sC3TIVceee2HMw7gOKe3qkqZnqHTAsgG7Fi7h2te7VrO8NldQ8Mwnz9F/wfe9zF4JyDKGbhlwAqwWCO2Rt51ayimV/074vchvrPhbV0aiPqI49ghbafvfxgFM4GDmMQq22Z+L4t+Vrgq7V+qQWvWML8buxRcMYtSeqpRbomHB+1BOnAZRjE+qMpJf1VJoVNCSEdV4zpe2114vt7SG5n0dhfJXYlKt6BYDlH38uvcJkRN178cPiqCJg71KKa4rw+Z6k9wqQho9Gx5uRQVwgIIFYd7PPuLSaRktkmMeGyKdqpYqkHR6S7jaxQat8DWqFJtRvQAKkYnIB1UzHNgbj7zthPLOyHoqMuiGKxyYWsIX9Xlhz+zguTwwkTxWZBpfRcYhc5kzDMwBFoxyQp5tISJKaa1LwUkjRKeoOqHwGQvTKFi0uyZaygSanZFIhnsJyfA/uDfOXb09nvmxj41jdGn9Ah6Y2t/EPd+CkfAzX3Rm/PCHnhzXi1yJx4S/J8BkYQrkBNpYk4IvoijksR0ksE2mbvaaNfkWqR1A4ugh7Ys7RK6PKKLANQAe48TwuSK7pXeiU6VWvucPP6O9v9TxlsBMGFCdq07Sq/qgW+JevKEwUeqtlR+r6AAkDfGMFYIqwJHENgu7plTd6igZi4db1Ql+u9kWNdY698V7EYd+tVvWy6dVM6jX6pJlUIytUXu+iW4YMJhQuizhCjFsQ3aBR1/efzbA6fPVJ3x/Oy6+fE25G4V4aToCILBCiKJSrVBPQjzcX9zqZVyw4E+fP2Y0Kh20Lju8KIOg6qi7QbAIbXKrSskUYEuCalrbBqaYzInNZYKSAulJKc366CgGeRvKI1Ztrjr1HdJcc3Deq23BJUKhiEmVfGmulnaoDh9egWBFeIgD4+yjxxfApAWZvYU9upyVl2TQYSpFzHeQki2lkm66U6EOhU8dElMjqFLAGFLpnMc4vPTZyz6vyEiSY0fwhkFQtdKVVmHMlcoienJ3O46dxsB1qB7u/9TNI7yijKcRmcqcGUkRKVfq3lV2WrlThe1nlQbCX+jsMmbjOUux0EOj3l0pjdNWOJrfKnGSMXTz9gJ8XEL/PDdI9nq/RGcSc+YdZre/ObxeExPXgVeyGOBQr9Z3un+LALhzqgUH+ImUZSp6v1TSeF/ngGcjOAjmjOY7OVAgSU9MRkwb06oCUdgcnpHytAettmfJqpzskmOu4Z/3hTdAUap082yKI/wRjqBVpKT2QiIc0+GpJUkKscZC6ZHy/tgHibCp3KyqjpSuCWgWRU46NcyYN++au0Ptug+JAElh4n16DbgxlmQPac/iJJChkxy85JIbJTEdrPd49kspedHeHz1pEiwO0SZXid+N67f03DY66L7rVuBcUPKlDCfJgMKALFVwJXPdL8XGifgK4DHYQEB1vHLcNhouvBiF5iiFKsoqgqlIqVIv9njdytler/Lu1TAP3WCiLSKBlZJSWf3eOHDz7njf//XJ8cSzr7RZ/sL88wObMZ58C5d+/tRD40//5qfGC6cBhlelVaV5ss+1bWovJaoZXgZF0Y4CUjwoJwX9JAppdOKBvXHiVHXabHgmcz4ckkPMmMJ9I7BqOQm3IAUs53vzff/uh7YZ7NQBh7mQ93VYrfpaE6JJ2lFtI107r7KRIidxKJrw1nZsCnWL+pu/C8WxwRSpYeffBnPFu3bEwTlpFhDc0AcE5pGgv+H0AwKNjeQ8y0aob7FO0UypBKRDkp49B+cqTFdeUfgXOD8ea6Ici6VbwE1xa4vn2mmQBREa6V30toSlMSJURnfdioXNhcHh3hcoHsK2t2TFMUCzLt6ba0HNVjVHGOFUPnTHXqA2Mg06Ck8ggZgubpQeFuUnK+xmNUBhLhCGpsl1q+HUXe8dsvXJIDGOYApcM1394Sv/qjErSmnXUxujwthiKNBYRwt84zBretwzJrA2crB2YCx0bbXLZZdjRrEdoajabr7vCgoPWmWKlWuzkC4Og2o6Ys01W4A7LVTroSJHnadh6WK47y5+tVzGtWsoY/9Q+BLGuSIE8mjKAgZDk5AzkTBxFJRln8Zneo+K9Oh6QRbXALjDorUcnsKC/G896dkr6jhXfUuSutL1ira5Fr3C5bme04AZgAodlfHRuSEIVSYtoaZeFXVIL43MlQlmKtJQFSEa8vIeE15OB9g8UxQo55H2yRFlyt9xNJzXNjo+W01spaX7VaVRvRGWyEB9iQe9oLQxXqs/BHOh8uklDz09fPYHDbmcakrY1/OhEDz7ufq00CMk3fwU/ayS0AC8U2I4WSEpAQ+Gx16heUeSciiNkOZzVZWQqqy8NGsuRhiEccYyFGtilWnbAbGc4hDFeDlXwVCA65KckvdeLedrXJ0+Mchvleqs6iJkGZU67AeMb/ASrGVVggnMagPH716pB5HEJZ1ob5noG65HiMZ4VhnkEFxpzlKRZudIKd8q1RWQwSraqAAAIABJREFUu/hbbCRb5hIZf+evXBhf+7OfnXLlC/SvRzdjfJAxecDrs6L+lw8/Of7++x415XNh3YzrcI8M60W/L/IkUXgb39YBSfmow3Jx9Nigmxw07AsVHKQ7bnFWZMwEyC+5bid7Ozbf+fvev00tP9GAAFbEK45lWdEB5btLQETZWjlF4Vui19KWrDx97tg4efawe4JfujVefO7SIpjCNc14qi1qeZFcL9wDvPklkKclCNTqt6zt7OlEiZ2SmKQiEjKLgTBnjQ1iSlGH7E3n7C6LlGTC4cC/qT+noY0IfO7C72A8QY4IDsZOIdYCw8GMFsPEUQ3rDW3UKglllFDOePrekA5jR6hidcfzgnhqloWZECehcFUspLFKsdxFeFK/HYGuzmZ1sDiSs8tn+RZlc+qcG7ygoD7ziQkMU/lkjWfQ/F5o5gKIoKZlcbx0ocRLUO3uGy/2KnET70I8mvmsUhAFXFvmsgih+I5mUNAKS/AdPjCeeve5Zex5BtC6u4ejEqkVrtBuyDoacl4GkvLHnnPVKse7RgBV1QLfxUuKAA6RDtdQCK+8aLX2XaiDvVkrA2WDt0CAEyTipyfSE2T24SN7S7hXERw9u6V51iT/Noi2vPqWeuAkoeVrA8k7LGWgdZpnKL6DyelQimNZR8ttxTrYAYk9habFX1NKVRSGrRf6kHHYj6xljH2tw1pULkX2RfCQEgXjbwjalrUN50b9xkK1vmmpCj7p/A5B7tcjtVSeSbA6VsIGes1Zyi+hN76CkW9aZcZVfAERUK1xFe91/okTDq/vu4tmuEcefttJrTEOokKfefaVJY0jb7jWjcc2XPo0DpoqCfxV52TIIyg9o8hqkTOVjM24Xfjs5SUKdeLs0XHybCpRqh9Imjw1IxNj3vTOXgchLdP+IuRdDf8AVKZzJ+/6/Kde9d6phlIxHPqa4ZqqmqlX472IHslAyYYpDxfDiDWgcHh7L3WB/dy1cfi1m+O3/8THXycH/mV/cHQzxteg897ChZ9/+Nj4kz/wPuOnChcm3FWBQjEmVcVTIOBrl24It8PhCg63ancZ9tHSWfSTMYmhjDv1d0iqlTmy8y3QKYZcgczl9OfaRKy++w9+YEv+Cw8jdZQOkZpD3fWopvW1ALL3JYu+rLZsSoVot3SYO6KwEMqcbnigVtXLoIyBRCyMhC0wXoA+xcOtc8IZXROfaIIVcrVCLSUsxq8DoGXdfhQBSTmUGkkVgjOlZCphpAtWgaXkEVULzjA7qpTk6EH1n1AuvNIW8Xr2FmFkKw8FivfKWHGOOhmqLKoYxMq7ZAy0KYo3QTm8yt1hRSe37HXmXhLxApLTFtK0esgzPwI8FUYE/EBa4hK1UElkgTOXPgyqjYXgpdIJqncUQECLMuWVkneNk4HvSIvwHMlXm3fBktg9LvzkbO6E2eWdINirfFIRKREX2aNRdQXgwzv746XPXJYxmfXViWR415TUJUQcpUgKKteHuY5ITYQ+pXsCmhZTXowZhGn6HSD8X3ju1aWCQcZPGV/TaPW7qYIjHvP+VtTPOYxJKGWmFrdFbFTpmJxHiB8yHA6udfyMKZc5GKvkjM1fMQ3TU+crFBmjU+mpYj4tIikpmQJ8eg7NOqkVFQO8HiSGl76btkYJnx3DskL10vkVsfILzNRE9niUcwB2EWbdKBCgNaWvVeKW8Ujqkr8NTpuRm/BN6LtKM+l3/d0KtzPfYBoPSk2q61/yEA1LomhaW8cN1JtoRlJC2cfcGyNxqfqo8c691ea5ymNFoQ0uWrnlrVK2mYOk5NhDoum9CP7HRnZy0Z4ng36zBhNZZEMFkKZUr1JkOCLWtKGll9FbVWScJC+zaPQZG/ghUOYpFY2HznfIEOPSPGY0pgrD4J1bltkB6kYupNRc0YHqlKgyyeoF4KoQjxb4LhwnO55FjFZzKdmsqrgZUSB6xjWR5+LbqfRRjGzG4Ov/7rPj0U++tuzRL9Q/vnKM8UUzm/VAt/nvv/md4589VTihWjhOt9gI0Hu1yj8ZRCXIFllM2o7UTrV5X9Z3PUn2hyvjnDJSE0H1vHB03V1KjZOTo/47/uiHtzwAgjedE5XPAfR3mHAFuW4rmixqHprvCUGqJ8FC12gtKMOh2oaqRWcdqjIokiUprQLuKPcEGU/1Qef0hVuhPEaFckvRRRGIG1w5cQOJtGEIae/UZodJSiCjUvT2rg3O4dpRngginoeSEZEcCaBzWApUALxLN+T5JjeIsAJTYQIlAD7Oj9rAsdANAFKWXCRxlTUxBmrCUQAxxicsiTF0KLdjkLUglsgHzWMOCOSZ6hIsaeWQaY7ykBUu11fzqPo376wOagUSS3WGUjwlJJIThQdf0QrNt8GLCVUy5ynHxGNCoMRTTGtiK6SZP4uyWnAgt2jJW5wSAsJ5LORdEDZcOrlVn4daR0QAnMcNkG0SApGKStQCo+/UaQBe3rUXXrq6GBihvTVWwSVyeYEFCFb3c1vq7Pz5vMyJ8uD1FRGddPFjkzmy0MBhbUO7tt034J2DXE8teO4Gz8B+0usbql1MnWrlaNwJB/O7oPIRtC1y06MMyFwrKx826iyRFF0K8VClisIux5oIUI1zyZV3pvAIK+/dyZiJcuxREwIIuZ/uX4pfkaKTD2nvifAHfE5j1KQXStYNj5tSVNaxsUDea+6uOs2CYGq4V+QD84bHj8KsF1e3yqwT44/8FVfCqBEzH3TdlW7NNqbqKvwUasaWaIyiphOXxLrIviIltq9ITXrguD+Lx8MEaXleomCEyisW5D4bBb50WqxuSAi6PL+sucwpDky6bqrRVEW1ljkrmRJnRY5YtTaPMcwz3bplvItSdFS1lcGvajCRl1FWV31Wau7CFGijzL0HnGunW7CdqUSHjE2rltNEPVOdlbVeqTFHC7zGuG8iPSFuEiNg7WvOfewzl8fX/+QnljX/hfrH2c0Yv2nOyAPd5ucfPzn+zEeeHuPIQa3n0EITyXUraq/v0ErHQTK+xlw10Z/Mq3RQM4DdE6Q4hMr5Zf+qMoXoda0p6/1JjLKhikE86HBWkztSm2KHdxRBuG2cgB+wQGTLdxgPnGeeaiHMK7J3HaWhblauw6TERxUQ1UdboXUWwL678YVL3yRIFTItfoHsgdQfJ2eiDSHh5pIOAVkq7ZGURTaavcEC61XI0krcm8Hh8q2besgtNR9DSEooe6QWOVENBhXBTUoG/oikNLIRIvhEiyz0v8VNQra8k0pXirOc56NWP3mosJB1kFekjxR/RXR4bsKxEdZmb3PJC0eqKTQO0D2njK14yhdh2lIPjItIm5JSAghT7IMszPNPHF/wEaCdX/kcHdg8hqrDb4pwFaItDnc9V3GgZxfZIKxIxMoLKY+9hKaEYstC9HQM46yIT3lFILSL0dXsbo2FzXgHGz+kKQC5pRwMpO9UeAqhePYwCEhBlUPvyJSfmTVL+WAO5pb8do4eggf8F4+e7x99+8nlfjbUnRqR4Z28enn/CPp8d7P6VfC+LkmuxlDsqQvuQcBx7vHjixJjL7uNtI03RftCv0sIN+0TCigJLwQH15b3W5uxG4EI5k/9ysX5rngfpWHZz6owKT0W4GTWwMWXrjplUKXKfZz62lGFUSnRROmC+QDlHwwJRhNVA8l3nn2UrrCFLVCojjv7YS597upSIsu9Tp8/XgY80S/3a+Gg0+MruqaPhZWwIqJgFVL2aiPGvwOQ+gpAvHp3HKq5N2Yqks/EYVBjJuEv6mMbUC9/+srynOaSmbwXYhut9SmCJUh+6hHU9ybjDrgbhsHaO9o3bX8v65228DLS4+xt1LUx10FXODUYbouUfbvbZQwrKgrgX+BA6Qu4WAa/jICKzODgXHzxauGITHM/DVGHkxOVFF0zREGyEMz0Fy9BfAwYEIXRCQiX++9tN+M7fvzj46Ra1n9hj28mavMWogiXDx8Yf/Ybnx4fexxgt0kCiShpvYov44YqbZgzl2tPIi4xKapHkeWqwJp6BqcFO55JY1nRd7p0iltIetGVSSJiUvm9y0U33//Hv25rT9N5VSm2BTE5eyhE+QYMZMrYWapj4Fc1SCo0v7ZipSIkwKBafuiA7oMHQF4MgUXNcCzHeNwC19VC175WnaYt7DA0yiMvDISphmfDFTwEVTFU+UjQvVwrABDyvlipLFwwEeZEsMed/ucoANjMZACVQgjaVnXzl24pjaFBP1hNQhC0ZYGzuk0XXbTO6hl+t9piE9HYynN2e1xjEtjkvSwp46hSJ+WTbVoD3HFN7IGlRCghV+WmCsSYLeFGVy5lS47L154DrTBiUQvLiGstqhljOpWp5E6Rkjuqo5cCYfzS20Idxyr/X945hlf2DSVpKqkpTa/QWUVaiADEKNLivnp7UQykveBh0NIn8lJGbd4BMpaAAJkbs7vZG+wVLB3/wlxfvoiwrAqQ9FfQPSZREvfAw02OXhGIJe3mMVxKHovpMJgd5f2Dc/DTL0KP901bZb7hmQOS1D3KE5OgK6DXFHHd85+GtTyD5t4z3jFqWCvq4cBkFAnPwixa5FS5vqJzIWdS+H4qHPdMmZba0kq6scDNyMQ06tRyduedgmlawsr1AKu8NFwB7OVC26eGn1NRDB1vQkXLYiwpLTarSAJ20++KNG3ZHyiwxh+ysKSWoI2BIuUvmel96DDwMmrmJ4gAX5S913iv/nD5sCtz5JO0sLGabi39EexMZJ4Scs7cuD7e92c9nXn0mNciCHU1EypOg7tm4IyMdwi72JRkZD60NOICZO1Wyo7emfPA56psshh2MVB4rmA+tGbKmYzsl7wucr0OegzDpAzhotD2ParJXkkMMz4a8KwybEWajB7F0Eb+eu85eqx3KnAp5xCd/sDPPj/e9Yuf+8JaB2OMt2/GeP9buMv+ZjN+5L2PjL/+nodtpJNaIk1PtRyl66RSblHNZzCqmU2NZamuC0v5vCPtZiyWvrzjMWLeo8c0LvWcoi9Q2XSxbba03eZf+7e/dstGDzd48h7yHhc6UxQtZYkRbJVQr7yfq2D8ndjnCl1pr9y53IQO/cAYBW4/m0WIopWBIsDFGE+847TCpMgxod1fgfgo/cZnUx0MDjHuFXKfkBWeG7/h2ljmNh4K/Uq4Tmh7U1AGnesFxTsXWZBa7JYAVh4wgMBqbFWocynRqiOV0KHqaMmF7QlcQh5Q9y9BthD7qDlVmCotjGt/1HNNABlKLR4GngiNnJIDVVi1lYoSDdIcxMov6l/e0b0pluzoBLhVdUAUB8pJQrDswCDuJcgqjOh7eIzNNWBB98pLVwW64/54nY88ecqREUWLrlcKxquzsxACdoOC21GY8iyuWfIxftTLR9Eq8lLhaRmJC19wEOfTjDfw1u9MlCEes8BbGBEYNCp7nYpb99wBuoWCWdeBEKspOizuKERxwDcFDYNnRty53gnqXFzWilAEs+D7BxhQ+IBeR19942UclZEXLxAluPQoKGUWmaU9WfX3PNPCQpkLxV2Lkl40f4WW63MDZaeB0O8noVblm5pjAFc5VcDNSV/NuU53eS9S1tofoacLXKrnC2G0L90W69m747ZUYlVr+nwnedLK9RaSojohaUw5SSEQu6fBslFfhyUtobK7RJpsvMZY1zuGAIvI4eKhZw/MsdzszbXRU0OMNUZ1ymwVjSxPOt5+UkfpsxIjhaVoGeSUrIar3jfKmbWLUYKCRX7onGJ9pC6fRUZKQQRjJVeEN6j5EANui2y4Y6JJ2WToY8xXkyQiMIlILg8SrEx6bVQEI8Yj91dKQXTafh49R+ka3s3tzA1kjMPBe3DeIx+7OL7ixz8+DjQQ7lvQ45/3J8Q0PgIPQQ9zft5f+YRnzx8bf/Ibnx6vlfdvWUFExYB7VRKpvwQVeqypViZbS0gg0TJ+w+jLGCFnmYPoY0EEWklzT/t5bXiBbL7rBz+gMseE67KI5Kne3heBUhQ9oy7wSyl+1dAX2Oz4iUO6RMoDKTeMB2BCh6Jqrs6R8sI1e1YGsrrrxcSGiBCrZ0DAi+iHCMRR127akzadcjYzRsGS8xXwz02JCHemV7ZAl7AZ0gu9KIbVHreGwNeaoDAeUTXH/B9es4wYW6gtGuuBr3Ize4hGjqLEmei0LF5MK20cD4BBPMVgqO6CjrAoKsF1wXoUrbBKWBbKW4/BEqKlFW0xNmqSYdWq3Dnjoh7tIUzpi6A44uPJ422H0ZLfqSFVtRbGA03/cp4egdXxB6v8crWNzf7QO5aAwhOAjCgCVs9X5YCcT2oLi9drbb3D8A5PVjifuQAQymZgTpxDq1I4kYuUq7y7SStSEi8445LTVHqVDVQpiyhE5jD1xVof5WlpNgvzEflw5+5sIMX3sfxzn5Rq8beMshAQVVlfj0qs8AFXXV9+j9dyDrOlDRZOhuK3D6+DFUUIuGwgd0/cTX5m6SnrcgXsa0ZZKp40HtRfq2FbhdobuyOiRqQ5NUCmJJ73UJVOM7xsdPo6rPt0s2SuuUcOeauVBuMzgXPbWPYIToB29nQLbJ3yScqBFRqfinRJdVQEIMqVcT11uvoJJKpQU6KKjdZOPD0J8rxEdRDYPANrluhXnlHP3qIzy0tuzXQp3EORKj3/ydcWrgNkrBkKnVJx+bbHjv9ln1q0ub2ygI51HQyDtP1N2rXvhaRas95TfeA1U3S/WlDrNvGRazH68jw8otbzvcLx+2OcOk/5rlN4SrM8d6W6ok6QsNI5MmxmV0tkRUCUPI5xZHvj1Gs3xjM/9vEvOGkS9/yqMcbTb5JmYImwwlDk/C8iis9ubsf4a196fjx14/Z47PCBcZ4ujvSfwAG9sx2HI7vB3FGBUGWxh1vfiMP72/HD3/Wl41e+/HxVy4Cbu7WU3lJRcuK0S6OZA5xp9pxB3I3rovaFmjVJSFSdKz8yYt/AtqV8rzpfedFZELIWlpxocRo4nOXF6VIVhy0SQuLfAWhJWQrsVpTFhPKqk1gEkQCDgOqKaewq5ToiBHIdOmG/pVysuR5egAZWKT9VHQlV91xAxKQgYgzFMl4JXYBh5F6J2FX9rpjR6l6qES4jQHmxpU7bHheKx89eyqGVBJLnX8KFVd7isKbpLo309UoLk56sQUorBdSbZXJ638rTO9JSqNcSarlu0itRDuL8rhLT/C5GhkJT1WqWMKgAlNVf3OBV1zNzpORyiU0UD7iNwESoPLICpKUTn/L6t5a8O2OJsBQupCIHPSzrDmwG0Ug4XQEgmSjDBLcKRyEGzdcrUT3vycNLu2TG8flnX50VEmBtUFqFp0kdeL2K26LWIsEI7IpKBlOBxdj23kPzvcHiROGlT4dF9lac690I6U4I1+lltt3613M2gZRIm8aaFE+RX/G35rRVVqhkbvEmXQ6XA3Au4L28tyiqF0a+MY61vgd4yCGqYWu88vLVxVjPfXNd0+dOq6+nfPjtq5+7ukQRKDdW6V6lLq5dvj5TUETrykhiTFGeyx4o/pHc016nXzRrI9EJIpVnquqF72NIaw/tUR5W0bo4HUUNzrnIExpvxcmKLOU7p7tqYwuvYBCevHHVqk9DRHl3opcFunbp3jRuu3FNuo60lCIuVc4nAxl5itwVg95M2yl6UABCzpNCL2wAEU6h2quETmm5Sj0Iv4SRXj0zSDtkU6hFdLrzltOnaiqPsN4l/VkkN9XXxHwnwkJVtEEevwx5RyuXFCrcB8K9FKUzFR+v3By3qhqKh3JKs6jTitVRoNQCzZNeYT1zD5yKD/2DXxuPf2xiZZaF/i/5H4+OMSBOYrRoCs5/oISKUcBMYQzwGagIbDYZCvUc/P6Zt9gAikv83FOnx5//pneMfQFjqyU9mDN0Bk2YbtxZIhOK8sBbpBRW9WCqXikqBviW7/9KN2sKx3jlyF3qYwIccnqx0lQFUN4uD0OEIZ6w8uKivfRGlIIEzFcRXpSIEOEpH4uFizddHm48OpfW2BpmgVFfD+qY78mzITSCGF+8/xrgEOlEaLKJ3TI5tLXT4mSThj9hd52gKMPhz3c0jFGPhzTwqfatEsQBZpWwVaSheU6Ez5UXLTSv6uPrOo5OOOrA92rfK+Y1ewBGEleLYloay2L30yqy1LwNewmlkWoTLYBFCF5KwEsRM4aFWuc3nSCro+K5D5tVocaaV+f6/AysDwR5DnWPqwhFmCljUDkdND1GNW95pXjpaXpy/LBbaZfxqBbfdSi1shgHxVC4EP4UwrfO5eNFoVZKZPEK9wAAnah1ag/I7YGtQ9zffmpciHDyF+vwUiP1Of/YiUbe42ZPmRuhqltI0zzpQajvjXOPtgjK3e148bnJ+IbiTh6dIRArXl2LDX367GwPI1KahajINemLAatmVC5n1dyVsM7fLZCk7zqjIYoF5k+tswK1Zn8i6HuFAN8n3Mz5r1241gyl9HjI+iEyWXzBpAsEbpvjHZZUrrOANmsZQEt+KKHsmtcsERyJ3kvCTYnm+gm7JtfF0LnwIqLbB02eoG/OuyoamQoL2qhDHlaHjPSqTmHNgMPpqaFQpOta8OA3yng7TdM4Ih2U/cn+u/IaLIY2jgM+y31FZLRgDQB+T64IFH+nvGYs9oppjWgB85g0MYDcl5675D0mtlE3Tcr6uH55yjgqsdKpUee3aB7GDgDbvA8l7Z97/rKjYOqTYceOdyEi0jlcMB6OkxIoAKkqrbJXMO7JmRdvA5Eh5H0wWOpOG6dAaRDYYD3PrI1TMFBCvUwDqYvXhDHi+JJPXBzP/H+fWebxX9o/eMGHx9g8DOJYhK/j8D8f4/ZFS5y50ntS7o3vzkx8cDPGubf4gJeOHBx/9hueHr/6yFFFANG7Ko2n+VXh3FRymvTMnumaUwVj57Kii7/93/rgFmFkAI0tVilN1UjelgtiEMMBlUfJAy0aTOWgiuZTlnzzZJzb9yLnd9pgBX68edMemC3HWbOd8ki8N17EKH8UIhPsKAfljEpBZCfzLJWfUmllIeXjvaccSvm01gNh8dSKOcyAMHsMppd2Yxa9r0ow7dlz/Xj2eT+Q4OrQJjayO2KFC0gSIX/i9GEBMRc+g6pRN5LftNDerbO2lfsggE+fw1MwcPDiy9dN31rvS8plhnFdvcAzyKh4iLSKhZrffRpuCDPKNQMuSohTAqIMhTyTvJSGbwj5Ew8hOk+lb+B994gqXFXvw3jdUCOeqXjT3pqTEQoYXHl3NWCJZ7nkF/11moxk3h3ZqNr4BdkcA2saIDyDSaNm2mhVpcAzUkbUKhMSOVcqAUBUjChaDb92w+mMQrCfaZ0Q1Ze+ynr17gAOFw933aAIQQuqPHlkDI8V0K7CyJqT8u5i+GFQHjs+DTKl8mKU33Vjlhx4iEu+N6H3HsLfiTws86E8/yGFI3OYbGdem+6cE/2+Ll/EKO+VGgL6JsJVxkbeh+fv+A5t7RjAagbkKicO1iNjHuPfadD5TN2gZw4uXbgxS3O9eOq/ncJcDBN1fsV58YAQBWIfT5CmgdSxFDt2AaVNF8FUeJiUZpJHsS9d+uyRJMybaiKuj4HqsbKRbk58n0uFREow2ZvMT3gxFKHQxvPJAdpqz/MalvL6DqXlElCPI7JbIMgCeTsa4AhBohh5H35z7Yqp7nWtALZrzSEr8NbdJ8OcGN0JRI5l7iU/C5vAY6cBkdD5AkE/pBJznot9CTZNuBBNXaHCamx6OjNYHukVDAw5fncVbSWNoij03mZ85//2C+NQ2x/L4t79B6IT1qPQmgg4OMaGBpfnEQzkL7BIxtjMopLlKtt/Osb2Y2949Tf9gnf40jHGu98kTfFmF2B4/vZ7Hx3/+zOPjX1F8h25UsQ+UW6JSnMmdGcCh5+1H6zC5qM/9MGt+ChKOTFR8Q7x5FiEQkNiNavm3hUP8uSKXjf5Lucz/VYI0hgWfMTvY0ysKx4MxhJLYlnTQqirM6C9VNGDVivlDIz2BJZOEawE7xBARhD8ptw05TDKh9a2KZWj3OwGQq8qN4QbqFaluY/el4hJDWgEiAhsioRJxFKqA3YYh2dgQbIBo1xUOpLKAjZ6iFWWqEaBk7ZDnbkQFAn1s+FQNDF2jpzwhCd/jPIHuBIDTJSZqasOfWsExQF7ZYJR7DllEK9W4eeggMUeaCMpymdJpZQhQe5/1lw7AtKVWBdYMf5iSfQ8J4+mNMySBy6tWJMg47TlqRPFUmB+H5T6bLSEMHr4yZOLx0/DIgwEB/FLP/R4/HYKY77v/QLIuSeFwk9lkDUmRKJCXfn2TYuQv3SR8k9/6kZn0/2C2KmzMWLpL8Q3eP0qtfRv2awdi6Byr6bkxe5XB8bcDXLo9REljjEUOeVzn72ySlX0BEzmIddKZ8D8DTNd95QXYy7P2N6P3yzGQxlT6WjKmKBwFtzHhlK6Y8s6Q0BdJRJTD2eyqGkEECXIWBp85agZ+4Q+GrOO24Z15wXQ2IWbYjjXneZFjHNvymY2yjmrGPtLmTAMiq/ddHmejm15uVWCd4BOe5YFvAd7eoFsiN7brZw5nNJFkflvRXkK+MwYHj0JVqCaNVUL8hg2EvpyWqY2oYJoBk4axqRCx5m3EOYktu2eKMXw+Tp8iinU5ckXtgoZnRI61qMjkLVmKyotRdMbPlWvHXuIZdgUF4zmmLT1kYMeuzKYeD6ixllPS/+XGnmM1kQ5ZkSsWGqhHK+IE7L7mb/7qfH4L7dqhuNjbN61GdsTWxkEm+MoALiLNzYQcBpfDBJ4we71rX7Pf2+vjrH9sc972hueQCzrm9+igcBFP3P+6Pivv+NLxxW1BJg8MUrjqGHcrF6LnBH3TNI2JXM2/+rvf//WnrcnSyWHymHZdGKBE9rvYbweggWcZOILKwcsXIg4cr5zc5ODmbIYfQRQhtr7BjDhXNIVsWhQKstmX6oMvK54KTbZklus0pjcN2WURDuoZz7zGN0ij8bQFLDNHcFqe4sqeaLYu3UK5/peQRIZJUJ9ARHym1XaZKEG9nUY+6OfAAAgAElEQVQ7CIx/qxNjkYNIqImHfLKyXHrNnn1+m86TsszxtE7xzqFateLIxhH7WeuyJ6OsoZYdQakX3sySQXsud00RW54IiibpBz7rQLzurep8ce7PsXRodJLxCNi6sxX6+ujtnDEUibjk4H0wNvPc9JBfo2+Lna0iUggqr4li1mvhXDE4Hp5PshuW9Tj6+yjLhZynqlPmetmlHp79PjjndHXgU+63gJTxwIx5marZEZ85XkRZ0mJ3ud/CxeC892xVTO59jhfGQlfMMhxbCurQUUd7OHgO8roxgpjjx98xyWKd/pk9EnZ7MDz65Ek3Bqqx//SzrywYBs599CncLR+uRHIqiQMgaceWxLDP+RjXPe1we2e8IE7KoXx7W18YkIuClPE5U0bch8ZHGX0At2eqqRiXgPU1NLZa9239oBjhVcjaxnj4xL9Ae/igBJdQfoxMIhATj8Ie4r1rjYnjYu5Pfk+l1GIkLD0t/KRgEmwk+U0xmEnN6Cj+kRiYGBvqbdGsv54yW/A/9dwGbpssh98sQGxZH4my+L4oW6I0uRfPdPHFK8t4T6yE96DmuTo38vvjhXnImAW7wX3v3N1XL50cvRRbKVFFKmt/wtcDi2PJQp5ZkT1VViGva6TKQTp36+547MWr48zVy+PRr7849k5txvYQCNHPo4UZg49tx+YtNITc/wdjjBfawnzAf34tJE8P+Jt++v/09U+Nf/jFp40BvOu5mBi52VQtAiHMugzx3TuOBstASOhGoITydJNnk3CvEiSHHaaSiXJWgwdCGJWb0wNVGaCiAyiMqqGO56/r7syNX6S4vLGoKfMQY6M9XTYe+e1ZxujyyYNH0obamyXiQrzSt8xHzRHK0JSZJcfHOyXcxYIPsnwJ0xXGgHcQEVClMZyKaZ57gTtjwOhZFJoxzwHeLYKfd1cq4qKJlzgSVfG4eDwXRjVyWkcPFUK5lsDEPjksWY2YuLfKSiuMx9nk8Zea/CW1U6HW4q6IkpCwrVRNyZ5F4fK3wacuP9X3JdG6QdUxBrync6pmalyB6wqZHmWnyEu60VVDKQRdUhaMZ7gcZDCBzWiLKOOQ8RQKeukf4bnLgzNehC9nVGG9Ew26a61XKmLFWYyxPSf/hvfz+3tUWPOd/IhzBWytW7AOvUaq/r2M2DwBoMJ0TuQztbvOtFdKJOA8R99mSgWcRjcuxHiYFFZxOcyct/EsHURJjXkOAZreJBxLRCC5ed4fo3s5X+BevHNfDcNNAOGFWtm9WpZ7QT0NX0N9IJnScAnqDbPqmdHmS1wbjfK7yGFyMSKhoiuun7jd9TTCw6q5XFF4oimcXMbsb1Xd0tpgJ0S+/LaVovIZskctq4sd9Owjx5d1xTVfJSpThrn205IEadTR9SisCYGuywBmrJOWksNEf5ekcYoWfVWdU46Z3iPN1rR/HBGWAq73jmwL4FXp0eCX9ig5PqLomVPBVuykjnEGAauSUso6VOdZRVPsuYpS/iHy4jMd4L4nHuc+Hxhjx6oqh0clnWQD2eXwBw8dHAf3NuOJz14eh6/eGgcu3hhHL98cx6/dHicv3xoHAaTrPzWBRAx+cCOswH0fL23H5i0o+u2LY2wxEnqY7r5vOgZRhG/aqZZ7gJ+PSycOj//s9371uFoNFYn+OU1v41t6LymGkkduCOZ0oGAC3/JvfuUSexWA7FAR1VTPBeVdkjZ49eaS1mIiRcZSddVsUMKiCsfXdywuYxFA2xYVZCEK1ZO6d+8LqyFPLAVaxA7lIbtLX5WB4fm8elN56eTQQnfssijnV/h/gYRS21thFffUPrB0KSSnR8mRQo9LuWOZnlKKNaBFzAR6GwWScDp00lncul8Tqgw0xDQo+ITvYLlL723GAY8xlnRKPhMqU2i6hd8VUm1NiFT2WMyQzi+1GvsYHqUFtfmqnJSFxhhg0UcWOrITMYXXcndcbYA8QC0BUHHWY0+dltLtOIiMIZEbvE/Cf1adm3Hq4aOrULnGuiQvCg9hmZCu+mAQZq8dwXu/Qn+LUjAet+kN9055XBcgYXKX3Jv8coB84+52XHp1ouG5RTdwWK8xaPlOnf0AcdU+YG326JPK79qcnz5/dEVLzHvFk2S9BrOSNXrrmoFpFtywXU5BbS9/ui+O1sxw+xKhq3E6+9ixCTxFaV+4vkqT7FIK392JooHIz4EA6SmU0JHne6cfZ9rkruq1pjTsYOYoy+TAGcon33V2mRP2KADJzK/mpIX3d6MsjjbOE84/fnwCreHboA9L5gS20bMT0Od9MPtAMKYd/8EcpSw5a6Mr2sicjAPv0lt1A4rKszEaKrsrBYXRf/qxY0qZcmg/XzPVuu81xBXSxxjgbhQ38mThhiB1cfPOAhZdKihqCnivXQOvV85wvoiTyoAUdiAlwkVAFRZdnicOpGIgFfWaBonTQC5h9feQqoG3EDCuKhWgb+cgwkS2Lp002avsZ5F41b1gOAU8zNjM8vs8x1AnU11rux3v/fu/Nt72L14WruRND/TZtxcn8pufOb9lmf0i3Ynv9wd13q0x9v9vuso94O/a6R8eYzzyG0g1/KVvedf4x0+cXFL8GJFmu/VNBCJfqq5KDlZloSLO3/I7v2KLYSAUemUCwphlRe/SJ/M8W4OsQGuE3R45JopbhVMpaSsqYHlWd93KlUWdagmAT6QmMpUMfPwvtQxV61LfC0t0QbCqRvnO6G1tWdBYmA4zulOdPPAqsyPdES+f9wvpRPL1lMmJuKkqBqxLrQhZ1AqD1miyuQl/J8Svpk9FKiJwz9a4BHPkGLuBMpAAgdIXgFt5C2wsnkW1yBWGlhXdvD3oSBNGDPthFFFKEOORZdNl87p+uKIElTboxgH3B0Xfj8w7nzFuiyFSBl8InvgeJXi2EO54ArcQuKW3uA4bewJE7S3C52Ap2P7T8Ax5FjXRkgUb5bPunphwdISmBFt5TtyByELwG9ys9wyI8JnljygDR6L0aPsuN+xMhBgWeRbWRU+nZNyXZ1cjrInF4VWJFEVuYUirKqLWFGNK6e5yTCtNH0G5e+bhOU/0KAiNMtdgHjrPAd+HIZBLIZDzrjJ8Gk5ABkAB03L/bvjsGiP7xU2RcxEgB3vPhx2vP5HE5do7eACoqTHWcwRHlDUCIn7BC1DhQgQuFS4FVgxSnzwrgMQcalTWBJ/aoNccc46iia0nhQzZpgDkMbe9qL3TSmYPas3MCJOJxOY0LoRL9ZHbvZf5vQH7MOmhOSXrj39jjLzyElgRn48zgncfI1gA8huT/EvVYcdNVMah6G0zniRbK+rAGlA0pSlSDBJSuz31lChFQv+pUJHXDho+dPjLwvc/xGdybUZomN9zj59YhD3GdI+YLLiseh4MCoxcRWmLhp+eFtkv2vvCcxpQTokxRurbf+6l8WV/71Njcy/+iDkt/tf7x9h8lFDG7hdv/PfmU3BzP2AoABX282Nsf/mtRxGegleh9PL9P+0881cePzn+wre+c7ymqL51MGMJLxCOp8YffNttcE3VmyhNGRnj7/oD79+mYZGb78xOZ6FsTe28rUDf3AvMOXRZg9Vkg2uEIjZhKTFCVchW+agSxGkzLY+/CHFcJeGSKbEqVsjOYdy6dgEHBbSrHFkqGCL0TM5kHEWAlcsiq/GTcgUEebjAGRX6RVHj0YitrxauShDzuzJ8opx1bxkmPqHnsvkbKx/SFsaDc2QpIxwrT29Mgw0VjS357kaTjNeHkYRBEQ9D3eMK7WxQ06y3P3nuiPLSziVV+qH4FZI2WXJ5Ne6TjMhVC4txsVR5zM0xQ+oOgyp3Gora9Hho5ZSEradwdonY4ikWVqBHMcKlUSttYdDkb4Fo8XoT8g1mplI5jFEvueR8ERBVPxHhaxrQEMY7sTzW3AoVX2xxfGTBO9+dyE/34EUR3hRPx5zwe9ILC7lPCXvVvNdaSX141lYP5fLZucdOKNe6rL07BmVmbOY69yW11mvNMo4yputv5qo3XKrVulxbEagGdmMNEiLP22N093K/xfiqExQy3hHQS0qoiIRW2AvQ/ukNUs/eyZ8wvsNAyLuJGyRGZkXA0nBJdhXcKAv2ZTsuvoTimxVCYtGs77U3Wrk2g6DqpDaXSs/MYI2e1evBCjddbvW3Nq4dqsjH3g+GMK08tRorGf/FFJvrTSIjNzxS9LU2BuMgkGcJGRlA6gviSCfv1ccmFWCZXP2+np3P1A69GC0VFdyhgVZKVFU2nlOirEs6A68d8rbqROvnn31JhFsTxbOfL97/IlPUtGlyvDB3S6fG8NscduRUY0mH2SWN7OiMylCVZjBB3WPPXxnP/J1nx6HWhn1Z2Lv/ODfG5g9txjj5hme8/otXx9g8t4RY7/uHSjP8vyiB+/7J6kQe8WtI1721n4+rhw+MP/cNT49fArhd1RxpCJhUN7qOSDFyUY386B9Eugpj4qN/6JltUNBWwBN8JTCVsATz6bpycIjRitiGhVnIQv5jL3CS1yREsVyjNnUPr4WvgJ3EC7l50RTQC5Ni1UgLkFLRA1U0VPtRrumSobkplZ89engReDECprL0e0ZwiFGwbSqup46XZaygFLlmNq02WbUo1XVu7yv6EkMkRtWhw9XJrxC9S8RmuPdAPHFt/KM0e5oI3qX2vFc/lBHF2FHfHOt/SSk0XgSXkJZq2EAXe2yFzDf50hzvzo3Ap6Zand/veucRjlkxNopyw3WOlXMkNJphHmMuv08TrOVvUhqNjKrXaCcMvTSM6aFjccHvSeglJcK98dSWY6efAuv7/BNTijCPNBZbxoe8b/OguU5nO+R8Rw+6gUE5XB1sWLzYFkIkRDs9zc04AoK95cMhyMl4srZJP+R8jFQMihysPaVlYiAc2FONeA5FwEQD7edj7YYYSeuX8rVGi4yyf8eXUeNV++Q2YLhpgHCfztLI/uhpIB6jhzM1Xg3mwXiJj6IO3htPuxuztErOgfK+8NlLi3yiNDlAK84B2Pfic7PNL3PVyym5X2+oxX6XAbAYb2viqJNnD49HStD6+rRab+mfIlLLdBPOpxR0Pm+xoC6hU7O09r2CEs58IVsoc5zLxfigZf5oLV8tw/ksYf+eluvpSLVWb0A/np/012K0CHA+Bxj+AaLDS7Tr1v7sUKn7uUwx78s2d8rRPWOS/sz1U8mm5y+nEHkWLgRkD1iGRG5U/VARLxuvB2Q4LQRxVNMhG6niuLs/fstPPjvO8z73cWx+12aM99zHiTnl5hibT+H9PMBvtInG2P97dPx6wN/V6czl+8ZmPN0qlR70Sn/rfY+N/+OZx51maE2enIIvw5YuoqTeNZ42+OTs/MCf+E0VVa+wutz7aojUmnkIaNNqk0M9fK+HTXi+h78XJbGAunqtc/G8h8K4uAbidQqIWF6+PAVALwAC0zJ1CUl7a8hrBGBVudqwHXbwFtbtjWJAcwRgDYrCYjVox2ANzg+nvimATeUcj9HlgKlGcFVA2mfL06omUzwf18PaT4MRpWVuVB67ci1c/3BrCcyYCoSkUKZ/6/CsIZmEUylDs7JwlAaiphxUfBBSTbqDOe417kpJdO+vojXZ/NqYBcjkmoIdtnB496KXOWhEUd7gC7ZYV+BZd1OGiwdGj/oGMuSaAqyGKEn9E0hrTOvVoMXsrM0qUuF0GaWjU2Ar/bTkqXdQvmKHpIyxcSrsj6VF8CLjm3IXT3zzwOXlpWmVUilEkaaxsDBT1iNLQb52c8HGsJ5CiaoxL4R55pRoQCcrYi12LEYARzmfqNzzvzYToowFKYrYbzqvGWsqmWwKS3PQDCL1FiHnvGgIR8f60ctC9fwCDMcg2ShH3aMWlCz2I8DnRU53IrAqxY2nyVT0CIAMbHWmrfTR2I6XP31Zey3rDDCpSg4zB6IDn08AiLOXlJoZcX5vvpj5zDgou0Zjfx/mP3JJ43mYtOXs6aBoV4EatY/AESS9GyZMRTZ9Vbdonw5EorG5J9+nNJHPeFbkxMILUunYnM+aJK0b2UvktEdarLTd20bLZX9/lmwHQ7Pz+56S9m9m9YYikMcIdxvLhEwBPGxuEperyedaQoyOyIZ8SlExmC4P7o0P/uzz44t/+cJq/bzhH+8dY/P9D4AABG73afAED5hm4H1/aYztz93fY93rLPiXPvQAj7p7jUvHDo7/9Hu+fFytUnHJQqIwFVU18C78Pk6VWVdux+b7/9jX2UCossOE6tQ3vJgLo3TsqHoSVfsvkOC0aBGGqX2X97+Tp9OqrtSEFFsBGGVQLK2JZztPIS3LWHBI0DwM9jqrH0LRRPMOWOyHjhwybae4FO7IQ+BZtekarzvvhGASgUbLyxoAFNInDxqCPwIFQhAhctOfu+ielw1TPSK6okvEgWcU9kD9vm2ps/khglK6QOkJT9DiNYKYh5++0hMO81bIPg1Lqsvl9BSn1mJ+Tp8/Mo6Lbtef0+431MuqBtip0d8VMgjJy5QfNVehVw+gmNNlkesLH3Ht9iKEWAsqBW3hW7chm5sN72BWRJiroeeAFcpvnjSLu9e39+94BvjqOwj2tYvX5f3ksGE3x0ne47FWmlnRtPnKbmWdg3UIpmTm9+nP4JCs9pOwOrOpWMalb17GpBssRAO6QWHsQ0tt7bubWw5AWqdbi+ldYwsDIiFxfoO3+PJnLi+/5/7nnzixMhBWDajuYSD0eyiUXC1odVH6I4T86Q3kYVoJE8nSu+3IWxnfzUvGCOkMgQBlD5aXq3w4RvLSK8PP0LEGbhQ3xxDek2tXpkLHgBDv/2ptzSiacBjVFyWvtD/2x6ZSjoyHvWi/SLzo0EPzGcquU1gjY7phZwzSNM7csA4X29e0w9OagRWeS2uYe4pzYEYGGQR4NmI8sz9FIBWZQ/qU/RWwa/WF6WsZw2XuR4zt2f5dcqwqv7TWS+GHcjzOgIy9irYyPL2nitOo0xJDNohxt4DQjClrNykt3hU51DFYHvMi5DuwN85dvTV+64+Q8L+Pg2XzxzZjnL2Pc3PKK5VmeICf6FSqL/9G8Sk/6G9LagNWfPg3AFb80Q+/ffzUV0PzODlVzDXkrsrsu/AWCfyZoO/v/KMf3q4E703q9G+u0K+e2GkIAHDYC0Cncs69Yc+Rk4dVsx/jQTmuZpYrJaC0RIFqioEwi4m7CdtQ3/N7FMIsTVqTsMiKPH5YBkmOC89fda66DineNjmc25kIYdzqwB6xhVU5SDbBJcKprR4dpds9NuXumxeeMFtuK5DVQ+WtbLDmbylEKCxGhXh7vbLR1bM0jFTD0WNrJbSO0qzbyfIOjzx1ciUwQYpj4ASRvhs5caOsKbVN8DRR/ipZaih6lUFFoFV0pBuNfvd7WN0tzKpcbRPQULQea414ruNRtNyiPcIpXIjUrLy4hw6Mh1tqgE2gErqdUP9cG0P0zt1gWDjf66Td3DrAsFMt/IswDM9BFEXfV9y6GzTxpvNMrKO3ffHZlbIWI2czCPrzcQ8Zy2299fXM97t02bu/V+OtVgmiFAClanlnhaHWc3eviE8fV7gPpve5lUHSqzDIbZ9+eJY3ElKX0VO3Id256tIog3OGsXk09UZpsgFl2PfuUeFv5m7nnd4omsn1xDvReCjctGanUkRNv+axG0noyo499eiTpybPw3aMzzx7YdyozqQIIoQw0ZMcUAL3ShiVBHfiKRmc85kMcq5U5XKVln5Q+mNW6nAt0mULKBS5jRHf3vPWzbmeZJ+UA5fLK5pxY11xIeezFgXXhnq8n99LW/lcILk2jk4pzzUW8HXOhTWzY4qoGLvc0jqe5nnFb/6bvzpOtyqQ1aTt/vHRMTaQDdzvgR77+fs9eX3e/j/diE/hrR6P7o3xobf+83Fz78D4Ez/wFeN6RWBDPsc+YV5vXLs5qBoJ8ytr6wjkVN/7Qx8Uq4RBgka+K6RUzZcyeav8UXnC9vDNf6CwRUUIdgWRJrtQtEH7svgILVH9IOpm0RnfGTfhFC/aZtV4F+9CLHk8FgQ+0yru9eOHlXdEKYnpkSZThTuQgq6OgmVsOjXQ0MbKk9ECegdnEYGldtLHD9VmNL0w90e5+7AnmioKPrHSnAs/TGmMq1IHRw6Os4/OemiTfKTj1nLZhc8h91k2XgH1iGbkQFnhTS51zLfuiiVy12BpQYCVEFV4+qBpUHMkNZO/zSsxhbXAS7cnYNC8FQ3jUFGh5RnKm+ibBGXSIwt4lng7yz1vkie9PvPsxYg5hdAY11EQTcicBzWdbI+a9rgvRo7e7jdrsxsou8x9i64pzi+MJuavRwvwEmdlhIVmD91nTeQZ4nnmbzYs+e3lve/sjwvPT9bD4HH62KEweoQjlNfLe9JOvBlWsAB2HgoJh12N34y5yYxZ3rG81bWhrVRfQ/t3DAPPwbgESKjdoojWnF/2/SsCE07px3Ouyiub98w1XLUyBXsYV+e6tVEbq0PVB10PFI334vXv7Y1TojSvsHl1tZTTU9Eg0gZUXSzzQ+3/pcn2uDvfYqGs3iv8hgghyi2Pke/7fqMCJdGIKUPXD977VHCOqyU8dvyPGlbVHma/EopfGmwtpFF+Cxmtt8ooqGuQllJKwmFEzR+4kOxhxuHs48fVZ8EjvB2vvXxtYQU1WHw6cFIJfdEWVqLvjcnJ4BNJ24Qqmb/d9KoOBw0qJWzsG1/eRu7f3h9f/gsXxlf/s+d37vgGfz49xub3Apy4v9O1fn/9LaYZXh1j+3erheP93245E7fy64rc8S38XOP3V7/2beOn3vPw4lrZsT6kFBW6OOBS5htsEnJw89EfAqToCdVkNrIjHiSGwRK+Jidf9LsqLKzw3kKI0hDwy4sUUj33cRna7CJIdAAhgmJ3KMrGCt6EhBQNpAhxFZUnm4twlsKUUEne2jfpkJD8Xkqhh17kXyGCl+1WOemE/0EBO+zvFc1V8ODcKKkWYoXPpfyLXdCERBEs4UMvgUq+Dhpkxc48GvJWipceo4TJENCrPDXuh3e6lmhzScSQmt6EQ0YLmE89Dio8X/ekO2JPo+Dt4plOy//AeOypUyuvDK9v3Wholk1qo6Tkve5BxLWXqfE9Y9q9gwWwudrrUwBiKAiQGUGtEPbkjycM3POt3K/3QjBojDTCFElKRTQWvhKNc2kW+GmRP/RuaDlfrSUZPfM5laNtTJGqvGlKUhGvFVdByJTmPO6mRJxuaK2Vr98ZL37aDXU4ADN2ymQ+6/MjfgU1qZnPyfrtXuljbz+5qmIApX/hBTonJjzuBl790LpsRoRxMc07J3LS2honZ55r8J7QH/ffCAvTbnLhxStLfwE+JtLWozNcc8GKZHa7YZPWtC2qgPHcm0eZsXXeNLTxy/hiALSIEIr1lRfXY0N0JGF0bo8B19/dMqu9WKUA+mLrpZCa1wZAVlSp0P+rOWgalnt0XAxrD4KiDAfKlLU0jR0zv3aG1d5Tgvuk6kz3RF8+BAfJNIZ4x76WSMs88c4zS0UIzwDvBAaOS8pdgtifk4FZ+eq17xLRULqo9brgfcCIUYWzGLHbMR5+myMUiXC4qZbXKOvk+Ks3xjf+jV8dh3awLKtFnT/OjrH53Q9IV3hjOzYfXwUw73np1314fYz9fzTGuE+IxO7vGbt303DqN1Dy+AuPHB9/5mufGK+x/4owSVGqJqul2+T40Y9hb2y+8/d9tZZft2SzUFa26+IlzzbC5I0NLLEAxJNbSDx0kQlCs4dqb1FGXynokPzodB66laD5CgUJqDIccssq4asQKij0hZyjvODOxa6IQSMP4nrdu9dAFdOajCTooi/fFFBmbuwUKnhEOA8w0iL0qrype+sGIpIm8flSfmo97bwr5154/vIUjJSynKyOj/cOynuMQ0SS0tBqd+pnNSHVopThkSBUVCWPnMH3INtzsCkfe8fpxYDAllnXn8dYexPBVwZdztBmV/mrxwsBQhh4tuYtgGcTGYzHQy3MK2HZykwZM1XMVGSAeSPS0BU1ir2HH0l93OqNie6xlXvumcdRtKfXkNd9+7u502Z9Ut3R1sC1CYLT8qWzZAvVh3l0eRy196Zv/cRAXHzhiuZK7yea7XUuXYY0qZnlMQojsdq0O+4bxnZ7UBu+HQewFd3tfC5HADouAZbHDjwkl92NIX5r3vw22D1kV9U9XWER9euRDGSRFGdfHzuRDqobKK/NcfHlKytEP2O8ioaxzzszZvXH6I+pSF6LyiEXdpk/+xJin9E8bRd/sAZKrhUjIM8OYrR8WvfrfvnTr83eApvNgATqzCMTKyIqZXUNnZZDN8BYa+zxpA8StezjwXv18diN5OGIhGwsMi8dZu+xjfQRtN7wyiyOh1gnJ2U2nmgL3mpdI5t6KkX4q51KjZc+fWnBtsk4efrMAixlj0PulcjL4eu3xzM/9vFx5vlWnfRGD8ywf8cY4zc9SJphjPGJ7djcX7HE6s7iRPilNxDub/SM7XPqh+jyuIYB38cP6xRKHv/bjzw9fv7EYelpZKgNToNSO25O1Q4E3r7rD3xAEQQvAivkGQYrvvTGdS4Sm1K46fiocsFb7vWtTmUNLSlUbn23ANuqIQgPwUOpn3qVXwSUKMND0tXWhFISBWwigsHmTX5L6Ycbdyvs6KeXNd9CXRqM9HMoAwUryRUMXrZsADNLOWyu6MnOJvTzhSLXTaVMTFJhPj3z3LgqlTwJe5Xzhao9vQ6F7Wwak4hF95xVH195D3njKMdlolL33NIBS5c0v786yIm+tPd1oFB9vRmEQSijjPfoCiFo1pXxuOMJyPBpbIoa+9ZdEOVy8aWrq/I3wvMi+Cn6bTE2tjBmBFJf+hIALQy9i/cAVLWqOBBYdJa41qJYRWY0Ro2VknmFs2EafmsF4Kld50yPQzLWSgc5p68Z/sZw6WF4oh6OEvkgD4832nVgP39Zz23qTFvd5l/G93puVYLbjltVgpyPWFMdXMq7TeIvL2NVerT+Hoxzr6dnDHuUgrFjve8qrP5uRArZA/1YeXScHZEAACAASURBVNZlEK2MjB25ipf88BMz380YP/exi41YCfbMOcbaQ0dc252D8eoGQLqL9vlTK+oyzhTSV7O6+eQTvFfOAzKQlGd7eKckDdjjQDF344Z9bxIzf8+/L796fSHnYj+xZ3pJMWPILboxgixKGVuaJ0W26f0xwFs0AgcmXSS5r3FXk6/flVi3VykC8S00/gN+1zlY+A2OQGSZjBPa11ddffbHqy9PtkgpKFWbTAeMtZiSWJXbQqNckVzGg54XIZ/ilWRM4+gd2hvv/unnxjv+6Qv3hD6tFh3S4MvHGD/wgCUCn9uODVmMB8QEbD+3Gdu/T15n9ynu72/cB6oZZqHx/f2un/Uz7zw7/uJHnpaMEqVyzbci8dXILPg0ztl89w9+QJ10uijhRyFgcVqgMAQ9fPnKDTVmCsiE8CeIaPUhL2ZABJ8Ee2MQ6w8LOAmCBjEv4kXpvrOrnzYLSiE7Aza1Ew8JdxClhiLtpUjBUvQX0iC0F6Q8TvSn4YWHFvTUrAzQor91195ULYKZ9phvAJizl611JkLOQgkARorg5l0Im3Xa1qQ4ctWeSuGzNKxaBE6rNZ6CvrMOGlUthH0zbjB+JjPh6xfWIgzqfRHYnd9ev9gxDkBPMx9dkFPm14Uja+SVl64uNwQ86Ha9nhA2P+PYQWa7GBaNURfKGHEthOio0P5qDYuJrW3gXcAVwlhCuY0RHPJdUWGQrCNiJubqNzp+cvYb0BDtALt4yxU2QQJ1bbiwHgFiLkf2W33AUNEGt1c8XKHxUX3P+EAFrbBwJmO7HZ/65c8tz89zqFKkGxkY0B1zInzMjGLg+x45MStu5vPNizB+vcEOY7NbnkpzpFVXzGOHxylYONuzXLpwbbVeZQC2klDKgtlLK8Njh+hISqYbTayvplXZ8zcgF2rLH4emVScvpGo5xWWElZ6otNqNK3dWTJvqVFqgba7N3x2vwPz/+q9eWN6P1wYr0CNGrIlrr01MEfMEFmMxzjfmkOi4Iwy8R942AZ/IldcutBbV8Hg8dnyZY0VuVeGVTW5shCqU6lBKqFE7G0PgsPMckzXFttNK66oi9ECXWb0igWuyHj77yVdbY7pqt93YVkmNiKejbs3cdmp3xlUGbKX3eHYMx3e/cn18xY9/Yhxoab83VKWHx9j8+yBfHyCKcAUsAi/xgAoaVfbTY4zPPuDv2uk0b3oQXOXune7ubcZ/8Hu+arxGd9ByvNGlGVfh9tQy3oa/mzWV18cAE+pkInRiDTCKXl3yKmy3xQAQYt913VwsuWOsktPnjgg7wMJJwxcY6yRAoXeF/OfwQQnKYB70MCW9lHNEQactq5r0bMZDNPjAS2pYidn5cHquTLW4Ag6ZcpfnziJD6EToO9+yJvKRQk73tyKKuvTK9SXcyWYRc2HvuAjdsxDJXsl8T749tLBIZYXRKhKTVIbqUJfmNXta3J16FsOoK3miNGAH8vwKD1Gm2ULTSd1kYTiF0vKvqqUvIGedJMrcVu+PQSODqfLsrAVKI6kMyYF32ln1kv7o3iQCMC1++V2ay/Sc92NPnVgJdfAYCPEc5PuPoYRr/4q7vvULYMgVjWnRBQyhHgZfwrg7u6XjI0S20pTlvbZwB1/FGOhCPrm8/tvdaxKdIl/b76069y6Ad0o62VuPvP1kKztzdUAvSzvzyPGFm15jfePOePYXX2463fvhdQZCM/oFWmo4CIWA6Z7Z0fQCM8/IhVJyrV9H9viqgmN/X82qcrDeTp6rtuv1IeH9yAjtoR3SJfYMa7J3vQSc2I0v9kKPiHAdqKP7WMtAaBYCUZjdzpm9bNFzul5PyLx11IRyy4kf4b5qSd32FPPRS0yZB9GstzXH+xAJ7Xu3gzWVl6fMuqXNzjx8VPI06o1IhaK5NdEQSwk3UdkmG6xFI10DceuG/44Hz/yqrXUbJwytXmo55YrvjAGvZkBNz5obpkVscChOPrTwp7CXkSk4YjkL6vyeyhDXxtXbLaUHbuPgSi4KmF7U/DzLidv741t/4uPjyP3gEPjB94yxwTW/3wNaakiTpjgk32fmqL2DKKL5NxPAZ/I8NmP763tj+1OfvN873fO8f4V3fIDH3b3IP/zAE+NHf8tT4yZAdpqJCaQP4aADrJlDkSZ9y/d/5ZYNIpKZmkw2Kots6UIGF4B6Rc+8e6oJEgoFWEQ+Sb0OCl3LxHIt5TtYHNT/K99hLwUjgFLEtGeV4o1hoC6SFmrK5bd89lLeVWyCTidUNYHwAdB02tDRy1a6oAthDBc1H2rgQDACAvPVCAHUY2PnHZ0SmXSyXN+lixNYZ5DRbM4ispoKy2kjqdzN30dwqXUrHn68n+oDsQL4Xa7r5nkfcgfLeEwCL1bnxEUQi9BkIorVn0JG23THEcQCndaP+E7rYWEwM6Ws2sfWwXh3S14efDWNyjm8ZweG8S4sxi7QGbvOVMn5bv3sqyQfPMOVfv5+DZ67hzjFblnry4ailU3fTy6xndvGdNTruB+54s71sAs81LVJT7XreL1O5YkHbqbNea87twCVrV0PsVPWKfYc1+WzripyY7QcvWcCn4XyvI9/B9B57a1jomkEtigkMUmuJY9BYI2MijXfgIxcsit/rmUmti6W1hTP3GE3dSGa14ZB4dfwsHQlJarkVsrMd9fV28TvhdxRC/i8QinU3pMBA7xXUWRc+tCw53m+3JvrqoNjG3/+vRvpEgdMe20p8mb4aa8plOkHZB91maroS0vPcY6ot3vlUDktnfpd8qP1tECwq99NOjPehj/jplhQc4hquVhh+YzfYGx0g6VX3jA+GDAuy67xXpyPuWZU+dQ2RTzSrD0B4OB8aRTYMs4b6Pde46IIbgsDq9oO4HpFmRJljKPwkZ9+brytgXz7anzdv8+MsfnjB8fm4JGx3TtcCh7GURQ+6SI6gVYnWFF57o1x7dwYNx5FCNgAOPCQf3eA3/M3XAL5jjAFv2Oc9sb2P/4vxrj4FqkVxxj0Z/jq34CBcPn4ofGXf/t7xmceOeYCgFuuGumdQdN2YfM9f/ADLXa0WboxMoiqeZdl2bjgCe+2hSbLHt6DJhgpdYK7Owd0rQj+bCjClliSPV/mVrFTcGLFds9Y+eETD62eBdQsJTZd8B07RSOo9ej171W+2fvFl3Bdb/71EkIuHDt9ZAUuQmh2UhsJqDVOt3pUNKEOuOiVqrZYwI6Uns1z2DyE3HPw3tSNvy5K0MFkRYLTQ7Lqw97mLUDJ/ma9RIrPEWhdiPDZgYayliBpLGrLM8pwnFfeVbhahDuVBEeOHli9E7waZ1t5Iwv208++svKWguOYCq2oresDYzXWAopV2MdF49CEET/FEFkRFJFyErHUPJZun8u9Xq8gurcnBUCOe2ctUhXaXdj0I5ljScRkncPm3pdWHjgkZXPAla8Vw+B8XvZPpx32/K75BDAEe9qiew+6EgqW6qJmUOJx0wE0B4qKCqI1Vqcx39WJnbuAjzA4O+0yitHOxXwHVSKsIkNrXAFn3sKRabX88Iy07tcybq9envTF/AYk/ApIWIp4vpMbdvUSUWR/J966135SNHRnX3aMi/bTTi8Q5ehbpMHnrNfWvQxYz+UcLAyjww1zgsOnzp01oCj4V2Babc8Hf0hSFjJ49twyuh90V+ygSpTIxdZVlXNZEz2yo7HZWfchNMq1lZZo8p7H7B1UtfzKmZr73QbgnCfr3ENMTh139mH/vDnOv3h1/Na/ff+e+uY//84x3n5m9e5v/gc68Rsf4Px26k/85Nj+tR95a78lelAlj5M0/cEutb/ZjL/5dU+OH3/fY6sSZEUQIaeqMWb8N9/9BwEpTg/c3rbDSVnssgKX2v4K37MolHvzIg0Lk/AB1ciExXftyk1dS/mjY4cU7oKEQULt+h1ZtiplKUGgNEbrZ8B101wikQk2LkIpgoHfkD9ehXt3PCZbsmv2rpAEvZFx4NwMVQAHF9InN9MxHwCRj3sJCsbKJU/TU+AzsBLBHPDbFcIXD/uaKURzsMlUohhyi0IEd7SpiGbIX8cFkpKcVKj2otdKU1IYT7y5TfFUptdk8qDF5inmyO4BcRmTSc0F6vzi1FQoQIVs2xoGr7Jb564WpHUOHgVeH+vCB/S0++NQyy8TmdmltA1wK7dSOV138YuadjePjdGWMZUxSHqlpxuquqEbmpCK9Hey1zMFFbdlvXdBWXhbl2oWrSyGcZp0STkAFNspA+yRL+81gKFrAJ490TnIgB572kUK+MQaPGiTdm1orIzeqpRZpSUOuF9DH0OUfceQ2NBYG+nq6bFDIkYfkEXYU7apaN0cVRuWnaUQBbEuOXXN/OTi4La799ZebYYG99xdFw8/fnw81GiicT4uthJQfuN05RoYrMhlW9sBQ+cj5mBV5VHlfP0ZeYdu5HBBhHT3xNXcqHWPZLyJcqw4KM4cGUeO4q367gBOSY/u4gdW9w6PxRLCev34kUrs0QVk14UXrqwqPthr6+qx11c/WSbOwSKCi25YVfg0+nrOTFXRTKcV6r6nvfbW0W2uRwnvt/+VXxpHeqfUN9Gjm297zxjf94FVlO7zq9330U7t85+2e8bHPj62f+4vjHHlPiot7nF1ViAdHt/+4HdefvGrT54af/nbvmRcewiWYHNImKHYgRDREDAX3/uHiSA4DKoF2GhLmRyRzBQREooA5rUAEbkbm5N8u/K+RYaEsCLc7cVrWubwwluhMsmHPPmFM1C9Oshc7b+izzzsNMESKsMbePWm6795EXLlJ2BQROB64968dmsVOuMz1xpPHarFrHysVyu4guuXDaicAssARbd79qeIgpR/KFxYFMI9YqF8ePO4+D1kUHqvlIMKvDmjJQrfNdCkb1Yc5PWMvCNI5h7NufjCZVeAlKIXLXRLFXGZgCuX92L85ysVJfCa7Ib3RUF2IRqE9LK/N85X7woxSkpzMFbQG3cBgLA5cWravsw/LHIdxOZc88zpcu8OhGNIADp2z4vrrGv6h8ogd2uxO0skz0mLYDpp5mBtE55d5VJRyE35E+X51K+8vJPLnik6rsV672BMfbbjVbG3oD/uAlxVNS2ixHPsgktN1b1WVL1HAvd64ZOvLKxo2gNQSbfKiVr462jGForedds5vNnVHMO3ACFXGyDK4bpnmnXX5VfIb/IZ1+zEUHyuDoA73fh2o1y7bZqVuiJUvqo2Wis5VTntpJD0/E1ZhahqqSTauvHZOopgzE9/9939JTm6Y5TKAOiAuao77+OD3OhGTFgSV9EbMD07zZ/cK6PkU4zSVvqsCoobd+ey1zvbWZr7dIdIyqdMqnSMIyIUrawUIwGiqAUnNpwCUAVLGVHcCiew83UwPvBNBAyrKAEpkB0a9J5bkidb4OxSVZLLlHx3A8nN2Bz54zdf9v88N77on9wnadJ7Hh+bH/qGMU48AGuSeJq/csUy3Of0Df99+fLY/vm/NMbHPnZfp9/rpLfRtfoBiy9W+/HAZvzwN71r/MKXn1siqhidIhaMPGSLfO8PPaN2zwm5JZeDBd3BcHhreLMG/Bmkx6SuurNtGntcbZQFOV3IbCyThOq0sLXBzQWtozo4Jh/vMJO7IuZebOIjxw+qpFLCqzAG8O0vG7os9V1OBLWdXnKd5g0Qir48FxQ/wm63VK0rDAQEuczOty5PQaWL3q0YHYTMxE3fGo248qF2pzxTd8xcjkKW9slk7NVTvQ4p1c9dc462MluMc2duQ2CKy79+oygRpXE73v4tcv6d5KeY6pb3rWdc9ZdXxcksS5IxI5xKa7VHGBnvpbnZ91K+KMhViBgh2DYp9yVC0ueDvP7pc837JA++g4JXHpZceVMCu6knhCTj2A/yubvpnN06//1WksZvhU3Z9VAZk96qUA3QPn99UyfeynPthsNVZtvBhQegDd8Z+0a+VRtrzU2wtFeeaw9DpPd24Hc3b2HMrrELJsPxVRX+FnPp+hx1BWxjz5z10j5+e/Q0XnKjB77p8t9+cO0ekeK7XfxF8EZvJm3Zi+laq2sANGwOAZ8lotivs1uOSXqlAznFK/LS1VXkgyjp2945Sf4Zo4svXnkd1faujDnz6PEVoRmK9aXnLjcshEsoWaNTXgBIpWHW/Ej8Fh0HIBDhen4sd9p6RO7u4k+EQ5vrQxHDLkCKrGu/TRn77vhpMDRzXjH8wKnEkWF/PfWl55aqGj5H36g1ecds7DRzQ2/QN2PBo+1vBxG4biSBFSFFx3Oee+7SeOZHf3Xs7aR97rlOqMb6Ix8Z40seebNltPMdxsj7WckP8Bufuv1bPzHGj/zoA/8uP2B0P/KAxRe7N/vZd54Zf+Ebnx6bQweUUu06bmmn/W/8ex9SikGb/a7R7dmQCp/tIXxcCSAUZpWHmW0uwrEtoj2HuE25ubje+r289gBnbtBNagIAA2bpNfScixBH8QajRblM6CEjoDBURHWbxyglyzOkzInwdAc7GoXrjlUq5VG/B8rn1pttR+7J8uU/E+FfQrI1dEEgqA9EyxFiUFgYeqMqN1jRkkXY0oxqpzRHoLsW7QivRM7jMniGRjLXPJZX3pUW5U4ne2MfWhEXCDMLJ+PQ3/kEArERLaEMqWHuhE2EfXvzGaUZCA134SKQ0Qq5tox7X7g9r6qNZCtyOYX1SRQpB/PIe/WadwQvgqML4JBhvemOlFJfP6M5PtbYmESkci1RM+8om7SkzTkyInZIm4j2sCaXdykysP6Mqf2eJ70+PC4mzZZyYMyg9e1Kw9VCayWxWwWAUH3s6dOrISIt1vtccB33tViP5CrFcI9UDu+hNFIzGg4fM5h4rj8ieesIhlq273j/iiq08kVkVGehvNccy6jfUYA3rq9bl99LAQqX08ZNNfiA+ZoCBqcBHfgivA9sxhPvOLN2IO7sq/X0SgFCZNaUPWtP6cxmWcGH0I0UIpHuMjvfEufG/UzmZ8ByqYhYwIGKhnZsg8P7a+/eRsLsoeN93KNwyk6q/HfKfOajpzEJUVP+HIOYtWKcz6woYT5wekhTZykxjtIrnX9GkYOZbjFYfjbP441JU99pfSSUSz92cBy/dHN88CefHafuszfD5vu/Zozf9mUPoLRZzF88xnjyAX5Tp376M2P7X/5JQDQP/tv6xbs2Y7z3Lf96jLubzfjT3/El42OPHbdOajwUkr3gon/HH/3wVvnBu7PkTifL4m75yQjrpYsZ6Ecr+MUyLAKQbj1u9na8j1uQ8bAI+J3fTlSf2vTzXHOOz/ujgLCeQ3vMPQk7E2LvSnWnSaDy4w4L+l4SFFRStIoM4wO4zro+fZW7KwCHog91LQFtbjB287kRunq/ejnuZwzDfBcW8G64WYRL7ToSVj0XUGj9ThvMhKLAu8fLhocithsHjz55UkDHJaWyT9nitVUO0fOwnquT58hptla4+y5L6lGjGAdr6/POakxg4uqkPlp8rcnLoiD0xTon3rUc86yURRPYh44eHOce9QLPIRa5ZpyghI8cAfdCrncSR+2kyVXVsnu8zmCr7qL9vN5MRq9QgM9+Dvng3hjHUbCZL9barA6Q83fr+vOs31XphCI+xpks48h6boyA+jwAiPZQXcnl2snDGzm/rW6nazyBN8D6s25Eca3dcjzel7LfFf6jEPl9nDDIOtaD873n+v4xE2c/TOM9P/HZ8zf8HCN9jQmBcGft/ZFiAQuRg98R7t8lCyPqOQd8jNuU6nUvvjAmq6oG+iJU2jW/Pf/4yRWomn3Ryao4z0bK2pPfXaeuQphRNeab0mThk+rQmjtGdc78NRwcyJ4cfNf7qfA543/89OzwxzNy7R55ZFx7RJV5w0liLDMGks1Zi0XMx58rI0WRNkdxM4WMPWRknYAP2dsNVy5M1d0K1Lq/HR/8R8+Npz8xW5zvjtvq7y9+eGz+o29701Ne/+WjRYK8juB93oswiH/5fxzbn/mZz3vqG53ADvgtm804sUJDPdjl/vlTp8ef+9Z3va7CKft0831/5EMLC03AZAn7BdnanTgmGG8BYaeNXJiCgBo0/0WukT2d6AAEI1no4hOohlCxFMJqGC9OMm1/K++QqEEAQITTCU0vXnTxAXSBx+IlV7wUHlVOjWhEL5sTKn8nZ+h3mFtbzv5O+RGFgX4+T4hKHiv/lTFAaF25NAmLVAZH2L+BjfjdiZOHV8INS3oX2CRGt6UM0qV7bL6er+a+EJZ0ySXGrIfoiWCcg6I+IoBK4tIWeheUOpdIUvd477EBd9UG4wgFbq8r5xqAvboQIkQuwFcMLRj7hFWYT8734F12UwTdw2dtMMYrb1b97debJGyX/dNVbX+xH66AYumuucotvR7DhPI4+2gTzKkW6FkjsYWuAWXqxtdAcZq7a+uOk0qvqRx2PvkuF8O9xEEM3v5dZxXN5yvK6Ppw10hk73XyJE5TZ9Qd62rXQHAZ407pqPAxzZBR9cXai3cZ3Pp34gtok7pbTsozIQu6MvRzrhcC664b05xz8vzRpaeAhmC7HRdfXFdGsRa7ocxpKPHd59yNqsTx6fOgUshmiBJFQrF3FkwyUX1dM/3I293wvp93vWdQpP21L754daFtjpx6aIcKG4wCmLEOUGbOu1HEOidKudyOEtMrrv7JZwJVK7oxxx2yo11CMs7v/W2QtbvRLemM4slBCCDnIAJbOXZF6NNli2WIcW8c7/65l8Z7/vFn7rVN7vnZ5k99dIxza4fjzX9MmuEZUBr3fY/lxE9+cmz/qz+FZfPgv61fvHezGe/6DRgIF08cHn/xW981fv3ho9JlrvDLjG7G5vf+J9+wZTGySOj+FwEh+kvxD/hJbPm1DVd8++qv0MKy5iho0QHC7SLmmXl9Qk8GRPhB5GUfhY54sv055O/z8rxsJnAH6iRWYBt/NzkF1J3xFkyJ80WTJ+0bOrX+3bPt1m1mbNfLDEK7hwExDADx5FooYvAQRDjyjkqxiLBojiGpgYeOTlZIBIdxHZPMRV3f4DxoZEgoMnEedFT4jrDgT3MKTAki42DHg0H4iqGubWoqKWQcNOGDsF+Vsu0sad6Ljni9DIm5u/D87PQmAaXqgwOLErfHRMOf5sUc2HtdHnO3syTXIvd4Lw9/JZCrRW0X3qbK3vGAW6kcv1dVQjPk+Exg2PYzrikO+5YmED5nl8GtOor250LY9usrInbpxmrMBTql4VX7YefPeCOpQih93XLbEbLOPslvdysCshf7dZWXb+BK9jHjgGHdj1To5LNdYB7Dxv4+eGhNKCRumW7RwT9z5eY6p75D7aulLhu3re3CgvTBYul3L5c5VxRyx9hAfvUeFbd2qonYG1QV9LlHTpo+eY6CIlXHZzVOtuQqEgux1/UJLE6V1m55IXLAbbB9A/47FWB93CP//Jn7v+zODcZaB1vyvm7S48UsQ/vqrVX/GeacsVrtgaWax3cLFq0b1rxrr87ivMjkVcqPhntnGj6r0q4rroMqhVS1WM2Z99sER4uo69INGSu5vtKJxw8JwH7s1Rvj6374n73RVnn959/+FWPzr4MreJCDNkpPPMgPfO7t22P8qf9mbD/x7IP/tn4B7fIzD9aQcnUvmBX/zw+9bfzUVz26BBmdQrIDv/mO3/NVWzztHM7V7uSKVdowr7snVsM1mlfWcm9yo1ITUMmt5E1Kn74L81rgAJjIFaMY3QhXlQAbId93NxEh4y4ksEJRGn0hQs7TUeqPP33KhBArQW+yiH6omckucYuiAfMsbQbY26Cnresd2OwZld+eH8Pg+A46FiOJhd4P9UHYyduDHF5FRvbvvo5/4eSZ2eY513O71nl18TZcn+1m+QZBsdu9D3wBY7ZcZ28zzj5ybFVCOoVSXxSEkNfvA8ahzw/XTIlfri+Utchu6igsSB8XgEe7ADd1rGxcG5z/eoyDIwz9gJjp+GkoiXM/yHZurdgb+ebo8Z3IkpTLuvIYoTpLMX29Vf60bnEvoR1CsTybcBM7gEm8MSpg+jyKVvzzUMhCY9w5EJiDz33myni1UV5zX3dmXK/n3cgKoMHdSIAqmTpQbozXAcy46uuiEWBldmr+1RBpx9iAJnwXVLcL6NvFBmg9H1wbM3xmZTxfEpDhwnBar97p4DWHS2SjLUuwPrRvbgeOz25a8PT5I6/nBNh5P/rtXr08icc0Fw8dWkUI2GOAHztok7khWrVb1YIc7AesjmuZYRDgimCsmtT138FXc+XV9X45cZZOsM0YVLfYdTpaBsAOxwag1F0DmPHq8lMcL+ehou8VOe4W3A/37ug01ABewbM1/oM7gEXXqcWjxw+OE2eOjg//r78wTn728uqab/gHYMU//b1j7M7Zm/4aAPkH7+/6u2f97b8ztn/lr76137JuNmN8zVsrtlzu+cq5o+O/+3e+dly6Qsre8///M/ceQHZd55ng92K/zglooBsNgMgESYCUmEmRokQlUrICZYrKtCWLcpCD7J2V11M7sztVY7u8tfbOztZ67JmyZtZRtssyJVqySCWaEklRpAiCAamRgW50Tq/7db90t77/3PveOf85TTagqdq9Llrk6xtP+OP3fz/XH/dY6oFfvtm0e45zq3ZaICH+4PaS0F/FlD3a/AONzmsNoKNpzWyzf1GgdPUW0GaVWfFFigsEpTQnPikDTN5cgIQxKCV5Ly4eSWdYHnXCfJbUcNMKZUSC4LUkNCibnvwJc6VGflwGgdaS5T1SyUj0xLo/BQiVd4MGNa7IMB5lbIXHYTKTejFfYMid8o73T0FnaKqbylXKsCy2NCkFFXCiHY41YX87FMf7k8jEISmReXS9O2JF7Hxdkte1UfbEX7CenfiJ5JCUAaMCijxFAwelcZC1oZI8qlOyJhEnV+ky9ChMeJYnSOXnRCoYXWq3OOljAZ6Amey1oqMCfL7t3ZjvaXWAcXwWDRlbeHJcdVUAMTEEa9qHGS9r/cbpNzflAWcN8noKeB22JxK9rAwegoPdMk0T2rbvL3OhYtsMxRrq+Ql5cQAAIABJREFUb3PQOyYuZUGBtTziKaFadolyaDw5kQfph2IiZvbB7qc6cuKlbOLeHfZ1bFxEfIiJzJm/EASZCKrkXIMdcKM+0kjI9uBZPk28UeO7TerBjvYJtofAOOs6Rrq0kSJRR6tagzeVOn4lym3nKtnzNKgdnoW4S2ziZHE+2L5aV2xIhCXfHFc6EUT/25FPhvoljO9EwEwE1Y00me9M3pfrm4RbdkRFsFBKVqQzkSFzsr6U+4jXNtMLTPs2qdj53QY87eJHEiXjDJmq0hLa7d6CA8TmnhQentgQToDxjGzahiPHwmY8FW6IRZa5u+2vd59fwE0/OL8+JZzPmmqGazav7/zGWdcDuByipfjCkRFE//efAPPzl/m85uk7Uilc+1OkGXinP7xvD47ErbQTXCHnL/Xgr90aGXRrLEyEUCj2zCXJTu5+0/PdXGjOY/7S5igQwF7MiZ9MIpXshk3tDi0vBRybg9hAPhFiIuiaH03BKB6BFQ5sYa8CS8k0FoQAlMzFFLy9G/hMg1ngwQVO69hWWAx2UJnbyogb1BD/NJU+hZDwt1vpkGxL2iFzknSIRa9MIcWcrITa4vQLPXq+W72u2utK9zPDF2HGwXQDdMKgpEiW8sumEBBBQcVpKeZkfppGi0kzMIJie/KmXNVix4xR/26oEIakyY6i8N1UHoYhPyEkspa30E3r/LPwsptnJkFTLZxMX3pbzNGTd5vaiHAVqlb3vIQ/I3kNYwy6EQwqIgPWbL4sUxua0Y1GnUMVLI9ySV5MY5xl1yuLy1/tne4AaOOxY9RMg1TFi7JeLAHhOliYgNcnFT4OuNUAV20cCB8r0TzFTe/0XYhRzH2bmuW0/A4CPunR2wfBaAJIs8exVPUiW4zU6QiSjvLwPVlhY5PoUD5MXSo68iBUhbK8RK+4+WYcPiob3eZZK38aHzZ1OO/A7oB6TowBYqUxRMa5UcsEn2SPD2UPa/0bR0xTLOWI8ZGk1uyoq4COu12PmkYXm105LJnCOukaaNxUrmFtUmIOuRK7dS5Tjlv9HpI+MfF78XtkrFubZW+UfRwvG/gqKQiLxI2Xi6Ojyqbltxj7lHy7HjPOPWWNYI4a40MiPfadaL6rcaRcUik6UYyCJnPOcW3s/VhmZ+oRPviNdfZm4Mu9Zz9SH77hMkmTaFBcTgVE/KHVKqI//CPg2JVzIjCuyf4MqkjH2bNv9B+Xugv4d+/fi0rsGBu/IyJR0o1GbInwb4LXkhMMgU+C/GYYt5kPbyD1NZuYhN6ZO2+GMGXirPbDfCYXPwF5tlecACMbsifmMxCQYsNbN2QOYilanSIbXADWaGiP1ICgLC5wDmw+g4GtXdIxL9Fg/GYS7+jwqjPQyWayCUQER7Ai1RXJwQ0geAPrPBEQK833N3MQGxpOGqNZfpLcj8LBkPk0JTQVhRZAJk/qdogjiMkWmBRQ9FJclHQMIlTEPrrWXwivrG/i+/F+OqwvjFwq70tv3A4tJvNijy9JejTlse7yx/M9nEhM5UtvonGkgE3DXW5ljnBwuBEACkcdPg+VCPI6Rh7sQwO7+DeZY9uWiVH5dp+HBHTnIPzrERamm7XjvBeBWjpEzzl3lWRc2WIZds3SRNeo4nq0uQHIk9E3oAyEqSUsKQOBJWzS4to2EOhEqLEkT4deM5qLgt8+MNTpUqgvlWXv2QqP11GBOBgQgj+tdt0co45ulTePWV7t62jczU2ToKo5e4xW29waicLTFQUCfFbVLrR7Na6BCk/PFcP89kMpVvX6454gJsg+6L0Tz2SvI8GBWFFOkR+KN4C/NdgfEwcwrtjSFVp8f3t1SFtvljdbLzI7tWQo05N0qsg1VlHZzGtx8zSbW0XkGmvm0OhymURy7Psz4lGccdO4dpVcIiNNO2JX5SX4Nft+jH6JFxwBd/3gHLZcXGea4bohpB65E1Ag4tdXsgQ2HqSL+ka62P/7D59B9GdfvvzrrCt2A7hah7cu845ffv/VeG5rp+zjhm5/32euj/894QMwikrAUA3uIub23OY7DcFstQA2rVHNwrUZyTSVqPw3GzVZCGZJc0gDlPirYsNAU3gKQG/ZDR0L0EcxCEoo32qIJAYQPVQrlE+hw3Bsv8XNzmtYVytdE18n18uNrPOnVAbEQCQ5fH4L362D3QitqH8SvrQ3KX+TclM7rS9Nb5qzLmCpdjY4spDCYnhVHJwF78uGQI7hJVY6KY6beVQqcyo5G38hHoREh2yQhorwxGWLmr2PRpXJ+TZXJr/JjYYQHBcLlfg0jrkNUuTPpuGM20qa93JKm5LH6I0RmbSBfSRGlREy8v8lHKmR6HbUJ7meCsARSCkfIMlxk8iD9VCmrwzKuzkgXDPG+2ueaajNXeXNuRGFYh3EFuStpjy8LcFsDgI8btlse9FJTl2nIuzujhKhir0v+5mmssgdYEH1s9ufA+TxMh0SedTRB64/nQqS0LednA70NeHaFwIc+12EFdSXioaDxF0cjlKPv9XFX0Doq3WEg/On5YDMs/3Y2AtPfqNXS8dqZsItN06UuD2+fE3P8CbdvMrD0wjUEYKkgZ5zv/jb7N8EQG1TE8dVH7b84T4QfgtL8dJAbwLCzR1NMyY32WP4PJoCjvfQ6T3OHyMrNsV6w0iwxpKODrudOgR8gQhz4sA68lIatbn4BY4Zo407T87ixufHkA6UMnt6lIbRl94BDDfJrt5Y13I/XA2AsMHLPObnEf27fw/MrbMcM3D7AlJ4ayqCiitd1osc3tOHv7x/D1bYKmGV7QSqSL37k9c1tlIzfN8M95NxzE5B8IkU5jKn8cQmilA8RdH05o9UisaqjR8RAx+ERMdaiFLGZN2P/8oFp/vXS57L4mY3Hb2sds12aZOVsRDPvGEYJJ/L94rJm+LvSBqy6A2rRznJ99mCjoJKfrfb9uYM0NH2FgWIKGWGzbvSChcllPwmxpFpnpIMMu/LHLIGfskzVbjd7lIpT4mNLSN0ElfCRHCEU8CaR3rBtkKXLJPnMaUEJeycJ5SpbjMgIpLmZ1ftanTk2+LOc4lQIImK6iXP+9Jo0x4Y+wvouXHVqokmMAVEIFhyCG5FvOXmbxRgrOW2v03KaJUyZElfzmqMJEJeOK58pak9OhqK2gNtZQfLDtfLYOhfgx35fo5CSKcwvKvXxaU0UkMWEJjmSEAIKphC/A3uyubz9HskoWT7TNPkycW5GOPeJ5kiYNc+qOAZWbSPhblmX5Xk9xyR6oq0qrXTVTA8lzJHg/YMsNJ1MZnPt8eA76uJk+jB6rbNlC9i5FkLjXLSJgYzitNnGWR0dHaySaAka0elUs1vrvKX7xKKa63sfGOC86DLtEUmOI6GacLj4CLism/tpBg2Q2vvkJc/xogkv4bGjuNmV/NQvlHmahySlEtaTorsSakYsgzmGktNlwJlpG4aOpFN7ryaedCVMX0TS7j9X86hdZ0toFOfuAl4++WmDNhncedlKeXGyX/xV4i+9/0ruzaW6gfSKWzTG/0y7jjPLo/v3YuzMa+MpBje8bFrI+mJ3tqse00Unc0Gl0QVxOu3wvoCqLP6zCcAOwrlZiexSEhoTFtns3KTsKqdd6LMZaOmEBrdBsaZvJbxJp0cbQy2bOieeON59coqFCdKhaFlFbLzDINGGK+5+8QKzrg0rkl1g70hxatnfwq7OkNCdG6oXfJzCntBz3l2kukOV+iFhI20o7YWCWW2oZltfo2JprhChH+nda8VZEjYrGUc2OPFuV4k3a8lqHh/43lainrVtBptCh9TzkWsgH1It0/F0y/CNT5JFjP5MCzch/kT8Rw+DTS9JZb1Nh9sohZ6oDhvjmCNQ9bOy3HsVASLf+d8ezX9HXmHqpfnLTKsas+Z1NmzwZW1ztLA5m3djuATr2+h2X63+S3abCIWRcSp870acscxlHp49XEaq5D0Q3BMpEDPCCpXyePb3xGDNO11weeyqZB9SJt35Q1KP4l2d/2YHjBuoyqJMqoSRGFUdQt7ZN86YxKnG5P5TvrJEJxsYwX43aYhmqvATfmsO3qUoVqBa+4HXpGwz9rr0dvfrn5snMrv1Y6DlCiqFsp2J1nZGRHEcLDHOfG47a8gZbsd4OFXUxLZgEee3yhvt5aZNMrSJcTSb8Q1MCUqoaJBgm9S1QQm+tosA+dzBTuWOKfxi4txbYnLbKWGW785gr5LS2p9r/Gfw91I/Zv7qZDWd76cxRT1LZffm4GXjo4h+t3fB0ruPriMhwufI5s4XSZlk/OIx/ZvwN/dOCR4OQkMvP9zN0gvhmRhN2g0E6c/ps2VXL7lqSZWmj2pCSeCvSHESyUvQmxUSH15nIZwy1sMza1G5xovqrnimAPk5g+H/5vn8V70jh0vjBENJSclVUC+Bz47HirhclCWmAlpNeLTRvUITxSFgi2QTV8CO2pAUJDkLq0yUJOOSTulQMaDVTn1VEpCf8lmlJBk3FnTkfesVydaWq0o6S+vpFbjW+JzKYiY8rGNA+FeUCVpDP/ZRFO8nCFopho0GM10A3UVkkdKlXI7PyaDqr0z5sZ1akEwF7FhkcwLqx0EhGh59/yuhfkVtxU3J1pFXaSJVE+LM34M30+pvCXDtZIjtsaUkRNNPyxGZ5YcBtYYKKS5fK807lFCKEpJxZC97rn3dBheMDfKqOUc0ti3p5wpCAHl2dPBMVDrgiBSVsXYB+dV0x+bviPaI6eAdxcfhfuGwXa3L0A9wuTFopfHN1gfdx9p+mTuD6mdV0o4IvDXOrg/pJeMYh+kl6sTErryInGEnPvxey2AoUwbKwA0p0NMqGZfK/Ohyn8NoNuNSpj0odtt0zhqng3j6QzKK13RQdniAR4rNcG12GXfnPPWLrfSSr5Pj7E4W8znN+dIdLDucxDT79vik/NgyJIsNkjp/6OiUJoTw+puai+thNrcljmU49o50OO3/7lR7D50af0690vvQGrvpvWfL2deYTXD8jKiP/nPwCuvXubzmqcTuXJbyrSDvtJjvLMFv/OunVilgc4qmHd+dL/MuDT2sepK+RupSWnZ2pPNhSeKw1pAnHypZbf2NzdB0gnS3WwKXSLPFq4s55sYirV73fCP0hVRLDrzIHrWC9PLqoTPRAN0eE575bw+wRA4YD/BRrhelCxE9dqG4c5Vx8YQcqemyn4TinRI8nhrWdDWuLKjorag+Qzt5SUALkewUzWtg6CLhpD0sbAUJj1EljfaY0hBIA1nVD+Bjr5Wz9PzQIPiuemQdEgIETfi0l1LOFN10OOwm3bf7mAP7ej2vBBJS6iQu0ObK8IeIHrfadJUjzB2dt7NoRNk1dPqcUcQrU8mSK0YPBBZgFqYiqFAHg1HwfkcAob8y51Q3t+JwElqzlTL2AejB0UaCNYhc3SFBgLHXyIcTmyXQD137QcNhCg2EHRaTPA37nzqzom8O5Ve2g0iGJ4DZRmTClkblbrMlvcL7mOLnC35oop0tXXfjwaC9nqNge9qV+HBUPudSlOwEtYhREuqzFSqE9RYhYR/tVbzuDy4jx365RgYPnuJqTpbWaeESllHbLx9LOOljATeU8vLmPnRkUf1CB2qTTjvz7lzzMKU6chrR97ECUuIsOKbcunRGfCivlJS6o4Qgay1SlXwB5lqHfnVmlThtdIhi2VDlmlzzm8dyFUiATZ2dbdiuGzmMkXAfW8c1WzLISInCiMeZF10ohwsdaSRcPlH9LXHgK993QfzXMatDqZS2PZTljz+093b8e2bDfFT6p0fuyaOIMQDEYfpTYjP+i1m32ooLOawCEpbrjrc+I1yR6evO/PYbnlQUvds5y2F9yDPGvGmBJCwcdzmNNl4YnwsV0xOPvES4jplu7GRfGDa72kg3A1CN2qV+pFISJWMcZxDUQPx4C3hmFiqzm9Sy5uUMJoZloUuoC9LkvK94zFP1oFJW/jcAsyjhnrLs5LATSGsz/OgcWDC9laZK1jj7ILB+N4EmzldH6MEzOh+i4RZLetRPDLZsE2hKVEkq0abf+V5xiu1BJf0zTDhw8YRl93a6QEKGHrhOi3BtcGSOe016v1GYcEKFgejQJCZ9LRwS0qY/tCh5eLsiiK4ghdl4PfRq9UpQtN23H0jP0FgbGJtkErESYVlE6ZK+440pIpz7M6qU1Tuc02aSWlfNsNKqnsawtkw72lBbNKP9jNIvV3wjBimRTR4kUY9sTh6JAgqdpRogKLapBTcahRGTTT9s3j9yoox69Mdcc6R4GmsB3MPdLFJk1ShuEBf+/245kxZYvNq3s+lsDV58qHtPU6TMV6huU54bzIqEs9gH0wNNKqu7D94DgoJhNxqGO69vk3tjiHDtSHt0q33ls6MbN9srTHBZMQNlZzHqrQtx1WiBtYg8rnco67hbMbfPo8GEdMhST+Q5DnEw9lGGtf+hs0dXmkro292ST6vJx5I+nVYe4CpMzqimphJJj4C2mZX8Oa/fgV5VSkT1NfcPHGK8kS2gErMZyFNrFpIGZ9CKpdDOmvwN5m2NqTzOaSyOWQ7GGVLIzMzg40vHkKa1MtBIRB8clM00jjqK+AmggzZ0CoNUA1XGMFhqTyZMKUBYwr1bBor2QyWW9KoZNMotuRQzqRQLGSwkk/j6M4+wxz7nk8dEKIkEeHSRChtPPr4x4RR0ISqzXllhvmXK2bRxwtS9h1f0A7PxwrWzqUxUiFVDo18oKnxT9DuTsexKDJthK2mRXwvsb4tLAQ1AJ9vk6nwmQKmVCWYRIIbmtHmYFMY2BUEslGZxtACVbqMuZMkXfpUlzxS2BKM4yiDJLxsaQMqXKM07DA0DS+2zXa1hpSCZV1rmzXHaSHZb75TkwO/+SPZA9mgSh9JvjHJ3/FbiP53qx+MstORDOmgqQA/BExpdDv5LjQiuavXrdPnewlpliqT4/00SRPfWXssXIfmnZvfLIZhbFjYmBRdNsVnS7248n5l6tUmDYVUKVB1qRoBZoNWu18+g0Jv7IyPUtZKVlIOCs/AtcByT4/Zs1gWRW0fNDh0mSbXN/Eg+vAMDumr4ueG+61W48k9WOmjwZCS+lMNx8hLoKMcprWv+975lrTTbZTPkT2sm06xxW2XxYQZv1BxruQp+lCuX6PcZW4C5YFUbtpwYPMy1v7bR8jAkDp8tjp3jAQSyLmOBdf2lh09DvLe4EDc9I0ozLkVhxOAco37kuXk7gv565ZzJVgVaz2z7Foo1i05w/mj02V/N2UlS0cdI4HVOQGOCz2OYiSokkQp4+w1HWKbhzEQ7Ocm+4qROXudyv63Ukc0Emgsbd7a7YyjcVSb4yhGX42GsmvMC/6uPe774kwskF2p4trHRtB/avb1NbP661gKGL+sK2L9y94REdB5BdfKfkml8MI7d2KlrxWVXBr1VApVOvHVOtItWfnvmtCtpFDPpURvuY5u7IjEgo/GcOq+T9NAMIaBrWiEjbCNQJem5OQAsya6tGSFxmKEvF2+knyfLsuhlcT6YKejWkTkNBe/q3lNpYOl+VhG1uYTzHBQPGAQPaZ5SyDGALyNBJ7YejfOvdtCLUmN2OyKawoRGkPKOKAgt9sqm7GgsDFVDsnBDSANpxSAh9avfR7nZuiqXrHk7WOV4B/1bBoHmoOAHPJt9AC1G60MHT6TxoHNpMhr6DFroUiltDDjhqxZOaA9TTaOsvkg+P7McTPfbx98bxoc9mG44Fnd0Xxx49m5PSh4DQWqAeE1j1AJGOdWY1d4fyonfTCUqg+vx0LcD0Ir2k1bOz1+CH4fqyYcGZTkmK0fuT5thk7+KakksEtPORasENAGBg1TDTTlGtMKWQSKsoAY+dHRERremjwpKRHVwsVQ6boLi/vdpn2W+VqmAl1xni5prX5XYfEbTft1d25bO9yGRLynwaS4IXvZywp0qdNLMg4GTOTMjWCx1N4kJoLNyLTxLnLOsfEjaUlOanP7YNmrztkzZbVxyFUJc5xXRcxl0mrunuO9mQrUqQFdJcVXE4yHMniNHHbfnd6mBtYm3+v4MQJk8mNzbV0x6NH604rquMv3Zqm2yCRHxBvv1j4ElBhI+XK/u8siZpNUOBvpuaPArgIeVi3EjXPjNofjutjz/Dj2vTDmYC98yeD+QraFs8RXvdGJgb93R8CeK7guueT8vg340V3D4pTptDGxXU5ps/SpYZTbNUjtTssp8iA45Xox2EMAPfFcUTAmdMZJDlqMiqwJFeuyOB0OlbBna87h9DZRALZG1lS1CX9Bc5QEzMdWrfbiaYYgGicmVqeA1+KFIt0Sewqmpj65PgbXmJLJ5nOSPK89sLIPVNlQyDLmONBT0mE/28NI7svnGuITC/AjyksBv0gN3NMqitKRX1x8iqOB1j8bltj3pEAToiFbySZejRM/pSCuOjlM/pmesDYOyJCoS+Fkw1sGDJcN2QLd1tumh7z2jjkmRQLKbANRavnZ2Mf3ZrXXSoGrKYo59141BiLUSJClhCTbRavKRjNeOnoQ82rYe1e8FNWemHuhZ2ObUxfOa2ygbnIPgv800Q/HhxEf5zlxuNb+jeuBDHK+svIxPkL0pEtVGRFV+W4pc1T8EVJZpKIKHBzTv8CVZCYC6Qp4/X68QqobpAtnc5Clz8DmTo/8h8aorl7h9+j1z/UyeBUdANugjDB6as4zCjU2gZf0D3V66RqmZbRCD3XFFMpi9d2mM54SvDRwBbTtjpuRL+6CE8IuFfXjN+vwPmUwBb827LTnLoampKTcZwv/isWQawwmv+xSgKkOv4TxRG0GTF7LeaSDpPE80pBNGWsiwpVBkFTBuSlTgzfTBqk/lgmXj20lMP0Yc/NYS9MwzLrVH9QxTDfaNPs9E8u47WsnwCqI9R7UaKdTgFvgu76rOT3XsLpkfad7Z9UzKXz3wWuw2JUXYLwAROOoXuJ8CEW1BW5OOHi8MWYk+wOfe3NjNFk+IkAea3ao9FZXiKJv+hvmgToMbvLeclZ8Ry5ahn+oaOyNS2WkAYzCDBa3Jba/mvcUAySeXAoHLjTPE4wrMWzlLougzKZITUXDDWLjKGRDkL434f62w3CdeY/S1DQXolfTfEsOF1MhOgpjvBU3fcAIQQjMKOyObk5CNqqt6DiGzJvJprJuSw9a6JStH6U7ZptLSkMFoKMOprTUx8Xo5ivytdKp0BVkUnJajnkx4iERYb2t2xUSbD4zVfQ4G9iLQUePvDrmWLiRyMZZG6I4/Y0bCi1L/wv17mmCxwKlrZpUJlFq2rhorBnrpRje1wadrA+VwxCPcK7kVQjQqNMGAvebn8YgAM1vS+v0D4jfS0cKEmWh201zXc5N+GJNf3cyHjoEz1p2/Z0hA4HrnMaRA5RLpdAz0O5Fl4QmXaVRQgYCnzuwpVPkjX2QJZSU2PYRmjd2ZCUA0j447ksK3Clj51mUSSmxuzekgksBDCVErqJdvKdHFJUYycr7pcenIyXEU+nW6KLkleLnc+xUcfKt/E7tLIWMBJG9qj13UppuK3TOBZtKOUyp0uSpipVF1yFc20hgRZsVcU1wHMrQNWOs9aSPKxH+jYLfxEpzZtAAZJo0F7MAp+oRbn9sBH3rZWGMX+VCCpi6QiU/FAFDV3gtLxs5MIBDtxiQoURdq3W0WCkd6kA6cCU28IrHM5lvjpEdqUx94HM3RBT6dp444SjoYIg33gzmBgz3MJzrzohYwA6Wy4ANC+zSGFusyYJlONneNNIGuSVrBLUT/veVVkJa4tQkSyTDrYOWhVypOdzzRkizc5xrrPC9DDiuuRh5v+4N7D1usYMxN7jkhzHXWuCahCXJgWmBsd4FLmh3aYfthtz57r7AyBpiFGs8OT869LiWwBBQi0r5hAQGr9dtpykchrZ3O2RAXIQkw9GAs3JS/WJthoS3wd4fkgbQ6G6pw3Z7aSSKyytdi/tuaKOOAMgG5iUeK+0RJe8RArLpFthcwBx3zfXAe2hPicKbiksrX9P2XDfb8itXTKWJxfcfv6gOncrPFj9W8j0J0M7et8QCeREEaTrm7i/ew1CwuwqRQliHu0PfznnQZYg8j0h6TSIlZDsMMauIju4oSNlBxL5W8qTb1aF5EwF0Q+vEXfFa7ckzd6/3rLSojuVi42+pFLr7Wt1yWob2qb3UJIcMB6Z3NK27pj9uKHTVsl2mOO02oDLn+qahJBUCgFcp7VbGjERGVBSPMkXC1JYcMvwmPp/C9OiiF2GTQgEV/eRYEiOljUkawNqAr9dV9Yx8T0qiNY4vxjlWEUNxaxXAfC09LPIurmbZc3QaN/x49LJUNk3SE34gcl33YK3E7uiKSJvl/svtOXz3nTtRZL+U+OC+5N7SjMOEDBjcWVOBs5SbUXfZ9+/6xIGoSXxkSqRoRSRAQt5fqHDLplzPDfNowyAmHIqjAfaCljyx1Y3LVCxkpIbeQ3GbAEXjMKFc0gkrRDOjBgQhOqEjClO3bI8LjwaL7d3wGkEMS/l182EM15kSS7fCgaVsbkdE4xXqd5ccsMJF8O7cgE54PK4CscmozFjLKnYWkoT7sz6JETeFVuS80DSqcteifo4I7rjKwz6T7yg1+NaY8DtlhKxUrZQftmSchcXX5lzZHrCEDIljUUKSfTQkVWHNc9KF0wkTMzVQY0bWPZIqG50XJZrdEXQxwI+hQ/ugkOY/UnMRVwOIEadIWHgNQ4922DHZE5q4ir/rBmP8TRNkmfPIde8To2bymqORdMplzyingeCXUcLztvkspr10tQOVpibYkTnVnAwANjD8rrzmpdlSzNXQHFVeb1cgNYRT4J7FxTKqKuQskQFlmIYwGTKmJZau6bJDk8p08tqpmKLZ8sTNPV1jm/ckQG+BzI920E/WhM6lmAoePaZi4Hj8/Vy/fpTL5NBdq0dC5irKxTM8roE11IzhylCWVIDTQNZvwqVi3UsijMpIEH4B5bzxNyoRe59KtVmhSbYn4kI6pXJMXexNyEgQfUAjwTI8KIOJV9IgV1Y66YhXtxJlAAAgAElEQVSL8ZR90B3HTo+pQEZ0nic0pnGqJbNSxX2PHkdLgKhtjamQJcT2S8s+TGOtSxq/0z3Ywd6Q/lS+4bU8oZpJ47kbB3FqZ69DupcYd4xS2ulF6kFJd1rcIVzbMscP/Ipp1kRUKq1yA+hofhVJV3gzRxBTEQRqhRmmkxCWizxpAGGS7+WGYyRBTxJrq/UCN+F4ovcd7mRUReG647VtTw9aWkl20xxZeh+TF9wmHRT2PSxZshJyUp40tWSiDtakyqbjpkmqEHhr4RVX5WACwCt4LYENu5hfXqYFoUwsQ4JaQATKsNZaJSEBoQ2Y5NqQgJAog1AxaqHv07nqltu8gpz60iDJup7eNPtd2AeNpamxoucx8Z4EVdoHv4lNf7T3H6rblrbcKhxNQ2Lr3l5fQc6uemAsrumQB851rb0bYYjTcj8VBXsDCH2tzjFLrwk3pC0GW6Al2+K0j9APcQRw6ti11D743kTf63UwO7Hk9nCIy3CDBsJgpwga+7gcA4HpN/18jrMGpvL+ofEXunINXmNZsio/kxQcy/LUw3TLdT7HgFjdSA3ndOrigpe+FMWjoyVCy6wwMow89rUF+gH4MoBzpdOkxkBVjkQMogwp/pAcEF6H9RgJMapf3yNoJAg9tst9I8a8NM9ygeTCamin0yKAFSYEZDuHpAxUq3KmVZhCVfdsbSWJmZ+VD0UTQoaXGJ6KhbZhJIXyZ3pQIuDWb5/G0PmFdSno5CTWPhCseCXH5ggYvpIL42vOb+vGM3cOoxYzTNoGlTEU1DzREWNpcKXmzF/qI792S0Tk+9I8a2XN3YX9i7XhqnWqAO4YybEWYGL5mSYs6osUtamAHQlWsWqWTSiHEQo3dJSkLVRaXhSY3lgEIBIJbFtFPIf0rQQaJcKZ78owi/aoEk4Fr5aa36pKHaXskl6e9bEUFO0dunTPWLNBSzewiaWsSlnvSVpnPesktLF5XchAWNM40KxoMYWwDhubjoeuImdukgLfXhsUwBplzW8y8+IispkT050b+f6sgtAeFIWI71VEHvCT39470IHeAddAId5DN3PiswRwyLVtrWPuBQ3mo7Fi0PHugs+p9FUihGgMa+nY3uUrbY6NjvxIxYCUqNnuhKGU1oqQcRa7o6fMf9pQ0eqDVSiN9RbfmvujRZfNieHb6jQb4724Xj3q62SxKc+HkSYNjuMwE+mvD0lfqutZGu23NzbkT1q+c214/TRg5JkzgqyKEryCO4dzE0UPAKmrFJJ3JkiUaY0mv1xKjE6Hwjs+2URKlYD0iydMgytV2icyWS51rzfdVDVrFPeMT79N714bNAZMLmxFzjQk4EP7R55i98FJ9IShq3YPnuen5PzohjxHg1rTKXT3tzodLflsKY1VoNEkPe0Rn8WN/+y3YlSZhrofofKZZnMthpXRjmZsGZnF9d89g/Q6SKuS51JCHKPRewVGAuu8DriiaD1qoHHOamsO371vFxbjNEMClg8ZmtrRNvrfUJ2n3vHg/ijJ6Uueu4M5VOYqmkqwYRhI8sq8g4TtW4wVHZogZ3HF5UZUwHZjIUHGimJUHnaQb8CUCNkfSC9g41CXlM7Z6QMuBJZO2gKMSo012QwtJvuUApIhRdba2vcVJ1qH4OJ+DSF+eIavNZjQxm4kY8Hn+qClOpZkQ7vzL2tKUfOuFQI2aFz3BibXFFhTqtzSKJF0PC8WKCgOEeoNTE/SjKFZ9aLUGshn9Q4EvCpwHnEUuoyKyoad77wc5EYqdnd3MTokXB3Wp/EdCOLT2BjeT3La6mQSz+h54HonpwQ/yxaX2nPlY2noeqVgrF7oo5fjvq+E8VXOle/LyJaWG8IroYS1Yd10z+R/aaZQvhebGWk0Pdf1zHgIeOgT+/OenT1+u1pdv5/s/5DhwVJOD7yYT6MtkE4xJb3uGuW+09dzTshfovUrK4F0xCRcdWHIhvR9Ga3SqSe+jd5L/E0DkPkbjZaNW9wSRT6D9Nx6zmkkacplUbKBbpRLiyteWapgnWQA3LVAvIrmx+CzGTLW5dIELWv6dBl9HXGIQbV6jXFc/P43puGdI+8l3P/TGQmU1cR02Af3zOzEsoNhEG9YqPtdQ6k5Xs07cC9STnAt2AfH1ayt5thyHwmTcFxJ0jVTwk3/fAptdvn8G6hsSsPzAGavwEDgrXdGQN8bPOP1/vzaDZvxyg0uVfSahoIO5sRrIPXenztotqiUPRHBaE12jDwNhWe4OZwNF4P9NHkOjQ4SbeiNIC2a1cLi/VaWfAIWbi4d+kxyTnqAQnm8WhSD7pQwajQXsW4iIDXNTpdNY0OguyA9ZoK67HFIAHX6e9dasHPTFhtk/B6G3Mn3FthrwC3jomIso6qwGRxXAkS96IFl4CWfLKVpqoyNSjjU70KMQjVnfE27vXdy31DkjrlMHa6nQrh0jpTGrjdJLIiwvam5CCGzG5UlajGE3oE4GF0bL4YES8UCwjq0AbnGdcqA3qgG2PFasnNqj5jv4DUQiwAC6vS5FH66jju0lvgs9ilw2nTH+KHx826KbS3F9N/FQCDRjvKyGMXotABTyZhWAnl4UdCBNutMk2hHhAqLtMH6MCkNd//QuVgq+gj6LkUWJPpS0oL+zIcAmJu3u9U6yftPBMLR0rU2YLWH1t00ac29cfC9XX5mW0dOqPLtg8pQ99CQCGoX17nu/eHisBJ9YLrpuvcV1L+A1Ju/i5L2SmFNxGE9kQRZj0nPGCvqzLQC05P2tuT9Qo3bkv4+znvFETSH2ZURuSLz7S5xlKhAVR3G72IkQQCUUYQbnziNwVOX15KZaYbzdAyvQNFnIuBNV3Bdckktk8Y/ffw61Kg3dIqOpfYE4CrjsL3DLYFMfeiX3iw8CF6OMBZiXsVBnvXp7gIzSHqXmIGCita5tm65yaS7oPXCUvpTNo2A7IMb3ZDGNH8VHRfgJzcAJ4YnmycLWjmAzk3qjm0hkAhd+7347xT83Qn7YvwafM7yYkVIoxpHTI+saY9l4QVCXtxoofbN9Oa1wUl+fRpvbgWDoZvWOVtuFBpvekGI4gmFEmOgpz3uwgehUj4SvQgIXoLqtOAOCVcxFLtavLXD3OTMpSXHa+N3st2zDiuL9ethNAx3uw4dJqBK+7t4fcjwoYEjwM51WPoCmGVJqRvxlz4hum6d52pDQIwG8vqriA/HV3Pz81yhYg7k3z2JkyI3fasfQahFmBoLdbALgdmMoaQPARcHBFXIG60kvBDxekkukzC8uonw+gfGPMR2Ke3fNddAHKLXt0jG3U1PJmlM90OkbFi9BNeJpJvUN7PtMb1w++Ce4N60z6UsosGr59g0qvMbRlE5mr3d/BJTv87yYevryH9SIbjWA7+YZ1kvwW9oAIStF04iZDp1G9JDTkl4ckIEtLRnvXUiDcFmVfQo6RobKE0kWZZuiCd8NVblHB9J+WZovd3ZMDLcfeuQnBXjRfaQK1fFIIlZBRufRrp3AtdVeag4nbUI+45O400vXkazJ+KyAJwkIP4KFf2+n4JZkY989bZhHD84YFiS2UTQ2kPcJ4QXMKpiyymyc7Z1tJiS+g/HIMXk/bkAqahtdkEuXmlHSgVhK3bWZy9VPKrS1g5DcmMrNMEqBELOfBaNA23JCErYoneW94tSphpAC5pKnOu3fqcXoCeatwh5B1xEOhTOfdk30C4bwRYgHB9yrYcUs6n8cC3rUN5xpVSWHgG+p+UbB9m8MQ6S+/D7k+ZPIW59GgiecSAfLgPYtGfijaMlNFnvPIKXpA5fSWIKBRk363d+QcjTojCww7lckMJTIex77oTSKBMAlNpUopjVb2IsqhKnxpfq8HVC/WoLTPG8SaHrKkYySk6PLXrPIzOgDksL8c+yH1VoCv7mAxPODS3whKBFh2rFuPRVMy1/TfbDZw1s7fJyusT8VFSfAr4NMT8ayM2lKxUnetwFm+H+GDLAeAZZKbv6TFMbe/8vzq8EwXMhZsOQgcA1EiI46tnYLqlD++DepOGpx3g9BqCsHea8SdCkInNcI7qHQcLpEDIEQ/nekDPG98qRl18teOlrooxDvptU6qg9IwBbDcRLwQh5zwAy3v16DokaxtT4yfl8J4KEdedPGpKmf4m7ZoWOXjfnqtaFXt02ErheNP6Az5T9teSnEI2z6O+PUERGsGN0TO2PFhIwPyqTkPjZt+a/5xfKeP9Xj65n2JxzTqdSmA+a2G98q4EI2Oollt74uuSMqaEO/OidO1GOQaacO+mDY60Jrh2S7HGPNuY4rj5LvefThEIYS54Xujz8xrKVRWZZHoJ2pyWrmAilZ1/OBZ5IKiBG5tqTw8iAeCt2dCCmfhRQlzU7Ap5i+aAKjVGRmYVjkzCYfKGOFvMcsZQUjzfvu3HQbZBJwcL0QSjUGdr0oQXZ3Fjurucn6OYg4tkKNaYrhU1kxW+rmxhr9jIRtryA8RRaSubd/DAsKZm7WXHgRGwiLEyveBTOfJYWoFIaEwBjSUlhQCB5xlNc/keiIX0QXRsq97IxLc54BFxeAWcqgUJjZmC4y0f5Ty5JZMM+eG7vQLtP3VqqBnsdCMuo5/X6dM98hjCNBkibPLcbJFgija/rk9BQ27TNNxDEgA+MvfBXeB6YDxrjuxmuC38lyViqe3Bd+dTM7LXhe9RiRCg8iSjoeC3r9W16FLgPZCUIlba2JtnWWJNLJXJuPeKV36xZLikjB7Z0eaBPoaAPACZDXq42nGylKxiFkJGgFHyCBdDfQUUcSgfbDkZyTYhdU/4WULoS+dBNxYgL6W0FezrYL81xW5jycShSHaWMGgF0Ml1nfQif1bexTcpI3VJ39q0pB9KApjQ2uJYtgj0Z9xi9r8ctMcTsYabhwiiHnsO3Pn4aG0b9lN3rrSkmJc6sIzoZusdPy4lQzWfw7Nu2Y2y4y7k9wcgG0Nt0COisz0+tOBwnqXd+7NqIgk9bUlL/KqxKzRsk3pooZCc+bywMnR8nUIUKzlbgFJgMx1IJ2KkKlsgRWU1PzFbCpmbT9a6SMK+mHeXiogLWiof3XFGUuBTGLHUkINNeGAJkYXtQD1jmh7TW2uw0UJIGSE2TLKY6VQqDkRrxjD2PwGc3E0+DjYU0K99lGgeaHpvvKKWf3JhKSXFONOCJtL2aXEowLOy8qN6N5+qubEZQ+zuG89eqenXwXPGOAkpOlFbAgwilOHifEPiM36yxA1xf50/MeGWY3A+MKumD6GoPexNjM7TAD3lTHAoaqn4e1zdoKLDWQmMTMEdj2l5LwbI5mNCiDwZkCNxHpZu59sWXnkLxTlhxoHpt8EqucSkhtg5xSgh4TVRMvCTWmj9ykXikYC1ZsJmUjlrx+/Tz5NEB8ho+VhtynCcqJD+6xbr8ZgWPvKtUtShHJf5O4UUJ0AkTRG2+szmwonADKR6G2HWEgqk2fw+txYNgaPFV4wORe356kJEa3xiXZzGaFb8u313Q7rrbqvR9qGNlxaV9T4wPbVEy9M/xtNl76YxKebMCWvKZPRv8aB9TrYvzflSNKbB8oVm2n0ickGFLILBEXx3P2shguzJo8EIRtz1+ej02ZuMcDhnjDqtXYCTw7XdEQO9lPdE9+fh1G3HopkHfOcqlpU8K0+LJGjU4QLavZyO4ClLv+/nrHRaapKxLkwCJN7vKGl3Fohjzcev3F89ehX7FW9vi860vzK1gflq1zCX4JgnnWgNLgbdU9MPzzE/qjch3JiFLqCxSypPUxqUi1Ll32cLrzHeJwZBJ+0A+esZrlMBpJkLeQ7oTrkEY44VkpZ44IMBViakRjozEBMpRa5Hh9deCjN7q7KoJA1oKwnCguxpDIiMawEikN6NPqvHM6ioxHLr0z7RsNuF7C0diWl35hoCQnfhai0KhAeqLsR88T3epS9arIdZxdy7XEnPQWgHym0MheAG2qg1AYUOlbx98W4JadYmn6XBHEJ57F0Zo6DVrDgjW9WuFSCGpQ/B8dv+mdgGx2QeNtrEz857A4HdwHehDiKoCWjsvZDnu2TTaTMMwd25Yn66VOy8VXnhVWin50gAJmalO8nke+je3++kZgqYDxDa0KfW3RKnIkAGpg1UWusMoT/GM//g6z2iWlEvWZ7yMG21RANsHx4L9JHS6k9FMVlvpKZB151lp3D2+JuI3hiKdofJ0PmdpnsZRoK9HYB0wdewBnaloQkZCQNFJvxxpt67W/0pVgHT2I2no9GxsRWeXmxLkXE1eLAZp202Uwz24l73sXUxvTaPFPozTaNZdphbhnf9wDK2KMjrwWc5PEwBGr8BAkD0cGwlv9Iy1/s7Wz1/9xLXyZ4dPyMocMHpMjE1yUOfRSEg98MuGKMmUMtYljG8rCk6OcJcrD06iDsxlqJQlFyGtP4fCle1BVysuYJFPJbFJIYuqYhpLOBCcro/ykmwnbXLWkfVgZRvLQqMi5MKwlYgYDLOsknCpb/m8ClkJCU4JjLJeSIYtTwnGuIrDUZzShjphvDOrIwmRSgOrUAvmml8KKe+nQIPJ09eb56ThR+CJVnBCJDXql2VRYOpGTa+3QHXol3udvd91nTbng6h6XUMv6YlAvb6U+QWqC2oBClvDc+Gj3emBSfdAHVJfo2qBpWOh3H8t0J6N75fP+3l7hkglTGod/Ha2fNaGDaNC9B61rJdW2SoPLs2cOlXzLhgGReYRnYMh8aFOz0DgPr94ev0GgsxtwBgzBoIr9RLBotcDU5cebwINhHZ6eT5Pg86T8ruoUOfJyqfmsau3IGOiD+JbQjnq0G+SGg2shxAPh3jeAdS+AAsDNMKcW40v4b4jTkLn5qn8+jf7DX9nxoteyoRjH3pnMQaEX1sdEl31f9YN1HgG5YpEUAJ1/6G9ns260Wbew6QhfWxO8gb2u5vooctgy/OYJqLhq9dZ30CboSS31gKjjAskQFutOd/JPWqApBqURPxSIO3Iskk6O9ZYCVdPqSyO2/U/GsPmcwvIso1yPVpXIydm90m9vD7khztH6Qi4nsbJlVoIAJ6/fRjHdnY7d9DOJsefDpo9v6mPfvHWqFqpigIy7IhJDCn2ZKuuwqJiZEiCHAgO4l9aRvugGt6XwlkQ2tb8MHfI0JL2hKQ0JmYudIRroLVoaLy42Nt7/CZLXGSsm9ZeloD+AoskdG8TkjPoV1fwM4Qa8KpZS6tzdzF1r/ZYRAYrwyrZqJyfUNh1vcYB75Nwa9vvLcxxY4te+DKfywjFaUj4hMYlJDB4vTAFKjzD3ERJetvrg4yLWggICls1q+F13Oj1AH0t00X5FuW1syxqetnpNSLPDlSW8Gcaf7m8L0UD9ojcxmAu1NdIp0X323kGDe3xc3OegmMUQwO+ON9U+LqvxFoGwnJx1enGyedx/th6WoMqL9dAkDHXJFr0ji/DQODalvJSJaMp5HWkhc+jgcBQtb22OCZcO1rQZzPkbwgx7RliN30wnMyeF84eZtqFzWvURgvtSa4dRql8fInhFNDrWJrQ6ZgKvXRGWgL9LIhz0XuPzLFspGUcueYgijNEA0utwVAKT9Y3a/uV8jP7zK1k4zCwPw8B2Vr2cA0yaqMPki6x7No+DO4nIDWERM59bXmPfDgS3CiDtG7FMdJrhA8TQLyKCPHejLR6AMoYgO0YdnF6UKIrTu8bOmp1tMyuom+yjFy5jjQ71JZryFdqyJWryFVqKKxUkFutolCqIB9X5tG3IKvi5aEXmh/70zZwKhWy+Ot3XNUgbUpkKx10DwhLUGncwjz1oc/fEHn5XRLPlPx2rtLwQWhn3QnnRGlBzolYnC95Xo20A+0tOOGMpiKk+6wQsBISXF9shrTQbGAj2IbkNinjeQhznLLuJZQfqLkOKUHjNfjloFz8K8u+FNK9H5J7GipS/3sMrsP3xrymNPGN1gJLeiFfEuh0UHH6Xtq5E9Pep2ZJlqNQ4aHxSH7TISujZNnsyu3mxt8Zrp0eW3JCl5wmGkshQ8DUYftPrwVceeYtOzoNet4+2EGO5Cr6MI2F/JuvJfhXS74ByBhl6P14D3az896lbCpg9CGMcIrohed4IWXmSTNZSVeFvsdjYaSQZ0ml2lMUDmLAqEPAsoGKB17PVJM+pCGb6p7Ic4gn8vokxL0nvPUZaC0sa6XE6iY/xJ2iOxUIoZsS3PBK1fqJoVSD12ieL9Gds3Mew6akXAPAW+mFEdhTfI9QdGF+ZtkLf/PpBYlWrU++SV5eWrq73ynMpgEGzNB9TZQtH2izHHngabNnq5i44FMMU87S+NQHZW0YHOp/o0RcdGdLqaQJREZio0w/j0ZGmd111UEguI0VSf5MBzREc8/UlRf94Vixik2nXlfqaBmvrItVMVOro61URm6VjvIySlPLyFeraF+pINPYl2ZCAwVLja+iOXsAKaTXAuiEl37j1yiVwk/euwuHC1kn1celR3BsKIrH6rDU/T9nqhh4JFarL38jsNyO/M3J0bRkldKMc99kq7KR63wRhtsJTvTY3uLWpLZ7Qc+buckU2e3ih/KZDLnKROpdnyIlbIsIQ3oq/F9+D5WPDtPKuwdaofIxHEh9SEkeme/U3/h+odpsqaEOWs1+Vz/mqju7W3xGuRjN7YdqiVS28tKxJ8wckjBKKouX2I4QJW2o5bSZo5DxUhNyEVvPyMIiCCggJCUSpTEKGeYO2738KteIpmhO1mKoXFMAoAEDi4jzUKMfjknI+CCozC+DS3Lf7hhIM5MlXzAbbIo70RwXguY0/4d4v0xzBEL1YWOPdK++Ucdw6f/fDQSGlb2eCiy5EyCmH/q2S6qTvWdKr/ycjqR+AntUnJTAupA9rTY01wMbUGneClY+XDo/782R0BQHUgqmssrfLyav7xv7s5MmAmAfXM8sDV3PwUtpOOlyRj6KETivVHstMHAmJU6DF7GzulTa78PIK41sJ/ScSkkUoXdjm4oSsrmY3+dEFGBg3qSzpeqsKWyYASNBUiq69F3SIQZvEuqXIcad5hGRqiq/8SDHVtpZq1YCHFuNO2m5VEZm+fLoj0qrNZy3xjFbqyP5J1+rmehDuYZsvY5MPU5f1OqgkZGrR9hTq6ObKXxGQzIZVLPsUZRCjb+lzf/yv/nv/Ie6rMZ/MilUshks7enB/M0DmBgtYmlhxYlOcl/SSTGpvebsp979yetkxbLkQbwnzVy3RntMWpYmNO8ubWPhq9+S9ENggYT0KIFS3X0U7E0PkougOFsyNcBWiI2L1lDBus+kBckcf+h7NKmIXClABr2pSdRh0NfO5ojL+QSBreSDUP5SgavDAP3ck8XT7m/1qUrFOPAXHxd1qPVtRy8JRnxLl5vagHxUVEYaYPkiKSRgmYKhcaCFODfeeo0DPonGQQghz74MOrLD80PUthQQIU+RQiakwBm+DrEbEtDEro36kPLYANMdKxRCAMCQgcD11j/Y4RFCcToXVVe7hjIMGA0G2+AbCMSQ6NC2GS8/9UXN+P9FBOG/h4HAdyf/vvQK0PIkoE+5D0PGR8hA4G8kP2OfEPvgvj0/Mu2loxhpaG3zCaSCfTpiRysUESJOxO/LkUTQ1hdFoPJaLvpRIa47zbSafFtIMZNG2JCDuc+VKjBdmluPQAptHRngeLd15wMEWHXZv16fhpSJSGjwYwjnYKqiMigoHhr+TmNAg5xNJ9m6/z2stMhnRGdIl9r4oFHOqiv78xkN5fiK8WSNQeLc2mslmlwFLvqpUl+qNn+hGD4/voRSQD/o6xgpIL7B/t+ebAbd7BaaogGQFoOAhxgDYhhwKmgYGEe38b/xzVP5FFLDeSCfEgOJ69p2+vmd/If7N6E7SN3/cwcjQZp7hByBkpk4T15aCqC11gi3muqCsIUcsuwZ3jaI1uaQ0RshOKmmBlYqKxSzXkL9G0IlS+1vIKXAgfQsfnIyiEWpSrOEXTHvgf34LkRvBz3ENYwDllmGPJMQeljIOzToKgWJyHDMnIUekY605CG+ZTGtYRyEykMFcMYun2rcadi0SktpZVBJu1jf8iCALISOpwKwgWsCLqIXw6hRwBtkCZ3nJTHFs2IwNPbB8WAJTyh6IGVLPl4pOBc8j6RWofN1l04+nykkhl+1YcrKDb/7oEkjhNaMYQ70943pdhcSQ76pbSqPAs2PCA6WUkR9I7/SwKwZ0w2P6QT72VwzoXfkOtVRO95H+l0E5pUeqr0vz5+YxdjIEgoFo8ATAzdCHelUBgJQtZAIr6darUxjUzlEEUrLJfavw/s+e4MzmFwbofFlJDOQ2cDqkm8883oapnoN8F1MbldFnZKcufoQfiarwfj9woIX7zfTpMiHrPEcrj39/izDnbiw6DlRjIyEgMHEvoQApa3tioo/HrkivVFVdcV33cCKNUW8RSNsfsavQiPTZigaw1QlQaj6m0ZPzxk8ik635HxdJga02NraGDJNz/Rz6VyGZIc8Knke98ThOSCgCl/PSJgrljE+c3mGRXK/XDaDvm5ftrze87y/bcwCPc21QzwOU25alhNLIvJYMykar8hnqOIGrq76ZDwycYHkCQddKiLWkRdMhLg0U7LAJfzd0BqvOhS73GTS/dCj3zSLTCP1+QryXV5TkoDXFed+JU0RQCSbMIzenEawahrgZD1pA4m5b83QKMtXuCQCERiCcQJtYCmIibvQC1w6K7LFsMoJSM5Vza1QIHeHw/BSu76qW1VH0tjJE34hboS47NO0AXeVHSMSbM1sb/DDPzgvSijUcphjEyQSIhGXcOe740bPk++o118oRMmxb4Q61Y5i5CdkVHJOQ+8pl6s1v5YC4zcZEFdAuYfgzkJOU/BAsrT256ea3ViTTzCeT0h8hNc9zw8ZVFJhEmi2tBY5HN8nSIwVmA++HSM09vksN/7C5/8H3H/f/UI3zH+qqGKhMoONbYO4OH8O9XoV5UpFZAw9VQk/y3ia9cpSNf57pVxGNuumAhaLRfzNf/sKnv7+0xjc6RLI8D6Sz/dsJ8oPkSTOgAr4MtBvQ1pg+Y0AACAASURBVJr9BMp+jZLx51vWaqhah9GxYgXDe3vRv6lJ6EZjS89VYpjoueI70kBgNNExotOmDDkU2WOJW4gdkuH2UA+d0hLTCq6soBFDwKU2EiifFmkkaGyMGJz+bpHGTf2+YiQ2Ypbr3pFzvEfYuKYR4gOhTS8Zr99JXFWhWSTt6audLCKavTwSZU79STbzCkQN16PoezoLaLXKEddzjXNOSxrp7Tk3XRzrTE3rzj2Zeug3bmmsVubgvHaxqRS6hFAo56xrTooQlwRqjQkMi0TAuZPNMLiueeZZFCgUwvYG4YaRJhlqBHieJkiSe5BMRykzo3QNuFAfooxjpi37rxwMEdhe6sTkp9d7GGVv7uzkdDKGGzz0PiEQpFFy/vszxCZtXbUnTJyGdAV0n0CPPLT52Pq6d6PPRGfAPFrpmtKnkMIsBVIZfAPytofGjR6pTlu89ORFPPzZT2F4eAhLxSJKKyuoVCpYWVlGS4Hc4C0olUqugF5jo9GICWUIKaxC7IaNVs/aQFgjzUiAmmckCScFy34CCoBKTCuAkNEqEih4CzEMQikTKgDBceg5Z2QsWMoZBldyoYbz2AZv4h2h/GDcIIqo+9AR8hINOLLpip07fQGf+vhnce8778V3f/yEiRZwXVdW0ZJvRa1eMVUBUR35fF4MBZZh0yBYXV1BR2cnWPlD+uLyahk58SqJ3s+KnJicnMTX/vbruHj6It5x393ea2ZZxhzY66FIDy82lVf+94rSCVho5GEIjU5or09PT+PlF48g3bWEzVvdMjUqYK9dMuV1nJ61P4xrhJGZEE7HNHDyo4EEROp0qUll+NgLzg8jCTYTL5/P99u4pQscU/vgPMxNWi3H4z+uJa9pJJC7xomUkt9kbkU4PTx5KvMdkLNpOje+HOdcaUwKn0VjKwTElfVXrKJ2dNEHubyBkrg0XcK84sBYr15h2rG/2+1yud5rk/Myw3nU2lI+1w4jWYxMiSFsjtRHfuPmiHn95fmysxhEQecz6CUJiWZTrNUl7KqRymt59nwoEaXaA+SGMx2/mp8oeRBBdbvoXsEalAM96GPvzyt3iRdnSCBRaIZ+F9kctO7DodG1JkbuH1DqqTWMA4l6rGHEhN6ThlkYWxChotjqZJLXMA6EGXBzIF/OfJ2ieOZ9GO7UKRf+TuWqO0ry9wzJggLoagqHatnXLofFQPgkyuUVI/SllJELoh6HWDOiFFiuxOFNDDneiUs6IxweaRHW5WoNGXqDLS0ol8voaG9HcXkJWVUBwNAx16G0IpddLyQZxhuNGKUyizOXMznoSqWMTCaLzu4OVKsVtLW1YWFhQd6FgoeYFZl75gAbBFuRAID491rVNKlJZzJyb+kjER+8LpfLoVKtoq21A4tFhoWb40S5xvxoY/Oa8B0q5WZONsnDsi7dlAOS2ySDLEFNtRra29qxtMQeExxAfqu5B498LitIdo69Lc757zTWm881VUL8Hq5PPrNQaMXyMqtFTGpSDLS4XXmhheBhsmEyfN+8M9+PpD78XwE1xp86enEcn334F3HPvffgrx/7S4yNjkr7YDoe+XxOZIaJBBmQMFMOHCYG3/iNNARoqHEMaKhkYu98eHgLNm4awOTEFB79yqMYPXsRd7715qYtHceQDV+9z9sv6Y1qtbHGZB5lIZrUAZ/Hea1VKqjUakLta6fKuB75dym5q1Qb/C98nlmHdJKayqulpQXT01M48soJtPSuYvM210CgwRiK+FAxtrC6RBmqNMjJeaLxR0nZp66CYUSU36jdE2E6JMg7YOUYciQ/lN/Jjr4SHbD+Fpm0E/etfXDOQo4IIzshavXl5YqpMIuNHME/cK8lKU8lahj5CzW0k7UZCPfRuFoJMI9mGX2drCGl0itvpLCLpSrGSEd9hRUJG3rbkQuAfd/ouY39255Gejgv+46pT8o/+1WScZDZes8nr4s0CI8KnXXzJBqyN7QpszG5CTs8xJub7mNudYEB8WTBvuvak0n4DpwxSpvudXrRc2ETmKI9V75PqFRxLbSrzP8aaY9QuR4HdC2inrWNA5ND18eaxsEaynutyAEVt5Rs6nJQGlsBYhipdw2UxbEZEkvxvPJU6UDoVyFQQIdapNJI1OtHxk3K2nyvk/Mdou5lauXQ90fx8U89hKnpCflnYWFeFBDBoIkRYBRv3bAzgu9pUcASu0AyEiKj2Rwqn8fOHXuxXCqht7sbM3MzmJ2fQrnKsGQS6SX5lukVwbHq6xlAJp3F5MxoDFw1M8lae96cxklboRV79uxHsVhEb28vJib4vuMoV0mkEhsI8QIwSjqNXJr5dCKQV+UX3o5r1w7jFloK2LljD1ZXV9HZ2YmJqSmMT1wUpcRDmBwtwUCFdN01N2B1ZQWvHXvZnBN38aPyNhs/Qkd7B4aHtqG0soreni7Mzc1hdOJcAFFPT9ugwlPVPUCqiCh9Qc5zerTESrGnpwdbtmwTZVwotGB2dg5jE+eMIRXLCAoZRlvE+65UcU+lijOZDEYypr0jFSzXBJVUIpuXFir40hf/Le55+9vwX77yJzj62hGMHD/SqEziNzISlEIaJAXikVxtqpOMYpMxiBVcOpvBu+57D66+5lpcOHcBX/2bR3F25Cy27OhpRLKSVKThOcjIHAnYK1YwXB80AOX+8djyGVuGtqGtvSDRDBqPy8tFXBw725gP834GQGaMwDxuvO42PP/isygu0wM1BiWNKPFuY2bOXTv2YH5+ASeOnULnQITN2910CO9r+lb4xrZJCft5KnEWAg25qFSDqb1ACXuyFhld8BszGZ4GDzROCm5WA6hIBZ3Qjp689zvTELNTK14EI2lWp+VfQ+krxyxZu171SM60EggBW0NRN0OU5KbCuPRaF+toucxqBvYDujhVwuo6wIohPdPWmkN3h1+mvF4DAcRyDeeRajU7zvTK8VP2oi/f9gAbSjYPgjN6AnzzFKAsmdOHAJjYtElZk2vRxxoFESgDFJ2a8uhRaWSEOPRFPQTyt6JQQrk/WbHhbPBa5VGl5XKQvGetjok1WmMhDIHV4ZCvQeyAMT7CyGvzDb6RYSo2wlxcIUIYqXnu8il8eZ/5yZIPwBSP28+/pnNpDO/sCa4/hvdCCH+GFD07KUW8A1sS+982O1HEj75xFg88+EHML87h3PnTmF8cl3GQlt+RmW8aWvx3cTro4dNzlEUujr8YCInwKBTacfCa20Qh9vX1Y3Z2CmcvnkatNi8h3uS85G2u2fUWDG68SgT99Ow4Tlz4EcrVBdRFgFOZ8ZEp5LKtuGbfrXLf/v5+XBq/hLPnR4BoqcH1n6w0+d/Vjejt3Cz3PXX2KFr7ShLJYORlZYUtfc17t7Z24Lr9t6BUWkZXVzfGJycwcvI1pDNlOUciKrF3RuPglz77O3jH2+4Tz/yxb/4D/u6xPxUjwABOYwBkFejq6sWuq67DUmkFvd2dYigdP/UyWlpoujSLa7h061EHKsUPoF7binxLAbXoMPId/4CVJRO1oWdmPJ8IG/o346qr9kuEprW1FXPzczg6ckjuS7R6ohjT6Qj7Vmr43FRRPM/eFPBCWwH/sYcGahy9EAY3071yZTGFX/3C7+Cut92Nrz72VRx+6SX8+Jknkc83I/Y5KYNLO6F6fgv3AblDku83Y8u1mMbHf/6z2LPvIE6PnMajX/kaTh0/ie4B3jPGLTCaIS/hYplsZVctM51hRKYo8xSw86rrkMu2o6OrIL/RsD159hXkyOIdK3GheE4Bg21d2H3DVty6YQ+effkQnp64hNJE0RgyKY5tHflcTujFr736JszNL+PE0ZNo31DD0FU9a3q4oVJZGgihdCDJksIlxGHZaZyMQHkqO/8GlJzIKc1vEEuPtq6cRPbsgzLeYAxcEUMjYWaiFOyLE5I5Ai4M9AERJajKGmVtEqy7FuZpDZZV4mPsMaVx0LYYKLt/A23906QZaNT0d/utAtZtIPDb+7NIE7BoHezw6qWgPvrFWyIzoaZlbaK8kusMsxxbZbqzlyCbNcmSsFjlaI26JDdJlEGIfyyTxFh4fmdIKcGgFa+ea6K3fl7eALJMjbgO70uoM8DolXC+a7tBSvtIM6oqJBJCG46HfUh+lG2rA5vCpAh8w4So2pCiNOkGH9wp42QzXVovEDIOeA8i1UPNWBalKZYLrpESwkB+XvpnDHcG6vojXDq7EDQOQlTUfN1cS04qQDSmgmDFmUtFHH5qDB968AOYnZvBxdGzWClPitexoX8Q/d2D6OrpEa+Oo0n/MVFU/IVEnZl0hNNnj2BialRGp9DSjv17b8fU9AwGNm7A9MwMzlw4hUyaOUvmgSN0t/Wjr3srBnp3ob2dqOucePDiJWIFJ848h2L5koTjaJTSW6OBsHeXMTxsAyGTXQKVoci/WgEt6T50t29Ff98GiQgwHTE+Po5jx46g0FHFwvIoylVDQMT1XmjpwN6dNwnOorunC+MTUxg59RoKrRWkUzQOq7h69/W449Z34N3v+DBaqMBrJvJBJT0+fgk/fO4JfP/pr2FuYcJESepAZ3svtg4fwNJyCT1dnZiZncbJc6+io8N4ery+troNtfINKJf2IsNoB63X2HhIR6tA9gWk8z9EJl0UUCgv7O/bjKGhq7GysiLfNz8/hyMjh9DVaYCHLfUIu1aquHG+jH3FVSxUarhUqWFLJouubF3Agz/qLeClzhzOtrUgYgiaDJLzaTz8C7+KO+65Hd/99vdx+NBL+PGzT6KtHUhsf/GEY9nQ3F0mjsBncx5IOGxoE8iul8ZDn/oF7Np9PU6ePIWv/+3XMXJ0BL1DQCEfA0XjFANXFw39ljw1vIlGyFjExigpd6WyIDZQtg1fh0y6HW3tbECXlXE4c+FVtLExKuVSlMbeXddjqKcLq7vruFRbxcDQRhm36ksXcVXrtTh24ihGTh9BsbxqygNTwN7dN2JmtmkgbNraFWYWjdkVPTxS3B03BIpcy0gwRE++MSBltAHDPtzVtxnZCEYSWpsgQpGPjKq0MB3JiI+r5kjYR8C1NmhoSDGt7IEOyfSbzxpWYKUxGQXTqVzelyXbwZRz3PgseSfqkMQhZkRB5FAN6JyprYs0yX6dxeUKRqdcPNV6FTy/ubuj5acDK7amkNqSR9qJLhtnnA5/o8zxoV+/OSKpkSGIaL4iFzYV4fSFFcyM+ZGDJMymP0rC+wHrS+hxQ4CyOH/X1pVF/1bDp07+A3pYIcRpCGAiCPcQ+CwGTAVxBSwbCuScuOhYr6xDZ9w0TJf4wLS6sE6GanmNRRzYbGsZBwzzBbAIr2ccNEPl9twZXvNQJIVd5IhQ1kcy5s7vJP0Z7DDMa3bqkBGIqRLmAgtcyloDpOEULh1dPhKZxiGNA0aVaCD87EMPYHZuGucvnkEV08jnUrjxwDvx5gP3YGjLAF479oIoa4Zpr7/2drx4+AemdBMRhjZvx7PPfxfPPPe4GGUtYiDchlkq8r4+TExN4sLoGUSpOXS29WDn8JvQ1tIripkeOT18KlwqaArvS5cuYW5uFlH7SUQpk9agEZjOFLBv162Yn5/Hhg0bJIJw7vxJpNNFIMqiutyGgf7t2Lf3GgwPD+P8+fMyrGfOnEFXV5co+i1btuDY8VdxbuwI0vklCbHyfXfvuAml1VX0dHfi0vgERk4dEQNh9459uP8dD+HggVvR3WV6u9GYMcC8VXl/rhPiAEYvncM3n/gKnnvxu2I4dHZswPatB7C0tITeHqZaZjFy5jDa25j73456+S1IRVtRqeREOVWJ/G8piEaU/6vVkJFnXQTSTyOdfxmpVBW9PZuwZfBqVKoVtLe3Y2aWkYnD6OgAbpgr4Z0zK4iWqpgqVTFZqWGV7xoBLazGyEboyKQxlM+jvZDBPw904Ec9BZQqdZQWUvjML/4G7njrbXj8W9/Bay+/isMv/lAMGnqfEr+g0o9rCgTFEOOKuU7LK0wvxNEOCnVQmafwwEMPY8/Vb8bpU2fwtb/9Gs4cO4nuwRTyOSqaWJ0ItoK4BtM8jOnCGhHXSQSLESqhRDfCklft2H4QqahVFBOji/ML8zhz7hW0tgHDnT3YuG0AfVu3Y2F1CWcrU6hkaxjctgmd/Z2oFFfRe6QOZIHcxVE8PXIBM8tLSGUz2LfnZszOLeHEkZNoH6ibtuTxd+n9K+ZQAPdEmRtM6cX4hZCMZcjZy/ULeRG5OfzNTRlE710/3lQqVYKN3br7CqbVt6RTEuFCvoUVP2IcsXFfzmN65PPEEfVK9IHZ8SW/1DYi349f2vnaD6fXBBqaYFnTQEx0SQOvQBxFJdD4KaDtt24sYKDHYIhodJ4dW0J5nUy++nasZGBFwxUfXMcDGaS6jBPuYIPilKKUOb7nUwciD3kqjXPSGDu5hP07bsa+Xddd8Xus98LzF07jX559HJv3tK2B8o9DeuqGskjYAlnnnl6v5j9ACMWdTmXFvvX2IVZixuTTtXEiII8AlW2CdvarD4zyDOW9+AwxDnSwIe7W6AkE8RrCo0uOfM2/zzO5WaUbnjKt5dkBnEKuNYtNwz6dKnOPU2N+5zQx7gKlRPydbZwJHtMHGb1obPCzD/3LRfzMh94rSHQq8kp9EvlsCgeuvgfXX3MXWtpq+C9/8fuo16ro7OjBr3/+9/AH/+dvoFotixK46/b3ikJ85sePi9DJt7Thmr13YHZ2Vjx9YyCcxrV7DmLn1oMCLqRXn3jhDNVTQZ44cQJnz5ocMgVQNX9aDASZnDoJXEwEYWF+Hv0bNmBifBxnR08hXcmis3UQ27dtR0dHBzZu3Cj/S+W9uLgoz+O70Pjge/I3/neVUYSWKSk33bnjJsE2ML8/yRTDmaN4+MFfwN13vgdDQ0NyLQ0D3pOGQbImaSjw3fktPIfHkaMv4//52/8dxaVFDG+5Vgyfvr4+TE9O4uWjh5CrvR+p9EHkCu2I2BG0Rv4Cc/9MvgWV0jJynV0y3tSYmdZW1JeWkMpNArm/Qk93CsNb9gsmhJwFNBDOnTiMfzUzjx1LK1iJUhivRji/uorzq0CC5eIy78maSEt7OoMu1ndnUojac/hP/a24UG3BZ3/pi2IgPPH4d3Hklddw9MgzYngIOFKCcmz+ZLAm4ivG9AL8GzmwGIxg1IVRBILVaLh++COfxm4aCCdPSYrh7Mkz6N4MFArc/MYYkjXMPBaD/Ca84q1Z9q3LMYrJQFFUx1XbDiCTMnge4iLm5meBdB2feegRzMy8ipFNYxifm0NrWytq43OYmF5E/94BzE7MojJXxp4b9qGrWMLR507g3k0HsNxxFR7957/C8PBezMwtYeToSbRtNAaCvJ88xz/42qG/CIYrkApgRHStyqwGaFc9hniyIFGXOGi+M7S6XBYHSh+Ujf2bWZXgfgkj2ZQHOq3M6CY5X/SzacwJ5XVgQCbZFE6ls/k400E0K92Jx0YW8YF3PYxMyKtZr/Ja53mHnn8ai+PHsaHL9AGZnFvFjNI367yVzNuG3ragUbjee0SFFKqbTCWMpHED+I3Ue9nuOT6MoRQhn0tjenQFewZvwe233oVdu3at95lXfN7Y2Bie+sGTeP7Id9CzidalmXHOGxm/dGiIVqvp8sWz3NVBtKvkzJQiFHEhSHf3NZMWtXI/628cMFZfmH7Z7jUEVdEr0dEJllrOTrE5kM+gwW8KESOR/EbK19QiNwEO4zHZBw0Zpgn8iIwBsYXyhfwWiRCpGN6akaB0Cu2B3vQc8BC5CN+PQiXEn0/Sn1CtNZXa7HgzzPaT75zF+z/0PiwuzWN67hKAGTGaelp3Y8fWN+HWO67HN7/9N5JjJsr/wz/zGfzl3/8xW7KJcL/+wG24MHYKzzz/bYnb5PJtuHbvHZhfnBfFODU1hQtjZ7Bj4/Xo7OwGUeL06GkYUHlyDTJqkCheU4VQx2r6lJDqcDbopdHT37fnNlH4NDympiZxbuwkVqbzaMkXxOigMuffqGyvvvpqiRrQIOA70JOnIh8dHZWUA3/v3lhG/+ZWbN/6ZhSLS2IgEPx48uwRfPKDX8C2rdvlfrwv8/1JtYLe1PwWvtfRo0dx8uRJPHvoayjXihjafK0YDt0Ea05P47XjL2F17oNoaRlEOt2GlrbeZj15HDkgwKNWryIjxFVZRLUqSqUxLC9dQM/mpzA4yO/cJ5UdSQTh/LGX8MiZSWxBHe3pNEqo4+XlGphVX6oDy/UI7cL8FiGfjtCfyWFXIYMLlTrOlCOcTaXw5PZNePiRL+C2u27Fk99/SgyEY0eeQXs7nQSB+onypuJnE7jdxSr62AiL9ylkZKYSIz2XyUm1APfSAx/5NPZecyNOCQbhUZwTAyESTz9VT2OlbFIT3HOGMsRsyIbXaMkAE242Ie6rth1ENt1uejBEEAOB73X7m+7G8sKzWG6to6O/C/mufrx68Tg6N2+U/XB25By2dTBC143Wjk4snbqAzkurWEjvxqnREQwM9WFhfhnHlYHA15KQf0ArSq2/+l1wX0kTPCVL1jISJPLASiavrTudR3KvKIEoEQafk4WPM6lrn6qcijrEAMtoNkvuPSAimRvZ8VHhIRLuG22g8HrSzC8EsHMst1+ezOKaq27Cgz/70TXJ/K5YoQUufPnll/Hkt7+OxYkz2NSbl/V7epQpOx9kup7ndncW0PbTcCKkIAZC1GIqQEQ/CdWylbT7+G/dJm9n6GqNdzk2UkSu1osv/tr/KIKVAm29BwXT7t27xcO5nIMeCBfdv/lf/jVK9RlsvKogRkHvxlYTilLKk1bmqqD23acwFMU2xR4IJwwFkIuLM7yXr9CZL2eLZL0Pk45/2mgtl+u4cHLWtI1W77VWDwFukvYeMoW5d2PIk+Vp+qCwmp1Y8rsTxp0IQ9Z9gs8IzYfBNbh/SXAkXgSEHh83aIhPv2qIj/Qh91Jd0RKhy41rg2ISA2GptIjpuTHU6tPIZCJct+ceHNx/Nw4cOIByZcUYfqKoC1hdaRoYzGn/3df/BM88/4R8Ew2E6/e/RUK+rDZg/fuFsbPY0nO15Ni4RvkPvfmZmZm4TM+E7umNc93ToCunT0qYWRgexUBqw9V7bpdcc3//BkxOjuP8pdNYmshgeMtWUdA0CLiet23bJu/NaAKNECoVphp+8pOfSIqCipW/t3QtYsNgK3ZuJ0ixJJEHGginzh3Bg/c9gu3brjJle5UKNg8OSuqC19IgoLFBY4eYCO6/lw4dAsmA+A4j559GDSUMbr5GDB8aCHMzMxJBqBUfQJRqRZpt1KMMWluHkM6wn0dGOAcKre2oVStSmldencb0xE9QrRaRyqaweesxMRCGh/eLgcDnSwTh2Et48PQEukimhQjD6TQKaWAxHaFYrWOuFiGDNIZo+GWAxSrwFBVCPcJslEJnLo3vbR3A53/1i7j97mYE4djR2EBgVIDh/hgPUCpV8DtH5vDWqRL+YUsH/mxnJ6rUXVI1GSGbJvOiUeQPfORhXHPwFjEQ/v4v/l4iCD2bI7S1G5Xa8LIFlEqlaiIVZPCUlIMl0rSBkIZp6ZxEEKamZrB1YCf2dI5hQ08P+q95H4rTJ3F+4TCm3tSN1lQHpqcm0YN2vKXtNlwYLeLwk38vJa5jyx2opsvYsXsbFheXpYrBjiCI47RGqbZhIvXdaTESWHUQUEY2S6O9f7k3g4RXMVNkSJ4YKnA/kpC0bdbXCPNooDkc0zgzE2yH7aLf+a5BhlRpOpTxcBL8bnbpnBlvNmxbLdVQnKpgx+br8cgjj8g+CaWh19JfTBlyf1KmXM7Bvfed73wH333iG+hIL2BDZw4XJpexHNA967kvHdSN/e1BQ3E91/OcelsK1Q3N+eI+sbs6pz76m7dG5ZKh0zX1nlWMvQbs27cPn/nMZ8RbIVkHvRwKOYY/KVBpOISOp59+WkK0b3/72+UaGgvM7b7RQQOBQuaP//iPceTIEfTuqGDT9g5hNbtwck7y1PJBcXtOn4WLCoOd7sJds0MMhSxvk66VSkMKYK8l3KBFlG2gYQg3U3HOtXp7BzrQvYGo/TAug5GDjh4/L7+WQudrzo4XgzS2IjAC3SZf3zgIs/jRigzS/LZkTemikj+msU6YUUzSP4FGNxQYxELYQ08D4YMf/hmsVpcxNn6+YSAc3Hcvrr/mbtRTS/iT//rvxZjt6e7Fb/7K7+H3//DXUalVBGxz9+3vFWVFoB5TxOQ+OHDNXaI4Ozu7MDMzjYuXzmJT+x4UCm2yjnkwcsB/p2HAQ8rZKobjoLunG3OlE1hcmjJYhwhob+vA3t23WhGECZwbO4XliQxy2Tw2Dgw00hZ8NnEKe/bskXs/88wzYohwrfMfRixoEGzalsHQ9m5sH75RIgh9faZ8khGEj7//l7F502ADnCs1/pkMhrZsESwDDYTjx4/jlVdekfvRMOE5fN+zl36MKLWKDf17sLC4gIGBAUxOTuHYyGGU594PpFqRoeFRNsC7fL4HuWwPMvk2ZHJZrCxNorh4AqXlSwL0o/FQr9ewadtxDA62YnDzPrC7JsmJpqYnce7oS/jkmSkUK1VM1YBMFGFXLo19rHfPkF8eIAUGde1TK3W8uBKhQgBmBHSlgZ6WDJ7asQmf/eXfxJ333I7vPPE9HD50uJFioIcvBmbdeNAfOT6LR74A4I4Cov+tgvlHZ3H/nUONrncJF0M2ncWHP/pz2Ln3IE4cH8E//s2jGD19Hh0DEQqtLGOlAqVRToOAZZl1vPna+9DZvhHHT/0IFyePoFpn1NBkHVhQkhOQYh3bhq9FOsWeKqYsnNUcJ0dOordtEMOdyxjqL2Cl4yAGsxfQki5jeqmOrTfvw8Vz5zB3agrLlTaMF3NoKZ3GdLGC2ZUCKljEjbfcgOLiKk6dOo2eLcBmVjHEB+Ugqd1DVQpss97Za/Bc9kFngF05Q4RPpi7FP/IkEAqwaFIEkOpYY68og4RmOmAksEyQJX6CD7GNmDUou0363yetk/lvcIy4c5gH9AAAIABJREFU70xmSK5nfZBDg6lRplumz5Qxc6GO97z7Ptx///2yH7n/qfiTKNvgICNrYWI8GvZ/+qd/ik9+8pNi5G/atGldxgINhMOHD+N73/seRk8fwUAn5UkdE7MruDDhd8x8I53Jv7e2ZE0J9jqOLZu60dHq6uIoC1QHMoROOYcYwARifuCRG6JkklnKNPL8LN7+1vfIyR/84AfFQHjhhRfE4/n4xz+O559/XkKXDz30kPdKp06dwrPPPiteDEOhO3fuxJ133imezhsdiYHw53/+53Lq49/5Jg6+dQC9mwoNA4Ghp4Q/wb4fFTAR8iHP1qzDQJ1wXKLjGRpCtRrujJZQdXpgnGqE4rxfjtM30IHeTezt7n89Gbrauxk10ZGDhJPc/Z0bgmx55FXXBw2WtSiE18ox8rtD3gR5KEJRCP7G8F6IPXCtBlVMaWQCnPFCTLRc8VjXXvj2OTz40fdjeXUZo+PnUK1NieA+uO/tEkGggfCn/+13ZeF2dHTjt37l9/AH/+GLWK2UwSZhb73jfeL5PvPjJ0RQt7a149p9bxFFzlQCIwgXL53BYPfVKLS0iRHAcWWo3wYfUdBTkXIN01OoVMu4OHYSc8WLGJ86K+mNXTtuxPzCAjb092F6ZgrnRk9ieYLoaTM7VP6dXV1yDxogjEYwSsH3oEKnUKKxTUW+edMmFHpKaO8G9uy81YAJY36FkbNH8LH3fR7Dw9sadf0JeROvJZL+9JkzYozze+yGNXzOiXNPC/fClsFrsLS8jD5GUiYm8crRl1AvfQipqGAIm+o1q7kO03AtKK9OoFpbQK3KLpSJJ8eKgCwGrzqKzUPt2Ni7EyulMjq6OoXU59yxQ/jE2CwulqqYFwBWCt3ZDIaywMZMGr3pCEcqwIlyHZNsCS+ESkxHpNDHZjSFDJ7ZuwWf/oUvNCIIBCkeOfoMOjubkAA6llQyHzsxh1/41/cCH7gb0X+4iPnf/SO8/64BSafRkEwOCvsHP/5Z7NpzPU4JBuHrOHVkBO39NbS1mT1HXUSwXVKrf9O194uBcOzUsxidOhJXfJjSDq4XcuNHaWD78HVAnRUMOfHepZrj6DF05zcLNiNTX0a2tRfXbSqhpz2D5dY92LLjIF78wT9ifmYUxUoLppYyqC7PA7k2VKn8K1O47S03Y35uGSdPnMaGHWkM7XSdMhoI89N+K3N+M8uSvf4nEUCQcnHej/SJHg50J+W9WILotQNmM62lMubYoVJFJQy3gS/beC9WPZD1Uh8S+VhD0SXvpq8JGQmUzWT9tJsQmesMXwRTsxdeBG644QZJ2SUGAhX3q6++Ko4v037vfve7RQbog38bGRnBN7/5TTHOt2/fjoMHD0pE742OxEB46aWXcO7cObz6ysu4Y383Lk6WcPbS3BtdHvw712AhABwNnRwyEMTZG8ii2macb/sQCM7PfLaJQVjLQHjuuedw6NAhfOITnxADgR7+pz71Ke8dOHAUhow4sOzp3nvvlXMuXrwo/9xyyy3y34ww/PZv/7b8O+/5wAMPyEaiUE0MhG898Q3svrEHnX15TJxfEMVIwfwrn/st/P4f/Vs89pV/wdat2+Ue45Nj+M3/6Rfx8qsvNd7pwQ9+DCurK7hu/0H8wX/8X90Pr5uFGjoYgfBKaoTxzpQZegubEYU1WK3YClXaoarD5P0DqBpipcphTzzNPH6gFlmqRtZoc0vjwAdKEm9W8/uwSxkiGS/dioXk1QPcT/InlsUS/Oh/I/ku/LwjzyOvQigM+vwT5/GRj31AyGPGJi9gtUIDIYVCNIitm6/D5z73ubhRT1zqmM4IoPGrX/0qXnzxRdxx551YXD2Lp39EAwFo7+jE9dfdg/FLl9DW3i4K/fzoGezcfL3U49P4pefANSulfrWaKPQ3velNAh40FTlp8SpoKFRrVbz48vdRXB3Hvt23YGGhiMGhzRgbv4hzF05i6RJBglQcxhyXeY4i8fTpaVAoMHVRXl0Vw2BwaEjwPVIxMXMU7V1pXLv/toaBMD5BkOIRfPrDv4qhwS0SaWA0LgEoytofHxeDnNEOO2UixkMmg+PnfohKVMKO4evFgOD1Fy5cwKmzx1Ff/hAyuU5Uy/QEyU5omAAFoLhSxHLxbEzgQ5Iycz+CdFLpDIauOoqhLZ0Y6N9jUiQtBYnQnH7tEH720hwmyxXMsvacpaEANuXT6M6ksCWTxg9X6/LbdLmKcj0luISuDNCWSWO4LYen9wzhM5//Iu645zb809f/Ga+8/DJGTjyHjg7DrZHPGE99ebUixAf/9vAcDlwq4f/a2o6ndrWjzAif5N3t/ZoWkOKe/W8W7/6rf/2POD9yFu39dbTHKQaT24/JtiLgXXt2oj2Tw/PnxjC2soDVCvFZ7kpnCmP7tgNA1NKoJGGVyJnTZ9GVHcCeffswNzsrxmmtsoyhrgqy3VcB2XaMn3sZ1ZUljM5Ukc23SepopVSSNENxZVwMhLnZIk4cO42BXRnPQOCbzIwxohtIj3bksWVnT7CijAh/pmdDR0jGUb6wCVSoF8rU2GKD88K+Hw2urg2+cyQl9aqlcuO6NSIJZi+FWW7XjCS0mTShPthC/OTTZc9AeOqpp0QH3XTTTXj00UdF6e/YscO7njLiW9/6lkTqGBW866675BzuAe5DGh6JzH344YfFCaDe+9KXviTpPRoitoHwtoN9kmY4cX6m8awbb7pFjJNvfuMxXLVjJ+552734r3/2n4PzxXFmFEHL07b2DqyUlp3OmUEDgSZ8J5kVWwSnoqm1Ux/6pTebKE69juJsGSd/Mod777lPXiaJINBA+PKXvwyGXegFMf3w6U9/2nlhCjkKWv7v448/LsKQwpYeEwX7k08+KcYFD96H0Qj70AbCP3/rGxi+ug3dAwWxUpcWV9HZ0YUvfO5f4ff+6H/GP/7F9/Cfvvx/SA779lvegq/8/Z/jpVdelFsynPz5n/8CRscv4G13vwuPfeurjUcdPf4qTp4+If/NsO0N190o1LI/fuGHWCotoauzW8Koc/PxhMUdLIPGQZwHvOOWu8VIOXnG3FcQ1bW60BiTrdA+ONbijGkAJZWJcET40Q4q1NDmFBDjGr0a1jQOIlrwPrEHoy+hCAHffS3jgOHNpYA3wmtI/xsq/WSYOkQrzWt+8u0L+FkaCEsLYiBUatPIZiLsGLwZ+3fdhttvv108ZY4RFbcA7mZmZN1RAXO9Pf3CY2IgMKpEXoPdO2+Rv3V3dWF6dhaj42ewpWc/Wgsmf0/vmffgvegNUNEyV28Ll8SIEABjNIVsYRn7dt+K+YUiNg8OCG/DydNHMXWmLCyMJLppzGNseKzGOAeuc0YHGJakgcI0Ar+lVBtFV28W+/e5BsLJs0fx0Hs/J8awAE3FuDRsgfzvC+fP49jx4+INJb8nf6MwO3b2h6hjFdu3HkRpeRldPd0YH7uEV48eRrTyIaRSbXE5Iy23FCKhEs4gqldQXDwdE08ZCuAEMEvTdmjncQwOtWND726Ultn/gDn1KZx67UV8YnIO5UoNry1XpayRx8ZsGvsKWXSkgB+s1jFVrWGhGiGhDunIAP3k3Gg1BsLPPfJruP2tt+Obj30Lh188hBMjz6OrOyM8UTnxNDkOUi/2//b2JWBSVme6by1de1XvG9B00yyyioCAAq4IKKC4BZdoTBxj1Hkmmps7ea53Js9knMRcE41eEyeayfXGGCcakxsgboA4AwmubNJsTe8N3U03Ta/V1bXXPO936m+qq86PjDeT8zzadFfV//91lu+85/ve7/1wvc2HspgNbw4M4KQ/oSgqAhDOOs5TKStuvU0BBHoQNv16M9oaWuArScJLXXqW1mV4QUrMK2Lw2tnTkYpasLO+FSFrRHgPvCcjUfypRA+tqJ48F8JBSAPD/sEBtDS1YkrlbPEqcP7Q0+Nyu2X+Dg9Rh8OC3l7qa9gFUNLbxDnHjSZEEqt1GBdfsiANEJpRWGVB9czSnE2CY31GMopyN/ziCi+KK84WeDI+zE2AMXmdB9GMtEyPp7+AVXZzDzZ9PSMiRZxtuuh1YK0XHTveDCSc25OQq9Ao5tYoMJjVO/SGZktmsxJxy4fxzw0QWlpa5C67du2Sgy7XMNf0gw8+KHZo06ZN8jr//tBDD417Ih1AuHp+EVjhcV99D2bPmYc1163D5OpqeL0+NByvF49Gdc0U7N+3F02Nx/HmHzaLfsiyFZfh33ZsVyqmTjuceXYUFZeg97SyJ1dctQoTJlZhYKAPh+s+RWtLE8wAAoFxqtqBlC2tQmsoenJ/uemBhSkacxp7ehBaDgxqAcJneRC4CNg5NLCLFi3Ca6+9hkceeSRnQpv9IceDsO0tTF1UgPLJPinGERpM4Lknf4HJk6bgg0/+KCf6zq4O2cjnzV2AX7z8Ag4dPSin6WtXXY+lFy9DY/NxzLpgjizct7ZvkVu3tjXjZGc7rrliLZZdsgIrr7gW/+tH/4CA34/fv/k6KsomYNVVa/F/X3leGWPqkSdTmD51Jr78xfvxg2f+CYND/YLMnS6XvKe8rAK3brgDz/z0iTFwwMVCDYFMgDDmOdAE+yhlTFCR3VjPQO85OKvklv0ZRWDKjWsI8ztLqEoBAJWxoAvRcIfQ8jdSwMhAbkU2Xk/VXs8tGCUntKycW+PZmcK0e1Mzbr7tBoTTIYZI/DSsliTmTr0KC+ZeIXwWnuw5x2h0eKrnps1TMcMC/Pn65n/B7o+2CdOa+gbcyEVJkS773l509bShMn8WXA7lWhcXsM0mQJaL2kh5ZP/xc/R8EfTScPOekeRp2N1hzJi6RIiABAjMYmhpb0BXwwjstjx4mGWQFtKJM/0wvbEPBYNyMiEwISihl+3IkSPisejuOwZfoQXTahfLBkEQQQ9Cc3s97rzhAQEIfF7DM8B/G5kQNFQ0PoYhNsAJfx5r/RMSCGPyxLQOAvuhuxuHjjLEcCNsdp9K5yNRi3oBdgcsJG6GhjAaPqk4B8JnSMCa5mgkY3FMmtaAygk+FBfUYnRUCSWJB+HwftzVM4CBaBzd0SSGyYanWJPNglqXDRVWK7aPJtDLKq0SJlAlA/LtFuTbCBDs2D29En/1wDdw6RXLsPWtbTh2+AgO7N8FfyFrSpwNMxCycCktm1QFH5zYeqgJUddZ9zmzMyWfX0rRWyWLQXQQCBBe3YzW4y3wlzJcRQuZVucUYSQ1K6+fNwuIWfDe0WYEMToWhjCyl6SfLRZMmXwhrBaXqhrJEMPwIBobmjGj5iJJhWWdCr6XY8Rw1+DAgIwtPabMVmFIyQB35M1wjsfQj0suW4z+vhHJYvCXpzBldolWVpnZQwzZZZsVHhJ4SNE1ev2yxdJUqndCQhO6AwnrJoimQtYF2cesD5MdajB0CrQ5mSnA5bVr07EZGmK5el1jOrZO30XGTGNXs8FJJJRA58HcEAM9CATr5PIwdLBixQqtB2HLli2y7ubPn4833ngD69evl1D6+TQzgMD9ZeeBDpknU2qn4taNd+DVf/2VKKp++zvfRfepLuzbtxc733sX/f3q4PrY957A97/3j2IrOM7kFqy+7npsuPkLohFTWFSM5oZ6bP7962hqbEBX50lzgMAkBbcFYb/qQI4b7bSQy9feMy9lIEl2ng4gkINA18jGjRvFlctO1HEQMjuJn+GkX7x48fn0XU6IYdu7b2PuZaXIL3WigyTFnqB4EP7m/m/hYN2nuHH9F9DR2Y61azbg+Z8/i6pJ1fgf33lYco1//uNfo77hCD765H1ZgJMmVeNXr70oJz0SqjweLza/8i7W3XYlfvn8b3HnfTdg/ZqbwKIyf/xwJ/7qrgfxs5d+glnT5mHB/Ivx1I8fl+/gcXuxZuU6bP+3tzAaDeGm9RvR1d0pQOSh+x7BD5/9LkLDlE1VXzkTIIjnwES3wAwcSH6qazx7RE14ivXoiSl8Xcc7ENeeFFgZv4p4OZ4OdLoJCjxoho/M4JGYKrCTbSxESlofJiFZUVLMsxoBTekEP7a+dBQ3bbwesVgEJ0+1IhzrkaPa3GlX4uL5V2HWLCXra5AJCfwYy1flXVXq1b/+9jm8//F2YdpzvGZPvxR9/f1jHoSu7jZMKb9IPBxGpgI3Nxmv4mL5j0acOgh0C/M9BldB+tDShzxPVDgI4fAoyivKRMGw7WQTBjoUscfYxEUyN5mUEyI/G45GhbDI5ybIISDhT4bkeocaECi2obZ6EYIjIygmV6C3F8ebSVK8H5WVE1UxIBaEShc94liTWGUABGOTMWoQ8DmOt72PRCqMqolzxyScmWp5tOEgEsEbkUzaBVjYrPSdp5SaIecJsw6CLaKNYNS+4MyRzBqbFZOn1gtAKCmaJmEennj6+npxorEOtzX1oDuSkBCC22JBXyIJegg8NhumO2zYESI4SGI0mYLfZsWZaBL+PAvcVismECBMq8C9BAiXX4Id2/8djccb8OHurXA6kuNEuIyz7DUzpyM/z4W39h/HMEKqRoPU6VD1BRR3yIqbvvAl1E6fj6aGZmx5fQtONLehoBISYrCzWFJaXTNK4nLag2BLWrHreDsGk0qrI7OpDGsLaqvnwWpVHgRDarmhoREVhbVyXwG0gHiyCApEJKetbczmqRTkpHgyjbk9PNqJ5VctRX9fEPVHGlE02YrK6gKJ++s2QrNaMnxEcrd0TdjqmqwGnvxJrtZ5CwweWO66VzVctJu0yQ7ATSi/2KVNgQ6PxHHmlJKgHtfntFdu6oBkqdkaGdyfkTHIPa7rkCXHg8AUxKefflq8lPz3o48+ioqKinPuXTyc0DP+WXuhcREdQFh5UYmsu90Hu5BIkVwcw9e/8bd4Y8vvMXvuXCxffgWam5vwxbu+hCuWn91LH3/iKbzw059g+WWXS/2P3//m5bH5WVM7FY9881GcaG/FU098d+w7mHoQ0u8YKYZ4EYwmvLZr754rXSqno1ACzfvpQRhPUuRph5ObcRG6yIiguPGeq5GwyME9Xw2FHJLiu29j1rJiAQidzYOS2nf58pW4/56vo6WtCZMn1ciGf/nyq/Hiy8+LC++p5x7H8qVXYtnSFXLvp597AquvXos7N96DAwf34Rev/Ay9fT147O9+iBdf/inmz1uE3t4e7P5wJ+bNmY/bb/kSnn3hSfzdf38Mbe2tcp/6hqOoO3xg7KsSnSUSMeQ5nPjWw3+PHz33fWG1v/C/X8LO3e+hubkRO3a9jXgsirKqgIAEqRkxVhzobK/xGaXMsM5zQAQndenHmyUie1X7InclmLkHOXPEPZx2UHCsjcsSjTPVSOM5VDFcDVWCYR1KUWdXi+MTCVM4szxn+uvyZOXPz00Z5ctMOSSP44M/tODGW9ZhNBzCyc42RBO9cHtsmFh8IWZOXYprrrlmrNwzvwMNb2YKLj0Im7f+H/zxg21Sxc/r8WDWNAUQ6G0YGBhES2sTplddJKEAg2NgpCTSeBuncv5NVZM8S94iWEjaByTEUFuzSMBJaWkZOrs6xYOQCOZhYsUUeUYSH+l5oPcgz+mU+UmSID0VPKHwXkamAd8ftXTA5QOmTFZCSVR+JECobzqCG9fchhkZYmVq/FSmRWdHB443NMh6NEIQBtmMgOFYy5/GAAJrMRQEfOjt60N9Ux0QvhaJeKHKeohEZK4J/4Zzy27B8EDjmJKgEhpUNQ1o0KpmNKFyggfFBdMQjUYQCPhVGmlTHe5qOo2+aFzCBwPxOPrjgN8OVOTZUGGzYMdoCiHKmZMoy1MrUihz2OEln6fAiQMTS8YAwvatO9BQfxwff7QDHgoapSWvVVEqNbmunl6LAocbOw61oD8xLM+pRI/U80pdkEyA0NgkUsvtzW0orGS2S7qug1Sp4oaqSpFfN6sW1oQNu5tOCkBQPXC22QgoLFYRSsqzqWwQ9iVt5bGjx+Cxl2Dy5Gr5G3knHI/CoiJ0nDwpHiRWGmXYh7aPoYhYNCqaDZwbMUsPFi1dNA4gTJhShEg4twSz8US68KSsr4SSs9eChHRxq+zXeGgIFOWmX3O/ps3ShVzFEaWpApvdb5n3IkgoLFOp7NmNom5MZ88BCWl55M8DEswAAu9B0Mb9jWPDECBD6edqHOf6+voxbt0530yyZxYH4cjhOlx7cYXM1I8OdcBXWIGlly7Hno8/FGL/4iWXSHiBIc8jhw9hy6bfyS1YV+bJZ36CtpZm7Nu3B0ePHEZ7axOc6Qy+n//yN/La1auvw1WXzh97rM8CCFEfEM2izI0JJXGxkXDW8MkArr58jVzU4CD8Z3QQjKcxmNZmqSLZnaknKRYKSfFU+yBiIQvu/8rfoGpiDfYf3IMLps9CQaAAtdXTsPfAxwIWnnz2e3C7vVi+9HJcdOEi+X3dtRtQNWkyXnjxx2O3/Jcfv4IHHr4H993zEDa/+Tt0dJ7AjetvlXS83R/swlfu/hqe+NF4YqOyDso8OBxO3H7L3dj94S40tRxHaUkZvnbfX+Pl136GyrJJ6BvoRVf3SUyoLUTJBJ9i62uQbSgYySGF8PpK1jm3AiZfk3RUTbyRE9ysVoNUpNQc3UX/n5U2NeiARaHMYpTkquheUzreuYQpPndBEY1ALtrgdUTmOwXs2daODTevw3BwCB1d7bA7huBwWlBeMAfTaxYLQBDD6mA2hVU2RaJ4w4PAE/mWbS/hTx9tk7CI26UAAj0C5KWcPn0GrW2NyLNHUV40Az6PiukSCPB6xsmbhkIEtdIV9tTQW5Cw9iNlH4TT5VRSy0PDKK+oQE/3KTS0HIMFQaRiLnjzJqKifIKAhNM9PQIUhBdgtWLhwoVybd6TIQye5u3eYeQXM57tkBBDcFgpKZ4iSbHlKIqLXKiZNAtL5q8WI6PGWoEXxj3p0TO8IMZ3IMg40X0IA8ET8Lj94kEgoGG2AeWjjzXWwUe+RWgKRgfnjM1P+Z4pJSw0MqxAvlGamoNktadQNrEL/qJ+FOaXoqRoqnh8CHx6z7B2RB3mxMNY0j4E92gcTYkkTkXjKLDnodAGVFiBXdGU8A9YcDZIlUOLFWUeG7on+jCY70Aw6sCX738YS6mD8Pa7IrV8qO59uJ0EBUkJ47CcsjrBp7CwohI+mxOftHQiaAmnZTIUEZhlcVX6rxUbbr0LM2YuQmtzqwgltTQ0jwEEXor8BvH0xRhxSWBZdRUsMWB/xymErLExFcfMpcz+IkCgUBLZ87zAwOAgmtsOwZ5yAvEClBSXiX4FvZu0HX29vVJh1O3xjGlvGAqZo5EBeApjcHmA2bOWSIjB8CBMrC1SctrDrBWSux2dy4ugq9ZnXEHAg+akziwr8pKyG9/K8IQOkIgHzYQArjlryKVJjqbHIjdDipovIXUYyWri+WQ1Rk1au1m4gZc4F0AwbkHgLc+VDqnl9rT6i8EH0pEhdZ8xAwh8756jXegdCGHdhlukCu3MWXPQ0XFCbAR5BNOmXYDOjhPYsX0r/uEfH8drr76CgwcPjGUXcR56XbTlkM9euXI1vvrgw1g0p2bsUT4LICQdFkQLgXjGXLCsv3d+ysihj4wkcOzDvjGAQJEXqsCRVPhf3Wj4mWZCzwMbsximLlRZDN0nB0X3nwTCrz/wt/jw4924+KKlKC+rxMKLFuPXr/8STc0NeOfdP8hnV16xGgsXLsFTz34Pa1dvwKPf/A56TndLrPhrD9+Fe+9+UDwEBCXv7dyGsrIKrL56HV557UWZpDffcDve27VNTmhsI6GgoH9uMl6PF0sWLseOXdvQc7pLTlyTqirx5Tu+hmeeV6EIozFvWUhCGkIiRal0qoNK1lkPDuR0rgEHvB8Nmm7B0jDqJjAnktuk8hk3bW5AOUZIQgtRkbjNbrw33fa6Z6A8KxUpdY1eCsOgZAKEUz0nYckbkFoM1EG4cNZlmDFjhiB8I22WJy265/nTEDf67R9ewPt7tsutWKyJSorkCuQH8tHZ2Y3W9kYkk+SQAB5XIQq8NfB682G3ORAJRwQI8CTMUIaAW0sCFnsEcVsvklDzwU0lxanUQRhGOYm7Z87gaEMdrLYhlSPP2HfEh5L8yXDkeSXTgP+xT8lypsdgcKgXccsQAmUsWsQaDxRicmFG7VKJK3LDNwCC2x0TwGO3uTB3xqWYOW0BigrLZE6SI8HsIZKZ+PtwsB+nTrfg9GADkqwhAJ6QizA5DRDcXh+GhwfEg8CiSlKMKOlEJLgA0dFKxKNO2JxOREPMYmiBLc8hCoo2ZwyBwn4UVXQJD4CH7fxAGUolxKA8CGf6zkiVyHxe1wrMOhVCTXcQkWBCSIMsdF1lA3aHk4gkSUoEhvJsGClx4VS5F4l0acloyI4v3vsglq5YIjoIdZ8eRP2xvXAxxGBRdTiYicPQB9uc4jI4k3nY396FuItcClWgiQDBwbAWpTsIEG65CxfMXoS2lnZsenUTmuqbpFiTx5PmH6Td1HxWzsn5pRVIhFM43N2DuIu1ONIehDSnhPfmfJlCgGDziVAP5z8BQsuJQ5I+SVGneMgLS8IHn1d5Xckv4ZjxevkFBQgGhxAKD8Hpj8LjSyGeTIn0+ewZSzDQHxKAUDjZiom1SpiHa12XOSQvGsXsshab4h/p/e+S5kquhgZ1ME1bx00SASJNzRreVooimWRWaY0A16rXLmBEd1g5c4rCcLkHDwMk6EKq4pmSgk3jvzMBQvchm6xDeiANvsH5HmTNnv98/k6BNIYvuNeRxG94EPjZffWnsHDJCnz7sR/iVy//AlvfeQuP/dP3MalqMoaGB1FbOxVfvP0L2LvnY7z0q1fx7f/5LcksYn+FRkPCa3E5SHhVnphFSy7FkktX4J+f+UH60SyYUOaH16UAn+FllPFKkzx5hgzMDMAesItwIMnsooMgDGULRCQpEyDww0zlqKqqOp/v///1Hhpldp7RBCAsKkSgmB6EAYwOJSVl8f6vfB2/3fRrMeaUNL1h7S34+JMPEE/Gsf29t+TjK69aI8DBAAiGB0E6JV3V8eKsLofbAAARp0lEQVQFS7Fn/0e4bvUNmFg5CTv/tEO8AWz5gQJsWLcR+flK+/xY/REcOLRPvAzJeALv7tqKtvYWiW9SyKmstBx3b/zqOIDATbaiukBi65lNYtGhqDZ+fy7PAdPQqB2u24C58ehO9GbggEaEz62TfVZcBQ04yEhp1J1eSErMVj3j96bXwB9w6tUXWWM9Iz6aCRBO93ciZe2T2g7zL1iJuTOWS5bBZ7VN77yIvQd3ytu4kc8iB2FgAPn+fHR3n0b7yWYkUwogKMeJFV5vIbyuQgQ8FXDYfCobJxJCyj6MOIJSbtlAeTxlZgKEEgoP9XSjoaUezrxg+qJKpDeRsMKOAKzJAAb6QmIYyiqKYHONwOVPwONVi5ljFxqNwW51Y/qUxQJoyEE41dONxpZjcLtVuWfFB7Eg4ClC1cQLcEHtQsSikM3GlkfBlVYMDHciHA0KOU/mO5JpgDAPo+Gw8GyGR4bQ0FKHgM8uEtJqo7UgHi1APDwJ4ZEaxGJOREZPwO4YgSfQC5efdSuiivCnnPfID5SjtHiqaE+Qg8D1WN9YBz/JTlLUCHCNxjB5KIqpA2EUhGJwpVLYH0lh1GNHb5ETfQEnwoZEr9BrUoiFlQdhyYoleOeNd8Rdf/QI3a5qQ6ZAEcdBzfkUlk6qgitpx466JiR96bLc0lVqc2BtBX7utju+ippp88Tjsum1zTjR1CYkRQolGRlxwjtMG9Crp01DdCSO95vakKLrVdF/wIyIFAGKVHqwoqZ6LqwWjxD7pJrjEAFCnWRHGMLH0bAVyZgLloQXZSUTRU2TIJSprbCPIM8ZlwJUBBTM0qA2BIs1DQ2FcPxoM/wVQEW1skdsDDXoC8RZ4C/MLZ2sPmWeEk0Ro0zdCOM+UhXWo8Jx4w0ZMBqKYahPVT7NbgUlbvGC6poB7LJfE9lnUaPMammPBesqZDfhz9BLlBOiYJEqVnzkoeXspwgQTh22CkAwsk6uvPLKv4jUMucdU4zZdABhNBLHfQ99E3V1ByVb4buP/0A8CHUHP8UPnnoa8+fMkM/OnXshVq25bkyArq21Bb/7zavCy2CYgQTFWzbeibff2IyTJ9vHqpCWFXrgcmRkWGkGxzfJg6LZhTKmLKAnaY7G+7IBAl0idHXypP1f3bhY2Blk8LIRIExfVAh/sQNd7QMY7A3jn598EdFoDD978SeoO/opLpq3CPNmX4RX/9/LuGTxcuza/Z54AC6cswCrrlk7DiCQyKjbRI1JQpZ2ZjNIb1xUgr4TcWEpnxWVUcJBbCSJFPiLcGagR35XnAMLKmvyUTpxPEAwCyvQE0HPgS4Wl0olEA2Z5y0b4ZzM55c4NUMLumqSDquoTuoaN3qt+5K65oNhbSzT42eMXe9AJGig8Iuu0bWZOSZ7t5/AhpvWYTg0BAKEeOKMEMwWzFqJGTUXa08X2df9YN8baGxV6a7MYpg1Y5m41Ek+PH3mtJSRTlkH4HRahRzFYR8JRmUvoSvdbS8BpVjj9j7RBojGlNQuv55hCF0uVUZ6JDiMQhaB6u5G64kGtYGmSO4zsjvoumVqogXhoFU8C55inoA1NYBSFvC6M6YsES8JPQIKIByFy0mGegpUtTOUAcltcPs8qK6YDabVjcQ7EYkkkOeQukoY7Y9KuCeRisPrKUTVhHmiMulyuySEc/R4HbxenvRUxF5lq3Aus56AA8HBaYjHu+Ev6oPFyiJOrFiXgp2nZ6EppFCQXyY6CMkUqzl6MDg8hGONBxEIqBREdRJnKMACeyqFycEoLusM4p0SL04XOBFjuZQkwwaqvgLXLj8XGbXhvoe+gUsuuwRb396OI4cO48hhVazJmS61zpBZhNwVSwo1znxYIxYcOdUNFCjQlZnEY6cLIZXCV+7+b5gw5QJ8eng/Nr22CZ0tHfCVpuB2U4pZqTNylfHwy9/nFJQjPppAQ38vLMx0SE/xuDiSVK5yImlFbfVc2K0sMsfQoFM8jo0tB8SDQCUlrg2GbSIRJf2cjLgQHLTA4QvCwfdI/qTK9qDUiWRvJi2YOf1iDA2PSjVHX0UKFVX5Y9Od6yq7EJHxIrVMfAW5Sopiq5hFZLJWR1niXifFbFPicbo2eGYUTB3MbrwHKzbqQYJewZXX4Oe4LnXWhM/HXH1dY6hBZzsZko1leB8yAYKImfn9wq3TeS7+3HseQ/UMKTKcpAMItC8rrrkew8MjYwDBCEWuXLUK66+9Rh5JEdHPgjYCLvKZ+HeKJjEES5G4ocHx4ksECO5sIY+sL0lF2gmXl4stlHtdf99ZoSSGGBr2KA4C47lkcZ6PTPKfqyMNghhdsO9sexPTCBCK8oSDYJBVVNph7h2pAc7y1NlN4kRpkk72xqcMYm5Z6bGJaqIqSKTNwk7aliHowRSjghLF+uC9+HzaUsg8FTkoEZr7/JzgJOvoNm3RMadimQY9C4dAszEzTDGs0y7g87EmuyPXEHB7N3Mn8juVTfRJAafsNsp0tk4lkZ07MLnCJ3veJUBYD6stpfrDOOanv7wsDBYTySiSxfkpaDcWF7crawfQkhPUUtiIbsZwZASl5cWyMI35zGsRHLJ/o+HoGN/AiOEr/gF5A9wwCWQ46ehpU7nY/Mk0pEB+vlyX12KYgxsijRjz46U+YFqzQdInrarAl9FISBP+RHo3I7mT7nqe9P1UcIzF5MRvVGo0yInG59kXKgVWSXnzeY1wUnCAee7caJQ8NElyFA4rKCyUfuE4G4CHniaOMTcdeimEvJlxYmSp51hYbR5GISCecNnCo2EkEEdhYYE8bx7HQ76rmst01Qv/Im3ypU+SKXkGgoJsxTtW1TvR3oE1G64VHYSOkx0oLy8TEp/0pRAprWnwkwAllNO7e1qrIXeq0diVuSslU2PvkU9Q33gUb7z+Brrau7B67RUIjYyOPW/mpy0EhrJ4leeAAkaUuCYZkeE09ZLSpqAIFyVv3V5WfkrB6VSHB4M4yn9L/6Xtg7EhydyNx4VUy1x2o6kxSaGrsxONx1tyAALfx7mr0z/ga1r1w7QdUqWZNXwg1lMZzU1X5PU4z3Spj3yN4V/aw2wbRdd/QakCTjoDYEaq5PPpKt7yGpR0N/p+3FiJbdAXi5J+Sld1zAQILB1AIP6frRukN2jn91cSGw1yY3aIgVcYGolgMJirlnt+V4fMIbPwzvkABN6nYKofganKW2VZdcdsOd5xc2KMqqdtFBMKLpACM0zJ+ks3np6oNNVyqg7lNR64fHacOjGIARbuiOuFMvLkNJg76VVcnPoC+s+ZFSkRFGuCtAkOJPNARxLiHzP+ngkQHE5zcOBw6kuoSjWywYiW9OPy5sGvkWrmeHEz0rGWGe8n4UcHHChe5HLrVRQZj9KVi+W9Siu98OXnEpm4OfV0BE0/p8vCIEC46Zb1SKToPmXYhMdQtbUoshxzc5Xbkh4ddjc3dIZKhNMRUxuuuPcNMSGSjVw2+AM+hMMReS/RtriKaWRZ8zxdGnycMRdBorRFzRhTbow03Y70Buv1+SSTQpzJFsUlSKbUaVyFtETS56yML4FHevIYlzU+Kw7z9GvMwCCpMH2hsX4QMmXauDNmaFRfE7AT46arTvf0BsomkpaTNjYEKkqGoxFxY8cICNILXH13xeIXAa70K3ydmz5Depw3BvAxdk0CMIJEj9ejgBI38vTYMSWSz5TNeJfrWyyiAKjGS4F0cdlbrOjq7MGNd9wstRjqjx2XMuHkHbA/DOIY+ykaicLpUoRVI8yWCZaplsnf+d48m0O+USg8KsTRLb/ZgpMtJ7B02QI1H4wvnmHw5DmprJhBSGPfSq0GKXKmCJxMUSTgMdIcOS5Gf/PZxjx8IrSkRt34vwEwJPSZZWwJhLiZtDS2IlCJcR4EuUaK5eb1aqW0X4FiZlbkbs4G0NbZdq4Hs3g/T+m6zZ62hiBB0hyzGkEFQUI2AVG9zcSTkM7D16drk2gYE+9JdjMPNyhPFj0JDDv0NKRQFKjENSvVifwv3ehF+Oj9XQgNduPCKcorRA4CG+dHZ29ueuf5PiP7mVwEXTtfgGD32DHh0lI4PDZYVt05O0X2fuYAHnyvF6tXrUFNda7U5Pk+6Od9H7kIb7/zJmZedtY1L4ObZrpnXpcLmJXAWPQou3HxEG3qTvpCbnGr3PnspngAdq0bjidDMwEP5anQf+vPAw64T9Clr1t0XPz0TOjJQ4osqOuP0DAXluYhLYDPr3dJ8mQjIiwaQMTvNTE9wbPvR4Oh9VSk36gDCB+80ySgR3visKQ3Q417lNcK06OjeUZDBEo3MpxXOqKoLFRRF9WHRtSmrLkiT+omFfO4y5gWVcnYkM973aRZ3NqQFMmKmpodvDaf20xDg6/rDbnqCx2w5GfsTvaH/pQYF4+fPsWOvnRdD8fCCdx8+62YPX829n68VzZvggSuMRKyrFZ6lxSooKuVJ3qCG6YJZja+3+F0SW45tU+Yekx5bHp/mutbUF93DPmlFMzSHyCM/tB9NVXNUT9acljROsn1csHGVQRIaTokEopj6vxSlE86G2I4e2dymvS6I758pykRWXLc02spGhpvL3g97ViziiPrsWgIiKLOyLoMGkPBjd6vqVjL76DIcib9yKJxWu+D8iQQAGY22kpej4cdkzpLEu4b7Img7fAwvnrvA+e93P6cbyRn4PDenZiTwSnJvP7RtjPoH/r8XoQCnwN2sw44ny/CfXVGAGUzArCs/fKF2uHprA9iuF9T1EPGRD+iWiW+NDPYzNjK82YYW7JZq2b7ZZMQV2S6qFLuRm4B1fe4mWc3foaFTHTpNnS/MD1GF4fj8xNs6IwkT9E0uub6A/puyXOQRJO7mwjZyiSswMU5wnhbNHcz5+LML3KrlKqsJkaSMTrN8NBzoNNf54bB78yiH7nXUxuvzhvBcMSkmoBWJ4GeijPdIS0RU2aPycY73B82TbvkJqQba15vZChqyuouKGWVPWasj+8UYWEPx0xTslRGRu5q4undV8SSyLljKtXy+pjSmPs5CTFl1gs+n4UqjPDcctyyZKwW8LvpgAo3LjK/dY12w8xVLGCK5c01LRKJS3qdrhGsmtUjIbjM1nc3rqHc0rmd1d0+hNiIU+SbeYJmo2eBjdkLymQoToARDpH0REPoI+MhJWTE0IudVSiTohTIFhoJSanwS9cyTTNpOle52Xt89Fplk/RSymupAQIEHAO93Cxze4t2jeXodU14BZo1z7/nuVhbQC+OZhSR045NsVtChzlrm6DaBAjw+cMh/dhIIaaAQ2s/Cbh5gMr53unwKu2drilPW25nqbCszbRCL+ePzkYqEHxukMDnOPb+2foHxnPpOBgy3xh2Y7qsCfDTSvGz5Hwi104UBRyYVTWem5bZL6f7Q2jsGDAFTp9lOsjT8aezFT7rvWav2wvy4K725AIEIQwxVSuWW+2P6Ssy+FljybVLMoou9iFuXBHW0E8AI1ZpPCjvLeCA7rOwXs+fG64qo5y7YETEZyiqFfIQ94uOkcsQixCMTIh70SSG+vTa5XwGtSD0R0pVK0FjKBhnM6nCxe/AFBMdDKPcu658Mu+gXNS592LmBRe8rtGwi6RmjgVRVzRD925fHlwmLGWOm85NyUcjcDM7icqi1nQWx81jYpR4rWB/WJ/FYbWApyitngNJYVKTIrfDJGYv/ZX7WqDEjRJmpmjGlN4ZFs8xa2ZEKO5rRtgh+7OyiWqNZxog6DwqrPw5qN/M2Zc6vgjvS89CcaXecLGSqE7Zjp8jga2wTF+xVTJ2TPg6BKy6GDr7kax6E1sshYOYOps7ZVM43Tms9boJgUsEwc4OHP9NMSDaGgJyXaMt4hzSjZ2oNJqc1FgKORTUX5PqgWZqp1QhNdukSJ7lCTi7GRuidn2zSma5kibPbrQzBHC6xg1PxyvgmEiNBY0+Aq9DrhLrs2hBAnkMJuToc4EEArHc6oxq6SrhKI0rR/hl5/CIpSwSbshuBOT665EUbDfdI6ghlK0sa0sBJcO5hEsB6eco0cxshqOtZxDWgMXz2fC5xvM9DlPi+Plcg0xd11Qv/gPpVSJo8/y5xAAAAABJRU5ErkJggg==;shadow=1;" vertex="1" parent="1">
                    <mxGeometry x="320" y="120" width="520" height="301" as="geometry"/>
                </mxCell>
                <mxCell id="6" value="" style="whiteSpace=wrap;html=1;shadow=0;fillColor=none;strokeColor=#FF0000;strokeWidth=3;" vertex="1" parent="1">
                    <mxGeometry x="320" y="140" width="90" height="30" as="geometry"/>
                </mxCell>
            </root>
        </mxGraphModel>
    </diagram>
</mxfile>